<?xml version="1.0" encoding="utf-8"?>
<!-- Generator: Adobe Illustrator 17.0.0, SVG Export Plug-In . SVG Version: 6.00 Build 0)  -->
<!DOCTYPE svg PUBLIC "-//W3C//DTD SVG 1.1//EN" "http://www.w3.org/Graphics/SVG/1.1/DTD/svg11.dtd">
<svg version="1.1" id="Capa_1" xmlns="http://www.w3.org/2000/svg" xmlns:xlink="http://www.w3.org/1999/xlink" x="0px" y="0px"
	 width="68.03px" height="68.03px" viewBox="0 0 68.03 68.03" enable-background="new 0 0 68.03 68.03" xml:space="preserve">
<g id="fondo">
</g>
<g>
	<path fill="#3AAA35" d="M68.03,60.03c0,4.418-3.582,8-8,8H8c-4.418,0-8-3.582-8-8V8c0-4.418,3.582-8,8-8h52.03c4.418,0,8,3.582,8,8
		V60.03z"/>
	<g>
		<path fill="#FFFFFF" d="M16.505,32.375c4.863,0,8.801-3.938,8.801-8.795s-3.938-8.795-8.801-8.795c-4.849,0-8.79,3.938-8.79,8.795
			C7.715,28.437,11.656,32.375,16.505,32.375z"/>
		<path fill="#FFFFFF" d="M8.674,53.246h15.901l0.77-14.985l12.344-1.628c0.645,0.544,1.457,0.885,2.35,0.885
			c1.977,0,3.581-1.604,3.754-3.653l4.815,2.35V17.976l-12.835,6.325h-4.455v5.547h4.258l1.751,0.855
			c-0.445,0.482-0.765,1.084-0.935,1.753l-11.036,1.242h-5.649l-3.352,3.89l-3.24-3.89l-7.09,1.719l-0.49,15.411h3.016L8.674,53.246
			z"/>
		<path fill="#FFFFFF" d="M52.299,32.895l1.218,1.215c1.439-1.628,2.347-3.746,2.347-6.091c0-2.395-0.941-4.562-2.441-6.205
			l-1.218,1.215c1.191,1.332,1.942,3.069,1.942,4.99C54.143,29.889,53.432,31.584,52.299,32.895z"/>
		<path fill="#FFFFFF" d="M54.91,35.503l1.212,1.218c2.108-2.297,3.402-5.345,3.402-8.699c0-3.408-1.338-6.501-3.501-8.809
			l-1.215,1.218c1.854,1.996,3,4.66,3,7.594C57.809,30.899,56.703,33.523,54.91,35.503z"/>
		<path fill="#FFFFFF" d="M57.215,37.813l1.212,1.215c2.699-2.888,4.364-6.754,4.364-11.007c0-4.308-1.705-8.217-4.463-11.116
			l-1.212,1.215c2.449,2.587,3.954,6.07,3.954,9.901C61.078,31.805,59.605,35.237,57.215,37.813z"/>
	</g>
</g>
</svg>
