<?xml version="1.0" encoding="utf-8"?>
<!-- Generator: Adobe Illustrator 17.0.0, SVG Export Plug-In . SVG Version: 6.00 Build 0)  -->
<!DOCTYPE svg PUBLIC "-//W3C//DTD SVG 1.1//EN" "http://www.w3.org/Graphics/SVG/1.1/DTD/svg11.dtd">
<svg version="1.1" id="Capa_1" xmlns="http://www.w3.org/2000/svg" xmlns:xlink="http://www.w3.org/1999/xlink" x="0px" y="0px"
	 width="200px" height="200px" viewBox="2183.855 1378.689 200 200" enable-background="new 2183.855 1378.689 200 200"
	 xml:space="preserve">
<g>
	<g>
		<path fill="#FFFFFF" d="M2353.847,1520.47c4.87,0,8.832-3.946,8.832-8.827c0-4.886-3.946-8.832-8.832-8.832
			c-4.892,0-8.843,3.94-8.843,8.832C2345.004,1516.519,2348.955,1520.47,2353.847,1520.47z"/>
		<circle fill="#FFFFFF" cx="2305.989" cy="1511.638" r="8.827"/>
		<circle fill="#FFFFFF" cx="2259.796" cy="1510.8" r="8.827"/>
		<circle fill="#FFFFFF" cx="2213.831" cy="1510.8" r="8.827"/>
		<circle fill="#FFFFFF" cx="2352.658" cy="1539.242" r="12.708"/>
		<polygon fill="#FFFFFF" points="2368.987,1557.344 2358.75,1553.852 2354.058,1559.479 2349.231,1553.852 2337.993,1557.344 
			2337.993,1578.343 2369.7,1578.343 		"/>
		<circle fill="#FFFFFF" cx="2305.989" cy="1539.242" r="12.708"/>
		<polygon fill="#FFFFFF" points="2310.892,1553.852 2306.211,1559.479 2301.373,1553.852 2290.147,1557.344 2290.147,1578.343 
			2321.826,1578.343 2321.124,1557.344 		"/>
		<circle fill="#FFFFFF" cx="2328.345" cy="1521.518" r="9.286"/>
		<path fill="#FFFFFF" d="M2337.637,1532.205h-2.265h-3.449l-3.411,4.119l-3.535-4.119h-3.643h-2.038
			c0.94,2.167,1.47,4.546,1.47,7.043c0,4.076-1.443,7.827-3.773,10.881h22.939l-0.011-0.568c-1.654-3.13-2.816-6.519-2.816-10.302
			c0-2.497,0.676-4.805,1.438-7.048h-0.908V1532.205z"/>
		<circle fill="#FFFFFF" cx="2260.521" cy="1539.604" r="12.708"/>
		<polygon fill="#FFFFFF" points="2265.429,1554.209 2260.731,1559.825 2255.894,1554.209 2244.684,1557.69 2244.684,1578.689 
			2276.363,1578.689 2275.661,1557.69 		"/>
		<circle fill="#FFFFFF" cx="2282.882" cy="1521.87" r="9.297"/>
		<path fill="#FFFFFF" d="M2294.471,1549.912c-1.654-3.124-2.811-6.524-2.811-10.302c0-2.492,0.67-4.805,1.427-7.054h-0.903h-2.265
			h-3.448l-3.427,4.119l-3.535-4.119h-3.638h-2.038c0.946,2.178,1.486,4.551,1.486,7.043c0,4.086-1.443,7.821-3.8,10.891h22.961
			L2294.471,1549.912z"/>
		<path fill="#FFFFFF" d="M2213.852,1552.307c7.005,0,12.697-5.703,12.697-12.713s-5.692-12.708-12.697-12.708
			c-7.032,0-12.724,5.697-12.724,12.708S2206.82,1552.307,2213.852,1552.307z"/>
		<polygon fill="#FFFFFF" points="2218.755,1554.209 2214.068,1559.825 2209.22,1554.209 2198.01,1557.69 2198.01,1578.689 
			2229.695,1578.689 2228.987,1557.69 		"/>
		<circle fill="#FFFFFF" cx="2236.214" cy="1521.87" r="9.297"/>
		<path fill="#FFFFFF" d="M2247.813,1550.485l-0.011-0.573c-1.654-3.124-2.816-6.524-2.816-10.302c0-2.492,0.676-4.805,1.427-7.054
			h-0.897h-2.281h-3.432l-3.427,4.119l-3.541-4.119h-3.638h-2.021c0.935,2.178,1.465,4.551,1.465,7.043
			c0,4.086-1.432,7.821-3.789,10.891h22.961V1550.485z"/>
	</g>
	<g>
		<path fill="#FFFFFF" d="M2208.23,1437.779c10.633,0,19.244-8.611,19.244-19.233c0-10.621-8.611-19.232-19.244-19.232
			c-10.604,0-19.221,8.611-19.221,19.232C2189.01,1429.167,2197.627,1437.779,2208.23,1437.779z"/>
		<path fill="#FFFFFF" d="M2191.107,1483.416h34.771l1.684-32.767l26.993-3.56c1.41,1.189,3.187,1.934,5.139,1.934
			c4.323,0,7.83-3.507,8.209-7.988l10.528,5.139v-39.881l-28.065,13.832h-9.741v12.13h9.31l3.828,1.87
			c-0.973,1.055-1.672,2.371-2.045,3.834l-24.132,2.715h-12.352l-7.33,8.506l-7.085-8.506l-15.504,3.758l-1.072,33.699h6.595
			L2191.107,1483.416z"/>
		<path fill="#FFFFFF" d="M2286.5,1438.915l2.663,2.657c3.146-3.56,5.133-8.192,5.133-13.319c0-5.238-2.057-9.974-5.337-13.569
			l-2.663,2.657c2.604,2.913,4.247,6.712,4.247,10.913C2290.532,1432.343,2288.977,1436.048,2286.5,1438.915z"/>
		<path fill="#FFFFFF" d="M2292.21,1444.619l2.651,2.663c4.609-5.022,7.44-11.688,7.44-19.023c0-7.452-2.925-14.216-7.656-19.262
			l-2.657,2.663c4.055,4.364,6.56,10.19,6.56,16.605C2298.549,1434.551,2296.131,1440.29,2292.21,1444.619z"/>
		<path fill="#FFFFFF" d="M2297.25,1449.67l2.651,2.657c5.902-6.316,9.543-14.77,9.543-24.068c0-9.421-3.729-17.968-9.759-24.307
			l-2.651,2.657c5.354,5.657,8.646,13.272,8.646,21.65C2305.698,1436.532,2302.476,1444.036,2297.25,1449.67z"/>
	</g>
	<g>
		<path fill="#FFFFFF" d="M2354.697,1436.215c15.865,0,28.769-12.897,28.769-28.769c0-15.859-12.897-28.757-28.769-28.757
			c-15.859,0-28.769,12.897-28.769,28.763C2325.928,1423.318,2338.838,1436.215,2354.697,1436.215z M2354.697,1381.283
			c14.441,0,26.17,11.735,26.17,26.17c0,14.435-11.729,26.17-26.17,26.17c-14.435,0-26.164-11.741-26.164-26.17
			S2340.262,1381.283,2354.697,1381.283z"/>
		<path fill="#FFFFFF" d="M2345.824,1388.531l-1.056-2.112l-1.162,0.587l1.075,2.118
			C2345.049,1388.906,2345.436,1388.712,2345.824,1388.531z"/>
		<path fill="#FFFFFF" d="M2333.682,1407.883c0-0.437,0.044-0.869,0.075-1.293h-3v2.599h2.993
			C2333.72,1408.765,2333.682,1408.327,2333.682,1407.883z"/>
		<path fill="#FFFFFF" d="M2356.528,1386.406v-2.981h-2.599v2.987c0.425-0.025,0.862-0.069,1.3-0.069
			C2355.666,1386.344,2356.097,1386.382,2356.528,1386.406z"/>
		<path fill="#FFFFFF" d="M2377.33,1398.029l-0.594-1.156l-2.356,1.193c0.194,0.387,0.387,0.769,0.575,1.175L2377.33,1398.029z"/>
		<path fill="#FFFFFF" d="M2369.025,1388.331l-1.1-0.712l-1.293,2.018c0.369,0.231,0.731,0.469,1.081,0.719L2369.025,1388.331z"/>
		<path fill="#FFFFFF" d="M2337.575,1395.561l-2.112-1.443l-0.744,1.075l2.143,1.469
			C2337.101,1396.286,2337.325,1395.911,2337.575,1395.561z"/>
		<path fill="#FFFFFF" d="M2364.095,1427.511l1.587,3.162l1.175-0.6l-1.587-3.124
			C2364.883,1427.148,2364.489,1427.323,2364.095,1427.511z"/>
		<path fill="#FFFFFF" d="M2375.73,1421.899l-2.718-1.875c-0.244,0.369-0.512,0.694-0.781,1.05l2.75,1.9L2375.73,1421.899z"/>
		<path fill="#FFFFFF" d="M2376.774,1407.883c0,0.444-0.05,0.881-0.075,1.306h2.993v-2.599h-2.993
			C2376.724,1407.015,2376.774,1407.446,2376.774,1407.883z"/>
		<path fill="#FFFFFF" d="M2353.928,1429.36v2.993h2.599v-2.993c-0.431,0.025-0.862,0.075-1.3,0.075
			C2354.791,1429.435,2354.353,1429.385,2353.928,1429.36z"/>
		<path fill="#FFFFFF" d="M2344.424,1426.505c-0.387-0.219-0.756-0.431-1.118-0.669l-1.881,2.918l1.1,0.7L2344.424,1426.505z"/>
		<path fill="#FFFFFF" d="M2336.001,1417.588l-2.874,1.456l0.594,1.169l2.912-1.487
			C2336.413,1418.356,2336.195,1417.969,2336.001,1417.588z"/>
		<polygon fill="#FFFFFF" points="2354.316,1409.171 2368.307,1409.171 2368.307,1406.603 2356.14,1406.603 2356.14,1388.681 
			2354.31,1388.681 2354.31,1406.603 2354.31,1407.452 2354.31,1408.602 2343.462,1420.512 2343.749,1420.768 		"/>
	</g>
</g>
</svg>
