<?xml version="1.0" encoding="utf-8"?>
<!-- Generator: Adobe Illustrator 17.0.0, SVG Export Plug-In . SVG Version: 6.00 Build 0)  -->
<!DOCTYPE svg PUBLIC "-//W3C//DTD SVG 1.1//EN" "http://www.w3.org/Graphics/SVG/1.1/DTD/svg11.dtd">
<svg version="1.1" id="Capa_1" xmlns="http://www.w3.org/2000/svg" xmlns:xlink="http://www.w3.org/1999/xlink" x="0px" y="0px"
	 width="59.528px" height="59.528px" viewBox="0 0 59.528 59.528" enable-background="new 0 0 59.528 59.528" xml:space="preserve">
<g>
	<rect x="22.571" y="49.161" fill="#6AA842" width="14.726" height="2.931"/>
	<polygon fill="#6AA842" points="22.571,57.001 26.396,57.001 26.396,59.528 33.469,59.528 33.469,57.001 37.297,57.001 
		37.297,54.068 22.571,54.068 	"/>
	<path fill="#6AA842" d="M29.932,13.162c-9.048,0-16.385,7.336-16.385,16.386c0,6.257,3.507,11.692,8.662,14.453v2.655h14.727
		v-2.294c5.546-2.626,9.385-8.271,9.385-14.815C46.319,20.498,38.983,13.162,29.932,13.162z M30.049,40.368l-0.117-0.117
		l-0.116,0.117l-7.325-7.324l2.227-2.227l5.214,5.218l5.22-5.218l2.224,2.227L30.049,40.368z"/>
	<path fill="#6AA842" d="M29.932,9.788c1.592,0,2.879-1.289,2.879-2.879v-4.03c0-1.59-1.287-2.878-2.879-2.878
		c-1.588,0-2.878,1.289-2.878,2.878v4.03C27.054,8.499,28.344,9.788,29.932,9.788z"/>
	<path fill="#6AA842" d="M39.61,12.578c1.368,0.815,3.134,0.365,3.946-1.003l2.061-3.465c0.812-1.366,0.362-3.133-1.005-3.945
		c-1.365-0.813-3.131-0.364-3.945,1.004l-2.061,3.462C37.793,10,38.244,11.766,39.61,12.578z"/>
	<path fill="#6AA842" d="M50.407,21.076l3.543-1.925c1.395-0.76,1.912-2.508,1.154-3.904c-0.76-1.398-2.508-1.915-3.904-1.155
		l-3.541,1.925c-1.396,0.76-1.912,2.508-1.155,3.904C47.262,21.319,49.01,21.833,50.407,21.076z"/>
	<path fill="#6AA842" d="M55.689,27.144l-4.026-0.154c-1.59-0.06-2.927,1.177-2.988,2.766c-0.06,1.588,1.178,2.927,2.768,2.987
		l4.026,0.154c1.588,0.061,2.926-1.178,2.987-2.766C58.517,28.543,57.279,27.205,55.689,27.144z"/>
	<path fill="#6AA842" d="M52.878,40.658l-3.379-2.19c-1.336-0.865-3.116-0.482-3.983,0.851c-0.864,1.333-0.484,3.116,0.851,3.983
		l3.383,2.19c1.333,0.865,3.116,0.482,3.981-0.853C54.595,43.305,54.215,41.523,52.878,40.658z"/>
	<path fill="#6AA842" d="M15.968,11.575c0.815,1.368,2.581,1.817,3.947,1.003c1.365-0.813,1.814-2.578,1.003-3.946l-2.061-3.462
		c-0.813-1.369-2.58-1.817-3.945-1.004c-1.366,0.813-1.816,2.58-1.003,3.945L15.968,11.575z"/>
	<path fill="#6AA842" d="M5.578,19.15l3.54,1.925c1.398,0.759,3.148,0.245,3.905-1.155c0.761-1.396,0.242-3.145-1.155-3.904
		l-3.541-1.925c-1.396-0.761-3.145-0.244-3.904,1.155C3.663,16.643,4.18,18.391,5.578,19.15z"/>
	<path fill="#6AA842" d="M10.852,29.756c-0.063-1.59-1.398-2.826-2.988-2.766l-4.026,0.154c-1.588,0.061-2.828,1.399-2.765,2.987
		c0.06,1.588,1.395,2.828,2.986,2.766l4.028-0.154C9.672,32.682,10.913,31.344,10.852,29.756z"/>
	<path fill="#6AA842" d="M10.028,38.467l-3.381,2.19c-1.335,0.866-1.716,2.647-0.851,3.981c0.865,1.333,2.647,1.718,3.981,0.853
		l3.382-2.19c1.333-0.866,1.716-2.648,0.853-3.983C13.146,37.985,11.364,37.602,10.028,38.467z"/>
</g>
</svg>
