<?xml version="1.0" encoding="utf-8"?>
<!-- Generator: Adobe Illustrator 17.0.0, SVG Export Plug-In . SVG Version: 6.00 Build 0)  -->
<!DOCTYPE svg PUBLIC "-//W3C//DTD SVG 1.1//EN" "http://www.w3.org/Graphics/SVG/1.1/DTD/svg11.dtd">
<svg version="1.1" id="Capa_1" xmlns="http://www.w3.org/2000/svg" xmlns:xlink="http://www.w3.org/1999/xlink" x="0px" y="0px"
	 width="59.528px" height="59.528px" viewBox="0 0 59.528 59.528" enable-background="new 0 0 59.528 59.528" xml:space="preserve">
<g>
	<path fill="#6AA842" d="M59.528,59.528H0V0h7.169v6.916h3.107V0h6.439v6.916h4.081V0h6.436v6.916h4.084V0h6.437v6.916h4.082V0
		h6.438v6.916h4.081V0h7.173V59.528z M0.983,58.544h57.561V0.983h-5.206v6.916H47.29V0.983h-4.471v6.916H36.77V0.983H32.3v6.916
		H26.25V0.983H21.78v6.916h-6.048V0.983H11.26v6.916H6.185V0.983H0.983V58.544z"/>
	<rect x="6.284" y="12.862" fill="#6AA842" width="46.756" height="10.327"/>
	<rect x="6.284" y="48.905" fill="#6AA842" width="5.066" height="5.065"/>
	<rect x="6.284" y="42.086" fill="#6AA842" width="5.066" height="5.065"/>
	<rect x="6.284" y="35.266" fill="#6AA842" width="5.066" height="5.066"/>
	<rect x="13.3" y="48.905" fill="#6AA842" width="5.066" height="5.065"/>
	<rect x="13.3" y="42.086" fill="#6AA842" width="5.066" height="5.065"/>
	<rect x="13.3" y="35.266" fill="#6AA842" width="5.066" height="5.066"/>
	<rect x="20.314" y="48.905" fill="#6AA842" width="5.065" height="5.065"/>
	<rect x="20.314" y="42.086" fill="#6AA842" width="5.065" height="5.065"/>
	<rect x="20.314" y="35.266" fill="#6AA842" width="5.065" height="5.066"/>
	<rect x="20.314" y="28.253" fill="#6AA842" width="5.065" height="5.066"/>
	<rect x="27.326" y="48.905" fill="#6AA842" width="5.065" height="5.065"/>
	<rect x="27.326" y="42.086" fill="#6AA842" width="5.065" height="5.065"/>
	<rect x="27.326" y="35.266" fill="#6AA842" width="5.065" height="5.066"/>
	<rect x="27.326" y="28.253" fill="#6AA842" width="5.065" height="5.066"/>
	<rect x="34.339" y="48.905" fill="#6AA842" width="5.065" height="5.065"/>
	<rect x="34.339" y="42.086" fill="#6AA842" width="5.065" height="5.065"/>
	<rect x="34.339" y="35.266" fill="#6AA842" width="5.065" height="5.066"/>
	<rect x="34.339" y="28.253" fill="#6AA842" width="5.065" height="5.066"/>
	<rect x="41.353" y="42.086" fill="#6AA842" width="5.066" height="5.065"/>
	<rect x="41.353" y="35.266" fill="#6AA842" width="5.066" height="5.066"/>
	<rect x="41.353" y="28.253" fill="#6AA842" width="5.066" height="5.066"/>
	<rect x="48.367" y="42.086" fill="#6AA842" width="5.065" height="5.065"/>
	<rect x="48.367" y="35.266" fill="#6AA842" width="5.065" height="5.066"/>
	<rect x="48.367" y="28.253" fill="#6AA842" width="5.065" height="5.066"/>
</g>
</svg>
