<?xml version="1.0" encoding="utf-8"?>
<!-- Generator: Adobe Illustrator 17.0.0, SVG Export Plug-In . SVG Version: 6.00 Build 0)  -->
<!DOCTYPE svg PUBLIC "-//W3C//DTD SVG 1.1//EN" "http://www.w3.org/Graphics/SVG/1.1/DTD/svg11.dtd">
<svg version="1.1" id="Capa_1" xmlns="http://www.w3.org/2000/svg" xmlns:xlink="http://www.w3.org/1999/xlink" x="0px" y="0px"
	 width="59.528px" height="59.528px" viewBox="0 0 59.528 59.528" enable-background="new 0 0 59.528 59.528" xml:space="preserve">
<g opacity="0.5">
	<g>
		<path fill="#6AA842" d="M40.827,3.947l-3.354-3.354c-0.01-0.01-0.023-0.013-0.034-0.022c-0.095-0.094-0.207-0.169-0.329-0.224
			c-0.009,0-0.019,0-0.029-0.007c-0.114-0.043-0.234-0.066-0.356-0.069c-0.036,0-0.07,0-0.112,0.006
			c-0.097,0.005-0.192,0.024-0.284,0.055c-0.036,0.012-0.07,0.022-0.105,0.038c-0.124,0.054-0.238,0.129-0.335,0.224l-3.354,3.354
			c-0.429,0.444-0.417,1.152,0.028,1.581c0.433,0.418,1.12,0.418,1.553,0l1.448-1.445v9.598H19.914
			c-0.617,0-1.118,0.501-1.118,1.118v14.533H4.263c-0.617,0-1.118,0.501-1.118,1.118v20.123c0,0.617,0.501,1.118,1.118,1.118
			s1.118-0.501,1.118-1.118V31.567h14.533c0.617,0,1.118-0.501,1.118-1.118V15.917h15.651c0.617,0,1.118-0.501,1.118-1.118V4.082
			l1.445,1.445c0.444,0.429,1.152,0.417,1.581-0.027C41.246,5.067,41.246,4.38,40.827,3.947z"/>
	</g>
</g>
<g>
	<g>
		<path fill="#6AA842" d="M4.263,53.926c-0.617,0-1.118,0.501-1.118,1.118v3.354c0,0.617,0.501,1.118,1.118,1.118
			s1.118-0.501,1.118-1.118v-3.354C5.381,54.426,4.881,53.926,4.263,53.926z"/>
	</g>
</g>
<g>
	<path fill="#6AA842" d="M4.62,59.333c0.441,0.427,1.511,0.404,1.976-0.227c0.465-0.631,0.326-1.417-0.117-1.916
		c-0.443-0.499-1.113-1.012-1.232-1.574c-0.119-0.562,0.062-1.064,0.378-1.613c0.316-0.549,0.875-1.292,0.501-1.988
		c-0.374-0.696-1.422-0.968-2.387-0.5c-0.965,0.467-1.363,1.075-1.391,1.737c-0.028,0.662,0.456,1.817,0.94,2.589
		c0.485,0.773,0.527,1.446,0.682,2.022C4.125,58.44,4.127,58.856,4.62,59.333"/>
	<path fill="#6AA842" d="M1.843,51.68c0.176-0.06,0.388,0.093,0.472,0.342C2.4,52.27,2.325,52.52,2.149,52.58
		c-0.176,0.06-0.388-0.093-0.472-0.342C1.593,51.99,1.667,51.739,1.843,51.68"/>
	<path fill="#6AA842" d="M2.445,50.728c0.199-0.054,0.423,0.13,0.499,0.412c0.076,0.281-0.024,0.553-0.223,0.607
		c-0.199,0.054-0.423-0.13-0.499-0.412C2.146,51.053,2.246,50.782,2.445,50.728"/>
	<path fill="#6AA842" d="M3.327,50.025c0.227-0.04,0.457,0.188,0.513,0.509c0.056,0.321-0.083,0.613-0.311,0.652
		c-0.227,0.04-0.457-0.188-0.513-0.509C2.96,50.356,3.099,50.064,3.327,50.025"/>
	<path fill="#6AA842" d="M4.424,49.668c0.245-0.031,0.48,0.224,0.524,0.569c0.044,0.346-0.119,0.651-0.364,0.683
		c-0.245,0.031-0.48-0.224-0.524-0.569C4.016,50.005,4.179,49.699,4.424,49.668"/>
	<path fill="#6AA842" d="M5.82,49.347c0.339,0.001,0.612,0.389,0.611,0.866c-0.001,0.477-0.277,0.864-0.616,0.863
		c-0.339-0.001-0.612-0.389-0.611-0.866C5.206,49.732,5.482,49.346,5.82,49.347"/>
</g>
<g>
	<path fill="#6AA842" d="M4.861,45.299c0.441,0.427,1.511,0.404,1.976-0.227c0.465-0.631,0.326-1.417-0.117-1.916
		c-0.443-0.499-1.113-1.012-1.232-1.574c-0.119-0.562,0.062-1.064,0.378-1.613c0.316-0.549,0.875-1.292,0.501-1.988
		c-0.374-0.696-1.422-0.968-2.387-0.5c-0.965,0.467-1.363,1.075-1.391,1.737c-0.028,0.662,0.456,1.817,0.94,2.589
		c0.485,0.773,0.527,1.446,0.682,2.022C4.365,44.405,4.367,44.822,4.861,45.299"/>
	<path fill="#6AA842" d="M2.084,37.645c0.176-0.06,0.388,0.093,0.472,0.342c0.085,0.249,0.01,0.499-0.166,0.559
		c-0.176,0.06-0.388-0.093-0.472-0.342C1.833,37.955,1.907,37.705,2.084,37.645"/>
	<path fill="#6AA842" d="M2.686,36.693c0.199-0.054,0.423,0.13,0.499,0.412c0.076,0.281-0.024,0.553-0.223,0.607
		c-0.199,0.054-0.423-0.13-0.499-0.412C2.386,37.019,2.486,36.747,2.686,36.693"/>
	<path fill="#6AA842" d="M3.567,35.99c0.227-0.04,0.457,0.188,0.513,0.509c0.056,0.321-0.083,0.613-0.311,0.652
		c-0.227,0.04-0.457-0.188-0.513-0.509C3.2,36.322,3.34,36.03,3.567,35.99"/>
	<path fill="#6AA842" d="M4.664,35.633c0.245-0.031,0.48,0.224,0.524,0.569c0.044,0.346-0.119,0.651-0.364,0.683
		c-0.245,0.031-0.48-0.224-0.524-0.569C4.256,35.97,4.419,35.665,4.664,35.633"/>
	<path fill="#6AA842" d="M6.061,35.312c0.339,0.001,0.612,0.389,0.611,0.866c-0.001,0.477-0.277,0.864-0.616,0.863
		c-0.339-0.001-0.612-0.389-0.611-0.866C5.447,35.697,5.722,35.311,6.061,35.312"/>
</g>
<g>
	<path fill="#6AA842" d="M6.789,30.621c-0.427,0.441-0.404,1.511,0.227,1.976c0.631,0.465,1.417,0.326,1.916-0.117
		c0.499-0.443,1.012-1.113,1.574-1.232c0.562-0.119,1.064,0.062,1.613,0.378c0.549,0.316,1.292,0.875,1.988,0.501
		c0.696-0.374,0.968-1.422,0.5-2.387c-0.467-0.965-1.075-1.363-1.737-1.391c-0.662-0.028-1.817,0.456-2.589,0.94
		c-0.773,0.485-1.446,0.527-2.022,0.682C7.682,30.125,7.266,30.127,6.789,30.621"/>
	<path fill="#6AA842" d="M14.442,27.844c0.06,0.176-0.093,0.388-0.342,0.472c-0.249,0.085-0.499,0.01-0.559-0.166
		c-0.06-0.176,0.093-0.388,0.342-0.472C14.132,27.593,14.383,27.667,14.442,27.844"/>
	<path fill="#6AA842" d="M15.394,28.446c0.054,0.199-0.13,0.423-0.412,0.499c-0.281,0.076-0.553-0.024-0.607-0.223
		c-0.054-0.199,0.13-0.423,0.412-0.499C15.069,28.146,15.341,28.246,15.394,28.446"/>
	<path fill="#6AA842" d="M16.097,29.327c0.04,0.227-0.189,0.457-0.509,0.513c-0.321,0.056-0.613-0.083-0.652-0.311
		c-0.04-0.227,0.188-0.457,0.509-0.513C15.766,28.96,16.058,29.1,16.097,29.327"/>
	<path fill="#6AA842" d="M16.454,30.424c0.031,0.245-0.224,0.48-0.569,0.524c-0.346,0.044-0.651-0.119-0.683-0.364
		c-0.031-0.245,0.224-0.48,0.569-0.524C16.117,30.016,16.423,30.179,16.454,30.424"/>
	<path fill="#6AA842" d="M16.775,31.821c-0.001,0.339-0.389,0.612-0.866,0.611c-0.477-0.001-0.864-0.277-0.863-0.616
		c0.001-0.339,0.389-0.612,0.866-0.611C16.39,31.207,16.776,31.482,16.775,31.821"/>
</g>
<g>
	<path fill="#6AA842" d="M19.879,26.901c0.441,0.427,1.511,0.404,1.976-0.227c0.465-0.631,0.326-1.417-0.117-1.916
		c-0.443-0.499-1.113-1.012-1.232-1.574c-0.119-0.562,0.062-1.064,0.378-1.613c0.316-0.549,0.875-1.292,0.501-1.988
		c-0.374-0.696-1.422-0.968-2.387-0.5c-0.965,0.467-1.363,1.075-1.391,1.737c-0.028,0.662,0.456,1.817,0.94,2.589
		c0.485,0.773,0.527,1.446,0.682,2.022C19.384,26.007,19.386,26.424,19.879,26.901"/>
	<path fill="#6AA842" d="M17.102,19.247c0.176-0.06,0.388,0.093,0.472,0.342c0.085,0.249,0.01,0.499-0.166,0.559
		c-0.176,0.06-0.388-0.093-0.472-0.342C16.851,19.557,16.926,19.307,17.102,19.247"/>
	<path fill="#6AA842" d="M17.704,18.295c0.199-0.054,0.423,0.13,0.499,0.412c0.076,0.281-0.024,0.553-0.223,0.607
		c-0.199,0.054-0.423-0.13-0.499-0.412C17.405,18.621,17.505,18.349,17.704,18.295"/>
	<path fill="#6AA842" d="M18.585,17.592c0.227-0.04,0.457,0.188,0.513,0.509c0.056,0.321-0.083,0.613-0.311,0.652
		c-0.227,0.04-0.457-0.188-0.513-0.509C18.219,17.924,18.358,17.632,18.585,17.592"/>
	<path fill="#6AA842" d="M19.683,17.235c0.245-0.031,0.48,0.224,0.524,0.569c0.044,0.346-0.119,0.651-0.364,0.683
		c-0.245,0.031-0.48-0.224-0.524-0.569C19.275,17.572,19.438,17.267,19.683,17.235"/>
	<path fill="#6AA842" d="M21.079,16.914c0.339,0.001,0.612,0.389,0.611,0.866c-0.001,0.477-0.277,0.864-0.616,0.863
		c-0.339-0.001-0.612-0.389-0.611-0.866C20.465,17.299,20.74,16.913,21.079,16.914"/>
</g>
<g>
	<path fill="#6AA842" d="M24.738,15.155c-0.427,0.441-0.404,1.511,0.227,1.976c0.631,0.465,1.417,0.326,1.916-0.117
		c0.499-0.443,1.012-1.113,1.574-1.232c0.562-0.119,1.064,0.062,1.613,0.378c0.549,0.316,1.292,0.875,1.988,0.501
		c0.696-0.374,0.968-1.422,0.5-2.387c-0.467-0.965-1.075-1.363-1.737-1.391c-0.662-0.028-1.817,0.456-2.589,0.94
		c-0.773,0.485-1.446,0.527-2.022,0.682C25.631,14.66,25.215,14.662,24.738,15.155"/>
	<path fill="#6AA842" d="M32.392,12.378c0.06,0.176-0.093,0.388-0.342,0.472c-0.249,0.085-0.499,0.01-0.559-0.166
		c-0.06-0.176,0.093-0.388,0.342-0.472C32.082,12.128,32.332,12.202,32.392,12.378"/>
	<path fill="#6AA842" d="M33.344,12.981c0.054,0.199-0.13,0.423-0.412,0.499c-0.281,0.076-0.553-0.024-0.607-0.223
		c-0.054-0.199,0.13-0.423,0.412-0.499C33.018,12.681,33.29,12.781,33.344,12.981"/>
	<path fill="#6AA842" d="M34.047,13.862c0.04,0.227-0.188,0.457-0.509,0.513c-0.321,0.056-0.613-0.083-0.652-0.311
		c-0.04-0.227,0.188-0.457,0.509-0.513C33.715,13.495,34.007,13.634,34.047,13.862"/>
	<path fill="#6AA842" d="M34.404,14.959c0.031,0.245-0.224,0.48-0.569,0.524c-0.346,0.044-0.651-0.119-0.683-0.364
		c-0.031-0.245,0.224-0.48,0.569-0.524C34.067,14.551,34.372,14.714,34.404,14.959"/>
	<path fill="#6AA842" d="M34.725,16.355c-0.001,0.339-0.389,0.612-0.866,0.611c-0.477-0.001-0.864-0.277-0.863-0.616
		c0.001-0.339,0.389-0.612,0.866-0.611C34.34,15.741,34.726,16.017,34.725,16.355"/>
</g>
<g>
	<path fill="#6AA842" d="M36.601,12.592c0.441,0.427,1.511,0.404,1.976-0.227c0.465-0.631,0.326-1.417-0.117-1.916
		c-0.443-0.499-1.113-1.012-1.232-1.574c-0.119-0.562,0.062-1.064,0.378-1.613c0.316-0.549,0.875-1.292,0.501-1.988
		c-0.374-0.696-1.422-0.968-2.387-0.5c-0.965,0.467-1.363,1.075-1.391,1.737c-0.028,0.662,0.456,1.817,0.94,2.589
		c0.485,0.773,0.527,1.446,0.682,2.022C36.106,11.699,36.108,12.115,36.601,12.592"/>
	<path fill="#6AA842" d="M33.824,4.939C34,4.879,34.212,5.032,34.296,5.28c0.085,0.249,0.01,0.499-0.166,0.559
		c-0.176,0.06-0.388-0.093-0.472-0.342C33.573,5.249,33.648,4.998,33.824,4.939"/>
	<path fill="#6AA842" d="M34.426,3.987c0.2-0.054,0.423,0.13,0.499,0.412c0.076,0.281-0.024,0.553-0.223,0.607
		c-0.199,0.054-0.423-0.13-0.499-0.412C34.127,4.312,34.227,4.04,34.426,3.987"/>
	<path fill="#6AA842" d="M35.307,3.284c0.227-0.04,0.457,0.189,0.513,0.509c0.056,0.321-0.083,0.613-0.311,0.652
		c-0.227,0.04-0.457-0.188-0.513-0.509C34.941,3.615,35.08,3.323,35.307,3.284"/>
	<path fill="#6AA842" d="M36.405,2.927c0.245-0.031,0.48,0.224,0.524,0.569c0.044,0.346-0.119,0.651-0.364,0.683
		c-0.245,0.031-0.48-0.224-0.524-0.569C35.997,3.264,36.16,2.958,36.405,2.927"/>
	<path fill="#6AA842" d="M37.801,2.606c0.339,0.001,0.612,0.389,0.611,0.866c-0.001,0.477-0.277,0.864-0.616,0.863
		c-0.339-0.001-0.612-0.389-0.611-0.866C37.187,2.991,37.463,2.605,37.801,2.606"/>
</g>
<g>
	<circle opacity="0.8" fill="#6AA842" cx="40.089" cy="35.312" r="16.247"/>
	<path fill="#F2F2F2" d="M40.089,47.497c-6.702,0-12.185-5.483-12.185-12.185s5.483-12.185,12.185-12.185
		s12.185,5.483,12.185,12.185S46.791,47.497,40.089,47.497z"/>
	<path opacity="0.8" fill="#6AA842" d="M40.089,43.435c-4.468,0-8.123-3.656-8.123-8.123s3.656-8.123,8.123-8.123
		s8.123,3.656,8.123,8.123S44.557,43.435,40.089,43.435z"/>
	<path fill="#CDD6E0" d="M40.089,39.374c-2.234,0-4.062-1.828-4.062-4.062c0-2.234,1.828-4.062,4.062-4.062s4.062,1.828,4.062,4.062
		C44.151,37.546,42.323,39.374,40.089,39.374z"/>
	<path fill="#FFFFFF" d="M40.089,39.374c-2.234,0-4.062-1.828-4.062-4.062c0-2.234,1.828-4.062,4.062-4.062s4.062,1.828,4.062,4.062
		C44.151,37.546,42.323,39.374,40.089,39.374z"/>
	<path opacity="0.2" fill="#344B5F" enable-background="new    " d="M56.201,37.343c-0.271,2.031-0.88,3.926-1.828,5.686
		l-0.88-0.338l-1.151-2.437l-12.185-4.4c-0.542-0.203-0.812-0.812-0.609-1.354c0.203-0.542,0.812-0.812,1.354-0.609l12.185,4.4
		l2.437-1.151L56.201,37.343z"/>
	<path fill="#6AA842" d="M51.192,25.631l-9.951,9.951c-0.406,0.406-1.083,0.406-1.489,0l0,0c-0.406-0.406-0.406-1.083,0-1.489
		L49.77,24.21c0.406-0.406,1.083-0.406,1.489,0l0,0C51.598,24.616,51.598,25.225,51.192,25.631z"/>
	<polygon fill="#4D8C3F" points="52.139,23.262 48.958,26.444 48.958,22.247 52.139,19.065 	"/>
	<polygon fill="#386539" points="53.155,26.444 56.336,23.262 52.139,23.262 48.958,26.444 	"/>
</g>
</svg>
