<?xml version="1.0" encoding="utf-8"?>
<!-- Generator: Adobe Illustrator 17.0.0, SVG Export Plug-In . SVG Version: 6.00 Build 0)  -->
<!DOCTYPE svg PUBLIC "-//W3C//DTD SVG 1.1//EN" "http://www.w3.org/Graphics/SVG/1.1/DTD/svg11.dtd">
<svg version="1.1" id="Capa_1" xmlns="http://www.w3.org/2000/svg" xmlns:xlink="http://www.w3.org/1999/xlink" x="0px" y="0px"
	 width="59.528px" height="59.528px" viewBox="0 0 59.528 59.528" enable-background="new 0 0 59.528 59.528" xml:space="preserve">
<g>
	<g>
		<path fill="#6AA842" d="M58.505,28.471c-0.12-0.152-3.004-3.77-7.949-7.403c-6.608-4.855-13.797-7.421-20.792-7.421
			c-6.994,0-14.184,2.566-20.792,7.421c-4.945,3.633-7.829,7.251-7.949,7.403L0,29.764l1.022,1.293
			c0.12,0.152,3.005,3.771,7.949,7.403c6.608,4.855,13.798,7.421,20.792,7.421c6.994,0,14.184-2.566,20.792-7.421
			c4.945-3.633,7.829-7.251,7.949-7.403l1.023-1.293L58.505,28.471z M29.764,41.055c-6.226,0-11.291-5.065-11.291-11.291
			c0-0.975,0.124-1.922,0.358-2.826l-2.578-0.434c-0.253,1.046-0.386,2.137-0.386,3.26c0,4.022,1.718,7.649,4.457,10.189
			c-3.526-1.303-6.525-3.131-8.788-4.784c-2.804-2.048-4.905-4.119-6.103-5.405c1.198-1.286,3.3-3.357,6.103-5.405
			c2.263-1.653,5.262-3.481,8.788-4.784l1.729,1.949c2.02-1.891,4.732-3.051,7.711-3.051c6.226,0,11.291,5.065,11.291,11.291
			S35.989,41.055,29.764,41.055z M47.992,35.169c-2.263,1.653-5.262,3.481-8.788,4.784c2.739-2.54,4.457-6.167,4.457-10.189
			s-1.718-7.649-4.457-10.189c3.526,1.303,6.525,3.131,8.788,4.784c2.804,2.048,4.905,4.119,6.103,5.405
			C52.896,31.05,50.795,33.121,47.992,35.169z"/>
		<path fill="#6AA842" d="M22.579,27.569c-0.212,0.694-0.327,1.431-0.327,2.195c0,4.148,3.363,7.512,7.512,7.512
			c4.148,0,7.512-3.363,7.512-7.512s-3.363-7.512-7.512-7.512c-2.021,0-3.854,0.799-5.204,2.097l3.705,4.176L22.579,27.569z"/>
	</g>
</g>
</svg>
