<?xml version="1.0" encoding="utf-8"?>
<!-- Generator: Adobe Illustrator 17.0.0, SVG Export Plug-In . SVG Version: 6.00 Build 0)  -->
<!DOCTYPE svg PUBLIC "-//W3C//DTD SVG 1.1//EN" "http://www.w3.org/Graphics/SVG/1.1/DTD/svg11.dtd">
<svg version="1.1" id="Capa_1" xmlns="http://www.w3.org/2000/svg" xmlns:xlink="http://www.w3.org/1999/xlink" x="0px" y="0px"
	 width="59.528px" height="59.528px" viewBox="0 0 59.528 59.528" enable-background="new 0 0 59.528 59.528" xml:space="preserve">
<path fill="#6AA842" d="M20.67,59.528c-3.043,0-6.064-1.604-7.624-4.087c-1.688-2.685-1.59-6.045,0.278-9.462
	c2.796-5.116,12.665-26.375,15.623-32.77c0.986-2.132,2.831-3.467,5.063-3.664c2.209-0.196,4.348,0.778,5.579,2.542
	c0.817,1.17,1.914,3.713,0.083,7.604c-2.441,5.186-12.559,26.485-12.559,26.485l-1.628-0.773c0,0,10.116-21.294,12.556-26.479
	c1.071-2.275,1.095-4.337,0.07-5.805c-0.862-1.236-2.373-1.918-3.943-1.778c-1.571,0.139-2.878,1.096-3.586,2.626
	c-3.799,8.211-12.931,27.853-15.677,32.877c-1.974,3.612-1.272,6.148-0.334,7.639c1.3,2.068,3.9,3.368,6.451,3.235
	c1.266-0.066,3.579-0.56,4.841-3.125c1.81-3.679,11.8-25.721,16.601-36.314l2.409-5.312c2.903-6.385-1.137-9.202-3.009-10.117
	c-3.803-1.858-9.434-1.311-11.277,2.205c-1.391,2.656-16.747,35.44-16.902,35.771c-0.211,0.451-0.75,0.644-1.198,0.434
	c-0.451-0.211-0.645-0.747-0.434-1.198c0.633-1.353,15.527-33.152,16.938-35.843c2.376-4.534,9.109-5.213,13.664-2.987
	c3.77,1.843,6.763,6.089,3.858,12.481l-2.408,5.31C38.933,30.436,29.303,51.683,27.48,55.387c-1.219,2.477-3.539,3.982-6.364,4.129
	C20.968,59.524,20.819,59.528,20.67,59.528z"/>
</svg>
