<?xml version="1.0" encoding="utf-8"?>
<!-- Generator: Adobe Illustrator 17.0.0, SVG Export Plug-In . SVG Version: 6.00 Build 0)  -->
<!DOCTYPE svg PUBLIC "-//W3C//DTD SVG 1.1//EN" "http://www.w3.org/Graphics/SVG/1.1/DTD/svg11.dtd">
<svg version="1.1" id="Capa_1" xmlns="http://www.w3.org/2000/svg" xmlns:xlink="http://www.w3.org/1999/xlink" x="0px" y="0px"
	 width="59.528px" height="59.528px" viewBox="0 0 59.528 59.528" enable-background="new 0 0 59.528 59.528" xml:space="preserve">
<g opacity="0.5">
	<g>
		<path fill="#6AA842" d="M40.808,6.119l-3.354-3.354c-0.01-0.01-0.023-0.013-0.034-0.022c-0.095-0.094-0.207-0.169-0.329-0.224
			c-0.009,0-0.019,0-0.029-0.007c-0.114-0.043-0.234-0.066-0.356-0.069c-0.036,0-0.07,0-0.112,0.006
			c-0.097,0.005-0.192,0.024-0.284,0.055c-0.036,0.012-0.07,0.022-0.105,0.038c-0.124,0.054-0.238,0.129-0.335,0.224L32.516,6.12
			c-0.429,0.444-0.417,1.152,0.028,1.581c0.433,0.418,1.12,0.418,1.553,0l1.448-1.445l0.019,14.779h-15.65
			c-0.617,0-1.118,0.501-1.118,1.118v14.533H4.263c-0.617,0-1.118,0.501-1.118,1.118v20.123c0,0.617,0.501,1.118,1.118,1.118
			s1.118-0.501,1.118-1.118V38.92h14.533c0.617,0,1.118-0.501,1.118-1.118V23.27h15.651c0.617,0,1.118-0.501,1.118-1.118
			L37.782,6.254l1.445,1.445c0.444,0.429,1.152,0.417,1.581-0.027C41.227,7.239,41.227,6.552,40.808,6.119z"/>
	</g>
</g>
<g>
	<path fill="#6AA842" d="M4.62,59.333c0.441,0.427,1.511,0.404,1.976-0.227c0.465-0.631,0.326-1.417-0.117-1.916
		c-0.443-0.499-1.113-1.012-1.232-1.574s0.062-1.064,0.378-1.613s0.875-1.292,0.501-1.988s-1.422-0.968-2.387-0.5
		c-0.965,0.467-1.363,1.075-1.391,1.737s0.456,1.817,0.94,2.589c0.485,0.773,0.527,1.446,0.682,2.022
		C4.125,58.44,4.127,58.856,4.62,59.333"/>
	<path fill="#6AA842" d="M1.843,51.68c0.176-0.06,0.388,0.093,0.472,0.342C2.4,52.27,2.325,52.52,2.149,52.58
		s-0.388-0.093-0.472-0.342C1.593,51.99,1.667,51.739,1.843,51.68"/>
	<path fill="#6AA842" d="M2.445,50.728c0.199-0.054,0.423,0.13,0.499,0.412c0.076,0.281-0.024,0.553-0.223,0.607
		c-0.199,0.054-0.423-0.13-0.499-0.412S2.246,50.782,2.445,50.728"/>
	<path fill="#6AA842" d="M3.327,50.025c0.227-0.04,0.457,0.188,0.513,0.509s-0.083,0.613-0.311,0.652
		c-0.227,0.04-0.457-0.188-0.513-0.509C2.96,50.356,3.099,50.064,3.327,50.025"/>
	<path fill="#6AA842" d="M4.424,49.668c0.245-0.031,0.48,0.224,0.524,0.569c0.044,0.346-0.119,0.651-0.364,0.683
		c-0.245,0.031-0.48-0.224-0.524-0.569C4.016,50.005,4.179,49.699,4.424,49.668"/>
	<path fill="#6AA842" d="M5.82,49.347c0.339,0.001,0.612,0.389,0.611,0.866s-0.277,0.864-0.616,0.863s-0.612-0.389-0.611-0.866
		C5.206,49.732,5.482,49.346,5.82,49.347"/>
</g>
<g>
	<path fill="#6AA842" d="M6.147,47.299c0.494-0.477,0.496-0.894,0.65-1.47c0.155-0.576,0.197-1.249,0.682-2.022
		c0.484-0.772,0.968-1.927,0.94-2.589c-0.028-0.662-0.426-1.27-1.391-1.737c-0.965-0.468-2.013-0.196-2.387,0.5
		s0.185,1.439,0.501,1.988s0.497,1.051,0.378,1.613s-0.789,1.075-1.232,1.574s-0.582,1.285-0.117,1.916S5.706,47.726,6.147,47.299"
		/>
	<path fill="#6AA842" d="M8.924,39.645c0.177,0.06,0.251,0.31,0.166,0.559c-0.084,0.249-0.296,0.402-0.472,0.342
		c-0.176-0.06-0.251-0.31-0.166-0.559C8.536,39.738,8.748,39.585,8.924,39.645"/>
	<path fill="#6AA842" d="M8.322,38.693c0.2,0.054,0.3,0.326,0.223,0.607c-0.076,0.282-0.3,0.466-0.499,0.412
		c-0.199-0.054-0.299-0.326-0.223-0.607C7.899,38.823,8.123,38.639,8.322,38.693"/>
	<path fill="#6AA842" d="M7.441,37.99c0.227,0.04,0.367,0.332,0.311,0.652c-0.056,0.321-0.286,0.549-0.513,0.509
		c-0.228-0.039-0.367-0.331-0.311-0.652S7.214,37.95,7.441,37.99"/>
	<path fill="#6AA842" d="M6.344,37.633c0.245,0.032,0.408,0.337,0.364,0.683c-0.044,0.345-0.279,0.6-0.524,0.569
		c-0.245-0.032-0.408-0.337-0.364-0.683C5.864,37.857,6.099,37.602,6.344,37.633"/>
	<path fill="#6AA842" d="M4.947,37.312c0.339-0.001,0.614,0.385,0.616,0.863c0.001,0.477-0.272,0.865-0.611,0.866
		c-0.339,0.001-0.615-0.386-0.616-0.863S4.608,37.313,4.947,37.312"/>
</g>
<g>
	<path fill="#6AA842" d="M8.789,35.621c-0.427,0.441-0.404,1.511,0.227,1.976s1.417,0.326,1.916-0.117
		c0.499-0.443,1.012-1.113,1.574-1.232c0.562-0.119,1.064,0.062,1.613,0.378s1.292,0.875,1.988,0.501
		c0.696-0.374,0.968-1.422,0.5-2.387c-0.467-0.965-1.075-1.363-1.737-1.391s-1.817,0.456-2.589,0.94
		c-0.773,0.485-1.446,0.527-2.022,0.682C9.682,35.125,9.266,35.127,8.789,35.621"/>
	<path fill="#6AA842" d="M16.442,32.844c0.06,0.176-0.093,0.388-0.342,0.472c-0.249,0.085-0.499,0.01-0.559-0.166
		c-0.06-0.176,0.093-0.388,0.342-0.472C16.132,32.593,16.383,32.667,16.442,32.844"/>
	<path fill="#6AA842" d="M17.394,33.446c0.054,0.199-0.13,0.423-0.412,0.499c-0.281,0.076-0.553-0.024-0.607-0.223
		c-0.054-0.199,0.13-0.423,0.412-0.499C17.069,33.146,17.341,33.246,17.394,33.446"/>
	<path fill="#6AA842" d="M18.097,34.327c0.04,0.227-0.189,0.457-0.509,0.513c-0.321,0.056-0.613-0.083-0.652-0.311
		c-0.04-0.227,0.188-0.457,0.509-0.513C17.766,33.96,18.058,34.1,18.097,34.327"/>
	<path fill="#6AA842" d="M18.454,35.424c0.031,0.245-0.224,0.48-0.569,0.524c-0.346,0.044-0.651-0.119-0.683-0.364
		c-0.031-0.245,0.224-0.48,0.569-0.524C18.117,35.016,18.423,35.179,18.454,35.424"/>
	<path fill="#6AA842" d="M18.775,36.821c-0.001,0.339-0.389,0.612-0.866,0.611c-0.477-0.001-0.864-0.277-0.863-0.616
		c0.001-0.339,0.389-0.612,0.866-0.611C18.39,36.207,18.776,36.482,18.775,36.821"/>
</g>
<g>
	<path fill="#6AA842" d="M22.166,33.901c0.493-0.477,0.495-0.894,0.65-1.47c0.155-0.576,0.197-1.249,0.682-2.022
		c0.484-0.772,0.968-1.927,0.94-2.589c-0.028-0.662-0.426-1.27-1.391-1.737c-0.965-0.468-2.013-0.196-2.387,0.5
		c-0.374,0.696,0.185,1.439,0.501,1.988c0.316,0.549,0.497,1.051,0.378,1.613s-0.789,1.075-1.232,1.574s-0.582,1.285-0.117,1.916
		C20.655,34.305,21.725,34.328,22.166,33.901"/>
	<path fill="#6AA842" d="M24.943,26.247c0.176,0.06,0.251,0.31,0.166,0.559c-0.084,0.249-0.296,0.402-0.472,0.342
		s-0.251-0.31-0.166-0.559C24.555,26.34,24.767,26.187,24.943,26.247"/>
	<path fill="#6AA842" d="M24.341,25.295c0.199,0.054,0.299,0.326,0.223,0.607c-0.076,0.282-0.3,0.466-0.499,0.412
		s-0.299-0.326-0.223-0.607C23.918,25.425,24.142,25.241,24.341,25.295"/>
	<path fill="#6AA842" d="M23.46,24.592c0.227,0.04,0.366,0.332,0.311,0.652c-0.056,0.321-0.286,0.549-0.513,0.509
		c-0.228-0.039-0.367-0.331-0.311-0.652C23.003,24.78,23.233,24.552,23.46,24.592"/>
	<path fill="#6AA842" d="M22.362,24.235c0.245,0.032,0.408,0.337,0.364,0.683c-0.044,0.345-0.279,0.6-0.524,0.569
		c-0.245-0.032-0.408-0.337-0.364-0.683C21.882,24.459,22.117,24.204,22.362,24.235"/>
	<path fill="#6AA842" d="M20.966,23.914c0.339-0.001,0.614,0.385,0.616,0.863c0.001,0.477-0.272,0.865-0.611,0.866
		c-0.339,0.001-0.615-0.386-0.616-0.863S20.627,23.915,20.966,23.914"/>
</g>
<g>
	<path fill="#6AA842" d="M23.586,19.944c-0.427,0.441-0.404,1.511,0.227,1.976c0.631,0.465,1.417,0.326,1.916-0.117
		s1.012-1.113,1.574-1.232c0.562-0.119,1.064,0.062,1.613,0.378c0.549,0.316,1.292,0.875,1.988,0.501s0.968-1.422,0.5-2.387
		c-0.467-0.965-1.075-1.363-1.737-1.391c-0.662-0.028-1.817,0.456-2.589,0.94c-0.773,0.485-1.446,0.527-2.022,0.682
		C24.479,19.449,24.063,19.451,23.586,19.944"/>
	<path fill="#6AA842" d="M31.24,17.167c0.06,0.176-0.093,0.388-0.342,0.472c-0.249,0.085-0.499,0.01-0.559-0.166
		c-0.06-0.176,0.093-0.388,0.342-0.472S31.18,16.991,31.24,17.167"/>
	<path fill="#6AA842" d="M32.192,17.77c0.054,0.199-0.13,0.423-0.412,0.499c-0.281,0.076-0.553-0.024-0.607-0.223
		c-0.054-0.199,0.13-0.423,0.412-0.499C31.866,17.47,32.138,17.57,32.192,17.77"/>
	<path fill="#6AA842" d="M32.895,18.651c0.04,0.227-0.188,0.457-0.509,0.513s-0.613-0.083-0.652-0.311
		c-0.04-0.227,0.188-0.457,0.509-0.513C32.563,18.284,32.855,18.423,32.895,18.651"/>
	<path fill="#6AA842" d="M33.252,19.748c0.031,0.245-0.224,0.48-0.569,0.524c-0.346,0.044-0.651-0.119-0.683-0.364
		c-0.031-0.245,0.224-0.48,0.569-0.524C32.915,19.34,33.22,19.503,33.252,19.748"/>
	<path fill="#6AA842" d="M33.573,21.144c-0.001,0.339-0.389,0.612-0.866,0.611s-0.864-0.277-0.863-0.616
		c0.001-0.339,0.389-0.612,0.866-0.611C33.188,20.53,33.574,20.806,33.573,21.144"/>
</g>
<g>
	<path fill="#6AA842" d="M38.292,18.36c0.493-0.477,0.495-0.893,0.65-1.47c0.155-0.576,0.197-1.249,0.682-2.022
		c0.484-0.772,0.968-1.927,0.94-2.589c-0.028-0.662-0.426-1.27-1.391-1.737c-0.965-0.468-2.013-0.196-2.387,0.5
		s0.185,1.439,0.501,1.988c0.316,0.549,0.497,1.051,0.378,1.613s-0.789,1.075-1.232,1.574c-0.443,0.499-0.582,1.285-0.117,1.916
		S37.851,18.787,38.292,18.36"/>
	<path fill="#6AA842" d="M41.069,10.707c0.176,0.059,0.251,0.31,0.166,0.558c-0.084,0.249-0.296,0.402-0.472,0.342
		c-0.176-0.06-0.251-0.31-0.166-0.559C40.681,10.8,40.893,10.647,41.069,10.707"/>
	<path fill="#6AA842" d="M40.467,9.755c0.199,0.053,0.299,0.325,0.223,0.607c-0.076,0.282-0.3,0.466-0.499,0.412
		s-0.299-0.326-0.223-0.607C40.044,9.885,40.267,9.701,40.467,9.755"/>
	<path fill="#6AA842" d="M39.586,9.052c0.227,0.039,0.366,0.331,0.311,0.652c-0.056,0.321-0.286,0.549-0.513,0.509
		c-0.228-0.039-0.367-0.331-0.311-0.652C39.129,9.241,39.359,9.012,39.586,9.052"/>
	<path fill="#6AA842" d="M38.488,8.695c0.245,0.031,0.408,0.337,0.364,0.683c-0.044,0.345-0.279,0.6-0.524,0.569
		c-0.245-0.032-0.408-0.337-0.364-0.683C38.008,8.919,38.243,8.664,38.488,8.695"/>
	<path fill="#6AA842" d="M37.092,8.374c0.338-0.001,0.614,0.385,0.616,0.863c0.001,0.477-0.272,0.865-0.611,0.866
		c-0.339,0.001-0.615-0.386-0.616-0.863C36.48,8.763,36.753,8.375,37.092,8.374"/>
</g>
<g>
	<circle opacity="0.8" fill="#6AA842" enable-background="new    " cx="40.089" cy="35.312" r="16.247"/>
	<path fill="#F2F2F2" d="M40.089,47.497c-6.702,0-12.185-5.483-12.185-12.185s5.483-12.185,12.185-12.185
		s12.185,5.483,12.185,12.185S46.791,47.497,40.089,47.497z"/>
	<path opacity="0.8" fill="#6AA842" enable-background="new    " d="M40.089,43.435c-4.468,0-8.123-3.656-8.123-8.123
		s3.656-8.123,8.123-8.123s8.123,3.656,8.123,8.123S44.557,43.435,40.089,43.435z"/>
	<path fill="#CDD6E0" d="M40.089,39.374c-2.234,0-4.062-1.828-4.062-4.062s1.828-4.062,4.062-4.062s4.062,1.828,4.062,4.062
		S42.323,39.374,40.089,39.374z"/>
	<path fill="#FFFFFF" d="M40.089,39.374c-2.234,0-4.062-1.828-4.062-4.062s1.828-4.062,4.062-4.062s4.062,1.828,4.062,4.062
		S42.323,39.374,40.089,39.374z"/>
	<path opacity="0.2" fill="#344B5F" enable-background="new    " d="M56.201,37.343c-0.271,2.031-0.88,3.926-1.828,5.686
		l-0.88-0.338l-1.151-2.437l-12.185-4.4c-0.542-0.203-0.812-0.812-0.609-1.354s0.812-0.812,1.354-0.609l12.185,4.4l2.437-1.151
		L56.201,37.343z"/>
	<path fill="#6AA842" d="M51.192,25.631l-9.951,9.951c-0.406,0.406-1.083,0.406-1.489,0l0,0c-0.406-0.406-0.406-1.083,0-1.489
		L49.77,24.21c0.406-0.406,1.083-0.406,1.489,0l0,0C51.598,24.616,51.598,25.225,51.192,25.631z"/>
	<polygon fill="#4D8C3F" points="52.139,23.262 48.958,26.444 48.958,22.247 52.139,19.065 	"/>
	<polygon fill="#386539" points="53.155,26.444 56.336,23.262 52.139,23.262 48.958,26.444 	"/>
</g>
</svg>
