<?xml version="1.0" encoding="utf-8"?>
<!-- Generator: Adobe Illustrator 17.0.0, SVG Export Plug-In . SVG Version: 6.00 Build 0)  -->
<!DOCTYPE svg PUBLIC "-//W3C//DTD SVG 1.0//EN" "http://www.w3.org/TR/2001/REC-SVG-20010904/DTD/svg10.dtd">
<svg version="1.0" id="Capa_1" xmlns="http://www.w3.org/2000/svg" xmlns:xlink="http://www.w3.org/1999/xlink" x="0px" y="0px"
	 width="1084.265px" height="51.372px" viewBox="0 0 1084.265 51.372" enable-background="new 0 0 1084.265 51.372"
	 xml:space="preserve">
<path fill="#79B063" d="M72.587,35.968c8.527,0.448,17.214-0.103,25.372-0.951c17.375-1.793,31.939,4.278,48.903,2.137
	c21.27-2.688,42.191,2.446,64.316,0.672c40.608-3.244,82.497-7.711,123.631-5.299c77.525,4.541,147.968,4.602,222.681,12.189
	c43.434,4.412,92.799,7.11,138.266,6.352c33.274-0.547,100.546,2.656,129.066-3.968c-38.228,2.334-78.481,0.008-116.019-2.758
	c82.4-1.5,168.316-1.35,249.334-7.408c-151.811,8.801-305.402,1.385-444.847-21.162c163.088,9.969,374.794,27.162,535.134,4.61
	c12.15-1.703,25.658-4.141,35.84-6.69C925.23,42.646,718.87,23.49,551.775,11.912c-76.712-5.311-153.979-9.797-232.492-9.734
	c-21.322-0.768-44.068,1.496-65.453,1.139c-43.897-0.742-86.809-3.652-130.667-2.444C84.224,1.941,14.82,2.677,0,17.789
	C26.149,12.95,96.155,5.885,140.563,7.705c-4.539,1.367-112.162,9.612-117.381,13.769c5.116-0.064,128.809-11.556,133.667-10.451
	c-5.739,0.524-120.49,8.67-127.606,13.292c6.153,0.383,17.197-1.071,22.066-1.849c19.195-3.068,103.549-5.226,107.276-4.634
	c-53.07,2.302-109.369,4.953-119.802,9.242c3.341,0.109,6.657-0.115,9.906,0.209c-4.025,1.358-11.888,1.916-13.935,3.715
	c8.316-0.211,15.67-1.227,24.285-1.166c6.985,0.049,92.426-5.979,104.523-4.146c-7.982,1.377-103.276,5.964-108.79,8.481
	c3.691,0.586,7.582,0.234,11.385-0.07c-0.461,0.25-0.735,0.531-0.829,0.83c1.687-0.039,3.917,0.326,5.672,0.217
	c0.046,0.416,0.16,0.65,0.19,0.352"/>
</svg>
