<?xml version="1.0" encoding="utf-8"?>
<!-- Generator: Adobe Illustrator 17.0.0, SVG Export Plug-In . SVG Version: 6.00 Build 0)  -->
<!DOCTYPE svg PUBLIC "-//W3C//DTD SVG 1.0//EN" "http://www.w3.org/TR/2001/REC-SVG-20010904/DTD/svg10.dtd">
<svg version="1.0" id="Capa_1" xmlns="http://www.w3.org/2000/svg" xmlns:xlink="http://www.w3.org/1999/xlink" x="0px" y="0px"
	 width="1084.265px" height="15.945px" viewBox="0 0 1084.265 15.945" enable-background="new 0 0 1084.265 15.945"
	 xml:space="preserve">
<g>
	<path fill="#9DE06D" d="M1082.998,4.717c1.601,0.037,1.026-0.382,1.267-0.458C1081.587,4.352,1083.066,4.826,1082.998,4.717z"/>
	<polygon fill="#9DE06D" points="1056.573,5.668 1057.04,5.497 1053.145,5.916 	"/>
	<path fill="#9DE06D" d="M1031.862,5.661c2.336,0.714,8.954-0.115,13.357,0.138l0.726,0.164l1.986-0.575
		C1042.579,5.478,1035.63,5.86,1031.862,5.661z"/>
	<path fill="#9DE06D" d="M1018.686,4.117c0.813,0.277-2.85,0.238,3.072,0.086c-0.297-0.031-0.383-0.048-0.556-0.071
		C1020.669,4.137,1019.935,4.136,1018.686,4.117z"/>
	<path fill="#9DE06D" d="M1021.202,4.133C1023.805,4.113,1019.499,3.901,1021.202,4.133L1021.202,4.133z"/>
	<path fill="#9DE06D" d="M1009.184,4.292l3.428-0.248c-0.716-0.164-3.767-0.201-2.634-0.321
		C1006.462,3.86,1007.185,4.023,1009.184,4.292z"/>
	<path fill="#9DE06D" d="M1005.934,4.813l1.776-0.105C1007.399,4.64,1006.929,4.615,1005.934,4.813z"/>
	<path fill="#9DE06D" d="M1011.477,4.487l-3.767,0.221c0.497,0.115,0.549,0.347,1.729-0.08
		C1009.132,4.84,1009.877,4.636,1011.477,4.487z"/>
	<path fill="#9DE06D" d="M1013.61,4.595c1.923,0.156,4.407,0.253,0.966,0.5C1021.135,4.997,1020.168,4.496,1013.61,4.595z"/>
	<path fill="#9DE06D" d="M1030.6,6.399l2.571,0.21l2.224-0.24C1034.284,6.487,1030.441,6.175,1030.6,6.399z"/>
	<path fill="#9DE06D" d="M987.83,3.923c-0.214,0.152,1.153,0.405,1.408,0.599l2.532-0.175C990.469,4.244,988.003,4.148,987.83,3.923
		z"/>
	<path fill="#9DE06D" d="M989.239,4.522l-3.788,0.261C988.834,4.813,989.453,4.689,989.239,4.522z"/>
	<polygon fill="#9DE06D" points="1005.323,5.606 1011.546,5.058 1004.123,5.613 	"/>
	<polygon fill="#9DE06D" points="973.362,3.904 975.51,3.552 971.684,4.084 	"/>
	<path fill="#9DE06D" d="M963.765,3.965c1.589-0.291-2.179-0.493-0.499-0.672c-2.607,0.052-4.833,0.302-6.837,0.527
		C958.558,3.695,960.828,3.727,963.765,3.965z"/>
	<path fill="#9DE06D" d="M953.063,4.148c1.064-0.07,2.166-0.194,3.366-0.327C955.297,3.887,954.185,3.985,953.063,4.148z"/>
	<path fill="#9DE06D" d="M978.997,4.708c-0.293-0.092-0.857-0.332-2.981-0.434l1.49,0.427C977.96,4.704,978.475,4.705,978.997,4.708
		z"/>
	<path fill="#9DE06D" d="M977.558,4.715l-0.052-0.013c-1.617-0.01-2.739-0.019-3.219-0.024
		C974.699,4.681,975.684,4.693,977.558,4.715z"/>
	<path fill="#9DE06D" d="M979.373,4.709c-0.138-0.001-0.24-0.002-0.376-0.002C979.141,4.75,979.227,4.764,979.373,4.709z"/>
	<path fill="#9DE06D" d="M995.392,5.219c-2.226,0.239-6.866,0.495-2.376,0.86C994.613,5.786,992.042,5.579,995.392,5.219z"/>
	<path fill="#9DE06D" d="M981.223,5.244l4.024,0.098c-0.079-0.113-0.805-0.278,0.298-0.396L981.223,5.244z"/>
	<polygon fill="#9DE06D" points="979.253,5.38 981.223,5.244 979.731,5.208 	"/>
	<path fill="#9DE06D" d="M959.956,4.548c-1.738,0.186-3.64,0.201-5.787,0.231c2.302,0.084,4.682,0.13,6.942,0.128
		C961.429,4.773,962.423,4.532,959.956,4.548z"/>
	<path fill="#9DE06D" d="M968.51,4.666c-0.12,0.01-0.274,0.014-0.386,0.024C968.361,4.727,968.551,4.738,968.51,4.666z"/>
	<path fill="#9DE06D" d="M933.024,4.777c0.118,0.023,0.219,0.053,0.339,0.078c0.027-0.024,0.045-0.049,0.079-0.074L933.024,4.777z"
		/>
	<path fill="#9DE06D" d="M961.497,4.987c1.73,0.083,2.764-0.022,3.75-0.153c-1.294,0.042-2.665,0.07-4.136,0.073
		C960.967,4.968,960.94,5.008,961.497,4.987z"/>
	<path fill="#9DE06D" d="M947.164,4.348c0.901,0.09,1.923,0.166,2.996,0.235C949.28,4.447,947.483,4.236,947.164,4.348z"/>
	<path fill="#9DE06D" d="M967.54,4.572c0.087-0.006,0.165-0.014,0.259-0.019C967.232,4.463,967.302,4.507,967.54,4.572z"/>
	<path fill="#9DE06D" d="M967.54,4.572c-0.89,0.062-1.59,0.167-2.293,0.262c1.053-0.034,2.03-0.08,2.877-0.143
		C967.909,4.661,967.694,4.614,967.54,4.572z"/>
	<path fill="#9DE06D" d="M926.618,7.52c0.305-0.396,4.854-0.762,8.781-0.338c3.864-0.297,1.338-1.6-2.035-2.328
		c-0.12,0.173-0.12,0.332-4.097,0.566c1.392,0.216,8.823,0.506,5.469,0.864c-5.267,0.204-4.316-0.14-6.877-0.35
		c2.177,0.493-6.701,0.718-5.554,1.444l4.619-0.256C927.01,7.236,925.335,7.416,926.618,7.52z"/>
	<path fill="#9DE06D" d="M940.94,4.894l1.636-0.049c-1.865-0.069-3.201-0.227-5.659-0.538c-2.722,0.194-3.288,0.341-3.475,0.472
		l8.057,0.055L940.94,4.894z"/>
	<path fill="#9DE06D" d="M949.923,4.844c-1.278,0.431-5.207,0.615-2.801,1.081c4.802-0.03,3.365-0.36,6.234-0.547
		c-7.749,0.107,2.226-0.24-3.373-0.484c1.523-0.074,2.893-0.096,4.185-0.114c-1.396-0.052-2.741-0.117-4.008-0.197
		c0.071,0.01,0.12,0.017,0.178,0.027l0.036-0.001c0,0.002-0.008,0.003-0.008,0.006c0.334,0.054,0.444,0.087,0.067,0.056
		c-0.026,0.005-0.12,0.007-0.162,0.009c-0.052,0.059-0.196,0.112-0.35,0.162c-2.244-0.089-0.353-0.111,0.35-0.162
		c0.026-0.022,0.087-0.042,0.094-0.065c-0.008-0.002-0.018-0.003-0.029-0.005l-7.762,0.236
		C944.219,4.905,946.276,4.893,949.923,4.844z"/>
	<path fill="#9DE06D" d="M988.876,7.005c-0.241-0.038-0.23-0.069-0.248-0.1C988.126,6.958,987.935,6.994,988.876,7.005z"/>
	<path fill="#9DE06D" d="M985.682,6.745c0.565-0.06,1.035-0.232,2.869-0.188c1.591,0.129-0.008,0.206,0.076,0.348
		c1.105-0.114,3.87-0.309,0.402-0.519l-0.549,0.059c-3.125-0.148-7.14-0.686-6.594-0.745C982.798,6.089,983.603,6.364,985.682,6.745
		z"/>
	<path fill="#9DE06D" d="M967.58,5.904l-6.464,0.211l3.292,0.373l-0.167-0.224C967.917,6.352,967.123,6.077,967.58,5.904z"/>
	<polygon fill="#9DE06D" points="932.285,4.562 933.142,4.107 929.408,4.75 	"/>
	<polygon fill="#9DE06D" points="923.885,4.616 924.195,4.221 921.978,4.46 	"/>
	<path fill="#9DE06D" d="M449.875,9.527l-1.9,0.112C448.875,9.604,449.453,9.567,449.875,9.527z"/>
	<path fill="#9DE06D" d="M463.626,9.554l0.337-0.195C463.326,9.466,463.065,9.545,463.626,9.554z"/>
	<path fill="#9DE06D" d="M717.587,4.661c-2.766-0.37-5.857-0.943-5.523-0.498l0.85,0.434C714.846,4.52,716.328,4.568,717.587,4.661z
		"/>
	<path fill="#9DE06D" d="M576.302,7.252c0.263,0.042,0.537,0.087,0.809,0.131c0.672-0.148,1.305-0.286,1.868-0.415
		C578.174,7.057,577.26,7.152,576.302,7.252z"/>
	<path fill="#9DE06D" d="M574.35,9.047l-3.647-0.28C571.522,8.864,572.695,8.958,574.35,9.047z"/>
	<path fill="#9DE06D" d="M374.777,9.987l-2.216,0.441C376.028,10.426,374.502,10.204,374.777,9.987z"/>
	<path fill="#9DE06D" d="M837.854,4.777c-2.388-0.17-4.287-0.241-5.956-0.262C834.774,4.764,837.094,5.137,837.854,4.777z"/>
	<path fill="#9DE06D" d="M455.286,4.923c-1.162,0.079-1.659,0.167-1.624,0.264C454.858,5.112,455.534,5.029,455.286,4.923z"/>
	<path fill="#9DE06D" d="M825.003,4.516c0.421,0.044,0.834,0.065,1.262,0.102c1.745-0.073,3.502-0.131,5.633-0.104
		C829.773,4.33,827.341,4.215,825.003,4.516z"/>
	<path fill="#9DE06D" d="M102.417,9.627c-0.198-0.019-0.437-0.029-0.616-0.052C101.741,9.634,102.015,9.637,102.417,9.627z"/>
	<path fill="#9DE06D" d="M23.07,5.25c0.781-0.028,2.056-0.028,3.258-0.034C25.743,5.186,24.76,5.189,23.07,5.25z"/>
	<path fill="#9DE06D" d="M890.087,4.427C891.869,4.399,890.37,4.38,890.087,4.427L890.087,4.427z"/>
	<path fill="#9DE06D" d="M898.751,6.143c-0.379,0.048-0.667,0.111-0.712,0.211C898.186,6.25,898.435,6.184,898.751,6.143z"/>
	<path fill="#9DE06D" d="M807.257,7.216c-0.052,0-0.094-0.002-0.154-0.002C807.633,7.3,807.542,7.283,807.257,7.216z"/>
	<path fill="#9DE06D" d="M892.768,4.624c-0.669-0.053-1.439-0.098-2.278-0.129C890.858,4.529,891.55,4.571,892.768,4.624z"/>
	<path fill="#9DE06D" d="M892.408,4.419c0.614,0.02,1.097,0.03,1.557,0.042C894.189,4.389,893.99,4.344,892.408,4.419z"/>
	<path fill="#9DE06D" d="M887.606,4.451c1.019-0.007,1.969,0.013,2.884,0.045c-0.35-0.03-0.497-0.054-0.402-0.069
		C889.565,4.434,888.828,4.443,887.606,4.451z"/>
	<path fill="#9DE06D" d="M248.349,8.466c-0.118-0.013-0.254-0.022-0.382-0.041C246.17,8.605,246.959,8.577,248.349,8.466z"/>
	<path fill="#9DE06D" d="M671.22,9.166c0.083-0.004,0.127-0.016,0.203-0.02c-0.083-0.005-0.188-0.011-0.263-0.016L671.22,9.166z"/>
	<path fill="#9DE06D" d="M664.822,9.489c2.725-0.54,4.274-0.473,6.339-0.359l-2.117-1.251L664.822,9.489z"/>
	<path fill="#9DE06D" d="M416.951,9.652l4.494,0.39c-5.424,0.642-9.348,0.42-5.129,0.968c0.636-1.358,17.466-0.138,18.091-1.496
		l2.962,0.286c-0.849-0.013-0.985,0.066-1.824,0.053c5.761,0.65,4.28-0.981,11.702-0.789c2.587,0.104,4.392,0.301,2.628,0.462
		l5.764-0.336c1.677,0.026,1.267,0.262-0.402,0.236l8.791-0.108l-0.065,0.04c1.254-0.212,4.097-0.542,5.485-0.682
		c2.233,0.195-1.12,0.144-0.549,0.313l4.868-0.329c1.983,0.353-2.051,0.694-5.414,0.643c4.546,1.356,4.039-0.341,13.85,0.451
		l-4.596,0.172c2.963,0.77,6.55,0.491,11.747,0.971c-1.233-0.251-10.404-1.21-5.121-1.548c1.489,0.102,3.451,0.151,6.301-0.122
		c0.027,0.483,2.809,0.364,6.291,0.337l-0.238,0.64c3.765-0.185,3.467-0.51,5.683-0.799c4.196,0.063,5.066,0.559,6.054,0.976
		c6.719,0.102-4.64-0.794,3.313-0.915c5.588,0.245,9.513-0.017,16.198-0.399c3.911,0.221-0.684,0.392,0.719,0.575l3.467-0.51
		c0.849,0.012,0.575,0.169,0.436,0.248c2.922-0.198,0.241-0.64,4.834-0.813c1.238-0.705,9.429,1.029,15.114,0.229
		c1.401,0.182-0.676,0.392-0.248,0.64c7.799-0.525,6.686-0.382,13.09-1.088l5.456,0.42c-4.009-0.48,1.113-1.048,5.599-1.515
		c-1.422-0.232-2.637-0.435-3.452-0.532l7.159-0.343c0.865,0.105,0.143,0.325-1.03,0.592c0.488-0.053,0.951-0.105,1.312-0.154
		c2.56,0.236,1.233,0.606-0.601,0.963c-0.872-0.126-1.738-0.261-2.579-0.395c-1.768,0.389-3.422,0.819-3.054,1.194
		c0.466-0.074,1.361-0.137,2.347-0.173c-0.462,0.105-0.758,0.2-0.544,0.264c0.243,0.067,0.99-0.074,2.161-0.238l1.628,0.713
		l0.395-0.283l9.366,0.446c6.701-0.717,12.53-1.775,23.167-2.069c-2.639,0.523-0.567,0.854-0.711,1.474
		c-2.902-0.656-8.238,0.278-13.75,0.146c2.877,0.069,2.244,0.365,1.512,0.467l9.832-0.596c-0.221,0.507,2.088,0.38,4.656,0.59
		c-1.941-1.002,7.328-0.667,11.329-0.974c0.248,0.336-0.711,0.68-5.592,0.598c5.385,0.754,6.958-1.176,12.244-0.535
		c-1.192,0.008-1.834-0.043-2.305,0.128c2.783-0.299,9.589-0.062,7.988,0.23l-1.189,0.007c7.912,0.119,24.084,0.008,25.264-0.843
		c0.079,0.111-1.037,1.025-1.515,1.197l14.116-2.862c-1.244,0.73,3.53,2.47-3.031,2.883c1.883,0.104,4.214,0.226,8.186-0.033
		c-1.285-0.104-3.203-1.056-1.447-1.123c4.82,0.813,3.346,0.435,9.288,1.128c-1.926-0.156,0.214-1.302,3.258-1.265
		c-0.475,0.171,0.254,1.13-0.859,1.25l7.577-1.124c-1.891,0.202-0.334,0.953,1.361,1.272c-0.787-0.221,6.55,0.02,8.57-0.091
		l-3.212-0.261c8.555,0.17,8.45-1.581,16.936-1.522c-1.027,0.232-2.537,1.43,1.779,1.571c1.978-0.576,8.758-2.77,16.266-3.214
		l1.44,0.329l5.761-0.375c-3.587,0.867-13.654,2.69-19.152,3.4c3.201,0.261,0.891,0.389,5.686,0.358
		c1.693,0.309-2.613,0.468-4.024,0.486l11.162,0.199c-0.497-0.673,8.536-0.674,8.11-1.234l-12.123,0.697
		c-0.491-0.671,7.01-1.908,14.918-1.79c2.012,0.268-1.505,1.197-1.34,1.421c1.026-0.231,7.506-0.442,8.233-0.278l-3.355,0.36
		c4.403,0.253,7.185-0.891,12.476-0.249c1.826,0.043,5.452,0.865,5.768,0.468c-2.978-0.767-3.56-3.14-1.575-3.717
		c0.64,0.052,9.589,0.733,11.673,1.113c3.007,0.602-4.514,1.434-1.954,1.95c0.11-0.184,1.771-0.41,2.464-0.483
		c1.918,0.157-0.794,0.569,3.373,0.486c0.696-0.681,8.476,0.058,1.97-0.576c4.076-0.195,4.332,0.141,9.119,0.11
		c-1.524-0.441,4.298-1.498,8.381-1.694c-0.241,0.173,0.676,0.399,1.12,0.502c8.356,0.062,12.841,0.371,20.633,0.377
		c0.718,0.165,4.478,0.365,2.877,0.658c1.12-0.121,2.15-0.352,4.554-0.368c4.651,0.589-5.358,0.092-1.813,0.801
		c0.303-0.396,6.215-0.547,9.638-0.794c-1.053-0.612-7.908-0.118-11.336,0.13c-0.016-0.844,5.951-1.727,14.095-2.118
		c6.472-0.21,2.806,0.545,3.93,0.426c12.157,0.147,10.357-1.474,20.452-0.864c4.006,0.537,0.181,1.069,1.069,1.457
		c-5.273,0.204-8.095-0.341-11.668-0.32l4.399,0.254c-1.677,0.179-5.197,0.314-7.114,0.159c3.357,0.482,20.538,0.092,29.918,0.538
		c1.666-0.179,4.543-0.367,3.182-0.583l-2.968,0.075c-2.728-0.433,5.585-0.6,1.829-0.802c3.981-0.305,8.444-0.784,14.048-0.539
		l1.053,0.613c-0.12-0.179-3.663-0.365-5.238-0.178c2.336-0.272,8.593,0.83,11.153,0.027L906.02,5.74
		c3.997-0.308,8.938-0.959,13.905-0.766c-2.26-0.605-1.145,0.069-4.674-0.639c3.06,0.882-12.706-0.037-7.791,0.889
		c-3.621-0.822-6.268-0.348-11.002-1.05c0.147,0.202,1.677,0.387-2.492,0.287c-0.188,0.059-0.632,0.134-0.915,0.178
		c-0.127-0.005-0.172-0.009-0.281-0.015c0.083,0.008,0.146,0.017,0.23,0.024c-0.181,0.031-0.197,0.037,0.086,0.008
		c0.993,0.089,1.798,0.195,2.124,0.308c-2.07,0.464-8.7,0.45-10.942,0.69c-2.474-0.096,1.035-0.232-0.316-0.448l-3.35,0.36
		c-0.332-0.449-6.573-0.746-0.745-1.01l-5.246-0.02c-3.088-0.252-7.337-0.352-9.957-0.163c-2.474-0.097-6.25,0.498-4.094,0.146
		l-8.227,0.278l-0.076-0.112c-8.117-0.057-16.71,0.744-25.991-0.067c-2.733,0.113-5.557,0.252-10.129,0.125l-0.891-0.389
		c-3.508,0.135-10.537-0.389-12.045,0.016c-3.785-1.046-17.029-0.228-23.2-0.414l-0.233,0.507c-4.247-0.029-8.32,0.116-13.593,0.319
		l0.324,0.448c-4.546,0.368-11.687-0.319-18.878-0.273c0.489-0.171,2.313-0.127,3.603-0.023c-8.59-1.013-18.124,0.737-25.915-0.001
		c-1.941,0.164-3.347,0.107-4.709-0.004c0.181-0.002,0.342-0.01,0.482-0.024c-0.199-0.005-0.494-0.006-0.797-0.006
		c-0.857-0.077-1.74-0.167-2.697-0.238c0.813,0.109,1.591,0.198,2.269,0.24c-1.497,0.009-3.768,0.065-5.994,0.178l-0.948-0.481
		c-0.181,0.006-0.326,0.005-0.515,0.013c-2.184-0.178-1.756,0.228-0.591,0.591c-1.12,0.079-2.148,0.174-2.944,0.29
		c-1.774-0.777-5.84,0.262-8.262-0.567c-1.5,0.404-11.191,0.304-12.376,1.155c-0.076-0.111-0.732-0.164,0.47-0.171
		c-2.482-0.097-4.961-0.194-7.187,0.046l-1.053-0.612l-5.418,0.823c-3.292-0.373-4.656-0.59-1.388-1.061
		c-7.892,0.725-6.404,0.273-13.116,0.991l0.327-0.396c-2.399,0.015-6.235,0.546-7.682,0.219c-5.367-0.753-26.556-0.104-40.332-0.804
		c2.672,1.166-6.404-0.522-6.95,0.382c-0.803-0.275-2.722-0.431-0.491-0.67c-7.031,0.27-10.564-0.438-15.418,0.324
		c-0.805-0.277,1.505-0.404,0.789-0.568c-0.564,0.06-2.233,0.24-2.965,0.075c-0.716-0.164,1.029-0.231,2.142-0.351
		c-7.182,0.046-7.908,0.896-8.431,1.693c-3.64-0.377-5.456-0.324-8.084,0.199c-1.267-0.261-3.381-0.533,1.082-0.627
		c-2.511-0.038-15.336-0.382-15.592,0.257c-0.787-0.162-3.509-0.048-4.17,0.026c-5.633-0.038-6.129-0.096-11.66-0.035l1.533,0.104
		c-2.184,0.771-4.598,0.172-9.058,0.265l0.127-0.078c-10.225-0.557-4.414,0.266-14.503-0.369l0.549,0.48
		c-0.941,1.032-8.938-0.608-14.793-0.214l2.114,0.274c-3.198,0.353-8.938-1.403-12.15-1.532c-0.7-0.09,1.105-0.144,2.083-0.21
		c-8.407-0.609-1.089,0.627-7.354,0.774c-1.156-0.339,1.489-0.862-2.728-0.925c-2.101-0.274-12.231,1.101-17.984,0.451
		c1.268,0.261,2.527,0.522-0.383,0.718c-4.46,0.093-12.059-0.987-16.087-0.163c-0.567-0.072-0.781-0.14-0.805-0.205
		c-3.41,0.212-11.08,0.353-13.134,0.799c-3.151-1.656-21.197,0.806-21.121-0.722L408.92,5.345l0.274-0.156
		c-6.703-0.101-9.074,0.265-11.43,0.632c-1.55-0.104-0.418-0.247-0.29-0.326c-9.795-0.308-10.769-0.243-18.981,0.519l-0.854-0.496
		c-2.226,0.288-14.161-0.778-23.768-0.199c0.094-0.057,0.293-0.153,1.056-0.223c-10.809,0.582-25.876-1.374-29.837,0.431
		l-7.133,0.445c9.228,0.14-1.374,0.784,2.422,1.083c-3.629,0.106-9.382-0.544-4.923-0.637l0.698,0.09
		c1.638-0.941-11.467-0.333-11.218-0.974c-18.158,0.047-35.857-0.474-52.866-0.514l1.959,0.731l-5.933-0.042
		c-1.557-0.17-2.09-0.572,2.142-0.542c-2.226-0.414-7.098,0.348-7.219,0.507c-8.287-0.296,3.237-0.853,0.696-0.871l-3.451,0.055
		l0.778,0.086c-2.797,0.299-3.046,0.616-8.133,0.58c-3.219-0.147-1.651-0.451-2.918-0.479c0.007-0.053-0.421-0.077-1.943-0.022
		l-7.475-0.062l2.989,0.577c-3.313,0.285-7.029-0.03-3.58,0.624c-5.063-1.009-27.883-0.362-30.992-0.675
		c-4.64,0.421-9.22,0.413-14.894,0.362c1.41,0.12,2.255,0.77-2.639,0.69c1.789-1.34-8.961-0.581-12.917-1.546
		c3.535,0.639-13.913,0.158-8.366,1.066c-4.084-0.109-0.248-0.502-3.346-0.817c-9.719,0.519-21.419-0.337-33.433-0.162
		c-0.187,0.176,1.825,0.445-0.752,0.707l-6.343-0.88c-2.373,0.086-2.184,1.015-6.519,0.405c0.612,0.148,1.526,0.371-0.065,0.427
		C76.178,4.881,51.621,6.439,27.72,4.829c3.237,0.341,1.08,0.374-1.392,0.387c1.607,0.081-0.036,0.434,0.279,0.673L16.601,5.227
		C14.778,5.889,5.873,5.272,4.829,5.904L7.997,5.79c-4.214,0.747,5.897,1.66,5.28,2.618c4.718-0.849,12.442,1.257,20.183,0.042
		c1.709,0.195-1.458,0.309-0.544,0.531c1.963-0.41,4.332-0.496,8.724-0.312L41.144,8.77c12.338-0.1,17.628,0.305,31.488,0.574
		l-1.026-0.474c2.978,0.063,3.605,0.212,5,0.331c3.418-0.719-8.365-0.041-5.251-0.833c3.951,0.964,21.004,0.014,23.674,1.11
		c4.582,0.006-1.343-0.548,3.237-0.542l1.215,0.296l1.158-0.382c3.004,0.063,4.519,0.434,4.632,0.685
		c-0.729-0.03-2.072,0.07-2.853,0.092c3.895,0.349,10.984-0.119,12.322-0.005l-4.403-0.183c12.505-0.277,27.773,0.112,39.854-0.491
		l-0.917-0.223c9.226-0.414,7.389,0.246,17.518,0.054l-0.368,0.053c2.027-0.222,4.734-0.335,7.506-0.31
		c-2.558,0.262,4.813,0.508,1.458,0.798c10.004-0.444,4.948-0.349,11.556-1.179l1.524,0.372c2.252-0.336,2.44-0.513,7.499-0.609
		c-4.149,0.318,3.229,0.565-1.419,0.986c10.615,0.811,15.762-0.819,20.633,0.367c4.875-1.026-9.186-0.57-6.456-0.79
		c-2.286-0.335,4.024-0.767,7.355-0.664c3.391,0.023,5.766,1.314,14.296,1.294c-0.849-0.005-0.906,0.073-1.753,0.068
		c3.192,0.262,6.255-0.354,10.171,0.071c2.195-0.621,5.084,0.035,5.717-0.756l-7.825,0.183c4.436-0.207,8.595-1.134,15.904-0.684
		c-0.569,0.159-2.744,0.37-4.238,0.486c2.137,0.234,4.115-0.154,6.33,0.085c-0.631,0.792-9.509,0.172-14.262,0.776
		c2.293,0.335,8.99-0.574,6.602,0.284c3.433-1.09,8.405,0.138,14.182-0.695l-0.381,0.474c0.914-0.074,2.808-0.298,4.49-0.286
		l-3.046,0.615c4.677-0.525,9.016,0.46,13.502,0.174c-9.393,0.014-2.108-0.572-6.08-0.919c11.584-0.635,6.662,1.242,19.632,1.014
		c-1.756,0.067-6.592-0.285-3.846-0.505c2.469,0.098,5.73,0.28,7.245,0.53c8.593-0.099-1.32-0.489,2.338-0.781
		c2.926,0.578,4.22-0.235,7.987-0.42l0.027,0.482c9.792,0.31,2.596-1.006,11.412-0.631l-3.726,0.669l4.596-0.173l-0.948,0.549
		c5-0.407,6.557-0.302,11.456-0.148c-1.139-0.339,0.64-0.875,4.977-0.89c2.958,0.286-1.657,0.459,4.491,0.39
		c-1.388,0.301-2.909,0.68-5.584,0.237c-0.274,0.157-1.369,0.302-1.651,0.458c3.186,0.329,8.006,0.075,10.232,0.07
		c-0.857-0.018-1.881-0.044-2.407-0.112l8.912-0.669c1.403,0.181,0.29,0.327-0.812,0.47c1.805-0.053,3.054-0.275,5.708-0.316
		c-0.687,0.392-0.522,0.797-4.28,0.982l8.492-0.435c0.567,0.17,4.358,0.469,3.255,0.613c4.708,0.23,11.548-0.761,17.789-0.457
		c0.324-0.076,0.975-0.149,2.302-0.205c5.866,0.088,11.062,0.57,18.015,0.032l3.945,0.703c5.445-0.16-5.34-0.886,3.726-1.151
		c6.419-0.224,2.396,0.6,4.648,0.795c3.192-0.354,8.742-1.075,14.639-0.503C420.305,9.704,418.775,9.6,416.951,9.652z M484.104,9.34
		c-1.301,0.101-3.895,0.414-4.847,0.129C480.74,8.916,481.886,9.181,484.104,9.34z M586.188,8.179
		c-0.967,0.159-2.464,0.08-4.152-0.103C583.261,8.037,584.649,8.055,586.188,8.179z M870.56,4.82
		c-0.056,0.008-0.094,0.014-0.139,0.023C867.519,4.655,868.548,4.73,870.56,4.82z M876.587,5.029
		c0.606-0.067,0.564-0.134,0.308-0.202c-0.421,0.122-1.774,0.131-3.315,0.096C874.008,5.05,874.787,5.137,876.587,5.029z
		 M229.321,5.219l1.173,0.126C227.845,5.485,228.586,5.359,229.321,5.219z"/>
	<path fill="#9DE06D" d="M574.613,8.839c-0.368-0.081-0.47-0.171-0.557-0.262C573.545,8.658,573.534,8.752,574.613,8.839z"/>
	<path fill="#9DE06D" d="M375.187,9.905c-0.069-0.004-0.136-0.002-0.204-0.006c-0.112,0.029-0.172,0.059-0.205,0.087L375.187,9.905z
		"/>
	<path fill="#9DE06D" d="M783.223,9.12c-1.24-0.07-1.933-0.157-2.393-0.249C780.762,8.988,781.326,9.089,783.223,9.12z"/>
	<path fill="#9DE06D" d="M908.527,4.209l-3.861,0.126c1.867-0.024,2.534,0.082,3.477,0.158
		C908.058,4.381,907.32,4.217,908.527,4.209z"/>
	<path fill="#9DE06D" d="M942.038,7.195c0.564-0.059,1.196-0.007,1.753-0.066l-0.154-0.224C941.233,6.919,939.553,7.1,942.038,7.195
		z"/>
	<path fill="#9DE06D" d="M912.102,5.812c0.306,0.406,2.728,0.268,5.432,0.193c-0.163,0.001-0.317,0.005-0.478,0
		C917.853,5.438,914.971,5.625,912.102,5.812z"/>
	<path fill="#9DE06D" d="M918.161,5.991c0.834-0.019,1.684-0.029,2.5-0.01C920.978,5.754,919.647,5.934,918.161,5.991z"/>
	<path fill="#9DE06D" d="M884.233,4.76c1.282,0.104,0.805-0.519,1.53-0.354C887.195,3.89,877.212,5.031,884.233,4.76z"/>
	<polygon fill="#9DE06D" points="914.291,7.149 913.322,6.648 911.806,7.052 	"/>
	<path fill="#9DE06D" d="M892.937,6.781l4.321,0.139c-0.065-0.084,0.484-0.133,1.158-0.17
		C895.754,6.733,892.836,6.633,892.937,6.781z"/>
	<path fill="#9DE06D" d="M898.417,6.75c1.387,0.009,2.706-0.002,3.478-0.084C901.144,6.672,899.529,6.688,898.417,6.75z"/>
	<polygon fill="#9DE06D" points="908.384,7.3 907.106,7.195 904.055,7.159 	"/>
	<path fill="#9DE06D" d="M846.484,6.685l-4.716,0.143c-0.481,0.172,0.805,0.277,2.561,0.209
		C845.458,6.917,847.207,6.851,846.484,6.685z"/>
	<path fill="#9DE06D" d="M860.747,8.057c-1.276-0.104-1.361-0.216-2.08-0.381l-0.143,0.621L860.747,8.057z"/>
	<path fill="#9DE06D" d="M846.993,8.202c-0.47,0.172-6.845,0.494-0.867,0.456C846.605,8.487,851.329,8.344,846.993,8.202z"/>
	<polygon fill="#9DE06D" points="775.931,7.416 777.13,7.408 776.958,6.39 	"/>
	<path fill="#9DE06D" d="M713.298,9.853c5.588,0.244,1.327-0.629,6.377-0.324c1.312-0.241-4.128-0.249-2.782-0.457
		C713.519,9.327,711.748,9.184,713.298,9.853z"/>
	<path fill="#9DE06D" d="M716.892,9.072c0.54-0.04,1.113-0.089,1.722-0.154C717.637,8.981,717.177,9.03,716.892,9.072z"/>
	<polygon fill="#9DE06D" points="9.904,4.703 6.31,4.49 8.63,4.832 	"/>
	<path fill="#9DE06D" d="M3.005,5.458L2.159,4.809L0,5.396C0.812,5.368,2.388,5.312,3.005,5.458z"/>
	<path fill="#9DE06D" d="M494.088,10.648l0.274-0.156c-0.556-0.169-1.398-0.181-3.083-0.208L494.088,10.648z"/>
	<polygon fill="#9DE06D" points="445.348,10.162 446.187,10.175 444.619,9.589 	"/>
	<path fill="#9DE06D" d="M404.441,10.911c1.669,0.025,3.632-0.106,5.309-0.081C406.11,10.935,403.989,10.179,404.441,10.911z"/>
</g>
</svg>
