<?xml version="1.0" encoding="utf-8"?>
<!-- Generator: Adobe Illustrator 17.0.0, SVG Export Plug-In . SVG Version: 6.00 Build 0)  -->
<!DOCTYPE svg PUBLIC "-//W3C//DTD SVG 1.0//EN" "http://www.w3.org/TR/2001/REC-SVG-20010904/DTD/svg10.dtd">
<svg version="1.0" id="Capa_1" xmlns="http://www.w3.org/2000/svg" xmlns:xlink="http://www.w3.org/1999/xlink" x="0px" y="0px"
	 width="1113.186px" height="34.755px" viewBox="0 0 1113.186 34.755" enable-background="new 0 0 1113.186 34.755"
	 xml:space="preserve">
<g>
	<path opacity="0.1091" fill="#91DC5A" d="M24.085,32.351c14.897,0.124,29.787,0.267,44.686,0.228
		c39.617-0.105,79.233,0.048,118.85,0.022c124.456-0.082,248.912-0.071,373.368-0.073c125.259-0.001,250.518-0.002,375.777,0.06
		c40.66,0.02,81.32-0.118,121.98-0.05c16.431,0.027,32.867,0.179,49.298,0.078c2.072-0.013,0.794-2.631,0.209-3.217
		c-1.953-1.66-4.035-3.142-6.246-4.445c-2.146-1.408-4.395-2.621-6.747-3.639c-3.471-0.499-7.028-0.35-10.529-0.407
		c-4.385-0.072-8.76-0.008-13.146,0.059c-5.933,0.09-11.897-0.191-17.832-0.251c-16.688-0.169-33.447-0.644-50.12,0.137
		c-10.43,0.488-20.882,0.22-31.323,0.176c-13.945-0.058-27.889-0.098-41.834-0.135c-124.316-0.334-248.633-0.302-372.949-0.303
		c-125.401-0.001-250.802-0.012-376.202,0.322c-12.041,0.032-24.082,0.074-36.123,0.121c-10.813,0.042-21.622,0.199-32.429-0.233
		c-3.823-0.356-7.653-0.461-11.491-0.315c-5.629,0.024-11.258,0.054-16.887,0.084c-8.282,0.044-16.564,0.116-24.846,0.211
		c-11.769,0.135-23.519,0.054-35.288-0.054c-2.888-0.027-5.841-0.628-8.737-0.8c-1.249-0.074-2.497-0.148-3.746-0.222
		c-0.943,0.14-1.384,0.686-1.323,1.637c0.479,1.524,1.407,2.742,2.785,3.655c2.129,1.923,4.357,3.723,6.684,5.4
		C21.109,31.552,22.495,32.203,24.085,32.351z"/>
	<path opacity="0.1091" fill="#91DC5A" d="M14.836,25.748c3.662-0.088,7.303-0.155,10.966-0.045
		c11.048,0.33,22.132,0.152,33.183,0.11c39.612-0.152,79.22,0.069,118.832,0.031c124.473-0.12,248.947-0.103,373.42-0.105
		c125.244-0.002,250.488-0.002,375.732,0.087c22.823,0.016,45.647,0.039,68.47,0.073c9.664,0.014,19.326-0.177,28.991-0.192
		c8.184-0.012,16.369,0.027,24.554,0.047c16.407,0.039,32.815,0.141,49.223,0.12c2.174-0.003,0.73-2.685,0.146-3.26
		c-2.068-1.739-4.264-3.299-6.589-4.68c-2.26-1.486-4.624-2.778-7.092-3.875c-4.187-0.594-8.475-0.424-12.7-0.493
		c-4.73-0.077-9.457,0.127-14.188,0.04c-6.266-0.114-12.533-0.181-18.8-0.247c-7.842-0.083-15.685-0.122-23.527-0.164
		c-3.562-0.039-7.124-0.038-10.686,0.005c-6.041,0.037-12.041,0.354-18.075,0.655c-4.071-0.024-8.142-0.046-12.214-0.066
		c-6.481-0.033-12.963-0.059-19.444-0.086c-11.732-0.048-23.463-0.082-35.195-0.115c-124.307-0.351-248.616-0.316-372.924-0.317
		C421.51,13.269,296.1,13.256,170.692,13.608c-12.045,0.034-24.09,0.078-36.134,0.128c-10.807,0.044-21.608,0.208-32.407-0.256
		c-3.815-0.363-7.637-0.47-11.467-0.32c-5.631,0.025-11.262,0.056-16.892,0.088c-8.288,0.046-16.575,0.121-24.863,0.222
		c-11.773,0.144-23.526,0.068-35.298-0.066c-2.855-0.032-5.762-0.627-8.626-0.782c-1.228-0.066-2.457-0.133-3.685-0.199
		c-0.98,0.121-1.414,0.672-1.302,1.653c0.59,1.6,1.623,2.877,3.099,3.832c2.325,2.033,4.748,3.941,7.269,5.725
		C11.659,24.844,13.143,25.549,14.836,25.748z"/>
	<path opacity="0.1091" fill="#91DC5A" d="M18.859,16.647c1.045,0.053,2.089,0.105,3.134,0.157c0.985,0.049,1.969,0.097,2.954,0.145
		c1.936,0.095,3.728-0.104,5.656-0.3c4.62-0.471,9.33-0.164,13.973-0.164c6.367-0.001,12.734-0.009,19.101-0.009
		c39.624-0.001,79.248,0,118.873,0c124.435,0,248.87,0,373.305,0c182.374,0,364.748,0,547.122,0c1.076,0,2.727-1.136,2.709-2.338
		c-0.015-1.02-1.681-3.236-2.793-3.236c-179.048,0-358.096,0-537.144,0c-125.277,0-250.553,0-375.83,0c-40.646,0-81.291,0-121.937,0
		c-11.762,0-23.523,0.049-35.285-0.091c-1.356,0.204-2.712,0.408-4.068,0.612c-1.879,0.283-3.47,0.082-5.351-0.114
		c-1.575-0.165-3.15-0.329-4.725-0.493c-1.101-0.115-2.771,1.151-2.709,2.338C15.901,14.251,17.679,16.588,18.859,16.647z"/>
	<path opacity="0.1091" fill="#91DC5A" d="M21.904,21.623c3.758-0.063,7.497-0.111,11.255,0.012
		c11.033,0.363,22.101,0.195,33.138,0.162c39.615-0.118,79.225,0.065,118.84,0.027c124.471-0.12,248.942-0.102,373.413-0.105
		c125.247-0.003,250.494-0.003,375.741,0.084c22.826,0.016,45.653,0.038,68.479,0.071c17.843,0.026,35.687-0.183,53.532-0.143
		c11.716,0.026,23.432,0.1,35.148,0.07c4.703-0.012,9.412,0.115,14.114,0.024c4.772-0.092-3.377-7.153-3.301-7.082
		c-3.358-3.113-6.819-6.107-10.383-8.98c-1.755-1.768-3.79-3.047-6.107-3.837c-0.807-0.213-1.605-0.173-2.44-0.19
		c-2.843-0.059-5.687-0.112-8.531-0.157c-4.721-0.074-9.436,0.127-14.157,0.014c-6.235-0.15-12.47-0.237-18.706-0.323
		c-7.824-0.108-15.648-0.166-23.473-0.203c-9.713-0.046-19.352,0.324-29.046,0.888c-4.062-0.032-8.124-0.062-12.186-0.089
		c-6.469-0.045-12.939-0.08-19.408-0.116c-11.715-0.065-23.431-0.111-35.146-0.155C798.419,1.119,674.155,1.168,549.894,1.167
		c-125.463-0.001-250.928-0.024-376.39,0.466c-12.065,0.047-24.129,0.11-36.194,0.177c-10.731,0.06-21.442,0.201-32.158-0.436
		c-3.809-0.404-7.627-0.52-11.454-0.346C88.052,1.062,82.406,1.106,76.76,1.15c-8.326,0.065-16.651,0.175-24.976,0.31
		C40.096,1.65,28.46,1.551,16.778,1.169c-1.304-0.195-2.607-0.39-3.911-0.584c-1.501-0.224-2.956-0.316-4.47-0.393
		c-1.22-0.062-2.439-0.124-3.659-0.186C0.097-0.231,7.054,7.199,7.159,7.321c2.943,3.408,6.002,6.709,9.177,9.902
		C17.86,19.145,19.716,20.612,21.904,21.623z"/>
	<path opacity="0.1091" fill="#91DC5A" d="M26.629,15.892c2.22-0.198,4.439-0.407,6.657-0.62c-0.308,0.011-0.615,0.021-0.923,0.032
		c23.953,0.081,47.906,0.011,71.859-0.016c43.617-0.049,87.235,0.043,130.852,0.043c122.253,0,244.507-0.029,366.76-0.027
		c169.062,0.003,338.124,0.004,507.186,0.027c1.168,0,2.957-0.753,2.766-2.271c-0.289-0.937-0.768-1.769-1.436-2.497
		c-0.584-0.797-1.307-1.428-2.169-1.895c-182.333,0.024-364.667-0.018-547-0.018c-124.475,0-248.951,0.018-373.426,0.018
		c-39.625,0-79.249-0.01-118.874,0c-11.06,0.003-22.123-0.066-33.183,0.005c-3.706,0.024-7.304,0.29-10.984,0.674
		c-1.628,0.17-2.327,1.839-1.711,3.166C23.652,13.914,24.845,16.051,26.629,15.892z"/>
	<path opacity="0.1091" fill="#91DC5A" d="M12.621,24.951c1.046,0.037,2.091,0.073,3.137,0.109c2.888,0.1,5.646,0.087,8.528-0.17
		c4.618-0.412,9.31-0.136,13.945-0.133c6.368,0.005,12.736-0.004,19.104-0.004c39.624,0.001,79.249,0,118.873,0
		c124.435,0,248.87,0,373.305,0c182.374-0.001,364.748,0,547.122,0c1.106,0,2.474-1.738,2.211-2.814
		c-0.291-1.187-2.369-2.822-3.591-2.822c-179.048,0-358.096,0-537.144,0c-125.277,0-250.554,0-375.83,0
		c-40.646,0-81.292,0.001-121.937,0c-11.775,0-23.548,0.034-35.322-0.091c-1.31,0.174-2.62,0.349-3.93,0.523
		c-1.832,0.244-3.483,0.087-5.32-0.054c-1.588-0.122-3.176-0.243-4.763-0.365c-1.141-0.087-2.506,1.751-2.211,2.814
		C9.144,23.197,11.326,24.905,12.621,24.951z"/>
	<path opacity="0.1091" fill="#91DC5A" d="M18.314,34.476c14.815,0.102,29.622,0.254,44.44,0.2
		c39.612-0.143,79.221,0.059,118.833,0.029c124.468-0.094,248.936-0.082,373.404-0.083c125.248-0.002,250.496-0.001,375.744,0.071
		c22.826,0.013,45.652,0.032,68.479,0.059c17.841,0.022,35.683-0.151,53.525-0.115c16.392,0.033,32.798-0.143,49.188,0.118
		c1.773,0.028,3.027-1.752,1.58-3.211c-1.365-1.091-2.845-1.996-4.443-2.715c-1.544-0.827-3.165-1.448-4.861-1.864
		c-3.667-0.182-7.363-0.087-11.033-0.134c-4.737-0.061-9.473,0.085-14.211,0.039c-6.277-0.061-12.553-0.097-18.83-0.132
		c-17.403-0.097-34.803-0.261-52.2,0.25c-4.074-0.012-8.149-0.023-12.223-0.034c-6.486-0.017-12.971-0.03-19.457-0.044
		c-11.738-0.025-23.475-0.042-35.213-0.059c-124.326-0.18-248.651-0.162-372.977-0.164c-125.388-0.001-250.776-0.006-376.164,0.17
		c-22.884,0.032-45.799,0.434-68.679-0.021c-3.8-0.232-7.603-0.301-11.409-0.208c-5.625,0.013-11.249,0.028-16.874,0.043
		c-8.271,0.023-16.543,0.058-24.814,0.108c-11.819,0.071-23.635,0.011-35.453,0.055c-4.187,0.016-8.43-0.463-12.618-0.665
		c-1.637-0.079-3.178,1.367-1.942,3.006c1.144,1.187,2.426,2.203,3.847,3.049C15.308,33.17,16.762,33.921,18.314,34.476z"/>
	<path opacity="0.1091" fill="#91DC5A" d="M27.967,21.185c14.817,0.076,29.626,0.352,44.448,0.301
		c39.612-0.137,79.22,0.07,118.833,0.03c124.476-0.124,248.953-0.105,373.43-0.108c125.242-0.003,250.484-0.003,375.726,0.088
		c22.822,0.017,45.644,0.04,68.466,0.074c17.851,0.027,35.703-0.191,53.556-0.149c16.41,0.039,32.826,0.216,49.236,0.116
		c4.106-0.025-1.35-5.809-1.667-6.156c-2.403-2.606-4.918-5.1-7.544-7.481c-1.278-1.512-2.84-2.549-4.688-3.109
		c-0.766-0.192-1.55-0.14-2.338-0.155c-2.826-0.054-5.653-0.106-8.479-0.156c-4.731-0.084-9.458,0.134-14.19,0.031
		c-6.215-0.136-12.432-0.215-18.648-0.292c-7.811-0.098-15.624-0.145-23.435-0.183c-3.576-0.044-7.151-0.033-10.726,0.032
		c-6.167,0.064-12.292,0.421-18.449,0.757c-4.058-0.029-8.115-0.056-12.173-0.08c-6.464-0.041-12.927-0.072-19.391-0.104
		c-11.708-0.058-23.415-0.099-35.123-0.139C810.571,4.079,686.329,4.123,562.089,4.122c-125.484-0.001-250.969-0.021-376.452,0.41
		c-12.072,0.041-24.144,0.097-36.216,0.156c-10.737,0.053-21.465,0.213-32.191-0.345c-3.761-0.402-7.532-0.518-11.311-0.346
		c-5.651,0.03-11.302,0.068-16.954,0.107c-8.337,0.056-16.675,0.15-25.011,0.268c-11.721,0.167-23.405,0.064-35.123-0.17
		c-1.268-0.17-2.537-0.34-3.805-0.51c-1.46-0.196-2.895-0.293-4.364-0.38c-1.193-0.071-2.386-0.141-3.579-0.211
		c-3.894-0.229,0.135,5.446,0.64,6.2c1.928,2.846,3.983,5.597,6.165,8.254C24.901,19.194,26.26,20.405,27.967,21.185z"/>
	<path opacity="0.1091" fill="#91DC5A" d="M15.17,20.198c14.656-0.478,29.343-0.139,44.007-0.196
		c39.608-0.154,79.213,0.03,118.821,0.03c124.478,0,248.956-0.072,373.435-0.074c125.237-0.002,250.474-0.002,375.711,0.069
		c40.676,0.023,81.352-0.132,122.027-0.051c16.419,0.033,32.838,0.085,49.256,0.058c1.268-0.002,2.802-1.393,2.252-2.781
		c-0.561-0.934-1.285-1.723-2.171-2.369c-0.816-0.733-1.738-1.276-2.768-1.631c-14.92,0.034-29.841-0.013-44.761-0.057
		c-39.692-0.117-79.382,0.061-119.075,0.053c-124.332-0.028-248.663-0.082-372.995-0.083c-125.38-0.001-250.76-0.006-376.141,0.083
		c-40.593,0.029-81.182-0.158-121.774-0.046c-15.984,0.044-31.968,0.079-47.951-0.001c-1.244-0.006-2.934,1.079-2.476,2.584
		c0.484,0.98,1.142,1.829,1.974,2.549C13.294,19.134,14.17,19.756,15.17,20.198z"/>
	<path opacity="0.1091" fill="#91DC5A" d="M19.24,15.346c14.805,0.363,29.603,0.405,44.413,0.336
		c39.609-0.184,79.214,0.075,118.824,0.035c124.482-0.125,248.965-0.108,373.447-0.11c125.236-0.003,250.473-0.003,375.709,0.093
		c22.817,0.017,45.634,0.042,68.451,0.079c9.682,0.016,19.362-0.2,29.045-0.208c8.179-0.007,16.359,0.033,24.538,0.054
		c16.394,0.042,32.789-0.001,49.182,0.141c0.939-0.088,1.415-0.604,1.426-1.548c-0.354-1.525-1.176-2.778-2.466-3.759
		c-1.951-2.013-4.01-3.91-6.175-5.69c-1.083-1.207-2.398-1.924-3.948-2.151c-0.791-0.138-1.587-0.107-2.39-0.12
		c-2.84-0.045-5.681-0.088-8.521-0.129c-4.736-0.068-9.468,0.122-14.205,0.046c-6.253-0.1-12.507-0.157-18.76-0.214
		c-7.832-0.071-15.664-0.1-23.496-0.145c-3.557-0.036-7.115-0.04-10.672-0.012c-6.078,0.02-12.12,0.308-18.192,0.578
		c-4.068-0.021-8.135-0.04-12.203-0.057c-6.477-0.029-12.954-0.051-19.43-0.074c-11.726-0.041-23.451-0.07-35.177-0.099
		c-124.292-0.3-248.586-0.268-372.878-0.269C430.336,2.121,304.911,2.108,179.487,2.404c-12.051,0.028-24.102,0.066-36.153,0.108
		c-10.796,0.038-21.59,0.235-32.379-0.195c-3.798-0.327-7.602-0.424-11.413-0.29c-5.634,0.02-11.268,0.046-16.902,0.071
		c-8.297,0.037-16.595,0.096-24.892,0.183C45.957,2.407,34.177,2.361,22.385,2.303c-4.163-0.02-8.418-0.798-12.558-1.257
		C8.887,1.024,8.353,1.479,8.225,2.41c0.16,1.547,0.818,2.882,1.974,4.004c1.681,2.218,3.482,4.333,5.403,6.345
		C16.525,14.079,17.737,14.942,19.24,15.346z"/>
	<path opacity="0.1091" fill="#91DC5A" d="M27.171,27.069c14.852,0.008,29.7,0.288,44.556,0.245
		c39.616-0.113,79.228,0.06,118.844,0.026c124.464-0.106,248.929-0.091,373.393-0.093c125.252-0.002,250.504-0.001,375.756,0.076
		c22.831,0.014,45.661,0.034,68.492,0.063c17.835,0.023,35.669-0.164,53.505-0.128c16.42,0.034,32.857,0.296,49.276,0.091
		c4.348-0.054-2.414-6.136-2.403-6.125c-2.747-2.47-5.595-4.818-8.543-7.045c-1.466-1.438-3.176-2.376-5.132-2.815
		c-0.784-0.198-1.576-0.15-2.384-0.166c-2.838-0.055-5.676-0.109-8.514-0.16c-4.727-0.086-9.449,0.135-14.177,0.027
		c-6.234-0.142-12.47-0.225-18.705-0.307c-7.825-0.103-15.65-0.154-23.475-0.19c-3.577-0.045-7.154-0.031-10.73,0.043
		c-6.115,0.074-12.187,0.438-18.292,0.785c-4.063-0.03-8.126-0.058-12.189-0.083c-6.47-0.042-12.941-0.075-19.411-0.108
		c-11.716-0.06-23.433-0.104-35.149-0.145c-124.263-0.444-248.529-0.4-372.793-0.401c-125.458-0.001-250.919-0.02-376.376,0.434
		c-12.062,0.044-24.124,0.102-36.186,0.163c-10.754,0.055-21.497,0.205-32.24-0.37c-3.788-0.417-7.586-0.537-11.393-0.359
		c-5.645,0.033-11.29,0.074-16.935,0.115c-8.321,0.06-16.642,0.161-24.962,0.285c-11.718,0.174-23.395,0.059-35.109-0.212
		c-1.304-0.185-2.609-0.369-3.913-0.554c-1.486-0.21-2.939-0.311-4.435-0.398c-1.204-0.07-2.408-0.14-3.612-0.209
		c-4.149-0.239,1.174,5.976,1.412,6.263c2.301,2.738,4.719,5.37,7.253,7.894C23.816,25.291,25.34,26.411,27.171,27.069z"/>
	<path opacity="0.1091" fill="#91DC5A" d="M13.682,29.728c3.488-0.266,6.908-0.502,10.412-0.458
		c11.08,0.139,22.172,0.033,33.253,0.002c39.61-0.111,79.218,0.035,118.828,0.025c124.47-0.033,248.939-0.054,373.409-0.055
		C674.83,29.24,800.077,29.24,925.323,29.29c40.669,0.016,81.337-0.094,122.006-0.036c16.424,0.024,32.849,0.072,49.273,0.045
		c1.282-0.002,2.428-1.965,1.814-3.085c-0.767-1.398-3.586-3.048-5.178-3.045c-14.924,0.033-29.849-0.013-44.773-0.049
		c-39.681-0.096-79.362,0.066-119.043,0.042c-124.348-0.075-248.695-0.067-373.043-0.067
		c-125.364-0.001-250.728-0.005-376.092,0.067c-40.601,0.023-81.199-0.123-121.8-0.038c-11.789,0.025-23.579-0.017-35.368,0.044
		c-2.932,0.015-5.805-0.116-8.724,0.182c-1.061,0.108-2.121,0.218-3.182,0.329c-1.181,0.124-2.532,1.719-2.031,2.947
		C9.686,27.861,12.298,29.833,13.682,29.728z"/>
</g>
</svg>
