<?xml version="1.0" encoding="utf-8"?>
<!-- Generator: Adobe Illustrator 17.0.0, SVG Export Plug-In . SVG Version: 6.00 Build 0)  -->
<!DOCTYPE svg PUBLIC "-//W3C//DTD SVG 1.1//EN" "http://www.w3.org/Graphics/SVG/1.1/DTD/svg11.dtd">
<svg version="1.1" id="Capa_1" xmlns="http://www.w3.org/2000/svg" xmlns:xlink="http://www.w3.org/1999/xlink" x="0px" y="0px"
	 width="200px" height="200px" viewBox="2635.855 1378.689 200 200" enable-background="new 2635.855 1378.689 200 200"
	 xml:space="preserve">
<g>
	<g>
		<path fill="#FFFFFF" d="M2663.512,1378.689v200h144.685v-200H2663.512z M2799.752,1570.244h-127.795v-183.11h127.795V1570.244z"/>
		<rect x="2692.025" y="1481.248" fill="#FFFFFF" width="91.879" height="8.628"/>
		<rect x="2692.025" y="1501.322" fill="#FFFFFF" width="91.879" height="8.635"/>
		<rect x="2692.025" y="1521.376" fill="#FFFFFF" width="91.879" height="8.635"/>
		<rect x="2692.025" y="1539.871" fill="#FFFFFF" width="91.879" height="8.628"/>
		<path fill="#FFFFFF" d="M2742.695,1442.489l1.343,4.534h10.148l-11.596-31.808h-9.572l-11.708,31.808h9.84l1.428-4.534H2742.695z
			 M2737.794,1425.867h0.092l2.85,9.808h-6.008L2737.794,1425.867z"/>
		<polygon fill="#FFFFFF" points="2763.817,1424.537 2763.817,1432.373 2755.975,1432.373 2755.975,1439.187 2763.817,1439.187 
			2763.817,1447.029 2770.637,1447.029 2770.637,1439.187 2778.473,1439.187 2778.473,1432.373 2770.637,1432.373 
			2770.637,1424.537 		"/>
		<path fill="#FFFFFF" d="M2748.637,1471.813c21.935,0,39.774-14.138,39.774-36.066c0-21.928-17.846-39.762-39.774-39.762
			c-6.709,0-17.008,3.25-18.587,4.639c-1.592,1.402-1.088,4.593,1.854,3.217c2.955-1.376,10.686-4.147,16.733-4.147
			c19.877,0,36.066,16.176,36.066,36.053c0,19.877-16.189,32.352-36.066,32.352c-19.878,0-36.053-12.468-36.053-32.352
			c0-6.303,3.315-16.13,4.494-17.381c1.179-1.265-1.795-4.475-2.988-2.234c-1.173,2.234-5.215,12.481-5.215,19.615
			C2708.875,1457.675,2726.709,1471.813,2748.637,1471.813z"/>
	</g>
</g>
</svg>
