<?xml version="1.0" encoding="utf-8"?>
<!-- Generator: Adobe Illustrator 17.0.0, SVG Export Plug-In . SVG Version: 6.00 Build 0)  -->
<!DOCTYPE svg PUBLIC "-//W3C//DTD SVG 1.1//EN" "http://www.w3.org/Graphics/SVG/1.1/DTD/svg11.dtd">
<svg version="1.1" id="Capa_1" xmlns="http://www.w3.org/2000/svg" xmlns:xlink="http://www.w3.org/1999/xlink" x="0px" y="0px"
	 width="337.487px" height="173.636px" viewBox="-1.499 -1.5 337.487 173.636" enable-background="new -1.499 -1.5 337.487 173.636"
	 xml:space="preserve">
<g>
	<path fill="#C68222" d="M45.004,172.136c-0.001,0-0.001,0-0.002,0c-10.443-0.001-20.509-3.35-29.111-9.684
		c-9.75-7.183-16.018-19.36-17.197-33.411c-1.104-13.161,2.585-25.863,9.628-33.148c12.796-13.235,24.524-15.928,38.104-19.045
		c3.33-0.764,6.774-1.555,10.42-2.536c4.553-1.225,9.224-2.221,14.169-3.276c15.173-3.236,32.371-6.905,51.247-18.748
		c25.166-15.79,63.062-31.797,85.145-30.841c24.054,1.024,43.509,16.542,57.824,46.12c14.946,30.884,7.352,66.625-16.931,79.674
		c-5.216,2.804-10.886,4.225-16.852,4.225c-15.168,0-29.715-8.782-42.55-16.53c-2.368-1.43-4.604-2.78-6.766-4.024
		c-16.191-9.325-28.278-13.305-40.415-13.305c-3.657,0-7.364,0.393-11.017,1.167c-13.078,2.771-25.568,15.259-37.646,27.336
		c-4.247,4.246-8.637,8.636-12.914,12.437C70.423,167.182,57.615,172.136,45.004,172.136z M205.499,24.407
		c-21.767,0-57.548,15.304-81.643,30.422C104.53,66.954,87.057,70.681,71.64,73.97c-4.905,1.046-9.539,2.035-14.015,3.239
		c-3.7,0.995-7.171,1.792-10.528,2.563c-13.655,3.135-24.441,5.611-36.618,18.208c-6.459,6.681-9.83,18.487-8.796,30.812
		c1.106,13.188,6.934,24.577,15.987,31.246c8.083,5.952,17.534,9.099,27.332,9.1c0,0,0.001,0,0.002,0
		c11.887,0,23.967-4.678,33.144-12.833c4.211-3.742,8.376-7.906,12.785-12.315c12.388-12.387,25.197-25.194,39.146-28.15
		c3.857-0.816,7.773-1.231,11.639-1.231c12.53,0,25.456,4.227,41.913,13.705c2.188,1.26,4.437,2.618,6.818,4.056
		c12.499,7.546,26.667,16.099,40.999,16.099c5.542,0,10.589-1.265,15.432-3.867c22.885-12.298,29.905-46.268,15.649-75.725
		c-13.797-28.507-32.386-43.456-55.25-44.43C206.698,24.419,206.102,24.407,205.499,24.407z"/>
	<path fill="#C68222" d="M240.757,24.546c-6.293,0-11.368-2.967-12.931-7.558c-2.214-6.512,3.194-14.261,12.054-17.273
		c2.372-0.807,4.78-1.215,7.156-1.215c6.293,0,11.368,2.967,12.93,7.558c1.104,3.249,0.396,6.859-1.997,10.167
		c-2.28,3.152-5.853,5.676-10.058,7.105C245.54,24.138,243.134,24.546,240.757,24.546z M247.036,1.5c-2.047,0-4.13,0.355-6.19,1.055
		c-7.294,2.48-11.86,8.522-10.18,13.467c1.143,3.355,5.104,5.524,10.091,5.524c2.047,0,4.13-0.355,6.189-1.055
		c3.621-1.231,6.672-3.371,8.592-6.024c1.807-2.498,2.37-5.142,1.588-7.443C255.984,3.668,252.024,1.5,247.036,1.5z"/>
	<path fill="#C68222" d="M270.02,44.714c-7.538,0-13.604-3.702-15.095-9.211c-1.969-7.283,4.517-15.395,14.458-18.083
		c2.163-0.585,4.352-0.882,6.506-0.882c7.538,0,13.604,3.702,15.095,9.212c0.979,3.624-0.05,7.521-2.898,10.974
		c-2.728,3.306-6.833,5.83-11.56,7.108C274.363,44.417,272.174,44.714,270.02,44.714z M275.889,19.537
		c-1.89,0-3.815,0.262-5.723,0.777c-8.345,2.257-13.883,8.719-12.345,14.405c1.132,4.184,6.034,6.994,12.198,6.994
		c1.89,0,3.815-0.262,5.723-0.777c4.132-1.118,7.693-3.292,10.028-6.122c2.213-2.682,3.036-5.624,2.316-8.282
		C286.956,22.349,282.054,19.537,275.889,19.537z"/>
	<path fill="#C68222" d="M291.236,73.423c-3.641,0-7.115-0.729-10.098-2.15c-4.462-2.126-7.31-5.541-8.018-9.614
		c-1.426-8.208,6.558-16.475,17.797-18.43c11.229-1.949,21.544,3.135,22.972,11.342l0.001,0c1.427,8.207-6.558,16.475-17.798,18.43
		C294.461,73.283,292.832,73.423,291.236,73.423z M295.782,45.804c-1.414,0-2.871,0.123-4.351,0.38
		c-9.609,1.671-16.497,8.383-15.355,14.96c0.537,3.088,2.793,5.724,6.354,7.42c3.732,1.779,8.402,2.305,13.149,1.479
		c9.61-1.671,16.498-8.382,15.356-14.959l-0.001,0C309.966,49.519,303.553,45.804,295.782,45.804z"/>
	<path fill="#C68222" d="M301.825,109.331c-10.624,0-19.054-5.633-20.045-13.394c-0.556-4.355,1.268-8.714,5.136-12.273
		c3.728-3.429,8.945-5.721,14.695-6.455c1.282-0.164,2.579-0.247,3.853-0.247c10.624,0,19.055,5.632,20.046,13.393
		c1.12,8.788-7.776,17.189-19.832,18.729C304.395,109.248,303.099,109.331,301.825,109.331z M305.464,79.964
		c-1.147,0-2.315,0.075-3.474,0.222c-5.138,0.656-9.77,2.675-13.043,5.687c-3.132,2.882-4.62,6.321-4.19,9.686
		c0.797,6.243,7.976,10.773,17.068,10.773c1.147,0,2.315-0.074,3.474-0.223c10.414-1.329,18.146-8.226,17.234-15.373
		C321.736,84.494,314.558,79.964,305.464,79.964z"/>
	<path fill="#C68222" d="M306.401,157.376h-0.118c-16.343-0.048-29.611-9.712-29.579-21.541
		c0.032-11.786,13.305-21.374,29.587-21.374h0.118c16.345,0.049,29.612,9.713,29.578,21.542
		C335.956,147.788,322.684,157.376,306.401,157.376z M306.291,117.461c-14.633,0-26.559,8.246-26.587,18.382
		c-0.028,10.176,11.899,18.49,26.588,18.533h0.109c14.633,0,26.559-8.245,26.586-18.381c0.029-10.176-11.896-18.49-26.587-18.534
		H306.291z"/>
</g>
</svg>
