<?xml version="1.0" encoding="utf-8"?>
<!-- Generator: Adobe Illustrator 17.0.0, SVG Export Plug-In . SVG Version: 6.00 Build 0)  -->
<!DOCTYPE svg PUBLIC "-//W3C//DTD SVG 1.1//EN" "http://www.w3.org/Graphics/SVG/1.1/DTD/svg11.dtd">
<svg version="1.1" id="Capa_1" xmlns="http://www.w3.org/2000/svg" xmlns:xlink="http://www.w3.org/1999/xlink" x="0px" y="0px"
	 width="200px" height="200px" viewBox="1381.876 1378.689 200 200" enable-background="new 1381.876 1378.689 200 200"
	 xml:space="preserve">
<g>
	<circle fill="#FFFFFF" cx="1422.668" cy="1470.463" r="32.084"/>
	<polygon fill="#FFFFFF" points="1453.736,1509.593 1434.342,1507.361 1422.126,1521.546 1410.28,1507.361 1384.42,1512.906 
		1382.632,1569.852 1393.636,1569.852 1394.074,1578.689 1452.103,1578.689 1452.62,1568.644 1461.81,1566.853 	"/>
	<path fill="#FFFFFF" d="M1482.751,1450.046l-12.878,19.205l4.995-0.395c0.344-0.034,33.648-2.82,56.705-7.935
		c30.27-6.688,48.28-20.082,49.475-36.734c1.599-22.653-23.908-42.967-56.843-45.28c-32.926-2.321-61.012,14.219-62.602,36.872
		C1460.692,1428.614,1468.558,1441.286,1482.751,1450.046z M1523.87,1383.729c30.27,2.132,53.765,20.125,52.338,40.122
		c-1.427,20.4-32.419,29.427-45.667,32.359c-17.426,3.86-40.861,6.387-51.022,7.368l10.127-15.13l-2.261-1.281
		c-13.944-7.849-21.785-19.472-20.976-31.052C1467.836,1396.126,1493.592,1381.606,1523.87,1383.729z"/>
</g>
</svg>
