<?xml version="1.0" encoding="utf-8"?>
<!-- Generator: Adobe Illustrator 17.0.0, SVG Export Plug-In . SVG Version: 6.00 Build 0)  -->
<!DOCTYPE svg PUBLIC "-//W3C//DTD SVG 1.1//EN" "http://www.w3.org/Graphics/SVG/1.1/DTD/svg11.dtd">
<svg version="1.1" id="Capa_1" xmlns="http://www.w3.org/2000/svg" xmlns:xlink="http://www.w3.org/1999/xlink" x="0px" y="0px"
	 width="200px" height="200px" viewBox="1769.876 1378.689 200 200" enable-background="new 1769.876 1378.689 200 200"
	 xml:space="preserve">
<g>
	<g>
		<path fill="#FFFFFF" d="M1815.872,1445.631l13.314,2.289c-1.011-3.294-1.681-6.75-1.96-10.317l12.377,1.781v7.563h32.472v-5.348
			h5.733v5.348h32.466v-7.37l10.336-1.601c-0.112,2.506-0.428,5.162-0.918,7.842l10.286-1.936
			c-2.196-27.689-12.799-65.192-56.835-65.192c-6.254,0-13.543,0.769-16.708,2.196c-3.177,1.421-3.747,4.665-5.795,5.354
			c-2.134,0.72-5.162,0.428-7.042,1.34c-29.333,14.127-28.309,48.565-28.309,48.565L1815.872,1445.631z M1868.47,1443.336h-25.263
			v-12.861h25.263V1443.336z M1906.662,1443.336h-25.25v-12.861h25.25V1443.336z M1827.393,1429.352
			c13.053-0.887,27.794-11.167,28.942-25.486c16.521,13.68,39.936,14.35,59.441,16.093c2.438,1.141,4.213,6.049,4.715,12.551
			l-10.218,1.582v-7.222h-32.472v7.513h-5.733v-7.513h-32.472v7.042l-12.545-1.805
			C1827.17,1431.194,1827.288,1430.282,1827.393,1429.352z"/>
		<path fill="#FFFFFF" d="M1951.133,1511.133c0-6.756-2.717-12.65-6.762-16.019v-48.23l-73.592,11.726l-73.617-11.726v46.958
			c-5.031,2.984-8.543,9.585-8.543,17.291c0,7.699,3.511,14.3,8.543,17.284v38.54l73.617,11.732l73.592-11.719v-39.818
			C1948.422,1523.771,1951.133,1517.883,1951.133,1511.133z M1867.434,1571.393l-63.592-10.131v-31.225
			c7.662-0.496,13.779-8.735,13.779-18.904c0-10.175-6.111-18.414-13.779-18.916v-37.51l63.592,10.137V1571.393z M1937.695,1561.262
			l-63.585,10.131v-106.548l63.585-10.137v13.438v24.121c-0.366-0.037-0.695-0.13-1.067-0.13c-8.009,0-14.505,8.512-14.505,18.997
			c0,10.491,6.496,19.003,14.505,19.003c0.372,0,0.701-0.105,1.067-0.136V1561.262z"/>
	</g>
</g>
</svg>
