<?xml version="1.0" encoding="utf-8"?>
<!-- Generator: Adobe Illustrator 17.0.0, SVG Export Plug-In . SVG Version: 6.00 Build 0)  -->
<!DOCTYPE svg PUBLIC "-//W3C//DTD SVG 1.1//EN" "http://www.w3.org/Graphics/SVG/1.1/DTD/svg11.dtd">
<svg version="1.1" xmlns="http://www.w3.org/2000/svg" xmlns:xlink="http://www.w3.org/1999/xlink" x="0px" y="0px" width="200px"
	 height="200px" viewBox="0 0 200 200" enable-background="new 0 0 200 200" xml:space="preserve">
<g id="Capa_1">
</g>
<g id="Capa_4_copia" display="none">
	<g id="Capa_6" display="inline">
		<g>
			<circle fill="#808080" cx="3855" cy="674.564" r="11.443"/>
			<circle fill="#FFFFFF" cx="3891" cy="674.564" r="11.443"/>
			<circle fill="#FFFFFF" cx="3927" cy="674.564" r="11.443"/>
			<circle fill="#FFFFFF" cx="3963" cy="674.564" r="11.443"/>
			<circle fill="#FFFFFF" cx="3999" cy="674.564" r="11.443"/>
		</g>
	</g>
</g>
<g id="Capa_3" display="none">
	<rect x="3286" y="106" display="inline" fill="#B3B3B3" width="1280" height="587"/>
	<g display="inline">
		<circle fill="#47763B" cx="3926" cy="399.5" r="185.329"/>
		<g>
			<g opacity="0.95">
				<g>
					<defs>
						<path id="SVGID_1_" d="M4085.166,373.02c-0.847,6.408-2.542,12.551-4.872,18.323c-4.978-2.436-11.015-0.635-13.822,4.237
							c-2.807,4.819-1.377,10.962,3.23,14.034c-3.866,5.031-8.367,9.532-13.398,13.398c-3.124-4.554-9.215-6.037-14.086-3.23
							c-4.819,2.807-6.62,8.897-4.184,13.822c-5.825,2.383-11.968,4.078-18.376,4.925c-0.371-5.56-4.925-9.85-10.539-9.85
							c-5.561,0-10.168,4.29-10.539,9.85c-6.408-0.847-12.551-2.542-18.323-4.925c2.436-4.925,0.635-11.015-4.237-13.822
							c-4.819-2.807-10.962-1.324-14.034,3.23c-5.031-3.866-9.532-8.367-13.398-13.398c4.554-3.072,6.037-9.215,3.23-14.034
							c-2.807-4.872-8.897-6.673-13.822-4.237c-2.383-5.773-4.078-11.915-4.925-18.323c5.561-0.371,9.85-4.978,9.85-10.539
							c0-5.613-4.29-10.168-9.85-10.539c0.847-6.408,2.542-12.551,4.925-18.376c4.925,2.436,11.015,0.635,13.822-4.184
							c2.807-4.872,1.324-10.962-3.23-14.087c3.866-5.031,8.367-9.533,13.398-13.398c3.072,4.607,9.215,6.037,14.034,3.23
							c4.872-2.807,6.673-8.844,4.236-13.822c5.772-2.33,11.916-4.025,18.323-4.872c0.371,5.507,4.978,9.85,10.539,9.85
							c5.614,0,10.168-4.343,10.539-9.85c6.408,0.847,12.551,2.542,18.376,4.872c-2.436,4.978-0.635,11.015,4.184,13.822
							c4.819,2.754,10.962,1.377,14.086-3.177c4.978,3.866,9.48,8.367,13.345,13.345c-4.554,3.124-5.931,9.268-3.177,14.087
							c2.807,4.819,8.844,6.62,13.822,4.184c2.33,5.826,4.025,11.969,4.872,18.376c-5.508,0.371-9.85,4.925-9.85,10.539
							C4075.316,368.041,4079.658,372.649,4085.166,373.02z"/>
					</defs>
					<clipPath id="SVGID_2_">
						<use xlink:href="#SVGID_1_"  overflow="visible"/>
					</clipPath>
				</g>
				<g>
					<defs>
						<path id="SVGID_3_" d="M4085.166,373.02c-0.847,6.408-2.542,12.551-4.872,18.323c-4.978-2.436-11.015-0.635-13.822,4.237
							c-2.807,4.819-1.377,10.962,3.23,14.034c-3.866,5.031-8.367,9.532-13.398,13.398c-3.124-4.554-9.215-6.037-14.086-3.23
							c-4.819,2.807-6.62,8.897-4.184,13.822c-5.825,2.383-11.968,4.078-18.376,4.925c-0.371-5.56-4.925-9.85-10.539-9.85
							c-5.561,0-10.168,4.29-10.539,9.85c-6.408-0.847-12.551-2.542-18.323-4.925c2.436-4.925,0.635-11.015-4.237-13.822
							c-4.819-2.807-10.962-1.324-14.034,3.23c-5.031-3.866-9.532-8.367-13.398-13.398c4.554-3.072,6.037-9.215,3.23-14.034
							c-2.807-4.872-8.897-6.673-13.822-4.237c-2.383-5.773-4.078-11.915-4.925-18.323c5.561-0.371,9.85-4.978,9.85-10.539
							c0-5.613-4.29-10.168-9.85-10.539c0.847-6.408,2.542-12.551,4.925-18.376c4.925,2.436,11.015,0.635,13.822-4.184
							c2.807-4.872,1.324-10.962-3.23-14.087c3.866-5.031,8.367-9.533,13.398-13.398c3.072,4.607,9.215,6.037,14.034,3.23
							c4.872-2.807,6.673-8.844,4.236-13.822c5.772-2.33,11.916-4.025,18.323-4.872c0.371,5.507,4.978,9.85,10.539,9.85
							c5.614,0,10.168-4.343,10.539-9.85c6.408,0.847,12.551,2.542,18.376,4.872c-2.436,4.978-0.635,11.015,4.184,13.822
							c4.819,2.754,10.962,1.377,14.086-3.177c4.978,3.866,9.48,8.367,13.345,13.345c-4.554,3.124-5.931,9.268-3.177,14.087
							c2.807,4.819,8.844,6.62,13.822,4.184c2.33,5.826,4.025,11.969,4.872,18.376c-5.508,0.371-9.85,4.925-9.85,10.539
							C4075.316,368.041,4079.658,372.649,4085.166,373.02z"/>
					</defs>
					<use xlink:href="#SVGID_3_"  overflow="visible" fill="#47763B"/>
					<clipPath id="SVGID_4_">
						<use xlink:href="#SVGID_3_"  overflow="visible"/>
					</clipPath>
					<path clip-path="url(#SVGID_4_)" fill="#47763B" stroke="#47763B" stroke-width="4" stroke-miterlimit="10" d="
						M4012.048,346.176l-46.441,114.417c0,0-4.884,7.615-13.197,1.913l-46.425-52.196l-17.959-13.37l-31.17-17.62
						c0,0-4.766-2.797-4.5-6.851c0.266-4.054,6.947-4.995,6.947-4.995l142.459-26.524
						C4001.761,340.95,4013.569,338.258,4012.048,346.176z"/>
					<path clip-path="url(#SVGID_4_)" fill="#47763B" stroke="#47763B" stroke-width="4" stroke-miterlimit="10" d="
						M3894.863,445.621c0,0-1.561-0.454-2.336-7.104c-0.776-6.649-4.501-41.577-4.501-41.577l89.775-35.445
						c0,0,5.158-1.917,4.455,0.856c0,0,0.73,0.653-2.188,2.488c-2.918,1.835-73.726,44.514-73.726,44.514"/>
					<path clip-path="url(#SVGID_4_)" fill="#47763B" stroke="#47763B" stroke-width="4" stroke-miterlimit="10" d="
						M3923.785,430.323l-25.306,15.498c0,0-1.929,0.954-3.616-0.2l11.129-35.677"/>
					<use xlink:href="#SVGID_3_"  overflow="visible" fill="none" stroke="#47763B" stroke-width="4" stroke-miterlimit="10"/>
				</g>
				<g>
					<defs>
						<path id="SVGID_5_" d="M4085.166,373.02c-0.847,6.408-2.542,12.551-4.872,18.323c-4.978-2.436-11.015-0.635-13.822,4.237
							c-2.807,4.819-1.377,10.962,3.23,14.034c-3.866,5.031-8.367,9.532-13.398,13.398c-3.124-4.554-9.215-6.037-14.086-3.23
							c-4.819,2.807-6.62,8.897-4.184,13.822c-5.825,2.383-11.968,4.078-18.376,4.925c-0.371-5.56-4.925-9.85-10.539-9.85
							c-5.561,0-10.168,4.29-10.539,9.85c-6.408-0.847-12.551-2.542-18.323-4.925c2.436-4.925,0.635-11.015-4.237-13.822
							c-4.819-2.807-10.962-1.324-14.034,3.23c-5.031-3.866-9.532-8.367-13.398-13.398c4.554-3.072,6.037-9.215,3.23-14.034
							c-2.807-4.872-8.897-6.673-13.822-4.237c-2.383-5.773-4.078-11.915-4.925-18.323c5.561-0.371,9.85-4.978,9.85-10.539
							c0-5.613-4.29-10.168-9.85-10.539c0.847-6.408,2.542-12.551,4.925-18.376c4.925,2.436,11.015,0.635,13.822-4.184
							c2.807-4.872,1.324-10.962-3.23-14.087c3.866-5.031,8.367-9.533,13.398-13.398c3.072,4.607,9.215,6.037,14.034,3.23
							c4.872-2.807,6.673-8.844,4.236-13.822c5.772-2.33,11.916-4.025,18.323-4.872c0.371,5.507,4.978,9.85,10.539,9.85
							c5.614,0,10.168-4.343,10.539-9.85c6.408,0.847,12.551,2.542,18.376,4.872c-2.436,4.978-0.635,11.015,4.184,13.822
							c4.819,2.754,10.962,1.377,14.086-3.177c4.978,3.866,9.48,8.367,13.345,13.345c-4.554,3.124-5.931,9.268-3.177,14.087
							c2.807,4.819,8.844,6.62,13.822,4.184c2.33,5.826,4.025,11.969,4.872,18.376c-5.508,0.371-9.85,4.925-9.85,10.539
							C4075.316,368.041,4079.658,372.649,4085.166,373.02z"/>
					</defs>
					<clipPath id="SVGID_6_">
						<use xlink:href="#SVGID_5_"  overflow="visible"/>
					</clipPath>
				</g>
			</g>
			<g>
				<g>
					<defs>
						<path id="SVGID_7_" d="M4082.331,375.854c-0.847,6.408-2.542,12.551-4.872,18.323c-4.978-2.436-11.015-0.635-13.822,4.237
							c-2.807,4.819-1.377,10.962,3.231,14.034c-3.866,5.031-8.367,9.532-13.398,13.398c-3.125-4.554-9.215-6.037-14.087-3.23
							c-4.819,2.807-6.62,8.897-4.184,13.822c-5.825,2.383-11.968,4.078-18.376,4.925c-0.371-5.56-4.925-9.85-10.539-9.85
							c-5.561,0-10.168,4.29-10.539,9.85c-6.408-0.847-12.551-2.542-18.323-4.925c2.436-4.925,0.635-11.015-4.237-13.822
							c-4.819-2.807-10.962-1.324-14.034,3.23c-5.031-3.866-9.532-8.367-13.398-13.398c4.554-3.072,6.037-9.215,3.23-14.034
							c-2.807-4.872-8.897-6.673-13.822-4.237c-2.383-5.773-4.078-11.915-4.925-18.323c5.561-0.371,9.85-4.978,9.85-10.539
							c0-5.613-4.29-10.168-9.85-10.539c0.847-6.408,2.542-12.551,4.925-18.376c4.925,2.436,11.015,0.635,13.822-4.184
							c2.806-4.872,1.324-10.962-3.23-14.087c3.866-5.031,8.367-9.533,13.398-13.398c3.072,4.607,9.215,6.037,14.034,3.23
							c4.872-2.807,6.673-8.844,4.237-13.822c5.772-2.33,11.916-4.025,18.323-4.872c0.37,5.507,4.978,9.85,10.538,9.85
							c5.614,0,10.168-4.343,10.539-9.85c6.408,0.847,12.551,2.542,18.376,4.872c-2.436,4.978-0.635,11.015,4.184,13.822
							c4.819,2.754,10.962,1.377,14.087-3.177c4.978,3.866,9.479,8.367,13.345,13.345c-4.554,3.124-5.931,9.268-3.178,14.087
							c2.807,4.819,8.844,6.62,13.822,4.184c2.33,5.826,4.025,11.968,4.872,18.376c-5.507,0.371-9.85,4.925-9.85,10.539
							C4072.481,370.876,4076.824,375.483,4082.331,375.854z"/>
					</defs>
					<clipPath id="SVGID_8_">
						<use xlink:href="#SVGID_7_"  overflow="visible"/>
					</clipPath>
				</g>
				<g>
					<defs>
						<path id="SVGID_9_" d="M4082.331,375.854c-0.847,6.408-2.542,12.551-4.872,18.323c-4.978-2.436-11.015-0.635-13.822,4.237
							c-2.807,4.819-1.377,10.962,3.231,14.034c-3.866,5.031-8.367,9.532-13.398,13.398c-3.125-4.554-9.215-6.037-14.087-3.23
							c-4.819,2.807-6.62,8.897-4.184,13.822c-5.825,2.383-11.968,4.078-18.376,4.925c-0.371-5.56-4.925-9.85-10.539-9.85
							c-5.561,0-10.168,4.29-10.539,9.85c-6.408-0.847-12.551-2.542-18.323-4.925c2.436-4.925,0.635-11.015-4.237-13.822
							c-4.819-2.807-10.962-1.324-14.034,3.23c-5.031-3.866-9.532-8.367-13.398-13.398c4.554-3.072,6.037-9.215,3.23-14.034
							c-2.807-4.872-8.897-6.673-13.822-4.237c-2.383-5.773-4.078-11.915-4.925-18.323c5.561-0.371,9.85-4.978,9.85-10.539
							c0-5.613-4.29-10.168-9.85-10.539c0.847-6.408,2.542-12.551,4.925-18.376c4.925,2.436,11.015,0.635,13.822-4.184
							c2.806-4.872,1.324-10.962-3.23-14.087c3.866-5.031,8.367-9.533,13.398-13.398c3.072,4.607,9.215,6.037,14.034,3.23
							c4.872-2.807,6.673-8.844,4.237-13.822c5.772-2.33,11.916-4.025,18.323-4.872c0.37,5.507,4.978,9.85,10.538,9.85
							c5.614,0,10.168-4.343,10.539-9.85c6.408,0.847,12.551,2.542,18.376,4.872c-2.436,4.978-0.635,11.015,4.184,13.822
							c4.819,2.754,10.962,1.377,14.087-3.177c4.978,3.866,9.479,8.367,13.345,13.345c-4.554,3.124-5.931,9.268-3.178,14.087
							c2.807,4.819,8.844,6.62,13.822,4.184c2.33,5.826,4.025,11.968,4.872,18.376c-5.507,0.371-9.85,4.925-9.85,10.539
							C4072.481,370.876,4076.824,375.483,4082.331,375.854z"/>
					</defs>
					<use xlink:href="#SVGID_9_"  overflow="visible" fill="#47763B"/>
					<clipPath id="SVGID_10_">
						<use xlink:href="#SVGID_9_"  overflow="visible"/>
					</clipPath>
					<path clip-path="url(#SVGID_10_)" fill="#FFFFFF" stroke="#FFFFFF" stroke-width="4" stroke-miterlimit="10" d="
						M4009.213,349.011l-46.441,114.417c0,0-4.884,7.615-13.197,1.913l-46.424-52.196l-17.959-13.37l-31.17-17.62
						c0,0-4.766-2.797-4.5-6.851c0.266-4.054,6.947-4.995,6.947-4.995l142.459-26.524
						C3998.927,343.785,4010.734,341.092,4009.213,349.011z"/>
					<path clip-path="url(#SVGID_10_)" fill="#47763B" stroke="#FFFFFF" stroke-width="4" stroke-miterlimit="10" d="
						M3892.029,448.455c0,0-1.561-0.454-2.336-7.104c-0.776-6.649-4.501-41.577-4.501-41.577l89.775-35.445
						c0,0,5.158-1.917,4.454,0.856c0,0,0.73,0.653-2.188,2.488c-2.918,1.835-73.726,44.514-73.726,44.514"/>
					<path clip-path="url(#SVGID_10_)" fill="#47763B" stroke="#FFFFFF" stroke-width="4" stroke-miterlimit="10" d="
						M3920.951,433.158l-25.306,15.498c0,0-1.929,0.954-3.616-0.2l11.129-35.677"/>
					<use xlink:href="#SVGID_9_"  overflow="visible" fill="none" stroke="#FFFFFF" stroke-width="4" stroke-miterlimit="10"/>
				</g>
				<g>
					<defs>
						<path id="SVGID_11_" d="M4082.331,375.854c-0.847,6.408-2.542,12.551-4.872,18.323c-4.978-2.436-11.015-0.635-13.822,4.237
							c-2.807,4.819-1.377,10.962,3.231,14.034c-3.866,5.031-8.367,9.532-13.398,13.398c-3.125-4.554-9.215-6.037-14.087-3.23
							c-4.819,2.807-6.62,8.897-4.184,13.822c-5.825,2.383-11.968,4.078-18.376,4.925c-0.371-5.56-4.925-9.85-10.539-9.85
							c-5.561,0-10.168,4.29-10.539,9.85c-6.408-0.847-12.551-2.542-18.323-4.925c2.436-4.925,0.635-11.015-4.237-13.822
							c-4.819-2.807-10.962-1.324-14.034,3.23c-5.031-3.866-9.532-8.367-13.398-13.398c4.554-3.072,6.037-9.215,3.23-14.034
							c-2.807-4.872-8.897-6.673-13.822-4.237c-2.383-5.773-4.078-11.915-4.925-18.323c5.561-0.371,9.85-4.978,9.85-10.539
							c0-5.613-4.29-10.168-9.85-10.539c0.847-6.408,2.542-12.551,4.925-18.376c4.925,2.436,11.015,0.635,13.822-4.184
							c2.806-4.872,1.324-10.962-3.23-14.087c3.866-5.031,8.367-9.533,13.398-13.398c3.072,4.607,9.215,6.037,14.034,3.23
							c4.872-2.807,6.673-8.844,4.237-13.822c5.772-2.33,11.916-4.025,18.323-4.872c0.37,5.507,4.978,9.85,10.538,9.85
							c5.614,0,10.168-4.343,10.539-9.85c6.408,0.847,12.551,2.542,18.376,4.872c-2.436,4.978-0.635,11.015,4.184,13.822
							c4.819,2.754,10.962,1.377,14.087-3.177c4.978,3.866,9.479,8.367,13.345,13.345c-4.554,3.124-5.931,9.268-3.178,14.087
							c2.807,4.819,8.844,6.62,13.822,4.184c2.33,5.826,4.025,11.968,4.872,18.376c-5.507,0.371-9.85,4.925-9.85,10.539
							C4072.481,370.876,4076.824,375.483,4082.331,375.854z"/>
					</defs>
					<clipPath id="SVGID_12_">
						<use xlink:href="#SVGID_11_"  overflow="visible"/>
					</clipPath>
				</g>
			</g>
		</g>
		<g>
			<g>
				<g>
					<defs>
						<path id="SVGID_13_" d="M3901.403,254.765c6.408,0.847,12.551,2.542,18.323,4.872c-2.436,4.978-0.635,11.015,4.237,13.822
							c4.819,2.807,10.962,1.377,14.034-3.231c5.031,3.866,9.532,8.367,13.398,13.398c-4.554,3.124-6.037,9.215-3.23,14.087
							c2.806,4.819,8.897,6.62,13.822,4.184c2.383,5.825,4.078,11.968,4.925,18.376c-5.561,0.371-9.85,4.925-9.85,10.539
							c0,5.56,4.29,10.168,9.85,10.539c-0.847,6.408-2.542,12.551-4.925,18.323c-4.925-2.436-11.015-0.635-13.822,4.237
							c-2.807,4.819-1.324,10.962,3.23,14.034c-3.866,5.031-8.367,9.532-13.398,13.398c-3.072-4.554-9.215-6.037-14.034-3.23
							c-4.872,2.807-6.673,8.897-4.236,13.822c-5.773,2.383-11.916,4.078-18.323,4.925c-0.371-5.561-4.978-9.85-10.539-9.85
							c-5.614,0-10.168,4.29-10.539,9.85c-6.408-0.848-12.551-2.542-18.376-4.925c2.436-4.925,0.635-11.015-4.184-13.822
							c-4.872-2.807-10.962-1.324-14.086,3.23c-5.031-3.866-9.533-8.367-13.398-13.398c4.607-3.072,6.037-9.215,3.23-14.034
							c-2.807-4.872-8.844-6.673-13.822-4.237c-2.33-5.772-4.025-11.915-4.872-18.323c5.508-0.37,9.85-4.978,9.85-10.539
							c0-5.613-4.343-10.168-9.85-10.539c0.847-6.408,2.542-12.551,4.872-18.376c4.978,2.436,11.015,0.635,13.822-4.184
							c2.754-4.819,1.377-10.962-3.177-14.087c3.866-4.978,8.367-9.48,13.345-13.345c3.124,4.554,9.268,5.931,14.086,3.178
							c4.819-2.807,6.62-8.844,4.184-13.822c5.826-2.33,11.969-4.025,18.376-4.872c0.371,5.507,4.925,9.85,10.539,9.85
							C3896.425,264.615,3901.032,260.273,3901.403,254.765z"/>
					</defs>
					<clipPath id="SVGID_14_">
						<use xlink:href="#SVGID_13_"  overflow="visible"/>
					</clipPath>
				</g>
				<g>
					<defs>
						<path id="SVGID_15_" d="M3901.403,254.765c6.408,0.847,12.551,2.542,18.323,4.872c-2.436,4.978-0.635,11.015,4.237,13.822
							c4.819,2.807,10.962,1.377,14.034-3.231c5.031,3.866,9.532,8.367,13.398,13.398c-4.554,3.124-6.037,9.215-3.23,14.087
							c2.806,4.819,8.897,6.62,13.822,4.184c2.383,5.825,4.078,11.968,4.925,18.376c-5.561,0.371-9.85,4.925-9.85,10.539
							c0,5.56,4.29,10.168,9.85,10.539c-0.847,6.408-2.542,12.551-4.925,18.323c-4.925-2.436-11.015-0.635-13.822,4.237
							c-2.807,4.819-1.324,10.962,3.23,14.034c-3.866,5.031-8.367,9.532-13.398,13.398c-3.072-4.554-9.215-6.037-14.034-3.23
							c-4.872,2.807-6.673,8.897-4.236,13.822c-5.773,2.383-11.916,4.078-18.323,4.925c-0.371-5.561-4.978-9.85-10.539-9.85
							c-5.614,0-10.168,4.29-10.539,9.85c-6.408-0.848-12.551-2.542-18.376-4.925c2.436-4.925,0.635-11.015-4.184-13.822
							c-4.872-2.807-10.962-1.324-14.086,3.23c-5.031-3.866-9.533-8.367-13.398-13.398c4.607-3.072,6.037-9.215,3.23-14.034
							c-2.807-4.872-8.844-6.673-13.822-4.237c-2.33-5.772-4.025-11.915-4.872-18.323c5.508-0.37,9.85-4.978,9.85-10.539
							c0-5.613-4.343-10.168-9.85-10.539c0.847-6.408,2.542-12.551,4.872-18.376c4.978,2.436,11.015,0.635,13.822-4.184
							c2.754-4.819,1.377-10.962-3.177-14.087c3.866-4.978,8.367-9.48,13.345-13.345c3.124,4.554,9.268,5.931,14.086,3.178
							c4.819-2.807,6.62-8.844,4.184-13.822c5.826-2.33,11.969-4.025,18.376-4.872c0.371,5.507,4.925,9.85,10.539,9.85
							C3896.425,264.615,3901.032,260.273,3901.403,254.765z"/>
					</defs>
					<use xlink:href="#SVGID_15_"  overflow="visible" fill="#47763B"/>
					<clipPath id="SVGID_16_">
						<use xlink:href="#SVGID_15_"  overflow="visible"/>
					</clipPath>
					<path clip-path="url(#SVGID_16_)" fill="#47763B" stroke="#47763B" stroke-width="4" stroke-miterlimit="10" d="
						M4012.048,346.176l-46.441,114.417c0,0-4.884,7.615-13.197,1.913l-46.425-52.196l-17.959-13.37l-31.17-17.62
						c0,0-4.766-2.797-4.5-6.851c0.266-4.054,6.947-4.995,6.947-4.995l142.459-26.524
						C4001.761,340.95,4013.569,338.258,4012.048,346.176z"/>
					<path clip-path="url(#SVGID_16_)" fill="#47763B" stroke="#47763B" stroke-width="4" stroke-miterlimit="10" d="
						M3894.863,445.621c0,0-1.561-0.454-2.336-7.104c-0.776-6.649-4.501-41.577-4.501-41.577l89.775-35.445
						c0,0,5.158-1.917,4.455,0.856c0,0,0.73,0.653-2.188,2.488c-2.918,1.835-73.726,44.514-73.726,44.514"/>
					<path clip-path="url(#SVGID_16_)" fill="#47763B" stroke="#47763B" stroke-width="4" stroke-miterlimit="10" d="
						M3923.785,430.323l-25.306,15.498c0,0-1.929,0.954-3.616-0.2l11.129-35.677"/>
					<use xlink:href="#SVGID_15_"  overflow="visible" fill="none" stroke="#47763B" stroke-width="4" stroke-miterlimit="10"/>
				</g>
				<g>
					<defs>
						<path id="SVGID_17_" d="M3901.403,254.765c6.408,0.847,12.551,2.542,18.323,4.872c-2.436,4.978-0.635,11.015,4.237,13.822
							c4.819,2.807,10.962,1.377,14.034-3.231c5.031,3.866,9.532,8.367,13.398,13.398c-4.554,3.124-6.037,9.215-3.23,14.087
							c2.806,4.819,8.897,6.62,13.822,4.184c2.383,5.825,4.078,11.968,4.925,18.376c-5.561,0.371-9.85,4.925-9.85,10.539
							c0,5.56,4.29,10.168,9.85,10.539c-0.847,6.408-2.542,12.551-4.925,18.323c-4.925-2.436-11.015-0.635-13.822,4.237
							c-2.807,4.819-1.324,10.962,3.23,14.034c-3.866,5.031-8.367,9.532-13.398,13.398c-3.072-4.554-9.215-6.037-14.034-3.23
							c-4.872,2.807-6.673,8.897-4.236,13.822c-5.773,2.383-11.916,4.078-18.323,4.925c-0.371-5.561-4.978-9.85-10.539-9.85
							c-5.614,0-10.168,4.29-10.539,9.85c-6.408-0.848-12.551-2.542-18.376-4.925c2.436-4.925,0.635-11.015-4.184-13.822
							c-4.872-2.807-10.962-1.324-14.086,3.23c-5.031-3.866-9.533-8.367-13.398-13.398c4.607-3.072,6.037-9.215,3.23-14.034
							c-2.807-4.872-8.844-6.673-13.822-4.237c-2.33-5.772-4.025-11.915-4.872-18.323c5.508-0.37,9.85-4.978,9.85-10.539
							c0-5.613-4.343-10.168-9.85-10.539c0.847-6.408,2.542-12.551,4.872-18.376c4.978,2.436,11.015,0.635,13.822-4.184
							c2.754-4.819,1.377-10.962-3.177-14.087c3.866-4.978,8.367-9.48,13.345-13.345c3.124,4.554,9.268,5.931,14.086,3.178
							c4.819-2.807,6.62-8.844,4.184-13.822c5.826-2.33,11.969-4.025,18.376-4.872c0.371,5.507,4.925,9.85,10.539,9.85
							C3896.425,264.615,3901.032,260.273,3901.403,254.765z"/>
					</defs>
					<clipPath id="SVGID_18_">
						<use xlink:href="#SVGID_17_"  overflow="visible"/>
					</clipPath>
				</g>
			</g>
			<g>
				<g>
					<defs>
						<path id="SVGID_19_" d="M3898.568,257.6c6.408,0.847,12.551,2.542,18.323,4.872c-2.436,4.978-0.635,11.015,4.237,13.822
							c4.819,2.807,10.962,1.377,14.034-3.231c5.031,3.866,9.532,8.367,13.398,13.398c-4.554,3.124-6.037,9.215-3.23,14.087
							c2.807,4.819,8.897,6.62,13.822,4.184c2.383,5.825,4.078,11.968,4.925,18.376c-5.56,0.371-9.85,4.925-9.85,10.539
							c0,5.56,4.29,10.168,9.85,10.539c-0.847,6.408-2.542,12.551-4.925,18.323c-4.925-2.436-11.015-0.635-13.822,4.237
							c-2.807,4.819-1.324,10.962,3.23,14.034c-3.866,5.031-8.367,9.532-13.398,13.398c-3.072-4.554-9.215-6.037-14.034-3.23
							c-4.872,2.807-6.673,8.897-4.237,13.822c-5.772,2.383-11.916,4.078-18.323,4.925c-0.371-5.561-4.978-9.85-10.539-9.85
							c-5.614,0-10.168,4.29-10.539,9.85c-6.408-0.848-12.551-2.542-18.376-4.925c2.436-4.925,0.635-11.015-4.183-13.822
							c-4.872-2.807-10.962-1.324-14.087,3.23c-5.031-3.866-9.533-8.367-13.398-13.398c4.607-3.072,6.037-9.215,3.23-14.034
							c-2.806-4.872-8.844-6.673-13.822-4.237c-2.33-5.772-4.025-11.915-4.872-18.323c5.508-0.37,9.85-4.978,9.85-10.539
							c0-5.614-4.343-10.168-9.85-10.539c0.847-6.408,2.542-12.551,4.872-18.376c4.978,2.436,11.015,0.635,13.822-4.184
							c2.754-4.819,1.377-10.962-3.177-14.087c3.866-4.978,8.367-9.48,13.345-13.345c3.124,4.554,9.268,5.931,14.087,3.178
							c4.819-2.807,6.62-8.844,4.183-13.822c5.826-2.33,11.969-4.025,18.376-4.872c0.371,5.507,4.925,9.85,10.539,9.85
							C3893.59,267.45,3898.198,263.107,3898.568,257.6z"/>
					</defs>
					<clipPath id="SVGID_20_">
						<use xlink:href="#SVGID_19_"  overflow="visible"/>
					</clipPath>
				</g>
				<g>
					<defs>
						<path id="SVGID_21_" d="M3898.568,257.6c6.408,0.847,12.551,2.542,18.323,4.872c-2.436,4.978-0.635,11.015,4.237,13.822
							c4.819,2.807,10.962,1.377,14.034-3.231c5.031,3.866,9.532,8.367,13.398,13.398c-4.554,3.124-6.037,9.215-3.23,14.087
							c2.807,4.819,8.897,6.62,13.822,4.184c2.383,5.825,4.078,11.968,4.925,18.376c-5.56,0.371-9.85,4.925-9.85,10.539
							c0,5.56,4.29,10.168,9.85,10.539c-0.847,6.408-2.542,12.551-4.925,18.323c-4.925-2.436-11.015-0.635-13.822,4.237
							c-2.807,4.819-1.324,10.962,3.23,14.034c-3.866,5.031-8.367,9.532-13.398,13.398c-3.072-4.554-9.215-6.037-14.034-3.23
							c-4.872,2.807-6.673,8.897-4.237,13.822c-5.772,2.383-11.916,4.078-18.323,4.925c-0.371-5.561-4.978-9.85-10.539-9.85
							c-5.614,0-10.168,4.29-10.539,9.85c-6.408-0.848-12.551-2.542-18.376-4.925c2.436-4.925,0.635-11.015-4.183-13.822
							c-4.872-2.807-10.962-1.324-14.087,3.23c-5.031-3.866-9.533-8.367-13.398-13.398c4.607-3.072,6.037-9.215,3.23-14.034
							c-2.806-4.872-8.844-6.673-13.822-4.237c-2.33-5.772-4.025-11.915-4.872-18.323c5.508-0.37,9.85-4.978,9.85-10.539
							c0-5.614-4.343-10.168-9.85-10.539c0.847-6.408,2.542-12.551,4.872-18.376c4.978,2.436,11.015,0.635,13.822-4.184
							c2.754-4.819,1.377-10.962-3.177-14.087c3.866-4.978,8.367-9.48,13.345-13.345c3.124,4.554,9.268,5.931,14.087,3.178
							c4.819-2.807,6.62-8.844,4.183-13.822c5.826-2.33,11.969-4.025,18.376-4.872c0.371,5.507,4.925,9.85,10.539,9.85
							C3893.59,267.45,3898.198,263.107,3898.568,257.6z"/>
					</defs>
					<use xlink:href="#SVGID_21_"  overflow="visible" fill="#47763B"/>
					<clipPath id="SVGID_22_">
						<use xlink:href="#SVGID_21_"  overflow="visible"/>
					</clipPath>
					<path clip-path="url(#SVGID_22_)" fill="#FFFFFF" stroke="#FFFFFF" stroke-width="4" stroke-miterlimit="10" d="
						M4009.213,349.011l-46.441,114.417c0,0-4.884,7.615-13.197,1.913l-46.424-52.196l-17.959-13.37l-31.17-17.62
						c0,0-4.766-2.797-4.5-6.851c0.266-4.054,6.947-4.995,6.947-4.995l142.459-26.524
						C3998.927,343.785,4010.734,341.092,4009.213,349.011z"/>
					<path clip-path="url(#SVGID_22_)" fill="#47763B" stroke="#FFFFFF" stroke-width="4" stroke-miterlimit="10" d="
						M3892.029,448.455c0,0-1.561-0.454-2.336-7.104c-0.776-6.649-4.501-41.577-4.501-41.577l89.775-35.445
						c0,0,5.158-1.917,4.454,0.856c0,0,0.73,0.653-2.188,2.488c-2.918,1.835-73.726,44.514-73.726,44.514"/>
					<path clip-path="url(#SVGID_22_)" fill="#47763B" stroke="#FFFFFF" stroke-width="4" stroke-miterlimit="10" d="
						M3920.951,433.158l-25.306,15.498c0,0-1.929,0.954-3.616-0.2l11.129-35.677"/>
					<use xlink:href="#SVGID_21_"  overflow="visible" fill="none" stroke="#FFFFFF" stroke-width="4" stroke-miterlimit="10"/>
				</g>
				<g>
					<defs>
						<path id="SVGID_23_" d="M3898.568,257.6c6.408,0.847,12.551,2.542,18.323,4.872c-2.436,4.978-0.635,11.015,4.237,13.822
							c4.819,2.807,10.962,1.377,14.034-3.231c5.031,3.866,9.532,8.367,13.398,13.398c-4.554,3.124-6.037,9.215-3.23,14.087
							c2.807,4.819,8.897,6.62,13.822,4.184c2.383,5.825,4.078,11.968,4.925,18.376c-5.56,0.371-9.85,4.925-9.85,10.539
							c0,5.56,4.29,10.168,9.85,10.539c-0.847,6.408-2.542,12.551-4.925,18.323c-4.925-2.436-11.015-0.635-13.822,4.237
							c-2.807,4.819-1.324,10.962,3.23,14.034c-3.866,5.031-8.367,9.532-13.398,13.398c-3.072-4.554-9.215-6.037-14.034-3.23
							c-4.872,2.807-6.673,8.897-4.237,13.822c-5.772,2.383-11.916,4.078-18.323,4.925c-0.371-5.561-4.978-9.85-10.539-9.85
							c-5.614,0-10.168,4.29-10.539,9.85c-6.408-0.848-12.551-2.542-18.376-4.925c2.436-4.925,0.635-11.015-4.183-13.822
							c-4.872-2.807-10.962-1.324-14.087,3.23c-5.031-3.866-9.533-8.367-13.398-13.398c4.607-3.072,6.037-9.215,3.23-14.034
							c-2.806-4.872-8.844-6.673-13.822-4.237c-2.33-5.772-4.025-11.915-4.872-18.323c5.508-0.37,9.85-4.978,9.85-10.539
							c0-5.614-4.343-10.168-9.85-10.539c0.847-6.408,2.542-12.551,4.872-18.376c4.978,2.436,11.015,0.635,13.822-4.184
							c2.754-4.819,1.377-10.962-3.177-14.087c3.866-4.978,8.367-9.48,13.345-13.345c3.124,4.554,9.268,5.931,14.087,3.178
							c4.819-2.807,6.62-8.844,4.183-13.822c5.826-2.33,11.969-4.025,18.376-4.872c0.371,5.507,4.925,9.85,10.539,9.85
							C3893.59,267.45,3898.198,263.107,3898.568,257.6z"/>
					</defs>
					<clipPath id="SVGID_24_">
						<use xlink:href="#SVGID_23_"  overflow="visible"/>
					</clipPath>
				</g>
			</g>
		</g>
		<g>
			<g>
				<g>
					<defs>
						<path id="SVGID_25_" d="M3772.504,420.311c0.847-6.408,2.542-12.551,4.872-18.323c4.978,2.436,11.015,0.635,13.822-4.237
							c2.807-4.819,1.377-10.962-3.23-14.034c3.866-5.031,8.367-9.532,13.398-13.398c3.124,4.554,9.215,6.037,14.086,3.23
							c4.819-2.807,6.62-8.897,4.184-13.822c5.825-2.383,11.968-4.078,18.376-4.925c0.371,5.56,4.925,9.85,10.539,9.85
							c5.561,0,10.168-4.29,10.539-9.85c6.408,0.847,12.551,2.542,18.323,4.925c-2.436,4.925-0.635,11.015,4.237,13.822
							c4.819,2.807,10.962,1.324,14.034-3.23c5.031,3.866,9.532,8.367,13.398,13.398c-4.554,3.072-6.037,9.215-3.23,14.034
							c2.807,4.872,8.897,6.673,13.822,4.237c2.383,5.773,4.078,11.915,4.925,18.323c-5.561,0.371-9.85,4.978-9.85,10.539
							c0,5.613,4.29,10.168,9.85,10.539c-0.847,6.408-2.542,12.551-4.925,18.376c-4.925-2.436-11.015-0.635-13.822,4.184
							c-2.806,4.872-1.324,10.962,3.23,14.087c-3.866,5.031-8.367,9.533-13.398,13.398c-3.072-4.607-9.215-6.037-14.034-3.23
							c-4.872,2.807-6.673,8.844-4.237,13.822c-5.772,2.33-11.915,4.025-18.323,4.872c-0.37-5.507-4.978-9.85-10.538-9.85
							c-5.614,0-10.168,4.343-10.539,9.85c-6.408-0.847-12.551-2.542-18.376-4.872c2.436-4.978,0.635-11.015-4.184-13.822
							c-4.819-2.754-10.962-1.377-14.087,3.177c-4.978-3.866-9.479-8.367-13.345-13.345c4.554-3.124,5.931-9.268,3.177-14.087
							c-2.807-4.819-8.844-6.62-13.822-4.184c-2.33-5.826-4.025-11.968-4.872-18.376c5.507-0.371,9.85-4.925,9.85-10.539
							C3782.354,425.289,3778.011,420.682,3772.504,420.311z"/>
					</defs>
					<clipPath id="SVGID_26_">
						<use xlink:href="#SVGID_25_"  overflow="visible"/>
					</clipPath>
				</g>
				<g>
					<defs>
						<path id="SVGID_27_" d="M3772.504,420.311c0.847-6.408,2.542-12.551,4.872-18.323c4.978,2.436,11.015,0.635,13.822-4.237
							c2.807-4.819,1.377-10.962-3.23-14.034c3.866-5.031,8.367-9.532,13.398-13.398c3.124,4.554,9.215,6.037,14.086,3.23
							c4.819-2.807,6.62-8.897,4.184-13.822c5.825-2.383,11.968-4.078,18.376-4.925c0.371,5.56,4.925,9.85,10.539,9.85
							c5.561,0,10.168-4.29,10.539-9.85c6.408,0.847,12.551,2.542,18.323,4.925c-2.436,4.925-0.635,11.015,4.237,13.822
							c4.819,2.807,10.962,1.324,14.034-3.23c5.031,3.866,9.532,8.367,13.398,13.398c-4.554,3.072-6.037,9.215-3.23,14.034
							c2.807,4.872,8.897,6.673,13.822,4.237c2.383,5.773,4.078,11.915,4.925,18.323c-5.561,0.371-9.85,4.978-9.85,10.539
							c0,5.613,4.29,10.168,9.85,10.539c-0.847,6.408-2.542,12.551-4.925,18.376c-4.925-2.436-11.015-0.635-13.822,4.184
							c-2.806,4.872-1.324,10.962,3.23,14.087c-3.866,5.031-8.367,9.533-13.398,13.398c-3.072-4.607-9.215-6.037-14.034-3.23
							c-4.872,2.807-6.673,8.844-4.237,13.822c-5.772,2.33-11.915,4.025-18.323,4.872c-0.37-5.507-4.978-9.85-10.538-9.85
							c-5.614,0-10.168,4.343-10.539,9.85c-6.408-0.847-12.551-2.542-18.376-4.872c2.436-4.978,0.635-11.015-4.184-13.822
							c-4.819-2.754-10.962-1.377-14.087,3.177c-4.978-3.866-9.479-8.367-13.345-13.345c4.554-3.124,5.931-9.268,3.177-14.087
							c-2.807-4.819-8.844-6.62-13.822-4.184c-2.33-5.826-4.025-11.968-4.872-18.376c5.507-0.371,9.85-4.925,9.85-10.539
							C3782.354,425.289,3778.011,420.682,3772.504,420.311z"/>
					</defs>
					<use xlink:href="#SVGID_27_"  overflow="visible" fill="#47763B"/>
					<clipPath id="SVGID_28_">
						<use xlink:href="#SVGID_27_"  overflow="visible"/>
					</clipPath>
					<path clip-path="url(#SVGID_28_)" fill="#47763B" stroke="#47763B" stroke-width="4" stroke-miterlimit="10" d="
						M4012.048,346.176l-46.441,114.417c0,0-4.884,7.615-13.197,1.913l-46.425-52.196l-17.959-13.37l-31.17-17.62
						c0,0-4.766-2.797-4.5-6.851c0.266-4.054,6.947-4.995,6.947-4.995l142.459-26.524
						C4001.761,340.95,4013.569,338.258,4012.048,346.176z"/>
					<path clip-path="url(#SVGID_28_)" fill="#47763B" stroke="#47763B" stroke-width="4" stroke-miterlimit="10" d="
						M3894.863,445.621c0,0-1.561-0.454-2.336-7.104c-0.776-6.649-4.501-41.577-4.501-41.577l89.775-35.445
						c0,0,5.158-1.917,4.455,0.856c0,0,0.73,0.653-2.188,2.488c-2.918,1.835-73.726,44.514-73.726,44.514"/>
					<path clip-path="url(#SVGID_28_)" fill="#47763B" stroke="#47763B" stroke-width="4" stroke-miterlimit="10" d="
						M3923.785,430.323l-25.306,15.498c0,0-1.929,0.954-3.616-0.2l11.129-35.677"/>
					<use xlink:href="#SVGID_27_"  overflow="visible" fill="none" stroke="#47763B" stroke-width="4" stroke-miterlimit="10"/>
				</g>
				<g>
					<defs>
						<path id="SVGID_29_" d="M3772.504,420.311c0.847-6.408,2.542-12.551,4.872-18.323c4.978,2.436,11.015,0.635,13.822-4.237
							c2.807-4.819,1.377-10.962-3.23-14.034c3.866-5.031,8.367-9.532,13.398-13.398c3.124,4.554,9.215,6.037,14.086,3.23
							c4.819-2.807,6.62-8.897,4.184-13.822c5.825-2.383,11.968-4.078,18.376-4.925c0.371,5.56,4.925,9.85,10.539,9.85
							c5.561,0,10.168-4.29,10.539-9.85c6.408,0.847,12.551,2.542,18.323,4.925c-2.436,4.925-0.635,11.015,4.237,13.822
							c4.819,2.807,10.962,1.324,14.034-3.23c5.031,3.866,9.532,8.367,13.398,13.398c-4.554,3.072-6.037,9.215-3.23,14.034
							c2.807,4.872,8.897,6.673,13.822,4.237c2.383,5.773,4.078,11.915,4.925,18.323c-5.561,0.371-9.85,4.978-9.85,10.539
							c0,5.613,4.29,10.168,9.85,10.539c-0.847,6.408-2.542,12.551-4.925,18.376c-4.925-2.436-11.015-0.635-13.822,4.184
							c-2.806,4.872-1.324,10.962,3.23,14.087c-3.866,5.031-8.367,9.533-13.398,13.398c-3.072-4.607-9.215-6.037-14.034-3.23
							c-4.872,2.807-6.673,8.844-4.237,13.822c-5.772,2.33-11.915,4.025-18.323,4.872c-0.37-5.507-4.978-9.85-10.538-9.85
							c-5.614,0-10.168,4.343-10.539,9.85c-6.408-0.847-12.551-2.542-18.376-4.872c2.436-4.978,0.635-11.015-4.184-13.822
							c-4.819-2.754-10.962-1.377-14.087,3.177c-4.978-3.866-9.479-8.367-13.345-13.345c4.554-3.124,5.931-9.268,3.177-14.087
							c-2.807-4.819-8.844-6.62-13.822-4.184c-2.33-5.826-4.025-11.968-4.872-18.376c5.507-0.371,9.85-4.925,9.85-10.539
							C3782.354,425.289,3778.011,420.682,3772.504,420.311z"/>
					</defs>
					<clipPath id="SVGID_30_">
						<use xlink:href="#SVGID_29_"  overflow="visible"/>
					</clipPath>
				</g>
			</g>
			<g>
				<g>
					<defs>
						<path id="SVGID_31_" d="M3769.669,423.146c0.847-6.408,2.542-12.551,4.872-18.323c4.978,2.436,11.015,0.635,13.822-4.237
							c2.806-4.819,1.376-10.962-3.231-14.034c3.866-5.031,8.367-9.532,13.398-13.398c3.124,4.554,9.215,6.037,14.087,3.23
							c4.819-2.807,6.62-8.897,4.184-13.822c5.825-2.383,11.968-4.078,18.376-4.925c0.371,5.56,4.925,9.85,10.539,9.85
							c5.561,0,10.168-4.29,10.539-9.85c6.408,0.847,12.551,2.542,18.323,4.925c-2.436,4.925-0.635,11.015,4.237,13.822
							c4.819,2.807,10.962,1.324,14.034-3.23c5.031,3.866,9.532,8.367,13.398,13.398c-4.554,3.072-6.037,9.215-3.23,14.034
							c2.807,4.872,8.897,6.673,13.822,4.237c2.383,5.773,4.078,11.915,4.925,18.323c-5.561,0.371-9.85,4.978-9.85,10.539
							c0,5.613,4.29,10.168,9.85,10.539c-0.847,6.408-2.542,12.551-4.925,18.376c-4.925-2.436-11.015-0.635-13.822,4.184
							c-2.807,4.872-1.324,10.962,3.23,14.087c-3.866,5.031-8.367,9.533-13.398,13.398c-3.072-4.607-9.214-6.037-14.034-3.23
							c-4.872,2.807-6.673,8.844-4.237,13.822c-5.772,2.33-11.916,4.025-18.323,4.872c-0.37-5.507-4.978-9.85-10.539-9.85
							c-5.614,0-10.168,4.343-10.539,9.85c-6.408-0.847-12.551-2.542-18.376-4.872c2.436-4.978,0.635-11.015-4.184-13.822
							c-4.819-2.754-10.962-1.377-14.086,3.177c-4.978-3.866-9.48-8.367-13.345-13.345c4.554-3.124,5.931-9.268,3.178-14.087
							c-2.807-4.819-8.844-6.62-13.822-4.184c-2.33-5.826-4.025-11.969-4.872-18.376c5.508-0.371,9.85-4.925,9.85-10.539
							C3779.519,428.124,3775.177,423.516,3769.669,423.146z"/>
					</defs>
					<clipPath id="SVGID_32_">
						<use xlink:href="#SVGID_31_"  overflow="visible"/>
					</clipPath>
				</g>
				<g>
					<defs>
						<path id="SVGID_33_" d="M3769.669,423.146c0.847-6.408,2.542-12.551,4.872-18.323c4.978,2.436,11.015,0.635,13.822-4.237
							c2.806-4.819,1.376-10.962-3.231-14.034c3.866-5.031,8.367-9.532,13.398-13.398c3.124,4.554,9.215,6.037,14.087,3.23
							c4.819-2.807,6.62-8.897,4.184-13.822c5.825-2.383,11.968-4.078,18.376-4.925c0.371,5.56,4.925,9.85,10.539,9.85
							c5.561,0,10.168-4.29,10.539-9.85c6.408,0.847,12.551,2.542,18.323,4.925c-2.436,4.925-0.635,11.015,4.237,13.822
							c4.819,2.807,10.962,1.324,14.034-3.23c5.031,3.866,9.532,8.367,13.398,13.398c-4.554,3.072-6.037,9.215-3.23,14.034
							c2.807,4.872,8.897,6.673,13.822,4.237c2.383,5.773,4.078,11.915,4.925,18.323c-5.561,0.371-9.85,4.978-9.85,10.539
							c0,5.613,4.29,10.168,9.85,10.539c-0.847,6.408-2.542,12.551-4.925,18.376c-4.925-2.436-11.015-0.635-13.822,4.184
							c-2.807,4.872-1.324,10.962,3.23,14.087c-3.866,5.031-8.367,9.533-13.398,13.398c-3.072-4.607-9.214-6.037-14.034-3.23
							c-4.872,2.807-6.673,8.844-4.237,13.822c-5.772,2.33-11.916,4.025-18.323,4.872c-0.37-5.507-4.978-9.85-10.539-9.85
							c-5.614,0-10.168,4.343-10.539,9.85c-6.408-0.847-12.551-2.542-18.376-4.872c2.436-4.978,0.635-11.015-4.184-13.822
							c-4.819-2.754-10.962-1.377-14.086,3.177c-4.978-3.866-9.48-8.367-13.345-13.345c4.554-3.124,5.931-9.268,3.178-14.087
							c-2.807-4.819-8.844-6.62-13.822-4.184c-2.33-5.826-4.025-11.969-4.872-18.376c5.508-0.371,9.85-4.925,9.85-10.539
							C3779.519,428.124,3775.177,423.516,3769.669,423.146z"/>
					</defs>
					<use xlink:href="#SVGID_33_"  overflow="visible" fill="#47763B"/>
					<clipPath id="SVGID_34_">
						<use xlink:href="#SVGID_33_"  overflow="visible"/>
					</clipPath>
					<path clip-path="url(#SVGID_34_)" fill="#FFFFFF" stroke="#FFFFFF" stroke-width="4" stroke-miterlimit="10" d="
						M4009.213,349.011l-46.441,114.417c0,0-4.884,7.615-13.197,1.913l-46.424-52.196l-17.959-13.37l-31.17-17.62
						c0,0-4.766-2.797-4.5-6.851c0.266-4.054,6.947-4.995,6.947-4.995l142.459-26.524
						C3998.927,343.785,4010.734,341.092,4009.213,349.011z"/>
					<path clip-path="url(#SVGID_34_)" fill="#47763B" stroke="#FFFFFF" stroke-width="4" stroke-miterlimit="10" d="
						M3892.029,448.455c0,0-1.561-0.454-2.336-7.104c-0.776-6.649-4.501-41.577-4.501-41.577l89.775-35.445
						c0,0,5.158-1.917,4.454,0.856c0,0,0.73,0.653-2.188,2.488c-2.918,1.835-73.726,44.514-73.726,44.514"/>
					<path clip-path="url(#SVGID_34_)" fill="#47763B" stroke="#FFFFFF" stroke-width="4" stroke-miterlimit="10" d="
						M3920.951,433.158l-25.306,15.498c0,0-1.929,0.954-3.616-0.2l11.129-35.677"/>
					<use xlink:href="#SVGID_33_"  overflow="visible" fill="none" stroke="#FFFFFF" stroke-width="4" stroke-miterlimit="10"/>
				</g>
				<g>
					<defs>
						<path id="SVGID_35_" d="M3769.669,423.146c0.847-6.408,2.542-12.551,4.872-18.323c4.978,2.436,11.015,0.635,13.822-4.237
							c2.806-4.819,1.376-10.962-3.231-14.034c3.866-5.031,8.367-9.532,13.398-13.398c3.124,4.554,9.215,6.037,14.087,3.23
							c4.819-2.807,6.62-8.897,4.184-13.822c5.825-2.383,11.968-4.078,18.376-4.925c0.371,5.56,4.925,9.85,10.539,9.85
							c5.561,0,10.168-4.29,10.539-9.85c6.408,0.847,12.551,2.542,18.323,4.925c-2.436,4.925-0.635,11.015,4.237,13.822
							c4.819,2.807,10.962,1.324,14.034-3.23c5.031,3.866,9.532,8.367,13.398,13.398c-4.554,3.072-6.037,9.215-3.23,14.034
							c2.807,4.872,8.897,6.673,13.822,4.237c2.383,5.773,4.078,11.915,4.925,18.323c-5.561,0.371-9.85,4.978-9.85,10.539
							c0,5.613,4.29,10.168,9.85,10.539c-0.847,6.408-2.542,12.551-4.925,18.376c-4.925-2.436-11.015-0.635-13.822,4.184
							c-2.807,4.872-1.324,10.962,3.23,14.087c-3.866,5.031-8.367,9.533-13.398,13.398c-3.072-4.607-9.214-6.037-14.034-3.23
							c-4.872,2.807-6.673,8.844-4.237,13.822c-5.772,2.33-11.916,4.025-18.323,4.872c-0.37-5.507-4.978-9.85-10.539-9.85
							c-5.614,0-10.168,4.343-10.539,9.85c-6.408-0.847-12.551-2.542-18.376-4.872c2.436-4.978,0.635-11.015-4.184-13.822
							c-4.819-2.754-10.962-1.377-14.086,3.177c-4.978-3.866-9.48-8.367-13.345-13.345c4.554-3.124,5.931-9.268,3.178-14.087
							c-2.807-4.819-8.844-6.62-13.822-4.184c-2.33-5.826-4.025-11.969-4.872-18.376c5.508-0.371,9.85-4.925,9.85-10.539
							C3779.519,428.124,3775.177,423.516,3769.669,423.146z"/>
					</defs>
					<clipPath id="SVGID_36_">
						<use xlink:href="#SVGID_35_"  overflow="visible"/>
					</clipPath>
				</g>
			</g>
		</g>
		<g>
			<g opacity="0.95">
				<g>
					<defs>
						<path id="SVGID_37_" d="M3956.32,538.565c-6.408-0.847-12.551-2.542-18.323-4.872c2.436-4.978,0.635-11.015-4.237-13.822
							c-4.819-2.807-10.962-1.377-14.034,3.231c-5.031-3.866-9.532-8.367-13.398-13.398c4.554-3.124,6.037-9.215,3.23-14.087
							c-2.807-4.819-8.897-6.62-13.822-4.184c-2.383-5.825-4.078-11.968-4.925-18.376c5.561-0.371,9.85-4.925,9.85-10.539
							c0-5.56-4.29-10.168-9.85-10.539c0.847-6.408,2.542-12.551,4.925-18.323c4.925,2.436,11.015,0.635,13.822-4.237
							c2.807-4.819,1.324-10.962-3.23-14.034c3.866-5.031,8.367-9.532,13.398-13.398c3.072,4.554,9.215,6.037,14.034,3.23
							c4.872-2.807,6.673-8.897,4.237-13.822c5.772-2.383,11.916-4.078,18.323-4.925c0.371,5.561,4.978,9.85,10.539,9.85
							c5.614,0,10.168-4.29,10.539-9.85c6.408,0.848,12.551,2.542,18.376,4.925c-2.436,4.925-0.635,11.015,4.184,13.822
							c4.872,2.807,10.962,1.324,14.086-3.23c5.031,3.866,9.533,8.367,13.398,13.398c-4.607,3.072-6.037,9.215-3.23,14.034
							c2.807,4.872,8.844,6.673,13.822,4.237c2.33,5.772,4.025,11.915,4.872,18.323c-5.508,0.37-9.85,4.978-9.85,10.539
							c0,5.613,4.343,10.168,9.85,10.539c-0.847,6.408-2.542,12.551-4.872,18.376c-4.978-2.436-11.015-0.635-13.822,4.184
							c-2.754,4.819-1.377,10.962,3.177,14.087c-3.866,4.978-8.367,9.48-13.345,13.345c-3.124-4.554-9.268-5.931-14.087-3.178
							c-4.819,2.807-6.62,8.844-4.183,13.822c-5.826,2.33-11.969,4.025-18.376,4.872c-0.371-5.508-4.925-9.85-10.539-9.85
							C3961.298,528.715,3956.691,533.058,3956.32,538.565z"/>
					</defs>
					<clipPath id="SVGID_38_">
						<use xlink:href="#SVGID_37_"  overflow="visible"/>
					</clipPath>
				</g>
				<g>
					<defs>
						<path id="SVGID_39_" d="M3956.32,538.565c-6.408-0.847-12.551-2.542-18.323-4.872c2.436-4.978,0.635-11.015-4.237-13.822
							c-4.819-2.807-10.962-1.377-14.034,3.231c-5.031-3.866-9.532-8.367-13.398-13.398c4.554-3.124,6.037-9.215,3.23-14.087
							c-2.807-4.819-8.897-6.62-13.822-4.184c-2.383-5.825-4.078-11.968-4.925-18.376c5.561-0.371,9.85-4.925,9.85-10.539
							c0-5.56-4.29-10.168-9.85-10.539c0.847-6.408,2.542-12.551,4.925-18.323c4.925,2.436,11.015,0.635,13.822-4.237
							c2.807-4.819,1.324-10.962-3.23-14.034c3.866-5.031,8.367-9.532,13.398-13.398c3.072,4.554,9.215,6.037,14.034,3.23
							c4.872-2.807,6.673-8.897,4.237-13.822c5.772-2.383,11.916-4.078,18.323-4.925c0.371,5.561,4.978,9.85,10.539,9.85
							c5.614,0,10.168-4.29,10.539-9.85c6.408,0.848,12.551,2.542,18.376,4.925c-2.436,4.925-0.635,11.015,4.184,13.822
							c4.872,2.807,10.962,1.324,14.086-3.23c5.031,3.866,9.533,8.367,13.398,13.398c-4.607,3.072-6.037,9.215-3.23,14.034
							c2.807,4.872,8.844,6.673,13.822,4.237c2.33,5.772,4.025,11.915,4.872,18.323c-5.508,0.37-9.85,4.978-9.85,10.539
							c0,5.613,4.343,10.168,9.85,10.539c-0.847,6.408-2.542,12.551-4.872,18.376c-4.978-2.436-11.015-0.635-13.822,4.184
							c-2.754,4.819-1.377,10.962,3.177,14.087c-3.866,4.978-8.367,9.48-13.345,13.345c-3.124-4.554-9.268-5.931-14.087-3.178
							c-4.819,2.807-6.62,8.844-4.183,13.822c-5.826,2.33-11.969,4.025-18.376,4.872c-0.371-5.508-4.925-9.85-10.539-9.85
							C3961.298,528.715,3956.691,533.058,3956.32,538.565z"/>
					</defs>
					<use xlink:href="#SVGID_39_"  overflow="visible" fill="#47763B"/>
					<clipPath id="SVGID_40_">
						<use xlink:href="#SVGID_39_"  overflow="visible"/>
					</clipPath>
					<path clip-path="url(#SVGID_40_)" fill="#47763B" stroke="#47763B" stroke-width="4" stroke-miterlimit="10" d="
						M4012.048,346.176l-46.441,114.417c0,0-4.884,7.615-13.197,1.913l-46.425-52.196l-17.959-13.37l-31.17-17.62
						c0,0-4.766-2.797-4.5-6.851c0.266-4.054,6.947-4.995,6.947-4.995l142.459-26.524
						C4001.761,340.95,4013.569,338.258,4012.048,346.176z"/>
					<path clip-path="url(#SVGID_40_)" fill="#47763B" stroke="#47763B" stroke-width="4" stroke-miterlimit="10" d="
						M3894.863,445.621c0,0-1.561-0.454-2.336-7.104c-0.776-6.649-4.501-41.577-4.501-41.577l89.775-35.445
						c0,0,5.158-1.917,4.455,0.856c0,0,0.73,0.653-2.188,2.488c-2.918,1.835-73.726,44.514-73.726,44.514"/>
					<path clip-path="url(#SVGID_40_)" fill="#47763B" stroke="#47763B" stroke-width="4" stroke-miterlimit="10" d="
						M3923.785,430.323l-25.306,15.498c0,0-1.929,0.954-3.616-0.2l11.129-35.677"/>
					<use xlink:href="#SVGID_39_"  overflow="visible" fill="none" stroke="#47763B" stroke-width="4" stroke-miterlimit="10"/>
				</g>
				<g>
					<defs>
						<path id="SVGID_41_" d="M3956.32,538.565c-6.408-0.847-12.551-2.542-18.323-4.872c2.436-4.978,0.635-11.015-4.237-13.822
							c-4.819-2.807-10.962-1.377-14.034,3.231c-5.031-3.866-9.532-8.367-13.398-13.398c4.554-3.124,6.037-9.215,3.23-14.087
							c-2.807-4.819-8.897-6.62-13.822-4.184c-2.383-5.825-4.078-11.968-4.925-18.376c5.561-0.371,9.85-4.925,9.85-10.539
							c0-5.56-4.29-10.168-9.85-10.539c0.847-6.408,2.542-12.551,4.925-18.323c4.925,2.436,11.015,0.635,13.822-4.237
							c2.807-4.819,1.324-10.962-3.23-14.034c3.866-5.031,8.367-9.532,13.398-13.398c3.072,4.554,9.215,6.037,14.034,3.23
							c4.872-2.807,6.673-8.897,4.237-13.822c5.772-2.383,11.916-4.078,18.323-4.925c0.371,5.561,4.978,9.85,10.539,9.85
							c5.614,0,10.168-4.29,10.539-9.85c6.408,0.848,12.551,2.542,18.376,4.925c-2.436,4.925-0.635,11.015,4.184,13.822
							c4.872,2.807,10.962,1.324,14.086-3.23c5.031,3.866,9.533,8.367,13.398,13.398c-4.607,3.072-6.037,9.215-3.23,14.034
							c2.807,4.872,8.844,6.673,13.822,4.237c2.33,5.772,4.025,11.915,4.872,18.323c-5.508,0.37-9.85,4.978-9.85,10.539
							c0,5.613,4.343,10.168,9.85,10.539c-0.847,6.408-2.542,12.551-4.872,18.376c-4.978-2.436-11.015-0.635-13.822,4.184
							c-2.754,4.819-1.377,10.962,3.177,14.087c-3.866,4.978-8.367,9.48-13.345,13.345c-3.124-4.554-9.268-5.931-14.087-3.178
							c-4.819,2.807-6.62,8.844-4.183,13.822c-5.826,2.33-11.969,4.025-18.376,4.872c-0.371-5.508-4.925-9.85-10.539-9.85
							C3961.298,528.715,3956.691,533.058,3956.32,538.565z"/>
					</defs>
					<clipPath id="SVGID_42_">
						<use xlink:href="#SVGID_41_"  overflow="visible"/>
					</clipPath>
				</g>
			</g>
			<g>
				<g>
					<defs>
						<path id="SVGID_43_" d="M3953.485,541.4c-6.408-0.847-12.551-2.542-18.323-4.872c2.436-4.978,0.635-11.015-4.237-13.822
							c-4.819-2.807-10.962-1.377-14.034,3.231c-5.031-3.866-9.532-8.367-13.398-13.398c4.554-3.124,6.037-9.215,3.23-14.087
							c-2.806-4.819-8.897-6.62-13.822-4.184c-2.383-5.825-4.078-11.968-4.925-18.376c5.561-0.371,9.85-4.925,9.85-10.539
							c0-5.56-4.29-10.168-9.85-10.539c0.847-6.408,2.542-12.551,4.925-18.323c4.925,2.436,11.015,0.635,13.822-4.237
							c2.807-4.819,1.324-10.962-3.23-14.034c3.866-5.031,8.367-9.532,13.398-13.398c3.072,4.554,9.215,6.037,14.034,3.23
							c4.872-2.807,6.673-8.897,4.236-13.822c5.773-2.383,11.916-4.078,18.323-4.925c0.371,5.561,4.978,9.85,10.539,9.85
							c5.614,0,10.168-4.29,10.539-9.85c6.408,0.848,12.551,2.542,18.376,4.925c-2.436,4.925-0.635,11.015,4.184,13.822
							c4.872,2.807,10.962,1.324,14.087-3.23c5.031,3.866,9.532,8.367,13.398,13.398c-4.607,3.072-6.037,9.215-3.23,14.034
							c2.807,4.872,8.844,6.673,13.822,4.237c2.33,5.772,4.025,11.915,4.872,18.323c-5.507,0.37-9.85,4.978-9.85,10.539
							c0,5.613,4.343,10.168,9.85,10.539c-0.847,6.408-2.542,12.551-4.872,18.376c-4.978-2.436-11.015-0.635-13.822,4.184
							c-2.754,4.819-1.377,10.962,3.177,14.087c-3.866,4.978-8.367,9.48-13.345,13.345c-3.124-4.554-9.268-5.931-14.086-3.178
							c-4.819,2.807-6.62,8.844-4.184,13.822c-5.825,2.33-11.969,4.025-18.376,4.872c-0.371-5.508-4.925-9.85-10.539-9.85
							C3958.463,531.55,3953.856,535.893,3953.485,541.4z"/>
					</defs>
					<clipPath id="SVGID_44_">
						<use xlink:href="#SVGID_43_"  overflow="visible"/>
					</clipPath>
				</g>
				<g>
					<defs>
						<path id="SVGID_45_" d="M3953.485,541.4c-6.408-0.847-12.551-2.542-18.323-4.872c2.436-4.978,0.635-11.015-4.237-13.822
							c-4.819-2.807-10.962-1.377-14.034,3.231c-5.031-3.866-9.532-8.367-13.398-13.398c4.554-3.124,6.037-9.215,3.23-14.087
							c-2.806-4.819-8.897-6.62-13.822-4.184c-2.383-5.825-4.078-11.968-4.925-18.376c5.561-0.371,9.85-4.925,9.85-10.539
							c0-5.56-4.29-10.168-9.85-10.539c0.847-6.408,2.542-12.551,4.925-18.323c4.925,2.436,11.015,0.635,13.822-4.237
							c2.807-4.819,1.324-10.962-3.23-14.034c3.866-5.031,8.367-9.532,13.398-13.398c3.072,4.554,9.215,6.037,14.034,3.23
							c4.872-2.807,6.673-8.897,4.236-13.822c5.773-2.383,11.916-4.078,18.323-4.925c0.371,5.561,4.978,9.85,10.539,9.85
							c5.614,0,10.168-4.29,10.539-9.85c6.408,0.848,12.551,2.542,18.376,4.925c-2.436,4.925-0.635,11.015,4.184,13.822
							c4.872,2.807,10.962,1.324,14.087-3.23c5.031,3.866,9.532,8.367,13.398,13.398c-4.607,3.072-6.037,9.215-3.23,14.034
							c2.807,4.872,8.844,6.673,13.822,4.237c2.33,5.772,4.025,11.915,4.872,18.323c-5.507,0.37-9.85,4.978-9.85,10.539
							c0,5.613,4.343,10.168,9.85,10.539c-0.847,6.408-2.542,12.551-4.872,18.376c-4.978-2.436-11.015-0.635-13.822,4.184
							c-2.754,4.819-1.377,10.962,3.177,14.087c-3.866,4.978-8.367,9.48-13.345,13.345c-3.124-4.554-9.268-5.931-14.086-3.178
							c-4.819,2.807-6.62,8.844-4.184,13.822c-5.825,2.33-11.969,4.025-18.376,4.872c-0.371-5.508-4.925-9.85-10.539-9.85
							C3958.463,531.55,3953.856,535.893,3953.485,541.4z"/>
					</defs>
					<use xlink:href="#SVGID_45_"  overflow="visible" fill="#47763B"/>
					<clipPath id="SVGID_46_">
						<use xlink:href="#SVGID_45_"  overflow="visible"/>
					</clipPath>
					<path clip-path="url(#SVGID_46_)" fill="#FFFFFF" stroke="#FFFFFF" stroke-width="4" stroke-miterlimit="10" d="
						M4009.213,349.011l-46.441,114.417c0,0-4.884,7.615-13.197,1.913l-46.424-52.196l-17.959-13.37l-31.17-17.62
						c0,0-4.766-2.797-4.5-6.851c0.266-4.054,6.947-4.995,6.947-4.995l142.459-26.524
						C3998.927,343.785,4010.734,341.092,4009.213,349.011z"/>
					<path clip-path="url(#SVGID_46_)" fill="#47763B" stroke="#FFFFFF" stroke-width="4" stroke-miterlimit="10" d="
						M3892.029,448.455c0,0-1.561-0.454-2.336-7.104c-0.776-6.649-4.501-41.577-4.501-41.577l89.775-35.445
						c0,0,5.158-1.917,4.454,0.856c0,0,0.73,0.653-2.188,2.488c-2.918,1.835-73.726,44.514-73.726,44.514"/>
					<path clip-path="url(#SVGID_46_)" fill="#47763B" stroke="#FFFFFF" stroke-width="4" stroke-miterlimit="10" d="
						M3920.951,433.158l-25.306,15.498c0,0-1.929,0.954-3.616-0.2l11.129-35.677"/>
					<use xlink:href="#SVGID_45_"  overflow="visible" fill="none" stroke="#FFFFFF" stroke-width="4" stroke-miterlimit="10"/>
				</g>
				<g>
					<defs>
						<path id="SVGID_47_" d="M3953.485,541.4c-6.408-0.847-12.551-2.542-18.323-4.872c2.436-4.978,0.635-11.015-4.237-13.822
							c-4.819-2.807-10.962-1.377-14.034,3.231c-5.031-3.866-9.532-8.367-13.398-13.398c4.554-3.124,6.037-9.215,3.23-14.087
							c-2.806-4.819-8.897-6.62-13.822-4.184c-2.383-5.825-4.078-11.968-4.925-18.376c5.561-0.371,9.85-4.925,9.85-10.539
							c0-5.56-4.29-10.168-9.85-10.539c0.847-6.408,2.542-12.551,4.925-18.323c4.925,2.436,11.015,0.635,13.822-4.237
							c2.807-4.819,1.324-10.962-3.23-14.034c3.866-5.031,8.367-9.532,13.398-13.398c3.072,4.554,9.215,6.037,14.034,3.23
							c4.872-2.807,6.673-8.897,4.236-13.822c5.773-2.383,11.916-4.078,18.323-4.925c0.371,5.561,4.978,9.85,10.539,9.85
							c5.614,0,10.168-4.29,10.539-9.85c6.408,0.848,12.551,2.542,18.376,4.925c-2.436,4.925-0.635,11.015,4.184,13.822
							c4.872,2.807,10.962,1.324,14.087-3.23c5.031,3.866,9.532,8.367,13.398,13.398c-4.607,3.072-6.037,9.215-3.23,14.034
							c2.807,4.872,8.844,6.673,13.822,4.237c2.33,5.772,4.025,11.915,4.872,18.323c-5.507,0.37-9.85,4.978-9.85,10.539
							c0,5.613,4.343,10.168,9.85,10.539c-0.847,6.408-2.542,12.551-4.872,18.376c-4.978-2.436-11.015-0.635-13.822,4.184
							c-2.754,4.819-1.377,10.962,3.177,14.087c-3.866,4.978-8.367,9.48-13.345,13.345c-3.124-4.554-9.268-5.931-14.086-3.178
							c-4.819,2.807-6.62,8.844-4.184,13.822c-5.825,2.33-11.969,4.025-18.376,4.872c-0.371-5.508-4.925-9.85-10.539-9.85
							C3958.463,531.55,3953.856,535.893,3953.485,541.4z"/>
					</defs>
					<clipPath id="SVGID_48_">
						<use xlink:href="#SVGID_47_"  overflow="visible"/>
					</clipPath>
				</g>
			</g>
		</g>
	</g>
</g>
<g id="Capa_4" display="none">
	<g display="inline">
		<circle fill="#FFFFFF" cx="3855" cy="674.564" r="11.443"/>
		<circle fill="#808080" cx="3891" cy="674.564" r="11.443"/>
		<circle fill="#FFFFFF" cx="3927" cy="674.564" r="11.443"/>
		<circle fill="#FFFFFF" cx="3963" cy="674.564" r="11.443"/>
		<circle fill="#FFFFFF" cx="3999" cy="674.564" r="11.443"/>
	</g>
</g>
<g id="Capa_7">
	<g opacity="0.35">
		<circle fill="#FFFFFF" cx="100" cy="100" r="100"/>
		<g>
			<g>
				<path fill="#231F21" d="M48.828,80.012c-0.311-0.961-0.481-1.984-0.481-3.047c0-5.538,4.554-10.028,10.171-10.028
					c4.024,0,7.492,2.31,9.141,5.653c1.424-0.379,2.863-0.724,4.314-1.034c-2.166-5.232-7.37-8.922-13.456-8.922
					c-8.027,0-14.535,6.416-14.535,14.331c0,1.844,0.366,3.601,1.009,5.22C46.251,81.43,47.53,80.706,48.828,80.012z"/>
				<path fill="#231F21" d="M63.557,73.79c-1.064-1.637-2.92-2.725-5.039-2.725c-3.305,0-5.985,2.642-5.985,5.901
					c0,0.385,0.04,0.761,0.112,1.126C56.162,76.427,59.805,74.987,63.557,73.79z"/>
				<g>
					<path fill="#231F21" d="M154.018,80.012c0.311-0.961,0.482-1.984,0.482-3.047c0-5.538-4.554-10.028-10.171-10.028
						c-4.024,0-7.492,2.31-9.141,5.653c-1.424-0.379-2.863-0.724-4.314-1.034c2.166-5.232,7.37-8.922,13.456-8.922
						c8.027,0,14.535,6.416,14.535,14.331c0,1.844-0.366,3.601-1.009,5.22C156.596,81.43,155.317,80.706,154.018,80.012z"/>
					<path fill="#231F21" d="M139.29,73.79c1.064-1.637,2.92-2.725,5.039-2.725c3.305,0,5.985,2.642,5.985,5.901
						c0,0.385-0.04,0.761-0.112,1.126C146.685,76.427,143.042,74.987,139.29,73.79z"/>
				</g>
			</g>
			<g>
				<g>
					<path fill="#222221" d="M109.325,22.975c-7.411-0.937-47.739,11.823-51.433,14.532c-3.694,2.709,42.754,34.141,47.634,35.509
						c4.879,1.367,49.67-24.134,51.42-27.49C158.695,42.171,119.197,24.223,109.325,22.975z"/>
					<path fill="#222221" d="M76.319,57.344c0,0,23.734,17.748,29.147,18.657c5.412,0.909,25.663-9.845,29.903-13.177
						c0,0-1.392,18.332-1.555,20.479c-0.382,5.037-59.728,1.279-59.29-4.502C74.837,74.673,76.319,57.344,76.319,57.344z"/>
				</g>
				<path fill="#69A742" d="M109.613,42.388c-2.818-0.021-5.613,0.962-8.399,1.448c-3.427,0.597-6.904,0.928-10.361,1.3
					c-7.031,0.756-13.943,1.678-20.655,3.99c-0.369,0.127-0.698,0.632-0.691,1.017c0.121,5.939-1.214,11.709-2.482,17.491
					c-0.982-0.064-2.068-0.054-2.768,0.67c-0.283,0.293-0.282,0.712,0.051,0.97c0.461,0.357,0.981,0.456,1.521,0.508
					c-3.716,4.722-4.501,10.184-0.57,15.575c0.446,0.611,1.241,0.229,1.409-0.359c0.231-0.11,0.389-0.33,0.48-0.613
					c1.359-1.171,1.813-3.757,2.156-5.276c0.544-2.412,0.965-5.855,0.279-8.586c0.27,0.057,0.541,0.103,0.817,0.118
					c1.107,0.06,1.667-1.406,0.726-2.051c-0.506-0.347-1.092-0.549-1.701-0.68c0.242-1.179,0.486-2.358,0.741-3.545
					c0.542-2.524,1.004-5.056,1.388-7.609c0.251-1.673,0.366-3.36,0.444-5.048c0.056-1.198,4.709-1.958,5.607-2.17
					c6.182-1.465,12.61-1.864,18.904-2.613c4.116-0.489,10.696-0.387,13.341-4.035C109.986,42.699,109.856,42.39,109.613,42.388z"/>
			</g>
			<g>
				<g>
					<path fill="#222221" d="M91.5,101.2c-4.156-4.767-8.713-5.884-16.256-4.225c-7.613,1.676-13.794,5.483-20.237,12.659
						c-6.356,7.159-10.581,13.462-13.113,22.245c-1.816,8.957-1.222,15.767,1.397,20.848c1.397,0.681,2.899,1.397,4.592,2.672
						c2.916,2.217,3.929,3.789,4.418,4.417c14.702,4.994,26.715-7.578,32.197-15.697c6.164-9.114,9.079-14.684,10.389-23.345
						C96.162,112.305,95.656,105.879,91.5,101.2z M84.184,124.737c-0.803,4.994-2.933,9.691-6.391,14.091
						c-3.702,4.697-7.857,7.595-12.449,8.695c-4.575,1.083-8.049-0.017-10.406-3.318c-2.235-3.09-2.846-7.194-1.886-12.275
						c0.978-5.116,3.248-9.795,6.757-14.021c3.649-4.33,7.7-6.984,12.188-7.997c4.452-0.995,7.805,0.017,10.092,3.021
						C84.289,115.797,85.005,119.726,84.184,124.737z"/>
					<path fill="#222221" d="M78.818,125.441c0.481-2.974,0.063-5.299-1.247-6.99c-1.349-1.786-3.338-2.381-5.977-1.789
						c-2.648,0.594-5.05,2.167-7.213,4.738c-2.081,2.501-3.417,5.264-3.997,8.294c-0.577,3.01-0.21,5.44,1.112,7.273
						c1.396,1.95,3.455,2.607,6.165,1.963c2.723-0.646,5.181-2.369,7.367-5.148C77.08,131.178,78.34,128.396,78.818,125.441z"/>
				</g>
				<g>
					<path fill="#222221" d="M107.959,120.773c1.31,8.661,4.225,14.23,10.389,23.345c5.483,8.119,17.496,20.691,32.197,15.697
						c0.489-0.629,1.502-2.2,4.418-4.417c1.694-1.275,3.195-1.991,4.592-2.672c2.619-5.081,3.213-11.891,1.397-20.848
						c-2.532-8.783-6.757-15.086-13.113-22.245c-6.443-7.176-12.624-10.983-20.237-12.659c-7.543-1.659-12.1-0.541-16.256,4.225
						C107.191,105.879,106.684,112.305,107.959,120.773z M120.758,112.934c2.287-3.003,5.64-4.016,10.092-3.021
						c4.487,1.013,8.538,3.667,12.188,7.997c3.51,4.226,5.779,8.905,6.757,14.021c0.96,5.081,0.349,9.184-1.886,12.275
						c-2.357,3.3-5.832,4.4-10.406,3.318c-4.592-1.1-8.748-3.998-12.449-8.695c-3.457-4.4-5.587-9.097-6.391-14.091
						C117.842,119.726,118.558,115.797,120.758,112.934z"/>
					<path fill="#222221" d="M127.82,133.783c2.185,2.779,4.644,4.501,7.367,5.148c2.71,0.643,4.769-0.013,6.165-1.963
						c1.321-1.833,1.688-4.263,1.112-7.273c-0.58-3.029-1.916-5.793-3.997-8.294c-2.164-2.57-4.565-4.144-7.213-4.738
						c-2.639-0.592-4.628,0.003-5.977,1.789c-1.31,1.691-1.729,4.016-1.247,6.99C124.507,128.396,125.767,131.178,127.82,133.783z"
						/>
				</g>
			</g>
			<ellipse fill="#222221" cx="100.207" cy="166.522" rx="22.805" ry="10.552"/>
		</g>
	</g>
</g>
</svg>
