<?xml version="1.0" encoding="utf-8"?>
<!-- Generator: Adobe Illustrator 17.0.0, SVG Export Plug-In . SVG Version: 6.00 Build 0)  -->
<!DOCTYPE svg PUBLIC "-//W3C//DTD SVG 1.1//EN" "http://www.w3.org/Graphics/SVG/1.1/DTD/svg11.dtd">
<svg version="1.1" id="Layer_1" xmlns="http://www.w3.org/2000/svg" xmlns:xlink="http://www.w3.org/1999/xlink" x="0px" y="0px"
	 width="207.375px" height="206.656px" viewBox="-6.833 -1.5 207.375 206.656" enable-background="new -6.833 -1.5 207.375 206.656"
	 xml:space="preserve">
<g id="Capa_1">
</g>
<g id="Capa_4_copia" display="none">
	<g id="Capa_6" display="inline">
		<g>
			<circle fill="#808080" cx="4162" cy="674.564" r="11.443"/>
			<circle fill="#FFFFFF" cx="4198" cy="674.564" r="11.443"/>
			<circle fill="#FFFFFF" cx="4234" cy="674.564" r="11.443"/>
			<circle fill="#FFFFFF" cx="4270" cy="674.564" r="11.443"/>
			<circle fill="#FFFFFF" cx="4306" cy="674.564" r="11.443"/>
		</g>
	</g>
</g>
<g id="Capa_3" display="none">
	<rect x="3593" y="106" display="inline" fill="#B3B3B3" width="1280" height="587"/>
	<g display="inline">
		<circle fill="#47763B" cx="4233" cy="399.5" r="185.329"/>
		<g>
			<g opacity="0.95">
				<g>
					<g>
						<path id="SVGID_3_" fill="#47763B" d="M4392.166,373.02c-0.848,6.408-2.542,12.551-4.872,18.323
							c-4.978-2.436-11.016-0.635-13.822,4.237c-2.807,4.819-1.377,10.962,3.23,14.034c-3.866,5.031-8.367,9.532-13.398,13.398
							c-3.124-4.554-9.214-6.037-14.086-3.23c-4.819,2.807-6.62,8.897-4.184,13.822c-5.825,2.383-11.968,4.078-18.376,4.925
							c-0.371-5.56-4.925-9.85-10.539-9.85c-5.561,0-10.168,4.29-10.539,9.85c-6.408-0.847-12.551-2.542-18.323-4.925
							c2.436-4.925,0.635-11.015-4.237-13.822c-4.819-2.807-10.962-1.324-14.034,3.23c-5.031-3.866-9.532-8.367-13.398-13.398
							c4.555-3.072,6.037-9.215,3.23-14.034c-2.807-4.872-8.897-6.673-13.822-4.237c-2.383-5.773-4.078-11.915-4.925-18.323
							c5.561-0.371,9.85-4.978,9.85-10.539c0-5.613-4.29-10.168-9.85-10.539c0.848-6.408,2.542-12.551,4.925-18.376
							c4.925,2.436,11.015,0.635,13.822-4.184c2.807-4.872,1.324-10.962-3.23-14.087c3.866-5.031,8.367-9.533,13.398-13.398
							c3.072,4.607,9.214,6.037,14.034,3.23c4.872-2.807,6.673-8.844,4.237-13.822c5.772-2.33,11.916-4.025,18.323-4.872
							c0.371,5.507,4.978,9.85,10.539,9.85c5.614,0,10.168-4.343,10.539-9.85c6.408,0.847,12.551,2.542,18.376,4.872
							c-2.436,4.978-0.635,11.015,4.184,13.822c4.819,2.754,10.962,1.377,14.086-3.177c4.978,3.866,9.48,8.367,13.346,13.345
							c-4.555,3.124-5.932,9.268-3.178,14.087c2.807,4.819,8.844,6.62,13.822,4.184c2.33,5.826,4.025,11.969,4.872,18.376
							c-5.508,0.371-9.85,4.925-9.85,10.539C4382.316,368.041,4386.658,372.649,4392.166,373.02z"/>
					</g>
					<g>
						<defs>
							<path id="SVGID_11_" d="M4392.166,373.02c-0.848,6.408-2.542,12.551-4.872,18.323c-4.978-2.436-11.016-0.635-13.822,4.237
								c-2.807,4.819-1.377,10.962,3.23,14.034c-3.866,5.031-8.367,9.532-13.398,13.398c-3.124-4.554-9.214-6.037-14.086-3.23
								c-4.819,2.807-6.62,8.897-4.184,13.822c-5.825,2.383-11.968,4.078-18.376,4.925c-0.371-5.56-4.925-9.85-10.539-9.85
								c-5.561,0-10.168,4.29-10.539,9.85c-6.408-0.847-12.551-2.542-18.323-4.925c2.436-4.925,0.635-11.015-4.237-13.822
								c-4.819-2.807-10.962-1.324-14.034,3.23c-5.031-3.866-9.532-8.367-13.398-13.398c4.555-3.072,6.037-9.215,3.23-14.034
								c-2.807-4.872-8.897-6.673-13.822-4.237c-2.383-5.773-4.078-11.915-4.925-18.323c5.561-0.371,9.85-4.978,9.85-10.539
								c0-5.613-4.29-10.168-9.85-10.539c0.848-6.408,2.542-12.551,4.925-18.376c4.925,2.436,11.015,0.635,13.822-4.184
								c2.807-4.872,1.324-10.962-3.23-14.087c3.866-5.031,8.367-9.533,13.398-13.398c3.072,4.607,9.214,6.037,14.034,3.23
								c4.872-2.807,6.673-8.844,4.237-13.822c5.772-2.33,11.916-4.025,18.323-4.872c0.371,5.507,4.978,9.85,10.539,9.85
								c5.614,0,10.168-4.343,10.539-9.85c6.408,0.847,12.551,2.542,18.376,4.872c-2.436,4.978-0.635,11.015,4.184,13.822
								c4.819,2.754,10.962,1.377,14.086-3.177c4.978,3.866,9.48,8.367,13.346,13.345c-4.555,3.124-5.932,9.268-3.178,14.087
								c2.807,4.819,8.844,6.62,13.822,4.184c2.33,5.826,4.025,11.969,4.872,18.376c-5.508,0.371-9.85,4.925-9.85,10.539
								C4382.316,368.041,4386.658,372.649,4392.166,373.02z"/>
						</defs>
						<clipPath id="SVGID_12_">
							<use xlink:href="#SVGID_11_"  overflow="visible"/>
						</clipPath>
						<path clip-path="url(#SVGID_12_)" fill="#47763B" stroke="#47763B" stroke-width="4" stroke-miterlimit="10" d="
							M4319.048,346.176l-46.441,114.417c0,0-4.884,7.615-13.197,1.913l-46.424-52.196l-17.959-13.37l-31.17-17.62
							c0,0-4.766-2.797-4.5-6.851c0.266-4.054,6.947-4.995,6.947-4.995l142.459-26.524
							C4308.761,340.95,4320.569,338.258,4319.048,346.176z"/>
					</g>
					<g>
						<defs>
							<path id="SVGID_13_" d="M4392.166,373.02c-0.848,6.408-2.542,12.551-4.872,18.323c-4.978-2.436-11.016-0.635-13.822,4.237
								c-2.807,4.819-1.377,10.962,3.23,14.034c-3.866,5.031-8.367,9.532-13.398,13.398c-3.124-4.554-9.214-6.037-14.086-3.23
								c-4.819,2.807-6.62,8.897-4.184,13.822c-5.825,2.383-11.968,4.078-18.376,4.925c-0.371-5.56-4.925-9.85-10.539-9.85
								c-5.561,0-10.168,4.29-10.539,9.85c-6.408-0.847-12.551-2.542-18.323-4.925c2.436-4.925,0.635-11.015-4.237-13.822
								c-4.819-2.807-10.962-1.324-14.034,3.23c-5.031-3.866-9.532-8.367-13.398-13.398c4.555-3.072,6.037-9.215,3.23-14.034
								c-2.807-4.872-8.897-6.673-13.822-4.237c-2.383-5.773-4.078-11.915-4.925-18.323c5.561-0.371,9.85-4.978,9.85-10.539
								c0-5.613-4.29-10.168-9.85-10.539c0.848-6.408,2.542-12.551,4.925-18.376c4.925,2.436,11.015,0.635,13.822-4.184
								c2.807-4.872,1.324-10.962-3.23-14.087c3.866-5.031,8.367-9.533,13.398-13.398c3.072,4.607,9.214,6.037,14.034,3.23
								c4.872-2.807,6.673-8.844,4.237-13.822c5.772-2.33,11.916-4.025,18.323-4.872c0.371,5.507,4.978,9.85,10.539,9.85
								c5.614,0,10.168-4.343,10.539-9.85c6.408,0.847,12.551,2.542,18.376,4.872c-2.436,4.978-0.635,11.015,4.184,13.822
								c4.819,2.754,10.962,1.377,14.086-3.177c4.978,3.866,9.48,8.367,13.346,13.345c-4.555,3.124-5.932,9.268-3.178,14.087
								c2.807,4.819,8.844,6.62,13.822,4.184c2.33,5.826,4.025,11.969,4.872,18.376c-5.508,0.371-9.85,4.925-9.85,10.539
								C4382.316,368.041,4386.658,372.649,4392.166,373.02z"/>
						</defs>
						<clipPath id="SVGID_14_">
							<use xlink:href="#SVGID_13_"  overflow="visible"/>
						</clipPath>
						<path clip-path="url(#SVGID_14_)" fill="#47763B" stroke="#47763B" stroke-width="4" stroke-miterlimit="10" d="
							M4201.863,445.621c0,0-1.561-0.454-2.336-7.104c-0.775-6.649-4.501-41.577-4.501-41.577l89.775-35.445
							c0,0,5.158-1.917,4.454,0.856c0,0,0.73,0.653-2.188,2.488s-73.726,44.514-73.726,44.514"/>
					</g>
					<g>
						<defs>
							<path id="SVGID_16_" d="M4392.166,373.02c-0.848,6.408-2.542,12.551-4.872,18.323c-4.978-2.436-11.016-0.635-13.822,4.237
								c-2.807,4.819-1.377,10.962,3.23,14.034c-3.866,5.031-8.367,9.532-13.398,13.398c-3.124-4.554-9.214-6.037-14.086-3.23
								c-4.819,2.807-6.62,8.897-4.184,13.822c-5.825,2.383-11.968,4.078-18.376,4.925c-0.371-5.56-4.925-9.85-10.539-9.85
								c-5.561,0-10.168,4.29-10.539,9.85c-6.408-0.847-12.551-2.542-18.323-4.925c2.436-4.925,0.635-11.015-4.237-13.822
								c-4.819-2.807-10.962-1.324-14.034,3.23c-5.031-3.866-9.532-8.367-13.398-13.398c4.555-3.072,6.037-9.215,3.23-14.034
								c-2.807-4.872-8.897-6.673-13.822-4.237c-2.383-5.773-4.078-11.915-4.925-18.323c5.561-0.371,9.85-4.978,9.85-10.539
								c0-5.613-4.29-10.168-9.85-10.539c0.848-6.408,2.542-12.551,4.925-18.376c4.925,2.436,11.015,0.635,13.822-4.184
								c2.807-4.872,1.324-10.962-3.23-14.087c3.866-5.031,8.367-9.533,13.398-13.398c3.072,4.607,9.214,6.037,14.034,3.23
								c4.872-2.807,6.673-8.844,4.237-13.822c5.772-2.33,11.916-4.025,18.323-4.872c0.371,5.507,4.978,9.85,10.539,9.85
								c5.614,0,10.168-4.343,10.539-9.85c6.408,0.847,12.551,2.542,18.376,4.872c-2.436,4.978-0.635,11.015,4.184,13.822
								c4.819,2.754,10.962,1.377,14.086-3.177c4.978,3.866,9.48,8.367,13.346,13.345c-4.555,3.124-5.932,9.268-3.178,14.087
								c2.807,4.819,8.844,6.62,13.822,4.184c2.33,5.826,4.025,11.969,4.872,18.376c-5.508,0.371-9.85,4.925-9.85,10.539
								C4382.316,368.041,4386.658,372.649,4392.166,373.02z"/>
						</defs>
						<clipPath id="SVGID_17_">
							<use xlink:href="#SVGID_16_"  overflow="visible"/>
						</clipPath>
						<path clip-path="url(#SVGID_17_)" fill="#47763B" stroke="#47763B" stroke-width="4" stroke-miterlimit="10" d="
							M4230.786,430.323l-25.306,15.498c0,0-1.929,0.954-3.616-0.2l11.129-35.677"/>
					</g>
					<g>
						<path id="SVGID_1_" fill="none" stroke="#47763B" stroke-width="4" stroke-miterlimit="10" d="M4392.166,373.02
							c-0.848,6.408-2.542,12.551-4.872,18.323c-4.978-2.436-11.016-0.635-13.822,4.237c-2.807,4.819-1.377,10.962,3.23,14.034
							c-3.866,5.031-8.367,9.532-13.398,13.398c-3.124-4.554-9.214-6.037-14.086-3.23c-4.819,2.807-6.62,8.897-4.184,13.822
							c-5.825,2.383-11.968,4.078-18.376,4.925c-0.371-5.56-4.925-9.85-10.539-9.85c-5.561,0-10.168,4.29-10.539,9.85
							c-6.408-0.847-12.551-2.542-18.323-4.925c2.436-4.925,0.635-11.015-4.237-13.822c-4.819-2.807-10.962-1.324-14.034,3.23
							c-5.031-3.866-9.532-8.367-13.398-13.398c4.555-3.072,6.037-9.215,3.23-14.034c-2.807-4.872-8.897-6.673-13.822-4.237
							c-2.383-5.773-4.078-11.915-4.925-18.323c5.561-0.371,9.85-4.978,9.85-10.539c0-5.613-4.29-10.168-9.85-10.539
							c0.848-6.408,2.542-12.551,4.925-18.376c4.925,2.436,11.015,0.635,13.822-4.184c2.807-4.872,1.324-10.962-3.23-14.087
							c3.866-5.031,8.367-9.533,13.398-13.398c3.072,4.607,9.214,6.037,14.034,3.23c4.872-2.807,6.673-8.844,4.237-13.822
							c5.772-2.33,11.916-4.025,18.323-4.872c0.371,5.507,4.978,9.85,10.539,9.85c5.614,0,10.168-4.343,10.539-9.85
							c6.408,0.847,12.551,2.542,18.376,4.872c-2.436,4.978-0.635,11.015,4.184,13.822c4.819,2.754,10.962,1.377,14.086-3.177
							c4.978,3.866,9.48,8.367,13.346,13.345c-4.555,3.124-5.932,9.268-3.178,14.087c2.807,4.819,8.844,6.62,13.822,4.184
							c2.33,5.826,4.025,11.969,4.872,18.376c-5.508,0.371-9.85,4.925-9.85,10.539
							C4382.316,368.041,4386.658,372.649,4392.166,373.02z"/>
					</g>
				</g>
			</g>
			<g>
				<g>
					<g>
						<path id="SVGID_9_" fill="#47763B" d="M4389.331,375.854c-0.847,6.408-2.542,12.551-4.872,18.323
							c-4.978-2.436-11.015-0.635-13.822,4.237c-2.806,4.819-1.376,10.962,3.231,14.034c-3.866,5.031-8.368,9.532-13.398,13.398
							c-3.125-4.554-9.215-6.037-14.087-3.23c-4.819,2.807-6.62,8.897-4.184,13.822c-5.825,2.383-11.968,4.078-18.376,4.925
							c-0.371-5.56-4.925-9.85-10.539-9.85c-5.561,0-10.168,4.29-10.539,9.85c-6.408-0.847-12.551-2.542-18.324-4.925
							c2.437-4.925,0.636-11.015-4.236-13.822c-4.819-2.807-10.962-1.324-14.034,3.23c-5.031-3.866-9.532-8.367-13.398-13.398
							c4.554-3.072,6.037-9.215,3.23-14.034c-2.807-4.872-8.897-6.673-13.822-4.237c-2.383-5.773-4.078-11.915-4.925-18.323
							c5.561-0.371,9.85-4.978,9.85-10.539c0-5.613-4.29-10.168-9.85-10.539c0.847-6.408,2.542-12.551,4.925-18.376
							c4.925,2.436,11.015,0.635,13.822-4.184c2.807-4.872,1.324-10.962-3.23-14.087c3.866-5.031,8.367-9.533,13.398-13.398
							c3.072,4.607,9.215,6.037,14.034,3.23c4.872-2.807,6.673-8.844,4.236-13.822c5.772-2.33,11.916-4.025,18.324-4.872
							c0.37,5.507,4.978,9.85,10.539,9.85c5.613,0,10.167-4.343,10.539-9.85c6.408,0.847,12.551,2.542,18.376,4.872
							c-2.436,4.978-0.635,11.015,4.184,13.822c4.819,2.754,10.962,1.377,14.086-3.177c4.978,3.866,9.479,8.367,13.345,13.345
							c-4.554,3.124-5.931,9.268-3.178,14.087c2.807,4.819,8.844,6.62,13.822,4.184c2.33,5.826,4.025,11.968,4.872,18.376
							c-5.507,0.371-9.85,4.925-9.85,10.539C4379.481,370.876,4383.824,375.483,4389.331,375.854z"/>
					</g>
					<g>
						<defs>
							<path id="SVGID_18_" d="M4389.331,375.854c-0.847,6.408-2.542,12.551-4.872,18.323c-4.978-2.436-11.015-0.635-13.822,4.237
								c-2.806,4.819-1.376,10.962,3.231,14.034c-3.866,5.031-8.368,9.532-13.398,13.398c-3.125-4.554-9.215-6.037-14.087-3.23
								c-4.819,2.807-6.62,8.897-4.184,13.822c-5.825,2.383-11.968,4.078-18.376,4.925c-0.371-5.56-4.925-9.85-10.539-9.85
								c-5.561,0-10.168,4.29-10.539,9.85c-6.408-0.847-12.551-2.542-18.324-4.925c2.437-4.925,0.636-11.015-4.236-13.822
								c-4.819-2.807-10.962-1.324-14.034,3.23c-5.031-3.866-9.532-8.367-13.398-13.398c4.554-3.072,6.037-9.215,3.23-14.034
								c-2.807-4.872-8.897-6.673-13.822-4.237c-2.383-5.773-4.078-11.915-4.925-18.323c5.561-0.371,9.85-4.978,9.85-10.539
								c0-5.613-4.29-10.168-9.85-10.539c0.847-6.408,2.542-12.551,4.925-18.376c4.925,2.436,11.015,0.635,13.822-4.184
								c2.807-4.872,1.324-10.962-3.23-14.087c3.866-5.031,8.367-9.533,13.398-13.398c3.072,4.607,9.215,6.037,14.034,3.23
								c4.872-2.807,6.673-8.844,4.236-13.822c5.772-2.33,11.916-4.025,18.324-4.872c0.37,5.507,4.978,9.85,10.539,9.85
								c5.613,0,10.167-4.343,10.539-9.85c6.408,0.847,12.551,2.542,18.376,4.872c-2.436,4.978-0.635,11.015,4.184,13.822
								c4.819,2.754,10.962,1.377,14.086-3.177c4.978,3.866,9.479,8.367,13.345,13.345c-4.554,3.124-5.931,9.268-3.178,14.087
								c2.807,4.819,8.844,6.62,13.822,4.184c2.33,5.826,4.025,11.968,4.872,18.376c-5.507,0.371-9.85,4.925-9.85,10.539
								C4379.481,370.876,4383.824,375.483,4389.331,375.854z"/>
						</defs>
						<clipPath id="SVGID_19_">
							<use xlink:href="#SVGID_18_"  overflow="visible"/>
						</clipPath>
						<path clip-path="url(#SVGID_19_)" fill="#FFFFFF" stroke="#FFFFFF" stroke-width="4" stroke-miterlimit="10" d="
							M4316.213,349.011l-46.441,114.417c0,0-4.884,7.615-13.197,1.913l-46.425-52.196l-17.959-13.37l-31.17-17.62
							c0,0-4.766-2.797-4.5-6.851c0.266-4.054,6.947-4.995,6.947-4.995l142.459-26.524
							C4305.927,343.785,4317.734,341.092,4316.213,349.011z"/>
					</g>
					<g>
						<defs>
							<path id="SVGID_20_" d="M4389.331,375.854c-0.847,6.408-2.542,12.551-4.872,18.323c-4.978-2.436-11.015-0.635-13.822,4.237
								c-2.806,4.819-1.376,10.962,3.231,14.034c-3.866,5.031-8.368,9.532-13.398,13.398c-3.125-4.554-9.215-6.037-14.087-3.23
								c-4.819,2.807-6.62,8.897-4.184,13.822c-5.825,2.383-11.968,4.078-18.376,4.925c-0.371-5.56-4.925-9.85-10.539-9.85
								c-5.561,0-10.168,4.29-10.539,9.85c-6.408-0.847-12.551-2.542-18.324-4.925c2.437-4.925,0.636-11.015-4.236-13.822
								c-4.819-2.807-10.962-1.324-14.034,3.23c-5.031-3.866-9.532-8.367-13.398-13.398c4.554-3.072,6.037-9.215,3.23-14.034
								c-2.807-4.872-8.897-6.673-13.822-4.237c-2.383-5.773-4.078-11.915-4.925-18.323c5.561-0.371,9.85-4.978,9.85-10.539
								c0-5.613-4.29-10.168-9.85-10.539c0.847-6.408,2.542-12.551,4.925-18.376c4.925,2.436,11.015,0.635,13.822-4.184
								c2.807-4.872,1.324-10.962-3.23-14.087c3.866-5.031,8.367-9.533,13.398-13.398c3.072,4.607,9.215,6.037,14.034,3.23
								c4.872-2.807,6.673-8.844,4.236-13.822c5.772-2.33,11.916-4.025,18.324-4.872c0.37,5.507,4.978,9.85,10.539,9.85
								c5.613,0,10.167-4.343,10.539-9.85c6.408,0.847,12.551,2.542,18.376,4.872c-2.436,4.978-0.635,11.015,4.184,13.822
								c4.819,2.754,10.962,1.377,14.086-3.177c4.978,3.866,9.479,8.367,13.345,13.345c-4.554,3.124-5.931,9.268-3.178,14.087
								c2.807,4.819,8.844,6.62,13.822,4.184c2.33,5.826,4.025,11.968,4.872,18.376c-5.507,0.371-9.85,4.925-9.85,10.539
								C4379.481,370.876,4383.824,375.483,4389.331,375.854z"/>
						</defs>
						<clipPath id="SVGID_22_">
							<use xlink:href="#SVGID_20_"  overflow="visible"/>
						</clipPath>
						<path clip-path="url(#SVGID_22_)" fill="#47763B" stroke="#FFFFFF" stroke-width="4" stroke-miterlimit="10" d="
							M4199.028,448.455c0,0-1.561-0.454-2.336-7.104c-0.775-6.649-4.501-41.577-4.501-41.577l89.774-35.445
							c0,0,5.158-1.917,4.455,0.856c0,0,0.73,0.653-2.188,2.488s-73.726,44.514-73.726,44.514"/>
					</g>
					<g>
						<defs>
							<path id="SVGID_23_" d="M4389.331,375.854c-0.847,6.408-2.542,12.551-4.872,18.323c-4.978-2.436-11.015-0.635-13.822,4.237
								c-2.806,4.819-1.376,10.962,3.231,14.034c-3.866,5.031-8.368,9.532-13.398,13.398c-3.125-4.554-9.215-6.037-14.087-3.23
								c-4.819,2.807-6.62,8.897-4.184,13.822c-5.825,2.383-11.968,4.078-18.376,4.925c-0.371-5.56-4.925-9.85-10.539-9.85
								c-5.561,0-10.168,4.29-10.539,9.85c-6.408-0.847-12.551-2.542-18.324-4.925c2.437-4.925,0.636-11.015-4.236-13.822
								c-4.819-2.807-10.962-1.324-14.034,3.23c-5.031-3.866-9.532-8.367-13.398-13.398c4.554-3.072,6.037-9.215,3.23-14.034
								c-2.807-4.872-8.897-6.673-13.822-4.237c-2.383-5.773-4.078-11.915-4.925-18.323c5.561-0.371,9.85-4.978,9.85-10.539
								c0-5.613-4.29-10.168-9.85-10.539c0.847-6.408,2.542-12.551,4.925-18.376c4.925,2.436,11.015,0.635,13.822-4.184
								c2.807-4.872,1.324-10.962-3.23-14.087c3.866-5.031,8.367-9.533,13.398-13.398c3.072,4.607,9.215,6.037,14.034,3.23
								c4.872-2.807,6.673-8.844,4.236-13.822c5.772-2.33,11.916-4.025,18.324-4.872c0.37,5.507,4.978,9.85,10.539,9.85
								c5.613,0,10.167-4.343,10.539-9.85c6.408,0.847,12.551,2.542,18.376,4.872c-2.436,4.978-0.635,11.015,4.184,13.822
								c4.819,2.754,10.962,1.377,14.086-3.177c4.978,3.866,9.479,8.367,13.345,13.345c-4.554,3.124-5.931,9.268-3.178,14.087
								c2.807,4.819,8.844,6.62,13.822,4.184c2.33,5.826,4.025,11.968,4.872,18.376c-5.507,0.371-9.85,4.925-9.85,10.539
								C4379.481,370.876,4383.824,375.483,4389.331,375.854z"/>
						</defs>
						<clipPath id="SVGID_24_">
							<use xlink:href="#SVGID_23_"  overflow="visible"/>
						</clipPath>
						<path clip-path="url(#SVGID_24_)" fill="#47763B" stroke="#FFFFFF" stroke-width="4" stroke-miterlimit="10" d="
							M4227.951,433.158l-25.306,15.498c0,0-1.929,0.954-3.617-0.2l11.129-35.677"/>
					</g>
					<g>
						<path id="SVGID_2_" fill="none" stroke="#FFFFFF" stroke-width="4" stroke-miterlimit="10" d="M4389.331,375.854
							c-0.847,6.408-2.542,12.551-4.872,18.323c-4.978-2.436-11.015-0.635-13.822,4.237c-2.806,4.819-1.376,10.962,3.231,14.034
							c-3.866,5.031-8.368,9.532-13.398,13.398c-3.125-4.554-9.215-6.037-14.087-3.23c-4.819,2.807-6.62,8.897-4.184,13.822
							c-5.825,2.383-11.968,4.078-18.376,4.925c-0.371-5.56-4.925-9.85-10.539-9.85c-5.561,0-10.168,4.29-10.539,9.85
							c-6.408-0.847-12.551-2.542-18.324-4.925c2.437-4.925,0.636-11.015-4.236-13.822c-4.819-2.807-10.962-1.324-14.034,3.23
							c-5.031-3.866-9.532-8.367-13.398-13.398c4.554-3.072,6.037-9.215,3.23-14.034c-2.807-4.872-8.897-6.673-13.822-4.237
							c-2.383-5.773-4.078-11.915-4.925-18.323c5.561-0.371,9.85-4.978,9.85-10.539c0-5.613-4.29-10.168-9.85-10.539
							c0.847-6.408,2.542-12.551,4.925-18.376c4.925,2.436,11.015,0.635,13.822-4.184c2.807-4.872,1.324-10.962-3.23-14.087
							c3.866-5.031,8.367-9.533,13.398-13.398c3.072,4.607,9.215,6.037,14.034,3.23c4.872-2.807,6.673-8.844,4.236-13.822
							c5.772-2.33,11.916-4.025,18.324-4.872c0.37,5.507,4.978,9.85,10.539,9.85c5.613,0,10.167-4.343,10.539-9.85
							c6.408,0.847,12.551,2.542,18.376,4.872c-2.436,4.978-0.635,11.015,4.184,13.822c4.819,2.754,10.962,1.377,14.086-3.177
							c4.978,3.866,9.479,8.367,13.345,13.345c-4.554,3.124-5.931,9.268-3.178,14.087c2.807,4.819,8.844,6.62,13.822,4.184
							c2.33,5.826,4.025,11.968,4.872,18.376c-5.507,0.371-9.85,4.925-9.85,10.539
							C4379.481,370.876,4383.824,375.483,4389.331,375.854z"/>
					</g>
				</g>
			</g>
		</g>
		<g>
			<g>
				<g>
					<g>
						<path id="SVGID_15_" fill="#47763B" d="M4208.403,254.765c6.408,0.847,12.551,2.542,18.324,4.872
							c-2.436,4.978-0.636,11.015,4.236,13.822c4.819,2.807,10.962,1.377,14.034-3.231c5.031,3.866,9.532,8.367,13.398,13.398
							c-4.554,3.124-6.037,9.215-3.23,14.087c2.807,4.819,8.897,6.62,13.822,4.184c2.383,5.825,4.078,11.968,4.925,18.376
							c-5.561,0.371-9.85,4.925-9.85,10.539c0,5.56,4.29,10.168,9.85,10.539c-0.847,6.408-2.542,12.551-4.925,18.323
							c-4.925-2.436-11.016-0.635-13.822,4.237c-2.807,4.819-1.324,10.962,3.23,14.034c-3.866,5.031-8.367,9.532-13.398,13.398
							c-3.072-4.554-9.215-6.037-14.034-3.23c-4.872,2.807-6.672,8.897-4.236,13.822c-5.772,2.383-11.916,4.078-18.324,4.925
							c-0.371-5.561-4.978-9.85-10.539-9.85c-5.613,0-10.167,4.29-10.538,9.85c-6.408-0.848-12.551-2.542-18.376-4.925
							c2.436-4.925,0.635-11.015-4.184-13.822c-4.872-2.807-10.962-1.324-14.087,3.23c-5.031-3.866-9.533-8.367-13.398-13.398
							c4.607-3.072,6.038-9.215,3.23-14.034c-2.807-4.872-8.844-6.673-13.822-4.237c-2.33-5.772-4.025-11.915-4.872-18.323
							c5.507-0.37,9.85-4.978,9.85-10.539c0-5.613-4.343-10.168-9.85-10.539c0.847-6.408,2.542-12.551,4.872-18.376
							c4.978,2.436,11.015,0.635,13.822-4.184c2.754-4.819,1.377-10.962-3.177-14.087c3.866-4.978,8.367-9.48,13.345-13.345
							c3.125,4.554,9.268,5.931,14.087,3.178c4.819-2.807,6.62-8.844,4.184-13.822c5.825-2.33,11.968-4.025,18.376-4.872
							c0.371,5.507,4.925,9.85,10.538,9.85C4203.425,264.615,4208.032,260.273,4208.403,254.765z"/>
					</g>
					<g>
						<defs>
							<path id="SVGID_25_" d="M4208.403,254.765c6.408,0.847,12.551,2.542,18.324,4.872c-2.436,4.978-0.636,11.015,4.236,13.822
								c4.819,2.807,10.962,1.377,14.034-3.231c5.031,3.866,9.532,8.367,13.398,13.398c-4.554,3.124-6.037,9.215-3.23,14.087
								c2.807,4.819,8.897,6.62,13.822,4.184c2.383,5.825,4.078,11.968,4.925,18.376c-5.561,0.371-9.85,4.925-9.85,10.539
								c0,5.56,4.29,10.168,9.85,10.539c-0.847,6.408-2.542,12.551-4.925,18.323c-4.925-2.436-11.016-0.635-13.822,4.237
								c-2.807,4.819-1.324,10.962,3.23,14.034c-3.866,5.031-8.367,9.532-13.398,13.398c-3.072-4.554-9.215-6.037-14.034-3.23
								c-4.872,2.807-6.672,8.897-4.236,13.822c-5.772,2.383-11.916,4.078-18.324,4.925c-0.371-5.561-4.978-9.85-10.539-9.85
								c-5.613,0-10.167,4.29-10.538,9.85c-6.408-0.848-12.551-2.542-18.376-4.925c2.436-4.925,0.635-11.015-4.184-13.822
								c-4.872-2.807-10.962-1.324-14.087,3.23c-5.031-3.866-9.533-8.367-13.398-13.398c4.607-3.072,6.038-9.215,3.23-14.034
								c-2.807-4.872-8.844-6.673-13.822-4.237c-2.33-5.772-4.025-11.915-4.872-18.323c5.507-0.37,9.85-4.978,9.85-10.539
								c0-5.613-4.343-10.168-9.85-10.539c0.847-6.408,2.542-12.551,4.872-18.376c4.978,2.436,11.015,0.635,13.822-4.184
								c2.754-4.819,1.377-10.962-3.177-14.087c3.866-4.978,8.367-9.48,13.345-13.345c3.125,4.554,9.268,5.931,14.087,3.178
								c4.819-2.807,6.62-8.844,4.184-13.822c5.825-2.33,11.968-4.025,18.376-4.872c0.371,5.507,4.925,9.85,10.538,9.85
								C4203.425,264.615,4208.032,260.273,4208.403,254.765z"/>
						</defs>
						<clipPath id="SVGID_26_">
							<use xlink:href="#SVGID_25_"  overflow="visible"/>
						</clipPath>
						<path clip-path="url(#SVGID_26_)" fill="#47763B" stroke="#47763B" stroke-width="4" stroke-miterlimit="10" d="
							M4319.048,346.176l-46.441,114.417c0,0-4.884,7.615-13.197,1.913l-46.424-52.196l-17.959-13.37l-31.17-17.62
							c0,0-4.766-2.797-4.5-6.851c0.266-4.054,6.947-4.995,6.947-4.995l142.459-26.524
							C4308.761,340.95,4320.569,338.258,4319.048,346.176z"/>
					</g>
					<g>
						<defs>
							<path id="SVGID_28_" d="M4208.403,254.765c6.408,0.847,12.551,2.542,18.324,4.872c-2.436,4.978-0.636,11.015,4.236,13.822
								c4.819,2.807,10.962,1.377,14.034-3.231c5.031,3.866,9.532,8.367,13.398,13.398c-4.554,3.124-6.037,9.215-3.23,14.087
								c2.807,4.819,8.897,6.62,13.822,4.184c2.383,5.825,4.078,11.968,4.925,18.376c-5.561,0.371-9.85,4.925-9.85,10.539
								c0,5.56,4.29,10.168,9.85,10.539c-0.847,6.408-2.542,12.551-4.925,18.323c-4.925-2.436-11.016-0.635-13.822,4.237
								c-2.807,4.819-1.324,10.962,3.23,14.034c-3.866,5.031-8.367,9.532-13.398,13.398c-3.072-4.554-9.215-6.037-14.034-3.23
								c-4.872,2.807-6.672,8.897-4.236,13.822c-5.772,2.383-11.916,4.078-18.324,4.925c-0.371-5.561-4.978-9.85-10.539-9.85
								c-5.613,0-10.167,4.29-10.538,9.85c-6.408-0.848-12.551-2.542-18.376-4.925c2.436-4.925,0.635-11.015-4.184-13.822
								c-4.872-2.807-10.962-1.324-14.087,3.23c-5.031-3.866-9.533-8.367-13.398-13.398c4.607-3.072,6.038-9.215,3.23-14.034
								c-2.807-4.872-8.844-6.673-13.822-4.237c-2.33-5.772-4.025-11.915-4.872-18.323c5.507-0.37,9.85-4.978,9.85-10.539
								c0-5.613-4.343-10.168-9.85-10.539c0.847-6.408,2.542-12.551,4.872-18.376c4.978,2.436,11.015,0.635,13.822-4.184
								c2.754-4.819,1.377-10.962-3.177-14.087c3.866-4.978,8.367-9.48,13.345-13.345c3.125,4.554,9.268,5.931,14.087,3.178
								c4.819-2.807,6.62-8.844,4.184-13.822c5.825-2.33,11.968-4.025,18.376-4.872c0.371,5.507,4.925,9.85,10.538,9.85
								C4203.425,264.615,4208.032,260.273,4208.403,254.765z"/>
						</defs>
						<clipPath id="SVGID_29_">
							<use xlink:href="#SVGID_28_"  overflow="visible"/>
						</clipPath>
						<path clip-path="url(#SVGID_29_)" fill="#47763B" stroke="#47763B" stroke-width="4" stroke-miterlimit="10" d="
							M4201.863,445.621c0,0-1.561-0.454-2.336-7.104c-0.775-6.649-4.501-41.577-4.501-41.577l89.775-35.445
							c0,0,5.158-1.917,4.454,0.856c0,0,0.73,0.653-2.188,2.488s-73.726,44.514-73.726,44.514"/>
					</g>
					<g>
						<defs>
							<path id="SVGID_30_" d="M4208.403,254.765c6.408,0.847,12.551,2.542,18.324,4.872c-2.436,4.978-0.636,11.015,4.236,13.822
								c4.819,2.807,10.962,1.377,14.034-3.231c5.031,3.866,9.532,8.367,13.398,13.398c-4.554,3.124-6.037,9.215-3.23,14.087
								c2.807,4.819,8.897,6.62,13.822,4.184c2.383,5.825,4.078,11.968,4.925,18.376c-5.561,0.371-9.85,4.925-9.85,10.539
								c0,5.56,4.29,10.168,9.85,10.539c-0.847,6.408-2.542,12.551-4.925,18.323c-4.925-2.436-11.016-0.635-13.822,4.237
								c-2.807,4.819-1.324,10.962,3.23,14.034c-3.866,5.031-8.367,9.532-13.398,13.398c-3.072-4.554-9.215-6.037-14.034-3.23
								c-4.872,2.807-6.672,8.897-4.236,13.822c-5.772,2.383-11.916,4.078-18.324,4.925c-0.371-5.561-4.978-9.85-10.539-9.85
								c-5.613,0-10.167,4.29-10.538,9.85c-6.408-0.848-12.551-2.542-18.376-4.925c2.436-4.925,0.635-11.015-4.184-13.822
								c-4.872-2.807-10.962-1.324-14.087,3.23c-5.031-3.866-9.533-8.367-13.398-13.398c4.607-3.072,6.038-9.215,3.23-14.034
								c-2.807-4.872-8.844-6.673-13.822-4.237c-2.33-5.772-4.025-11.915-4.872-18.323c5.507-0.37,9.85-4.978,9.85-10.539
								c0-5.613-4.343-10.168-9.85-10.539c0.847-6.408,2.542-12.551,4.872-18.376c4.978,2.436,11.015,0.635,13.822-4.184
								c2.754-4.819,1.377-10.962-3.177-14.087c3.866-4.978,8.367-9.48,13.345-13.345c3.125,4.554,9.268,5.931,14.087,3.178
								c4.819-2.807,6.62-8.844,4.184-13.822c5.825-2.33,11.968-4.025,18.376-4.872c0.371,5.507,4.925,9.85,10.538,9.85
								C4203.425,264.615,4208.032,260.273,4208.403,254.765z"/>
						</defs>
						<clipPath id="SVGID_31_">
							<use xlink:href="#SVGID_30_"  overflow="visible"/>
						</clipPath>
						<path clip-path="url(#SVGID_31_)" fill="#47763B" stroke="#47763B" stroke-width="4" stroke-miterlimit="10" d="
							M4230.786,430.323l-25.306,15.498c0,0-1.929,0.954-3.616-0.2l11.129-35.677"/>
					</g>
					<g>
						<path id="SVGID_4_" fill="none" stroke="#47763B" stroke-width="4" stroke-miterlimit="10" d="M4208.403,254.765
							c6.408,0.847,12.551,2.542,18.324,4.872c-2.436,4.978-0.636,11.015,4.236,13.822c4.819,2.807,10.962,1.377,14.034-3.231
							c5.031,3.866,9.532,8.367,13.398,13.398c-4.554,3.124-6.037,9.215-3.23,14.087c2.807,4.819,8.897,6.62,13.822,4.184
							c2.383,5.825,4.078,11.968,4.925,18.376c-5.561,0.371-9.85,4.925-9.85,10.539c0,5.56,4.29,10.168,9.85,10.539
							c-0.847,6.408-2.542,12.551-4.925,18.323c-4.925-2.436-11.016-0.635-13.822,4.237c-2.807,4.819-1.324,10.962,3.23,14.034
							c-3.866,5.031-8.367,9.532-13.398,13.398c-3.072-4.554-9.215-6.037-14.034-3.23c-4.872,2.807-6.672,8.897-4.236,13.822
							c-5.772,2.383-11.916,4.078-18.324,4.925c-0.371-5.561-4.978-9.85-10.539-9.85c-5.613,0-10.167,4.29-10.538,9.85
							c-6.408-0.848-12.551-2.542-18.376-4.925c2.436-4.925,0.635-11.015-4.184-13.822c-4.872-2.807-10.962-1.324-14.087,3.23
							c-5.031-3.866-9.533-8.367-13.398-13.398c4.607-3.072,6.038-9.215,3.23-14.034c-2.807-4.872-8.844-6.673-13.822-4.237
							c-2.33-5.772-4.025-11.915-4.872-18.323c5.507-0.37,9.85-4.978,9.85-10.539c0-5.613-4.343-10.168-9.85-10.539
							c0.847-6.408,2.542-12.551,4.872-18.376c4.978,2.436,11.015,0.635,13.822-4.184c2.754-4.819,1.377-10.962-3.177-14.087
							c3.866-4.978,8.367-9.48,13.345-13.345c3.125,4.554,9.268,5.931,14.087,3.178c4.819-2.807,6.62-8.844,4.184-13.822
							c5.825-2.33,11.968-4.025,18.376-4.872c0.371,5.507,4.925,9.85,10.538,9.85
							C4203.425,264.615,4208.032,260.273,4208.403,254.765z"/>
					</g>
				</g>
			</g>
			<g>
				<g>
					<g>
						<path id="SVGID_21_" fill="#47763B" d="M4205.568,257.6c6.408,0.847,12.551,2.542,18.323,4.872
							c-2.436,4.978-0.635,11.015,4.237,13.822c4.819,2.807,10.962,1.377,14.034-3.231c5.031,3.866,9.533,8.367,13.398,13.398
							c-4.554,3.124-6.038,9.215-3.23,14.087c2.807,4.819,8.897,6.62,13.822,4.184c2.383,5.825,4.078,11.968,4.925,18.376
							c-5.561,0.371-9.85,4.925-9.85,10.539c0,5.56,4.29,10.168,9.85,10.539c-0.847,6.408-2.542,12.551-4.925,18.323
							c-4.925-2.436-11.015-0.635-13.822,4.237c-2.807,4.819-1.324,10.962,3.23,14.034c-3.866,5.031-8.368,9.532-13.398,13.398
							c-3.071-4.554-9.215-6.037-14.034-3.23c-4.872,2.807-6.673,8.897-4.237,13.822c-5.772,2.383-11.915,4.078-18.323,4.925
							c-0.371-5.561-4.978-9.85-10.539-9.85c-5.613,0-10.168,4.29-10.539,9.85c-6.408-0.848-12.551-2.542-18.376-4.925
							c2.436-4.925,0.636-11.015-4.184-13.822c-4.872-2.807-10.962-1.324-14.086,3.23c-5.031-3.866-9.533-8.367-13.398-13.398
							c4.607-3.072,6.037-9.215,3.23-14.034c-2.807-4.872-8.844-6.673-13.822-4.237c-2.33-5.772-4.024-11.915-4.872-18.323
							c5.507-0.37,9.85-4.978,9.85-10.539c0-5.614-4.342-10.168-9.85-10.539c0.847-6.408,2.542-12.551,4.872-18.376
							c4.978,2.436,11.016,0.635,13.822-4.184c2.754-4.819,1.377-10.962-3.177-14.087c3.866-4.978,8.367-9.48,13.345-13.345
							c3.125,4.554,9.268,5.931,14.086,3.178c4.819-2.807,6.62-8.844,4.184-13.822c5.826-2.33,11.969-4.025,18.376-4.872
							c0.371,5.507,4.925,9.85,10.539,9.85C4200.59,267.45,4205.198,263.107,4205.568,257.6z"/>
					</g>
					<g>
						<defs>
							<path id="SVGID_32_" d="M4205.568,257.6c6.408,0.847,12.551,2.542,18.323,4.872c-2.436,4.978-0.635,11.015,4.237,13.822
								c4.819,2.807,10.962,1.377,14.034-3.231c5.031,3.866,9.533,8.367,13.398,13.398c-4.554,3.124-6.038,9.215-3.23,14.087
								c2.807,4.819,8.897,6.62,13.822,4.184c2.383,5.825,4.078,11.968,4.925,18.376c-5.561,0.371-9.85,4.925-9.85,10.539
								c0,5.56,4.29,10.168,9.85,10.539c-0.847,6.408-2.542,12.551-4.925,18.323c-4.925-2.436-11.015-0.635-13.822,4.237
								c-2.807,4.819-1.324,10.962,3.23,14.034c-3.866,5.031-8.368,9.532-13.398,13.398c-3.071-4.554-9.215-6.037-14.034-3.23
								c-4.872,2.807-6.673,8.897-4.237,13.822c-5.772,2.383-11.915,4.078-18.323,4.925c-0.371-5.561-4.978-9.85-10.539-9.85
								c-5.613,0-10.168,4.29-10.539,9.85c-6.408-0.848-12.551-2.542-18.376-4.925c2.436-4.925,0.636-11.015-4.184-13.822
								c-4.872-2.807-10.962-1.324-14.086,3.23c-5.031-3.866-9.533-8.367-13.398-13.398c4.607-3.072,6.037-9.215,3.23-14.034
								c-2.807-4.872-8.844-6.673-13.822-4.237c-2.33-5.772-4.024-11.915-4.872-18.323c5.507-0.37,9.85-4.978,9.85-10.539
								c0-5.614-4.342-10.168-9.85-10.539c0.847-6.408,2.542-12.551,4.872-18.376c4.978,2.436,11.016,0.635,13.822-4.184
								c2.754-4.819,1.377-10.962-3.177-14.087c3.866-4.978,8.367-9.48,13.345-13.345c3.125,4.554,9.268,5.931,14.086,3.178
								c4.819-2.807,6.62-8.844,4.184-13.822c5.826-2.33,11.969-4.025,18.376-4.872c0.371,5.507,4.925,9.85,10.539,9.85
								C4200.59,267.45,4205.198,263.107,4205.568,257.6z"/>
						</defs>
						<clipPath id="SVGID_34_">
							<use xlink:href="#SVGID_32_"  overflow="visible"/>
						</clipPath>
						<path clip-path="url(#SVGID_34_)" fill="#FFFFFF" stroke="#FFFFFF" stroke-width="4" stroke-miterlimit="10" d="
							M4316.213,349.011l-46.441,114.417c0,0-4.884,7.615-13.197,1.913l-46.425-52.196l-17.959-13.37l-31.17-17.62
							c0,0-4.766-2.797-4.5-6.851c0.266-4.054,6.947-4.995,6.947-4.995l142.459-26.524
							C4305.927,343.785,4317.734,341.092,4316.213,349.011z"/>
					</g>
					<g>
						<defs>
							<path id="SVGID_35_" d="M4205.568,257.6c6.408,0.847,12.551,2.542,18.323,4.872c-2.436,4.978-0.635,11.015,4.237,13.822
								c4.819,2.807,10.962,1.377,14.034-3.231c5.031,3.866,9.533,8.367,13.398,13.398c-4.554,3.124-6.038,9.215-3.23,14.087
								c2.807,4.819,8.897,6.62,13.822,4.184c2.383,5.825,4.078,11.968,4.925,18.376c-5.561,0.371-9.85,4.925-9.85,10.539
								c0,5.56,4.29,10.168,9.85,10.539c-0.847,6.408-2.542,12.551-4.925,18.323c-4.925-2.436-11.015-0.635-13.822,4.237
								c-2.807,4.819-1.324,10.962,3.23,14.034c-3.866,5.031-8.368,9.532-13.398,13.398c-3.071-4.554-9.215-6.037-14.034-3.23
								c-4.872,2.807-6.673,8.897-4.237,13.822c-5.772,2.383-11.915,4.078-18.323,4.925c-0.371-5.561-4.978-9.85-10.539-9.85
								c-5.613,0-10.168,4.29-10.539,9.85c-6.408-0.848-12.551-2.542-18.376-4.925c2.436-4.925,0.636-11.015-4.184-13.822
								c-4.872-2.807-10.962-1.324-14.086,3.23c-5.031-3.866-9.533-8.367-13.398-13.398c4.607-3.072,6.037-9.215,3.23-14.034
								c-2.807-4.872-8.844-6.673-13.822-4.237c-2.33-5.772-4.024-11.915-4.872-18.323c5.507-0.37,9.85-4.978,9.85-10.539
								c0-5.614-4.342-10.168-9.85-10.539c0.847-6.408,2.542-12.551,4.872-18.376c4.978,2.436,11.016,0.635,13.822-4.184
								c2.754-4.819,1.377-10.962-3.177-14.087c3.866-4.978,8.367-9.48,13.345-13.345c3.125,4.554,9.268,5.931,14.086,3.178
								c4.819-2.807,6.62-8.844,4.184-13.822c5.826-2.33,11.969-4.025,18.376-4.872c0.371,5.507,4.925,9.85,10.539,9.85
								C4200.59,267.45,4205.198,263.107,4205.568,257.6z"/>
						</defs>
						<clipPath id="SVGID_36_">
							<use xlink:href="#SVGID_35_"  overflow="visible"/>
						</clipPath>
						<path clip-path="url(#SVGID_36_)" fill="#47763B" stroke="#FFFFFF" stroke-width="4" stroke-miterlimit="10" d="
							M4199.028,448.455c0,0-1.561-0.454-2.336-7.104c-0.775-6.649-4.501-41.577-4.501-41.577l89.774-35.445
							c0,0,5.158-1.917,4.455,0.856c0,0,0.73,0.653-2.188,2.488s-73.726,44.514-73.726,44.514"/>
					</g>
					<g>
						<defs>
							<path id="SVGID_37_" d="M4205.568,257.6c6.408,0.847,12.551,2.542,18.323,4.872c-2.436,4.978-0.635,11.015,4.237,13.822
								c4.819,2.807,10.962,1.377,14.034-3.231c5.031,3.866,9.533,8.367,13.398,13.398c-4.554,3.124-6.038,9.215-3.23,14.087
								c2.807,4.819,8.897,6.62,13.822,4.184c2.383,5.825,4.078,11.968,4.925,18.376c-5.561,0.371-9.85,4.925-9.85,10.539
								c0,5.56,4.29,10.168,9.85,10.539c-0.847,6.408-2.542,12.551-4.925,18.323c-4.925-2.436-11.015-0.635-13.822,4.237
								c-2.807,4.819-1.324,10.962,3.23,14.034c-3.866,5.031-8.368,9.532-13.398,13.398c-3.071-4.554-9.215-6.037-14.034-3.23
								c-4.872,2.807-6.673,8.897-4.237,13.822c-5.772,2.383-11.915,4.078-18.323,4.925c-0.371-5.561-4.978-9.85-10.539-9.85
								c-5.613,0-10.168,4.29-10.539,9.85c-6.408-0.848-12.551-2.542-18.376-4.925c2.436-4.925,0.636-11.015-4.184-13.822
								c-4.872-2.807-10.962-1.324-14.086,3.23c-5.031-3.866-9.533-8.367-13.398-13.398c4.607-3.072,6.037-9.215,3.23-14.034
								c-2.807-4.872-8.844-6.673-13.822-4.237c-2.33-5.772-4.024-11.915-4.872-18.323c5.507-0.37,9.85-4.978,9.85-10.539
								c0-5.614-4.342-10.168-9.85-10.539c0.847-6.408,2.542-12.551,4.872-18.376c4.978,2.436,11.016,0.635,13.822-4.184
								c2.754-4.819,1.377-10.962-3.177-14.087c3.866-4.978,8.367-9.48,13.345-13.345c3.125,4.554,9.268,5.931,14.086,3.178
								c4.819-2.807,6.62-8.844,4.184-13.822c5.826-2.33,11.969-4.025,18.376-4.872c0.371,5.507,4.925,9.85,10.539,9.85
								C4200.59,267.45,4205.198,263.107,4205.568,257.6z"/>
						</defs>
						<clipPath id="SVGID_38_">
							<use xlink:href="#SVGID_37_"  overflow="visible"/>
						</clipPath>
						<path clip-path="url(#SVGID_38_)" fill="#47763B" stroke="#FFFFFF" stroke-width="4" stroke-miterlimit="10" d="
							M4227.951,433.158l-25.306,15.498c0,0-1.929,0.954-3.617-0.2l11.129-35.677"/>
					</g>
					<g>
						<path id="SVGID_5_" fill="none" stroke="#FFFFFF" stroke-width="4" stroke-miterlimit="10" d="M4205.568,257.6
							c6.408,0.847,12.551,2.542,18.323,4.872c-2.436,4.978-0.635,11.015,4.237,13.822c4.819,2.807,10.962,1.377,14.034-3.231
							c5.031,3.866,9.533,8.367,13.398,13.398c-4.554,3.124-6.038,9.215-3.23,14.087c2.807,4.819,8.897,6.62,13.822,4.184
							c2.383,5.825,4.078,11.968,4.925,18.376c-5.561,0.371-9.85,4.925-9.85,10.539c0,5.56,4.29,10.168,9.85,10.539
							c-0.847,6.408-2.542,12.551-4.925,18.323c-4.925-2.436-11.015-0.635-13.822,4.237c-2.807,4.819-1.324,10.962,3.23,14.034
							c-3.866,5.031-8.368,9.532-13.398,13.398c-3.071-4.554-9.215-6.037-14.034-3.23c-4.872,2.807-6.673,8.897-4.237,13.822
							c-5.772,2.383-11.915,4.078-18.323,4.925c-0.371-5.561-4.978-9.85-10.539-9.85c-5.613,0-10.168,4.29-10.539,9.85
							c-6.408-0.848-12.551-2.542-18.376-4.925c2.436-4.925,0.636-11.015-4.184-13.822c-4.872-2.807-10.962-1.324-14.086,3.23
							c-5.031-3.866-9.533-8.367-13.398-13.398c4.607-3.072,6.037-9.215,3.23-14.034c-2.807-4.872-8.844-6.673-13.822-4.237
							c-2.33-5.772-4.024-11.915-4.872-18.323c5.507-0.37,9.85-4.978,9.85-10.539c0-5.614-4.342-10.168-9.85-10.539
							c0.847-6.408,2.542-12.551,4.872-18.376c4.978,2.436,11.016,0.635,13.822-4.184c2.754-4.819,1.377-10.962-3.177-14.087
							c3.866-4.978,8.367-9.48,13.345-13.345c3.125,4.554,9.268,5.931,14.086,3.178c4.819-2.807,6.62-8.844,4.184-13.822
							c5.826-2.33,11.969-4.025,18.376-4.872c0.371,5.507,4.925,9.85,10.539,9.85C4200.59,267.45,4205.198,263.107,4205.568,257.6z"
							/>
					</g>
				</g>
			</g>
		</g>
		<g>
			<g>
				<g>
					<g>
						<path id="SVGID_27_" fill="#47763B" d="M4079.504,420.311c0.847-6.408,2.542-12.551,4.872-18.323
							c4.978,2.436,11.015,0.635,13.822-4.237c2.807-4.819,1.376-10.962-3.231-14.034c3.866-5.031,8.367-9.532,13.398-13.398
							c3.125,4.554,9.215,6.037,14.087,3.23c4.819-2.807,6.62-8.897,4.184-13.822c5.825-2.383,11.968-4.078,18.376-4.925
							c0.371,5.56,4.925,9.85,10.538,9.85c5.561,0,10.168-4.29,10.539-9.85c6.408,0.847,12.551,2.542,18.324,4.925
							c-2.436,4.925-0.636,11.015,4.236,13.822c4.819,2.807,10.962,1.324,14.034-3.23c5.031,3.866,9.532,8.367,13.398,13.398
							c-4.554,3.072-6.037,9.215-3.23,14.034c2.807,4.872,8.897,6.673,13.822,4.237c2.383,5.773,4.078,11.915,4.926,18.323
							c-5.561,0.371-9.851,4.978-9.851,10.539c0,5.613,4.29,10.168,9.851,10.539c-0.848,6.408-2.542,12.551-4.926,18.376
							c-4.925-2.436-11.015-0.635-13.822,4.184c-2.807,4.872-1.324,10.962,3.23,14.087c-3.866,5.031-8.367,9.533-13.398,13.398
							c-3.072-4.607-9.215-6.037-14.034-3.23c-4.872,2.807-6.673,8.844-4.236,13.822c-5.772,2.33-11.916,4.025-18.324,4.872
							c-0.37-5.507-4.978-9.85-10.539-9.85c-5.613,0-10.167,4.343-10.539,9.85c-6.408-0.847-12.551-2.542-18.376-4.872
							c2.436-4.978,0.636-11.015-4.184-13.822c-4.819-2.754-10.962-1.377-14.087,3.177c-4.978-3.866-9.479-8.367-13.345-13.345
							c4.554-3.124,5.931-9.268,3.178-14.087c-2.807-4.819-8.844-6.62-13.822-4.184c-2.33-5.826-4.025-11.968-4.872-18.376
							c5.507-0.371,9.85-4.925,9.85-10.539C4089.354,425.289,4085.011,420.682,4079.504,420.311z"/>
					</g>
					<g>
						<defs>
							<path id="SVGID_40_" d="M4079.504,420.311c0.847-6.408,2.542-12.551,4.872-18.323c4.978,2.436,11.015,0.635,13.822-4.237
								c2.807-4.819,1.376-10.962-3.231-14.034c3.866-5.031,8.367-9.532,13.398-13.398c3.125,4.554,9.215,6.037,14.087,3.23
								c4.819-2.807,6.62-8.897,4.184-13.822c5.825-2.383,11.968-4.078,18.376-4.925c0.371,5.56,4.925,9.85,10.538,9.85
								c5.561,0,10.168-4.29,10.539-9.85c6.408,0.847,12.551,2.542,18.324,4.925c-2.436,4.925-0.636,11.015,4.236,13.822
								c4.819,2.807,10.962,1.324,14.034-3.23c5.031,3.866,9.532,8.367,13.398,13.398c-4.554,3.072-6.037,9.215-3.23,14.034
								c2.807,4.872,8.897,6.673,13.822,4.237c2.383,5.773,4.078,11.915,4.926,18.323c-5.561,0.371-9.851,4.978-9.851,10.539
								c0,5.613,4.29,10.168,9.851,10.539c-0.848,6.408-2.542,12.551-4.926,18.376c-4.925-2.436-11.015-0.635-13.822,4.184
								c-2.807,4.872-1.324,10.962,3.23,14.087c-3.866,5.031-8.367,9.533-13.398,13.398c-3.072-4.607-9.215-6.037-14.034-3.23
								c-4.872,2.807-6.673,8.844-4.236,13.822c-5.772,2.33-11.916,4.025-18.324,4.872c-0.37-5.507-4.978-9.85-10.539-9.85
								c-5.613,0-10.167,4.343-10.539,9.85c-6.408-0.847-12.551-2.542-18.376-4.872c2.436-4.978,0.636-11.015-4.184-13.822
								c-4.819-2.754-10.962-1.377-14.087,3.177c-4.978-3.866-9.479-8.367-13.345-13.345c4.554-3.124,5.931-9.268,3.178-14.087
								c-2.807-4.819-8.844-6.62-13.822-4.184c-2.33-5.826-4.025-11.968-4.872-18.376c5.507-0.371,9.85-4.925,9.85-10.539
								C4089.354,425.289,4085.011,420.682,4079.504,420.311z"/>
						</defs>
						<clipPath id="SVGID_41_">
							<use xlink:href="#SVGID_40_"  overflow="visible"/>
						</clipPath>
						<path clip-path="url(#SVGID_41_)" fill="#47763B" stroke="#47763B" stroke-width="4" stroke-miterlimit="10" d="
							M4319.048,346.176l-46.441,114.417c0,0-4.884,7.615-13.197,1.913l-46.424-52.196l-17.959-13.37l-31.17-17.62
							c0,0-4.766-2.797-4.5-6.851c0.266-4.054,6.947-4.995,6.947-4.995l142.459-26.524
							C4308.761,340.95,4320.569,338.258,4319.048,346.176z"/>
					</g>
					<g>
						<defs>
							<path id="SVGID_42_" d="M4079.504,420.311c0.847-6.408,2.542-12.551,4.872-18.323c4.978,2.436,11.015,0.635,13.822-4.237
								c2.807-4.819,1.376-10.962-3.231-14.034c3.866-5.031,8.367-9.532,13.398-13.398c3.125,4.554,9.215,6.037,14.087,3.23
								c4.819-2.807,6.62-8.897,4.184-13.822c5.825-2.383,11.968-4.078,18.376-4.925c0.371,5.56,4.925,9.85,10.538,9.85
								c5.561,0,10.168-4.29,10.539-9.85c6.408,0.847,12.551,2.542,18.324,4.925c-2.436,4.925-0.636,11.015,4.236,13.822
								c4.819,2.807,10.962,1.324,14.034-3.23c5.031,3.866,9.532,8.367,13.398,13.398c-4.554,3.072-6.037,9.215-3.23,14.034
								c2.807,4.872,8.897,6.673,13.822,4.237c2.383,5.773,4.078,11.915,4.926,18.323c-5.561,0.371-9.851,4.978-9.851,10.539
								c0,5.613,4.29,10.168,9.851,10.539c-0.848,6.408-2.542,12.551-4.926,18.376c-4.925-2.436-11.015-0.635-13.822,4.184
								c-2.807,4.872-1.324,10.962,3.23,14.087c-3.866,5.031-8.367,9.533-13.398,13.398c-3.072-4.607-9.215-6.037-14.034-3.23
								c-4.872,2.807-6.673,8.844-4.236,13.822c-5.772,2.33-11.916,4.025-18.324,4.872c-0.37-5.507-4.978-9.85-10.539-9.85
								c-5.613,0-10.167,4.343-10.539,9.85c-6.408-0.847-12.551-2.542-18.376-4.872c2.436-4.978,0.636-11.015-4.184-13.822
								c-4.819-2.754-10.962-1.377-14.087,3.177c-4.978-3.866-9.479-8.367-13.345-13.345c4.554-3.124,5.931-9.268,3.178-14.087
								c-2.807-4.819-8.844-6.62-13.822-4.184c-2.33-5.826-4.025-11.968-4.872-18.376c5.507-0.371,9.85-4.925,9.85-10.539
								C4089.354,425.289,4085.011,420.682,4079.504,420.311z"/>
						</defs>
						<clipPath id="SVGID_43_">
							<use xlink:href="#SVGID_42_"  overflow="visible"/>
						</clipPath>
						<path clip-path="url(#SVGID_43_)" fill="#47763B" stroke="#47763B" stroke-width="4" stroke-miterlimit="10" d="
							M4201.863,445.621c0,0-1.561-0.454-2.336-7.104c-0.775-6.649-4.501-41.577-4.501-41.577l89.775-35.445
							c0,0,5.158-1.917,4.454,0.856c0,0,0.73,0.653-2.188,2.488s-73.726,44.514-73.726,44.514"/>
					</g>
					<g>
						<defs>
							<path id="SVGID_44_" d="M4079.504,420.311c0.847-6.408,2.542-12.551,4.872-18.323c4.978,2.436,11.015,0.635,13.822-4.237
								c2.807-4.819,1.376-10.962-3.231-14.034c3.866-5.031,8.367-9.532,13.398-13.398c3.125,4.554,9.215,6.037,14.087,3.23
								c4.819-2.807,6.62-8.897,4.184-13.822c5.825-2.383,11.968-4.078,18.376-4.925c0.371,5.56,4.925,9.85,10.538,9.85
								c5.561,0,10.168-4.29,10.539-9.85c6.408,0.847,12.551,2.542,18.324,4.925c-2.436,4.925-0.636,11.015,4.236,13.822
								c4.819,2.807,10.962,1.324,14.034-3.23c5.031,3.866,9.532,8.367,13.398,13.398c-4.554,3.072-6.037,9.215-3.23,14.034
								c2.807,4.872,8.897,6.673,13.822,4.237c2.383,5.773,4.078,11.915,4.926,18.323c-5.561,0.371-9.851,4.978-9.851,10.539
								c0,5.613,4.29,10.168,9.851,10.539c-0.848,6.408-2.542,12.551-4.926,18.376c-4.925-2.436-11.015-0.635-13.822,4.184
								c-2.807,4.872-1.324,10.962,3.23,14.087c-3.866,5.031-8.367,9.533-13.398,13.398c-3.072-4.607-9.215-6.037-14.034-3.23
								c-4.872,2.807-6.673,8.844-4.236,13.822c-5.772,2.33-11.916,4.025-18.324,4.872c-0.37-5.507-4.978-9.85-10.539-9.85
								c-5.613,0-10.167,4.343-10.539,9.85c-6.408-0.847-12.551-2.542-18.376-4.872c2.436-4.978,0.636-11.015-4.184-13.822
								c-4.819-2.754-10.962-1.377-14.087,3.177c-4.978-3.866-9.479-8.367-13.345-13.345c4.554-3.124,5.931-9.268,3.178-14.087
								c-2.807-4.819-8.844-6.62-13.822-4.184c-2.33-5.826-4.025-11.968-4.872-18.376c5.507-0.371,9.85-4.925,9.85-10.539
								C4089.354,425.289,4085.011,420.682,4079.504,420.311z"/>
						</defs>
						<clipPath id="SVGID_46_">
							<use xlink:href="#SVGID_44_"  overflow="visible"/>
						</clipPath>
						<path clip-path="url(#SVGID_46_)" fill="#47763B" stroke="#47763B" stroke-width="4" stroke-miterlimit="10" d="
							M4230.786,430.323l-25.306,15.498c0,0-1.929,0.954-3.616-0.2l11.129-35.677"/>
					</g>
					<g>
						<path id="SVGID_6_" fill="none" stroke="#47763B" stroke-width="4" stroke-miterlimit="10" d="M4079.504,420.311
							c0.847-6.408,2.542-12.551,4.872-18.323c4.978,2.436,11.015,0.635,13.822-4.237c2.807-4.819,1.376-10.962-3.231-14.034
							c3.866-5.031,8.367-9.532,13.398-13.398c3.125,4.554,9.215,6.037,14.087,3.23c4.819-2.807,6.62-8.897,4.184-13.822
							c5.825-2.383,11.968-4.078,18.376-4.925c0.371,5.56,4.925,9.85,10.538,9.85c5.561,0,10.168-4.29,10.539-9.85
							c6.408,0.847,12.551,2.542,18.324,4.925c-2.436,4.925-0.636,11.015,4.236,13.822c4.819,2.807,10.962,1.324,14.034-3.23
							c5.031,3.866,9.532,8.367,13.398,13.398c-4.554,3.072-6.037,9.215-3.23,14.034c2.807,4.872,8.897,6.673,13.822,4.237
							c2.383,5.773,4.078,11.915,4.926,18.323c-5.561,0.371-9.851,4.978-9.851,10.539c0,5.613,4.29,10.168,9.851,10.539
							c-0.848,6.408-2.542,12.551-4.926,18.376c-4.925-2.436-11.015-0.635-13.822,4.184c-2.807,4.872-1.324,10.962,3.23,14.087
							c-3.866,5.031-8.367,9.533-13.398,13.398c-3.072-4.607-9.215-6.037-14.034-3.23c-4.872,2.807-6.673,8.844-4.236,13.822
							c-5.772,2.33-11.916,4.025-18.324,4.872c-0.37-5.507-4.978-9.85-10.539-9.85c-5.613,0-10.167,4.343-10.539,9.85
							c-6.408-0.847-12.551-2.542-18.376-4.872c2.436-4.978,0.636-11.015-4.184-13.822c-4.819-2.754-10.962-1.377-14.087,3.177
							c-4.978-3.866-9.479-8.367-13.345-13.345c4.554-3.124,5.931-9.268,3.178-14.087c-2.807-4.819-8.844-6.62-13.822-4.184
							c-2.33-5.826-4.025-11.968-4.872-18.376c5.507-0.371,9.85-4.925,9.85-10.539
							C4089.354,425.289,4085.011,420.682,4079.504,420.311z"/>
					</g>
				</g>
			</g>
			<g>
				<g>
					<g>
						<path id="SVGID_33_" fill="#47763B" d="M4076.669,423.146c0.847-6.408,2.542-12.551,4.872-18.323
							c4.978,2.436,11.015,0.635,13.822-4.237c2.806-4.819,1.377-10.962-3.231-14.034c3.866-5.031,8.367-9.532,13.398-13.398
							c3.125,4.554,9.214,6.037,14.086,3.23c4.819-2.807,6.62-8.897,4.184-13.822c5.825-2.383,11.968-4.078,18.376-4.925
							c0.371,5.56,4.925,9.85,10.539,9.85c5.561,0,10.168-4.29,10.539-9.85c6.408,0.847,12.551,2.542,18.323,4.925
							c-2.436,4.925-0.635,11.015,4.237,13.822c4.819,2.807,10.962,1.324,14.034-3.23c5.031,3.866,9.533,8.367,13.398,13.398
							c-4.554,3.072-6.037,9.215-3.23,14.034c2.807,4.872,8.897,6.673,13.822,4.237c2.383,5.773,4.078,11.915,4.925,18.323
							c-5.561,0.371-9.85,4.978-9.85,10.539c0,5.613,4.29,10.168,9.85,10.539c-0.847,6.408-2.542,12.551-4.925,18.376
							c-4.925-2.436-11.015-0.635-13.822,4.184c-2.807,4.872-1.324,10.962,3.23,14.087c-3.866,5.031-8.367,9.533-13.398,13.398
							c-3.071-4.607-9.214-6.037-14.034-3.23c-4.872,2.807-6.673,8.844-4.237,13.822c-5.772,2.33-11.916,4.025-18.323,4.872
							c-0.371-5.507-4.978-9.85-10.539-9.85c-5.613,0-10.168,4.343-10.539,9.85c-6.408-0.847-12.551-2.542-18.376-4.872
							c2.436-4.978,0.635-11.015-4.184-13.822c-4.819-2.754-10.962-1.377-14.086,3.177c-4.978-3.866-9.479-8.367-13.345-13.345
							c4.554-3.124,5.931-9.268,3.178-14.087c-2.807-4.819-8.844-6.62-13.822-4.184c-2.33-5.826-4.025-11.969-4.872-18.376
							c5.508-0.371,9.85-4.925,9.85-10.539C4086.519,428.124,4082.177,423.516,4076.669,423.146z"/>
					</g>
					<g>
						<defs>
							<path id="SVGID_47_" d="M4076.669,423.146c0.847-6.408,2.542-12.551,4.872-18.323c4.978,2.436,11.015,0.635,13.822-4.237
								c2.806-4.819,1.377-10.962-3.231-14.034c3.866-5.031,8.367-9.532,13.398-13.398c3.125,4.554,9.214,6.037,14.086,3.23
								c4.819-2.807,6.62-8.897,4.184-13.822c5.825-2.383,11.968-4.078,18.376-4.925c0.371,5.56,4.925,9.85,10.539,9.85
								c5.561,0,10.168-4.29,10.539-9.85c6.408,0.847,12.551,2.542,18.323,4.925c-2.436,4.925-0.635,11.015,4.237,13.822
								c4.819,2.807,10.962,1.324,14.034-3.23c5.031,3.866,9.533,8.367,13.398,13.398c-4.554,3.072-6.037,9.215-3.23,14.034
								c2.807,4.872,8.897,6.673,13.822,4.237c2.383,5.773,4.078,11.915,4.925,18.323c-5.561,0.371-9.85,4.978-9.85,10.539
								c0,5.613,4.29,10.168,9.85,10.539c-0.847,6.408-2.542,12.551-4.925,18.376c-4.925-2.436-11.015-0.635-13.822,4.184
								c-2.807,4.872-1.324,10.962,3.23,14.087c-3.866,5.031-8.367,9.533-13.398,13.398c-3.071-4.607-9.214-6.037-14.034-3.23
								c-4.872,2.807-6.673,8.844-4.237,13.822c-5.772,2.33-11.916,4.025-18.323,4.872c-0.371-5.507-4.978-9.85-10.539-9.85
								c-5.613,0-10.168,4.343-10.539,9.85c-6.408-0.847-12.551-2.542-18.376-4.872c2.436-4.978,0.635-11.015-4.184-13.822
								c-4.819-2.754-10.962-1.377-14.086,3.177c-4.978-3.866-9.479-8.367-13.345-13.345c4.554-3.124,5.931-9.268,3.178-14.087
								c-2.807-4.819-8.844-6.62-13.822-4.184c-2.33-5.826-4.025-11.969-4.872-18.376c5.508-0.371,9.85-4.925,9.85-10.539
								C4086.519,428.124,4082.177,423.516,4076.669,423.146z"/>
						</defs>
						<clipPath id="SVGID_48_">
							<use xlink:href="#SVGID_47_"  overflow="visible"/>
						</clipPath>
						<path clip-path="url(#SVGID_48_)" fill="#FFFFFF" stroke="#FFFFFF" stroke-width="4" stroke-miterlimit="10" d="
							M4316.213,349.011l-46.441,114.417c0,0-4.884,7.615-13.197,1.913l-46.425-52.196l-17.959-13.37l-31.17-17.62
							c0,0-4.766-2.797-4.5-6.851c0.266-4.054,6.947-4.995,6.947-4.995l142.459-26.524
							C4305.927,343.785,4317.734,341.092,4316.213,349.011z"/>
					</g>
					<g>
						<defs>
							<path id="SVGID_49_" d="M4076.669,423.146c0.847-6.408,2.542-12.551,4.872-18.323c4.978,2.436,11.015,0.635,13.822-4.237
								c2.806-4.819,1.377-10.962-3.231-14.034c3.866-5.031,8.367-9.532,13.398-13.398c3.125,4.554,9.214,6.037,14.086,3.23
								c4.819-2.807,6.62-8.897,4.184-13.822c5.825-2.383,11.968-4.078,18.376-4.925c0.371,5.56,4.925,9.85,10.539,9.85
								c5.561,0,10.168-4.29,10.539-9.85c6.408,0.847,12.551,2.542,18.323,4.925c-2.436,4.925-0.635,11.015,4.237,13.822
								c4.819,2.807,10.962,1.324,14.034-3.23c5.031,3.866,9.533,8.367,13.398,13.398c-4.554,3.072-6.037,9.215-3.23,14.034
								c2.807,4.872,8.897,6.673,13.822,4.237c2.383,5.773,4.078,11.915,4.925,18.323c-5.561,0.371-9.85,4.978-9.85,10.539
								c0,5.613,4.29,10.168,9.85,10.539c-0.847,6.408-2.542,12.551-4.925,18.376c-4.925-2.436-11.015-0.635-13.822,4.184
								c-2.807,4.872-1.324,10.962,3.23,14.087c-3.866,5.031-8.367,9.533-13.398,13.398c-3.071-4.607-9.214-6.037-14.034-3.23
								c-4.872,2.807-6.673,8.844-4.237,13.822c-5.772,2.33-11.916,4.025-18.323,4.872c-0.371-5.507-4.978-9.85-10.539-9.85
								c-5.613,0-10.168,4.343-10.539,9.85c-6.408-0.847-12.551-2.542-18.376-4.872c2.436-4.978,0.635-11.015-4.184-13.822
								c-4.819-2.754-10.962-1.377-14.086,3.177c-4.978-3.866-9.479-8.367-13.345-13.345c4.554-3.124,5.931-9.268,3.178-14.087
								c-2.807-4.819-8.844-6.62-13.822-4.184c-2.33-5.826-4.025-11.969-4.872-18.376c5.508-0.371,9.85-4.925,9.85-10.539
								C4086.519,428.124,4082.177,423.516,4076.669,423.146z"/>
						</defs>
						<clipPath id="SVGID_50_">
							<use xlink:href="#SVGID_49_"  overflow="visible"/>
						</clipPath>
						<path clip-path="url(#SVGID_50_)" fill="#47763B" stroke="#FFFFFF" stroke-width="4" stroke-miterlimit="10" d="
							M4199.028,448.455c0,0-1.561-0.454-2.336-7.104c-0.775-6.649-4.501-41.577-4.501-41.577l89.774-35.445
							c0,0,5.158-1.917,4.455,0.856c0,0,0.73,0.653-2.188,2.488s-73.726,44.514-73.726,44.514"/>
					</g>
					<g>
						<defs>
							<path id="SVGID_51_" d="M4076.669,423.146c0.847-6.408,2.542-12.551,4.872-18.323c4.978,2.436,11.015,0.635,13.822-4.237
								c2.806-4.819,1.377-10.962-3.231-14.034c3.866-5.031,8.367-9.532,13.398-13.398c3.125,4.554,9.214,6.037,14.086,3.23
								c4.819-2.807,6.62-8.897,4.184-13.822c5.825-2.383,11.968-4.078,18.376-4.925c0.371,5.56,4.925,9.85,10.539,9.85
								c5.561,0,10.168-4.29,10.539-9.85c6.408,0.847,12.551,2.542,18.323,4.925c-2.436,4.925-0.635,11.015,4.237,13.822
								c4.819,2.807,10.962,1.324,14.034-3.23c5.031,3.866,9.533,8.367,13.398,13.398c-4.554,3.072-6.037,9.215-3.23,14.034
								c2.807,4.872,8.897,6.673,13.822,4.237c2.383,5.773,4.078,11.915,4.925,18.323c-5.561,0.371-9.85,4.978-9.85,10.539
								c0,5.613,4.29,10.168,9.85,10.539c-0.847,6.408-2.542,12.551-4.925,18.376c-4.925-2.436-11.015-0.635-13.822,4.184
								c-2.807,4.872-1.324,10.962,3.23,14.087c-3.866,5.031-8.367,9.533-13.398,13.398c-3.071-4.607-9.214-6.037-14.034-3.23
								c-4.872,2.807-6.673,8.844-4.237,13.822c-5.772,2.33-11.916,4.025-18.323,4.872c-0.371-5.507-4.978-9.85-10.539-9.85
								c-5.613,0-10.168,4.343-10.539,9.85c-6.408-0.847-12.551-2.542-18.376-4.872c2.436-4.978,0.635-11.015-4.184-13.822
								c-4.819-2.754-10.962-1.377-14.086,3.177c-4.978-3.866-9.479-8.367-13.345-13.345c4.554-3.124,5.931-9.268,3.178-14.087
								c-2.807-4.819-8.844-6.62-13.822-4.184c-2.33-5.826-4.025-11.969-4.872-18.376c5.508-0.371,9.85-4.925,9.85-10.539
								C4086.519,428.124,4082.177,423.516,4076.669,423.146z"/>
						</defs>
						<clipPath id="SVGID_52_">
							<use xlink:href="#SVGID_51_"  overflow="visible"/>
						</clipPath>
						<path clip-path="url(#SVGID_52_)" fill="#47763B" stroke="#FFFFFF" stroke-width="4" stroke-miterlimit="10" d="
							M4227.951,433.158l-25.306,15.498c0,0-1.929,0.954-3.617-0.2l11.129-35.677"/>
					</g>
					<g>
						<path id="SVGID_7_" fill="none" stroke="#FFFFFF" stroke-width="4" stroke-miterlimit="10" d="M4076.669,423.146
							c0.847-6.408,2.542-12.551,4.872-18.323c4.978,2.436,11.015,0.635,13.822-4.237c2.806-4.819,1.377-10.962-3.231-14.034
							c3.866-5.031,8.367-9.532,13.398-13.398c3.125,4.554,9.214,6.037,14.086,3.23c4.819-2.807,6.62-8.897,4.184-13.822
							c5.825-2.383,11.968-4.078,18.376-4.925c0.371,5.56,4.925,9.85,10.539,9.85c5.561,0,10.168-4.29,10.539-9.85
							c6.408,0.847,12.551,2.542,18.323,4.925c-2.436,4.925-0.635,11.015,4.237,13.822c4.819,2.807,10.962,1.324,14.034-3.23
							c5.031,3.866,9.533,8.367,13.398,13.398c-4.554,3.072-6.037,9.215-3.23,14.034c2.807,4.872,8.897,6.673,13.822,4.237
							c2.383,5.773,4.078,11.915,4.925,18.323c-5.561,0.371-9.85,4.978-9.85,10.539c0,5.613,4.29,10.168,9.85,10.539
							c-0.847,6.408-2.542,12.551-4.925,18.376c-4.925-2.436-11.015-0.635-13.822,4.184c-2.807,4.872-1.324,10.962,3.23,14.087
							c-3.866,5.031-8.367,9.533-13.398,13.398c-3.071-4.607-9.214-6.037-14.034-3.23c-4.872,2.807-6.673,8.844-4.237,13.822
							c-5.772,2.33-11.916,4.025-18.323,4.872c-0.371-5.507-4.978-9.85-10.539-9.85c-5.613,0-10.168,4.343-10.539,9.85
							c-6.408-0.847-12.551-2.542-18.376-4.872c2.436-4.978,0.635-11.015-4.184-13.822c-4.819-2.754-10.962-1.377-14.086,3.177
							c-4.978-3.866-9.479-8.367-13.345-13.345c4.554-3.124,5.931-9.268,3.178-14.087c-2.807-4.819-8.844-6.62-13.822-4.184
							c-2.33-5.826-4.025-11.969-4.872-18.376c5.508-0.371,9.85-4.925,9.85-10.539
							C4086.519,428.124,4082.177,423.516,4076.669,423.146z"/>
					</g>
				</g>
			</g>
		</g>
		<g>
			<g opacity="0.95">
				<g>
					<g>
						<path id="SVGID_39_" fill="#47763B" d="M4263.32,538.565c-6.408-0.847-12.551-2.542-18.323-4.872
							c2.436-4.978,0.635-11.015-4.237-13.822c-4.819-2.807-10.962-1.377-14.034,3.231c-5.031-3.866-9.533-8.367-13.398-13.398
							c4.554-3.124,6.038-9.215,3.23-14.087c-2.807-4.819-8.897-6.62-13.822-4.184c-2.383-5.825-4.078-11.968-4.925-18.376
							c5.561-0.371,9.85-4.925,9.85-10.539c0-5.56-4.29-10.168-9.85-10.539c0.847-6.408,2.542-12.551,4.925-18.323
							c4.925,2.436,11.015,0.635,13.822-4.237c2.807-4.819,1.324-10.962-3.23-14.034c3.866-5.031,8.368-9.532,13.398-13.398
							c3.071,4.554,9.215,6.037,14.034,3.23c4.872-2.807,6.673-8.897,4.237-13.822c5.772-2.383,11.915-4.078,18.323-4.925
							c0.371,5.561,4.978,9.85,10.539,9.85c5.613,0,10.168-4.29,10.539-9.85c6.408,0.848,12.551,2.542,18.376,4.925
							c-2.436,4.925-0.636,11.015,4.184,13.822c4.872,2.807,10.962,1.324,14.086-3.23c5.031,3.866,9.533,8.367,13.398,13.398
							c-4.607,3.072-6.037,9.215-3.23,14.034c2.807,4.872,8.844,6.673,13.822,4.237c2.33,5.772,4.024,11.915,4.872,18.323
							c-5.507,0.37-9.85,4.978-9.85,10.539c0,5.613,4.342,10.168,9.85,10.539c-0.847,6.408-2.542,12.551-4.872,18.376
							c-4.978-2.436-11.016-0.635-13.822,4.184c-2.754,4.819-1.377,10.962,3.178,14.087c-3.866,4.978-8.368,9.48-13.346,13.345
							c-3.125-4.554-9.268-5.931-14.086-3.178c-4.819,2.807-6.62,8.844-4.184,13.822c-5.826,2.33-11.969,4.025-18.376,4.872
							c-0.371-5.508-4.925-9.85-10.539-9.85C4268.298,528.715,4263.69,533.058,4263.32,538.565z"/>
					</g>
					<g>
						<defs>
							<path id="SVGID_53_" d="M4263.32,538.565c-6.408-0.847-12.551-2.542-18.323-4.872c2.436-4.978,0.635-11.015-4.237-13.822
								c-4.819-2.807-10.962-1.377-14.034,3.231c-5.031-3.866-9.533-8.367-13.398-13.398c4.554-3.124,6.038-9.215,3.23-14.087
								c-2.807-4.819-8.897-6.62-13.822-4.184c-2.383-5.825-4.078-11.968-4.925-18.376c5.561-0.371,9.85-4.925,9.85-10.539
								c0-5.56-4.29-10.168-9.85-10.539c0.847-6.408,2.542-12.551,4.925-18.323c4.925,2.436,11.015,0.635,13.822-4.237
								c2.807-4.819,1.324-10.962-3.23-14.034c3.866-5.031,8.368-9.532,13.398-13.398c3.071,4.554,9.215,6.037,14.034,3.23
								c4.872-2.807,6.673-8.897,4.237-13.822c5.772-2.383,11.915-4.078,18.323-4.925c0.371,5.561,4.978,9.85,10.539,9.85
								c5.613,0,10.168-4.29,10.539-9.85c6.408,0.848,12.551,2.542,18.376,4.925c-2.436,4.925-0.636,11.015,4.184,13.822
								c4.872,2.807,10.962,1.324,14.086-3.23c5.031,3.866,9.533,8.367,13.398,13.398c-4.607,3.072-6.037,9.215-3.23,14.034
								c2.807,4.872,8.844,6.673,13.822,4.237c2.33,5.772,4.024,11.915,4.872,18.323c-5.507,0.37-9.85,4.978-9.85,10.539
								c0,5.613,4.342,10.168,9.85,10.539c-0.847,6.408-2.542,12.551-4.872,18.376c-4.978-2.436-11.016-0.635-13.822,4.184
								c-2.754,4.819-1.377,10.962,3.178,14.087c-3.866,4.978-8.368,9.48-13.346,13.345c-3.125-4.554-9.268-5.931-14.086-3.178
								c-4.819,2.807-6.62,8.844-4.184,13.822c-5.826,2.33-11.969,4.025-18.376,4.872c-0.371-5.508-4.925-9.85-10.539-9.85
								C4268.298,528.715,4263.69,533.058,4263.32,538.565z"/>
						</defs>
						<clipPath id="SVGID_54_">
							<use xlink:href="#SVGID_53_"  overflow="visible"/>
						</clipPath>
						<path clip-path="url(#SVGID_54_)" fill="#47763B" stroke="#47763B" stroke-width="4" stroke-miterlimit="10" d="
							M4319.048,346.176l-46.441,114.417c0,0-4.884,7.615-13.197,1.913l-46.424-52.196l-17.959-13.37l-31.17-17.62
							c0,0-4.766-2.797-4.5-6.851c0.266-4.054,6.947-4.995,6.947-4.995l142.459-26.524
							C4308.761,340.95,4320.569,338.258,4319.048,346.176z"/>
					</g>
					<g>
						<defs>
							<path id="SVGID_55_" d="M4263.32,538.565c-6.408-0.847-12.551-2.542-18.323-4.872c2.436-4.978,0.635-11.015-4.237-13.822
								c-4.819-2.807-10.962-1.377-14.034,3.231c-5.031-3.866-9.533-8.367-13.398-13.398c4.554-3.124,6.038-9.215,3.23-14.087
								c-2.807-4.819-8.897-6.62-13.822-4.184c-2.383-5.825-4.078-11.968-4.925-18.376c5.561-0.371,9.85-4.925,9.85-10.539
								c0-5.56-4.29-10.168-9.85-10.539c0.847-6.408,2.542-12.551,4.925-18.323c4.925,2.436,11.015,0.635,13.822-4.237
								c2.807-4.819,1.324-10.962-3.23-14.034c3.866-5.031,8.368-9.532,13.398-13.398c3.071,4.554,9.215,6.037,14.034,3.23
								c4.872-2.807,6.673-8.897,4.237-13.822c5.772-2.383,11.915-4.078,18.323-4.925c0.371,5.561,4.978,9.85,10.539,9.85
								c5.613,0,10.168-4.29,10.539-9.85c6.408,0.848,12.551,2.542,18.376,4.925c-2.436,4.925-0.636,11.015,4.184,13.822
								c4.872,2.807,10.962,1.324,14.086-3.23c5.031,3.866,9.533,8.367,13.398,13.398c-4.607,3.072-6.037,9.215-3.23,14.034
								c2.807,4.872,8.844,6.673,13.822,4.237c2.33,5.772,4.024,11.915,4.872,18.323c-5.507,0.37-9.85,4.978-9.85,10.539
								c0,5.613,4.342,10.168,9.85,10.539c-0.847,6.408-2.542,12.551-4.872,18.376c-4.978-2.436-11.016-0.635-13.822,4.184
								c-2.754,4.819-1.377,10.962,3.178,14.087c-3.866,4.978-8.368,9.48-13.346,13.345c-3.125-4.554-9.268-5.931-14.086-3.178
								c-4.819,2.807-6.62,8.844-4.184,13.822c-5.826,2.33-11.969,4.025-18.376,4.872c-0.371-5.508-4.925-9.85-10.539-9.85
								C4268.298,528.715,4263.69,533.058,4263.32,538.565z"/>
						</defs>
						<clipPath id="SVGID_56_">
							<use xlink:href="#SVGID_55_"  overflow="visible"/>
						</clipPath>
						<path clip-path="url(#SVGID_56_)" fill="#47763B" stroke="#47763B" stroke-width="4" stroke-miterlimit="10" d="
							M4201.863,445.621c0,0-1.561-0.454-2.336-7.104c-0.775-6.649-4.501-41.577-4.501-41.577l89.775-35.445
							c0,0,5.158-1.917,4.454,0.856c0,0,0.73,0.653-2.188,2.488s-73.726,44.514-73.726,44.514"/>
					</g>
					<g>
						<defs>
							<path id="SVGID_57_" d="M4263.32,538.565c-6.408-0.847-12.551-2.542-18.323-4.872c2.436-4.978,0.635-11.015-4.237-13.822
								c-4.819-2.807-10.962-1.377-14.034,3.231c-5.031-3.866-9.533-8.367-13.398-13.398c4.554-3.124,6.038-9.215,3.23-14.087
								c-2.807-4.819-8.897-6.62-13.822-4.184c-2.383-5.825-4.078-11.968-4.925-18.376c5.561-0.371,9.85-4.925,9.85-10.539
								c0-5.56-4.29-10.168-9.85-10.539c0.847-6.408,2.542-12.551,4.925-18.323c4.925,2.436,11.015,0.635,13.822-4.237
								c2.807-4.819,1.324-10.962-3.23-14.034c3.866-5.031,8.368-9.532,13.398-13.398c3.071,4.554,9.215,6.037,14.034,3.23
								c4.872-2.807,6.673-8.897,4.237-13.822c5.772-2.383,11.915-4.078,18.323-4.925c0.371,5.561,4.978,9.85,10.539,9.85
								c5.613,0,10.168-4.29,10.539-9.85c6.408,0.848,12.551,2.542,18.376,4.925c-2.436,4.925-0.636,11.015,4.184,13.822
								c4.872,2.807,10.962,1.324,14.086-3.23c5.031,3.866,9.533,8.367,13.398,13.398c-4.607,3.072-6.037,9.215-3.23,14.034
								c2.807,4.872,8.844,6.673,13.822,4.237c2.33,5.772,4.024,11.915,4.872,18.323c-5.507,0.37-9.85,4.978-9.85,10.539
								c0,5.613,4.342,10.168,9.85,10.539c-0.847,6.408-2.542,12.551-4.872,18.376c-4.978-2.436-11.016-0.635-13.822,4.184
								c-2.754,4.819-1.377,10.962,3.178,14.087c-3.866,4.978-8.368,9.48-13.346,13.345c-3.125-4.554-9.268-5.931-14.086-3.178
								c-4.819,2.807-6.62,8.844-4.184,13.822c-5.826,2.33-11.969,4.025-18.376,4.872c-0.371-5.508-4.925-9.85-10.539-9.85
								C4268.298,528.715,4263.69,533.058,4263.32,538.565z"/>
						</defs>
						<clipPath id="SVGID_58_">
							<use xlink:href="#SVGID_57_"  overflow="visible"/>
						</clipPath>
						<path clip-path="url(#SVGID_58_)" fill="#47763B" stroke="#47763B" stroke-width="4" stroke-miterlimit="10" d="
							M4230.786,430.323l-25.306,15.498c0,0-1.929,0.954-3.616-0.2l11.129-35.677"/>
					</g>
					<g>
						<path id="SVGID_8_" fill="none" stroke="#47763B" stroke-width="4" stroke-miterlimit="10" d="M4263.32,538.565
							c-6.408-0.847-12.551-2.542-18.323-4.872c2.436-4.978,0.635-11.015-4.237-13.822c-4.819-2.807-10.962-1.377-14.034,3.231
							c-5.031-3.866-9.533-8.367-13.398-13.398c4.554-3.124,6.038-9.215,3.23-14.087c-2.807-4.819-8.897-6.62-13.822-4.184
							c-2.383-5.825-4.078-11.968-4.925-18.376c5.561-0.371,9.85-4.925,9.85-10.539c0-5.56-4.29-10.168-9.85-10.539
							c0.847-6.408,2.542-12.551,4.925-18.323c4.925,2.436,11.015,0.635,13.822-4.237c2.807-4.819,1.324-10.962-3.23-14.034
							c3.866-5.031,8.368-9.532,13.398-13.398c3.071,4.554,9.215,6.037,14.034,3.23c4.872-2.807,6.673-8.897,4.237-13.822
							c5.772-2.383,11.915-4.078,18.323-4.925c0.371,5.561,4.978,9.85,10.539,9.85c5.613,0,10.168-4.29,10.539-9.85
							c6.408,0.848,12.551,2.542,18.376,4.925c-2.436,4.925-0.636,11.015,4.184,13.822c4.872,2.807,10.962,1.324,14.086-3.23
							c5.031,3.866,9.533,8.367,13.398,13.398c-4.607,3.072-6.037,9.215-3.23,14.034c2.807,4.872,8.844,6.673,13.822,4.237
							c2.33,5.772,4.024,11.915,4.872,18.323c-5.507,0.37-9.85,4.978-9.85,10.539c0,5.613,4.342,10.168,9.85,10.539
							c-0.847,6.408-2.542,12.551-4.872,18.376c-4.978-2.436-11.016-0.635-13.822,4.184c-2.754,4.819-1.377,10.962,3.178,14.087
							c-3.866,4.978-8.368,9.48-13.346,13.345c-3.125-4.554-9.268-5.931-14.086-3.178c-4.819,2.807-6.62,8.844-4.184,13.822
							c-5.826,2.33-11.969,4.025-18.376,4.872c-0.371-5.508-4.925-9.85-10.539-9.85
							C4268.298,528.715,4263.69,533.058,4263.32,538.565z"/>
					</g>
				</g>
			</g>
			<g>
				<g>
					<g>
						<path id="SVGID_45_" fill="#47763B" d="M4260.485,541.4c-6.408-0.847-12.551-2.542-18.324-4.872
							c2.436-4.978,0.636-11.015-4.236-13.822c-4.819-2.807-10.962-1.377-14.034,3.231c-5.031-3.866-9.532-8.367-13.398-13.398
							c4.554-3.124,6.037-9.215,3.23-14.087c-2.807-4.819-8.897-6.62-13.822-4.184c-2.383-5.825-4.078-11.968-4.925-18.376
							c5.561-0.371,9.85-4.925,9.85-10.539c0-5.56-4.29-10.168-9.85-10.539c0.847-6.408,2.542-12.551,4.925-18.323
							c4.925,2.436,11.015,0.635,13.822-4.237c2.807-4.819,1.324-10.962-3.23-14.034c3.866-5.031,8.367-9.532,13.398-13.398
							c3.072,4.554,9.215,6.037,14.034,3.23c4.872-2.807,6.673-8.897,4.236-13.822c5.772-2.383,11.916-4.078,18.324-4.925
							c0.371,5.561,4.978,9.85,10.539,9.85c5.613,0,10.167-4.29,10.538-9.85c6.408,0.848,12.551,2.542,18.377,4.925
							c-2.437,4.925-0.636,11.015,4.183,13.822c4.872,2.807,10.962,1.324,14.087-3.23c5.031,3.866,9.533,8.367,13.398,13.398
							c-4.607,3.072-6.038,9.215-3.23,14.034c2.807,4.872,8.844,6.673,13.822,4.237c2.33,5.772,4.025,11.915,4.872,18.323
							c-5.507,0.37-9.85,4.978-9.85,10.539c0,5.613,4.343,10.168,9.85,10.539c-0.847,6.408-2.542,12.551-4.872,18.376
							c-4.978-2.436-11.015-0.635-13.822,4.184c-2.754,4.819-1.377,10.962,3.177,14.087c-3.866,4.978-8.367,9.48-13.345,13.345
							c-3.125-4.554-9.268-5.931-14.087-3.178c-4.819,2.807-6.62,8.844-4.184,13.822c-5.825,2.33-11.968,4.025-18.376,4.872
							c-0.371-5.508-4.925-9.85-10.538-9.85C4265.463,531.55,4260.856,535.893,4260.485,541.4z"/>
					</g>
					<g>
						<defs>
							<path id="SVGID_59_" d="M4260.485,541.4c-6.408-0.847-12.551-2.542-18.324-4.872c2.436-4.978,0.636-11.015-4.236-13.822
								c-4.819-2.807-10.962-1.377-14.034,3.231c-5.031-3.866-9.532-8.367-13.398-13.398c4.554-3.124,6.037-9.215,3.23-14.087
								c-2.807-4.819-8.897-6.62-13.822-4.184c-2.383-5.825-4.078-11.968-4.925-18.376c5.561-0.371,9.85-4.925,9.85-10.539
								c0-5.56-4.29-10.168-9.85-10.539c0.847-6.408,2.542-12.551,4.925-18.323c4.925,2.436,11.015,0.635,13.822-4.237
								c2.807-4.819,1.324-10.962-3.23-14.034c3.866-5.031,8.367-9.532,13.398-13.398c3.072,4.554,9.215,6.037,14.034,3.23
								c4.872-2.807,6.673-8.897,4.236-13.822c5.772-2.383,11.916-4.078,18.324-4.925c0.371,5.561,4.978,9.85,10.539,9.85
								c5.613,0,10.167-4.29,10.538-9.85c6.408,0.848,12.551,2.542,18.377,4.925c-2.437,4.925-0.636,11.015,4.183,13.822
								c4.872,2.807,10.962,1.324,14.087-3.23c5.031,3.866,9.533,8.367,13.398,13.398c-4.607,3.072-6.038,9.215-3.23,14.034
								c2.807,4.872,8.844,6.673,13.822,4.237c2.33,5.772,4.025,11.915,4.872,18.323c-5.507,0.37-9.85,4.978-9.85,10.539
								c0,5.613,4.343,10.168,9.85,10.539c-0.847,6.408-2.542,12.551-4.872,18.376c-4.978-2.436-11.015-0.635-13.822,4.184
								c-2.754,4.819-1.377,10.962,3.177,14.087c-3.866,4.978-8.367,9.48-13.345,13.345c-3.125-4.554-9.268-5.931-14.087-3.178
								c-4.819,2.807-6.62,8.844-4.184,13.822c-5.825,2.33-11.968,4.025-18.376,4.872c-0.371-5.508-4.925-9.85-10.538-9.85
								C4265.463,531.55,4260.856,535.893,4260.485,541.4z"/>
						</defs>
						<clipPath id="SVGID_60_">
							<use xlink:href="#SVGID_59_"  overflow="visible"/>
						</clipPath>
						<path clip-path="url(#SVGID_60_)" fill="#FFFFFF" stroke="#FFFFFF" stroke-width="4" stroke-miterlimit="10" d="
							M4316.213,349.011l-46.441,114.417c0,0-4.884,7.615-13.197,1.913l-46.425-52.196l-17.959-13.37l-31.17-17.62
							c0,0-4.766-2.797-4.5-6.851c0.266-4.054,6.947-4.995,6.947-4.995l142.459-26.524
							C4305.927,343.785,4317.734,341.092,4316.213,349.011z"/>
					</g>
					<g>
						<defs>
							<path id="SVGID_61_" d="M4260.485,541.4c-6.408-0.847-12.551-2.542-18.324-4.872c2.436-4.978,0.636-11.015-4.236-13.822
								c-4.819-2.807-10.962-1.377-14.034,3.231c-5.031-3.866-9.532-8.367-13.398-13.398c4.554-3.124,6.037-9.215,3.23-14.087
								c-2.807-4.819-8.897-6.62-13.822-4.184c-2.383-5.825-4.078-11.968-4.925-18.376c5.561-0.371,9.85-4.925,9.85-10.539
								c0-5.56-4.29-10.168-9.85-10.539c0.847-6.408,2.542-12.551,4.925-18.323c4.925,2.436,11.015,0.635,13.822-4.237
								c2.807-4.819,1.324-10.962-3.23-14.034c3.866-5.031,8.367-9.532,13.398-13.398c3.072,4.554,9.215,6.037,14.034,3.23
								c4.872-2.807,6.673-8.897,4.236-13.822c5.772-2.383,11.916-4.078,18.324-4.925c0.371,5.561,4.978,9.85,10.539,9.85
								c5.613,0,10.167-4.29,10.538-9.85c6.408,0.848,12.551,2.542,18.377,4.925c-2.437,4.925-0.636,11.015,4.183,13.822
								c4.872,2.807,10.962,1.324,14.087-3.23c5.031,3.866,9.533,8.367,13.398,13.398c-4.607,3.072-6.038,9.215-3.23,14.034
								c2.807,4.872,8.844,6.673,13.822,4.237c2.33,5.772,4.025,11.915,4.872,18.323c-5.507,0.37-9.85,4.978-9.85,10.539
								c0,5.613,4.343,10.168,9.85,10.539c-0.847,6.408-2.542,12.551-4.872,18.376c-4.978-2.436-11.015-0.635-13.822,4.184
								c-2.754,4.819-1.377,10.962,3.177,14.087c-3.866,4.978-8.367,9.48-13.345,13.345c-3.125-4.554-9.268-5.931-14.087-3.178
								c-4.819,2.807-6.62,8.844-4.184,13.822c-5.825,2.33-11.968,4.025-18.376,4.872c-0.371-5.508-4.925-9.85-10.538-9.85
								C4265.463,531.55,4260.856,535.893,4260.485,541.4z"/>
						</defs>
						<clipPath id="SVGID_62_">
							<use xlink:href="#SVGID_61_"  overflow="visible"/>
						</clipPath>
						<path clip-path="url(#SVGID_62_)" fill="#47763B" stroke="#FFFFFF" stroke-width="4" stroke-miterlimit="10" d="
							M4199.028,448.455c0,0-1.561-0.454-2.336-7.104c-0.775-6.649-4.501-41.577-4.501-41.577l89.774-35.445
							c0,0,5.158-1.917,4.455,0.856c0,0,0.73,0.653-2.188,2.488s-73.726,44.514-73.726,44.514"/>
					</g>
					<g>
						<defs>
							<path id="SVGID_63_" d="M4260.485,541.4c-6.408-0.847-12.551-2.542-18.324-4.872c2.436-4.978,0.636-11.015-4.236-13.822
								c-4.819-2.807-10.962-1.377-14.034,3.231c-5.031-3.866-9.532-8.367-13.398-13.398c4.554-3.124,6.037-9.215,3.23-14.087
								c-2.807-4.819-8.897-6.62-13.822-4.184c-2.383-5.825-4.078-11.968-4.925-18.376c5.561-0.371,9.85-4.925,9.85-10.539
								c0-5.56-4.29-10.168-9.85-10.539c0.847-6.408,2.542-12.551,4.925-18.323c4.925,2.436,11.015,0.635,13.822-4.237
								c2.807-4.819,1.324-10.962-3.23-14.034c3.866-5.031,8.367-9.532,13.398-13.398c3.072,4.554,9.215,6.037,14.034,3.23
								c4.872-2.807,6.673-8.897,4.236-13.822c5.772-2.383,11.916-4.078,18.324-4.925c0.371,5.561,4.978,9.85,10.539,9.85
								c5.613,0,10.167-4.29,10.538-9.85c6.408,0.848,12.551,2.542,18.377,4.925c-2.437,4.925-0.636,11.015,4.183,13.822
								c4.872,2.807,10.962,1.324,14.087-3.23c5.031,3.866,9.533,8.367,13.398,13.398c-4.607,3.072-6.038,9.215-3.23,14.034
								c2.807,4.872,8.844,6.673,13.822,4.237c2.33,5.772,4.025,11.915,4.872,18.323c-5.507,0.37-9.85,4.978-9.85,10.539
								c0,5.613,4.343,10.168,9.85,10.539c-0.847,6.408-2.542,12.551-4.872,18.376c-4.978-2.436-11.015-0.635-13.822,4.184
								c-2.754,4.819-1.377,10.962,3.177,14.087c-3.866,4.978-8.367,9.48-13.345,13.345c-3.125-4.554-9.268-5.931-14.087-3.178
								c-4.819,2.807-6.62,8.844-4.184,13.822c-5.825,2.33-11.968,4.025-18.376,4.872c-0.371-5.508-4.925-9.85-10.538-9.85
								C4265.463,531.55,4260.856,535.893,4260.485,541.4z"/>
						</defs>
						<clipPath id="SVGID_64_">
							<use xlink:href="#SVGID_63_"  overflow="visible"/>
						</clipPath>
						<path clip-path="url(#SVGID_64_)" fill="#47763B" stroke="#FFFFFF" stroke-width="4" stroke-miterlimit="10" d="
							M4227.951,433.158l-25.306,15.498c0,0-1.929,0.954-3.617-0.2l11.129-35.677"/>
					</g>
					<g>
						<path id="SVGID_10_" fill="none" stroke="#FFFFFF" stroke-width="4" stroke-miterlimit="10" d="M4260.485,541.4
							c-6.408-0.847-12.551-2.542-18.324-4.872c2.436-4.978,0.636-11.015-4.236-13.822c-4.819-2.807-10.962-1.377-14.034,3.231
							c-5.031-3.866-9.532-8.367-13.398-13.398c4.554-3.124,6.037-9.215,3.23-14.087c-2.807-4.819-8.897-6.62-13.822-4.184
							c-2.383-5.825-4.078-11.968-4.925-18.376c5.561-0.371,9.85-4.925,9.85-10.539c0-5.56-4.29-10.168-9.85-10.539
							c0.847-6.408,2.542-12.551,4.925-18.323c4.925,2.436,11.015,0.635,13.822-4.237c2.807-4.819,1.324-10.962-3.23-14.034
							c3.866-5.031,8.367-9.532,13.398-13.398c3.072,4.554,9.215,6.037,14.034,3.23c4.872-2.807,6.673-8.897,4.236-13.822
							c5.772-2.383,11.916-4.078,18.324-4.925c0.371,5.561,4.978,9.85,10.539,9.85c5.613,0,10.167-4.29,10.538-9.85
							c6.408,0.848,12.551,2.542,18.377,4.925c-2.437,4.925-0.636,11.015,4.183,13.822c4.872,2.807,10.962,1.324,14.087-3.23
							c5.031,3.866,9.533,8.367,13.398,13.398c-4.607,3.072-6.038,9.215-3.23,14.034c2.807,4.872,8.844,6.673,13.822,4.237
							c2.33,5.772,4.025,11.915,4.872,18.323c-5.507,0.37-9.85,4.978-9.85,10.539c0,5.613,4.343,10.168,9.85,10.539
							c-0.847,6.408-2.542,12.551-4.872,18.376c-4.978-2.436-11.015-0.635-13.822,4.184c-2.754,4.819-1.377,10.962,3.177,14.087
							c-3.866,4.978-8.367,9.48-13.345,13.345c-3.125-4.554-9.268-5.931-14.087-3.178c-4.819,2.807-6.62,8.844-4.184,13.822
							c-5.825,2.33-11.968,4.025-18.376,4.872c-0.371-5.508-4.925-9.85-10.538-9.85
							C4265.463,531.55,4260.856,535.893,4260.485,541.4z"/>
					</g>
				</g>
			</g>
		</g>
	</g>
</g>
<g id="Capa_4" display="none">
	<g display="inline">
		<circle fill="#FFFFFF" cx="4162" cy="674.564" r="11.443"/>
		<circle fill="#808080" cx="4198" cy="674.564" r="11.443"/>
		<circle fill="#FFFFFF" cx="4234" cy="674.564" r="11.443"/>
		<circle fill="#FFFFFF" cx="4270" cy="674.564" r="11.443"/>
		<circle fill="#FFFFFF" cx="4306" cy="674.564" r="11.443"/>
	</g>
</g>
<circle fill="#2D2828" stroke="#2D2828" stroke-miterlimit="10" cx="96.854" cy="101.833" r="102.167"/>
<g>
	<path fill="#FFFFFF" d="M60.039,105.289c-1.817-0.876-3.082-2.723-3.11-4.877c-0.039-3.033,2.454-6.453,5.487-6.493l77.591-0.084
		c3.034-0.04,5.524,2.387,5.563,5.419c0.04,3.033-0.906,6.453-3.939,6.492l-79.139,0.086
		C61.613,105.843,60.78,105.646,60.039,105.289z"/>
	<path fill="#FFFFFF" d="M60.039,80.289c-1.817-0.876-3.082-2.723-3.11-4.877c-0.039-3.033,2.454-6.453,5.487-6.493l77.591-0.084
		c3.034-0.04,5.524,2.387,5.563,5.419c0.04,3.033-0.906,6.453-3.939,6.492l-79.139,0.086C61.613,80.843,60.78,80.646,60.039,80.289z
		"/>
	<path fill="#FFFFFF" d="M60.039,130.289c-1.817-0.876-3.082-2.723-3.11-4.877c-0.039-3.033,2.454-6.453,5.487-6.493l77.591-0.084
		c3.034-0.04,5.524,2.387,5.563,5.419c0.04,3.033-0.906,6.453-3.939,6.492l-79.139,0.086
		C61.613,130.843,60.78,130.646,60.039,130.289z"/>
</g>
<g>
	<line fill="none" x1="-66.476" y1="58.173" x2="-66.476" y2="52.86"/>
	<path fill="#627345" d="M-75.488,53.507c0.009,0.007,0.019,0.014,0.028,0.021c-0.013-0.01-0.026-0.02-0.039-0.031
		C-75.494,53.5-75.491,53.504-75.488,53.507z"/>
</g>
</svg>
