<?xml version="1.0" encoding="utf-8"?>
<!-- Generator: Adobe Illustrator 17.0.0, SVG Export Plug-In . SVG Version: 6.00 Build 0)  -->
<!DOCTYPE svg PUBLIC "-//W3C//DTD SVG 1.1//EN" "http://www.w3.org/Graphics/SVG/1.1/DTD/svg11.dtd">
<svg version="1.1" xmlns="http://www.w3.org/2000/svg" xmlns:xlink="http://www.w3.org/1999/xlink" x="0px" y="0px" width="200px"
	 height="200px" viewBox="0 0 200 200" enable-background="new 0 0 200 200" xml:space="preserve">
<g id="Capa_1">
</g>
<g id="Capa_4_copia" display="none">
	<g id="Capa_6" display="inline">
		<g>
			<circle fill="#808080" cx="4162" cy="674.564" r="11.443"/>
			<circle fill="#FFFFFF" cx="4198" cy="674.564" r="11.443"/>
			<circle fill="#FFFFFF" cx="4234" cy="674.564" r="11.443"/>
			<circle fill="#FFFFFF" cx="4270" cy="674.564" r="11.443"/>
			<circle fill="#FFFFFF" cx="4306" cy="674.564" r="11.443"/>
		</g>
	</g>
</g>
<g id="Capa_3" display="none">
	<rect x="3593" y="106" display="inline" fill="#B3B3B3" width="1280" height="587"/>
	<g display="inline">
		<circle fill="#47763B" cx="4233" cy="399.5" r="185.329"/>
		<g>
			<g opacity="0.95">
				<g>
					<defs>
						<path id="SVGID_1_" d="M4392.166,373.02c-0.848,6.408-2.542,12.551-4.872,18.323c-4.978-2.436-11.016-0.635-13.822,4.237
							c-2.807,4.819-1.377,10.962,3.23,14.034c-3.866,5.031-8.367,9.532-13.398,13.398c-3.124-4.554-9.214-6.037-14.086-3.23
							c-4.819,2.807-6.62,8.897-4.184,13.822c-5.825,2.383-11.968,4.078-18.376,4.925c-0.371-5.56-4.925-9.85-10.539-9.85
							c-5.561,0-10.168,4.29-10.539,9.85c-6.408-0.847-12.551-2.542-18.323-4.925c2.436-4.925,0.635-11.015-4.237-13.822
							c-4.819-2.807-10.962-1.324-14.034,3.23c-5.031-3.866-9.532-8.367-13.398-13.398c4.555-3.072,6.037-9.215,3.23-14.034
							c-2.807-4.872-8.897-6.673-13.822-4.237c-2.383-5.773-4.078-11.915-4.925-18.323c5.561-0.371,9.85-4.978,9.85-10.539
							c0-5.613-4.29-10.168-9.85-10.539c0.848-6.408,2.542-12.551,4.925-18.376c4.925,2.436,11.015,0.635,13.822-4.184
							c2.807-4.872,1.324-10.962-3.23-14.087c3.866-5.031,8.367-9.533,13.398-13.398c3.072,4.607,9.214,6.037,14.034,3.23
							c4.872-2.807,6.673-8.844,4.237-13.822c5.772-2.33,11.916-4.025,18.323-4.872c0.371,5.507,4.978,9.85,10.539,9.85
							c5.614,0,10.168-4.343,10.539-9.85c6.408,0.847,12.551,2.542,18.376,4.872c-2.436,4.978-0.635,11.015,4.184,13.822
							c4.819,2.754,10.962,1.377,14.086-3.177c4.978,3.866,9.48,8.367,13.346,13.345c-4.555,3.124-5.932,9.268-3.178,14.087
							c2.807,4.819,8.844,6.62,13.822,4.184c2.33,5.826,4.025,11.969,4.872,18.376c-5.508,0.371-9.85,4.925-9.85,10.539
							C4382.316,368.041,4386.658,372.649,4392.166,373.02z"/>
					</defs>
					<clipPath id="SVGID_2_">
						<use xlink:href="#SVGID_1_"  overflow="visible"/>
					</clipPath>
				</g>
				<g>
					<defs>
						<path id="SVGID_3_" d="M4392.166,373.02c-0.848,6.408-2.542,12.551-4.872,18.323c-4.978-2.436-11.016-0.635-13.822,4.237
							c-2.807,4.819-1.377,10.962,3.23,14.034c-3.866,5.031-8.367,9.532-13.398,13.398c-3.124-4.554-9.214-6.037-14.086-3.23
							c-4.819,2.807-6.62,8.897-4.184,13.822c-5.825,2.383-11.968,4.078-18.376,4.925c-0.371-5.56-4.925-9.85-10.539-9.85
							c-5.561,0-10.168,4.29-10.539,9.85c-6.408-0.847-12.551-2.542-18.323-4.925c2.436-4.925,0.635-11.015-4.237-13.822
							c-4.819-2.807-10.962-1.324-14.034,3.23c-5.031-3.866-9.532-8.367-13.398-13.398c4.555-3.072,6.037-9.215,3.23-14.034
							c-2.807-4.872-8.897-6.673-13.822-4.237c-2.383-5.773-4.078-11.915-4.925-18.323c5.561-0.371,9.85-4.978,9.85-10.539
							c0-5.613-4.29-10.168-9.85-10.539c0.848-6.408,2.542-12.551,4.925-18.376c4.925,2.436,11.015,0.635,13.822-4.184
							c2.807-4.872,1.324-10.962-3.23-14.087c3.866-5.031,8.367-9.533,13.398-13.398c3.072,4.607,9.214,6.037,14.034,3.23
							c4.872-2.807,6.673-8.844,4.237-13.822c5.772-2.33,11.916-4.025,18.323-4.872c0.371,5.507,4.978,9.85,10.539,9.85
							c5.614,0,10.168-4.343,10.539-9.85c6.408,0.847,12.551,2.542,18.376,4.872c-2.436,4.978-0.635,11.015,4.184,13.822
							c4.819,2.754,10.962,1.377,14.086-3.177c4.978,3.866,9.48,8.367,13.346,13.345c-4.555,3.124-5.932,9.268-3.178,14.087
							c2.807,4.819,8.844,6.62,13.822,4.184c2.33,5.826,4.025,11.969,4.872,18.376c-5.508,0.371-9.85,4.925-9.85,10.539
							C4382.316,368.041,4386.658,372.649,4392.166,373.02z"/>
					</defs>
					<use xlink:href="#SVGID_3_"  overflow="visible" fill="#47763B"/>
					<clipPath id="SVGID_4_">
						<use xlink:href="#SVGID_3_"  overflow="visible"/>
					</clipPath>
					<path clip-path="url(#SVGID_4_)" fill="#47763B" stroke="#47763B" stroke-width="4" stroke-miterlimit="10" d="
						M4319.048,346.176l-46.441,114.417c0,0-4.884,7.615-13.197,1.913l-46.424-52.196l-17.959-13.37l-31.17-17.62
						c0,0-4.766-2.797-4.5-6.851c0.266-4.054,6.947-4.995,6.947-4.995l142.459-26.524
						C4308.761,340.95,4320.569,338.258,4319.048,346.176z"/>
					<path clip-path="url(#SVGID_4_)" fill="#47763B" stroke="#47763B" stroke-width="4" stroke-miterlimit="10" d="
						M4201.863,445.621c0,0-1.561-0.454-2.336-7.104c-0.775-6.649-4.501-41.577-4.501-41.577l89.775-35.445
						c0,0,5.158-1.917,4.454,0.856c0,0,0.73,0.653-2.188,2.488c-2.918,1.835-73.726,44.514-73.726,44.514"/>
					<path clip-path="url(#SVGID_4_)" fill="#47763B" stroke="#47763B" stroke-width="4" stroke-miterlimit="10" d="
						M4230.786,430.323l-25.306,15.498c0,0-1.929,0.954-3.616-0.2l11.129-35.677"/>
					<use xlink:href="#SVGID_3_"  overflow="visible" fill="none" stroke="#47763B" stroke-width="4" stroke-miterlimit="10"/>
				</g>
				<g>
					<defs>
						<path id="SVGID_5_" d="M4392.166,373.02c-0.848,6.408-2.542,12.551-4.872,18.323c-4.978-2.436-11.016-0.635-13.822,4.237
							c-2.807,4.819-1.377,10.962,3.23,14.034c-3.866,5.031-8.367,9.532-13.398,13.398c-3.124-4.554-9.214-6.037-14.086-3.23
							c-4.819,2.807-6.62,8.897-4.184,13.822c-5.825,2.383-11.968,4.078-18.376,4.925c-0.371-5.56-4.925-9.85-10.539-9.85
							c-5.561,0-10.168,4.29-10.539,9.85c-6.408-0.847-12.551-2.542-18.323-4.925c2.436-4.925,0.635-11.015-4.237-13.822
							c-4.819-2.807-10.962-1.324-14.034,3.23c-5.031-3.866-9.532-8.367-13.398-13.398c4.555-3.072,6.037-9.215,3.23-14.034
							c-2.807-4.872-8.897-6.673-13.822-4.237c-2.383-5.773-4.078-11.915-4.925-18.323c5.561-0.371,9.85-4.978,9.85-10.539
							c0-5.613-4.29-10.168-9.85-10.539c0.848-6.408,2.542-12.551,4.925-18.376c4.925,2.436,11.015,0.635,13.822-4.184
							c2.807-4.872,1.324-10.962-3.23-14.087c3.866-5.031,8.367-9.533,13.398-13.398c3.072,4.607,9.214,6.037,14.034,3.23
							c4.872-2.807,6.673-8.844,4.237-13.822c5.772-2.33,11.916-4.025,18.323-4.872c0.371,5.507,4.978,9.85,10.539,9.85
							c5.614,0,10.168-4.343,10.539-9.85c6.408,0.847,12.551,2.542,18.376,4.872c-2.436,4.978-0.635,11.015,4.184,13.822
							c4.819,2.754,10.962,1.377,14.086-3.177c4.978,3.866,9.48,8.367,13.346,13.345c-4.555,3.124-5.932,9.268-3.178,14.087
							c2.807,4.819,8.844,6.62,13.822,4.184c2.33,5.826,4.025,11.969,4.872,18.376c-5.508,0.371-9.85,4.925-9.85,10.539
							C4382.316,368.041,4386.658,372.649,4392.166,373.02z"/>
					</defs>
					<clipPath id="SVGID_6_">
						<use xlink:href="#SVGID_5_"  overflow="visible"/>
					</clipPath>
				</g>
			</g>
			<g>
				<g>
					<defs>
						<path id="SVGID_7_" d="M4389.331,375.854c-0.847,6.408-2.542,12.551-4.872,18.323c-4.978-2.436-11.015-0.635-13.822,4.237
							c-2.806,4.819-1.376,10.962,3.231,14.034c-3.866,5.031-8.368,9.532-13.398,13.398c-3.125-4.554-9.215-6.037-14.087-3.23
							c-4.819,2.807-6.62,8.897-4.184,13.822c-5.825,2.383-11.968,4.078-18.376,4.925c-0.371-5.56-4.925-9.85-10.539-9.85
							c-5.561,0-10.168,4.29-10.539,9.85c-6.408-0.847-12.551-2.542-18.324-4.925c2.437-4.925,0.636-11.015-4.236-13.822
							c-4.819-2.807-10.962-1.324-14.034,3.23c-5.031-3.866-9.532-8.367-13.398-13.398c4.554-3.072,6.037-9.215,3.23-14.034
							c-2.807-4.872-8.897-6.673-13.822-4.237c-2.383-5.773-4.078-11.915-4.925-18.323c5.561-0.371,9.85-4.978,9.85-10.539
							c0-5.613-4.29-10.168-9.85-10.539c0.847-6.408,2.542-12.551,4.925-18.376c4.925,2.436,11.015,0.635,13.822-4.184
							c2.807-4.872,1.324-10.962-3.23-14.087c3.866-5.031,8.367-9.533,13.398-13.398c3.072,4.607,9.215,6.037,14.034,3.23
							c4.872-2.807,6.673-8.844,4.236-13.822c5.772-2.33,11.916-4.025,18.324-4.872c0.37,5.507,4.978,9.85,10.539,9.85
							c5.613,0,10.167-4.343,10.539-9.85c6.408,0.847,12.551,2.542,18.376,4.872c-2.436,4.978-0.635,11.015,4.184,13.822
							c4.819,2.754,10.962,1.377,14.086-3.177c4.978,3.866,9.479,8.367,13.345,13.345c-4.554,3.124-5.931,9.268-3.178,14.087
							c2.807,4.819,8.844,6.62,13.822,4.184c2.33,5.826,4.025,11.968,4.872,18.376c-5.507,0.371-9.85,4.925-9.85,10.539
							C4379.481,370.876,4383.824,375.483,4389.331,375.854z"/>
					</defs>
					<clipPath id="SVGID_8_">
						<use xlink:href="#SVGID_7_"  overflow="visible"/>
					</clipPath>
				</g>
				<g>
					<defs>
						<path id="SVGID_9_" d="M4389.331,375.854c-0.847,6.408-2.542,12.551-4.872,18.323c-4.978-2.436-11.015-0.635-13.822,4.237
							c-2.806,4.819-1.376,10.962,3.231,14.034c-3.866,5.031-8.368,9.532-13.398,13.398c-3.125-4.554-9.215-6.037-14.087-3.23
							c-4.819,2.807-6.62,8.897-4.184,13.822c-5.825,2.383-11.968,4.078-18.376,4.925c-0.371-5.56-4.925-9.85-10.539-9.85
							c-5.561,0-10.168,4.29-10.539,9.85c-6.408-0.847-12.551-2.542-18.324-4.925c2.437-4.925,0.636-11.015-4.236-13.822
							c-4.819-2.807-10.962-1.324-14.034,3.23c-5.031-3.866-9.532-8.367-13.398-13.398c4.554-3.072,6.037-9.215,3.23-14.034
							c-2.807-4.872-8.897-6.673-13.822-4.237c-2.383-5.773-4.078-11.915-4.925-18.323c5.561-0.371,9.85-4.978,9.85-10.539
							c0-5.613-4.29-10.168-9.85-10.539c0.847-6.408,2.542-12.551,4.925-18.376c4.925,2.436,11.015,0.635,13.822-4.184
							c2.807-4.872,1.324-10.962-3.23-14.087c3.866-5.031,8.367-9.533,13.398-13.398c3.072,4.607,9.215,6.037,14.034,3.23
							c4.872-2.807,6.673-8.844,4.236-13.822c5.772-2.33,11.916-4.025,18.324-4.872c0.37,5.507,4.978,9.85,10.539,9.85
							c5.613,0,10.167-4.343,10.539-9.85c6.408,0.847,12.551,2.542,18.376,4.872c-2.436,4.978-0.635,11.015,4.184,13.822
							c4.819,2.754,10.962,1.377,14.086-3.177c4.978,3.866,9.479,8.367,13.345,13.345c-4.554,3.124-5.931,9.268-3.178,14.087
							c2.807,4.819,8.844,6.62,13.822,4.184c2.33,5.826,4.025,11.968,4.872,18.376c-5.507,0.371-9.85,4.925-9.85,10.539
							C4379.481,370.876,4383.824,375.483,4389.331,375.854z"/>
					</defs>
					<use xlink:href="#SVGID_9_"  overflow="visible" fill="#47763B"/>
					<clipPath id="SVGID_10_">
						<use xlink:href="#SVGID_9_"  overflow="visible"/>
					</clipPath>
					<path clip-path="url(#SVGID_10_)" fill="#FFFFFF" stroke="#FFFFFF" stroke-width="4" stroke-miterlimit="10" d="
						M4316.213,349.011l-46.441,114.417c0,0-4.884,7.615-13.197,1.913l-46.425-52.196l-17.959-13.37l-31.17-17.62
						c0,0-4.766-2.797-4.5-6.851c0.266-4.054,6.947-4.995,6.947-4.995l142.459-26.524
						C4305.927,343.785,4317.734,341.092,4316.213,349.011z"/>
					<path clip-path="url(#SVGID_10_)" fill="#47763B" stroke="#FFFFFF" stroke-width="4" stroke-miterlimit="10" d="
						M4199.028,448.455c0,0-1.561-0.454-2.336-7.104c-0.775-6.649-4.501-41.577-4.501-41.577l89.774-35.445
						c0,0,5.158-1.917,4.455,0.856c0,0,0.73,0.653-2.188,2.488s-73.726,44.514-73.726,44.514"/>
					<path clip-path="url(#SVGID_10_)" fill="#47763B" stroke="#FFFFFF" stroke-width="4" stroke-miterlimit="10" d="
						M4227.951,433.158l-25.306,15.498c0,0-1.929,0.954-3.617-0.2l11.129-35.677"/>
					<use xlink:href="#SVGID_9_"  overflow="visible" fill="none" stroke="#FFFFFF" stroke-width="4" stroke-miterlimit="10"/>
				</g>
				<g>
					<defs>
						<path id="SVGID_11_" d="M4389.331,375.854c-0.847,6.408-2.542,12.551-4.872,18.323c-4.978-2.436-11.015-0.635-13.822,4.237
							c-2.806,4.819-1.376,10.962,3.231,14.034c-3.866,5.031-8.368,9.532-13.398,13.398c-3.125-4.554-9.215-6.037-14.087-3.23
							c-4.819,2.807-6.62,8.897-4.184,13.822c-5.825,2.383-11.968,4.078-18.376,4.925c-0.371-5.56-4.925-9.85-10.539-9.85
							c-5.561,0-10.168,4.29-10.539,9.85c-6.408-0.847-12.551-2.542-18.324-4.925c2.437-4.925,0.636-11.015-4.236-13.822
							c-4.819-2.807-10.962-1.324-14.034,3.23c-5.031-3.866-9.532-8.367-13.398-13.398c4.554-3.072,6.037-9.215,3.23-14.034
							c-2.807-4.872-8.897-6.673-13.822-4.237c-2.383-5.773-4.078-11.915-4.925-18.323c5.561-0.371,9.85-4.978,9.85-10.539
							c0-5.613-4.29-10.168-9.85-10.539c0.847-6.408,2.542-12.551,4.925-18.376c4.925,2.436,11.015,0.635,13.822-4.184
							c2.807-4.872,1.324-10.962-3.23-14.087c3.866-5.031,8.367-9.533,13.398-13.398c3.072,4.607,9.215,6.037,14.034,3.23
							c4.872-2.807,6.673-8.844,4.236-13.822c5.772-2.33,11.916-4.025,18.324-4.872c0.37,5.507,4.978,9.85,10.539,9.85
							c5.613,0,10.167-4.343,10.539-9.85c6.408,0.847,12.551,2.542,18.376,4.872c-2.436,4.978-0.635,11.015,4.184,13.822
							c4.819,2.754,10.962,1.377,14.086-3.177c4.978,3.866,9.479,8.367,13.345,13.345c-4.554,3.124-5.931,9.268-3.178,14.087
							c2.807,4.819,8.844,6.62,13.822,4.184c2.33,5.826,4.025,11.968,4.872,18.376c-5.507,0.371-9.85,4.925-9.85,10.539
							C4379.481,370.876,4383.824,375.483,4389.331,375.854z"/>
					</defs>
					<clipPath id="SVGID_12_">
						<use xlink:href="#SVGID_11_"  overflow="visible"/>
					</clipPath>
				</g>
			</g>
		</g>
		<g>
			<g>
				<g>
					<defs>
						<path id="SVGID_13_" d="M4208.403,254.765c6.408,0.847,12.551,2.542,18.324,4.872c-2.436,4.978-0.636,11.015,4.236,13.822
							c4.819,2.807,10.962,1.377,14.034-3.231c5.031,3.866,9.532,8.367,13.398,13.398c-4.554,3.124-6.037,9.215-3.23,14.087
							c2.807,4.819,8.897,6.62,13.822,4.184c2.383,5.825,4.078,11.968,4.925,18.376c-5.561,0.371-9.85,4.925-9.85,10.539
							c0,5.56,4.29,10.168,9.85,10.539c-0.847,6.408-2.542,12.551-4.925,18.323c-4.925-2.436-11.016-0.635-13.822,4.237
							c-2.807,4.819-1.324,10.962,3.23,14.034c-3.866,5.031-8.367,9.532-13.398,13.398c-3.072-4.554-9.215-6.037-14.034-3.23
							c-4.872,2.807-6.672,8.897-4.236,13.822c-5.772,2.383-11.916,4.078-18.324,4.925c-0.371-5.561-4.978-9.85-10.539-9.85
							c-5.613,0-10.167,4.29-10.538,9.85c-6.408-0.848-12.551-2.542-18.376-4.925c2.436-4.925,0.635-11.015-4.184-13.822
							c-4.872-2.807-10.962-1.324-14.087,3.23c-5.031-3.866-9.533-8.367-13.398-13.398c4.607-3.072,6.038-9.215,3.23-14.034
							c-2.807-4.872-8.844-6.673-13.822-4.237c-2.33-5.772-4.025-11.915-4.872-18.323c5.507-0.37,9.85-4.978,9.85-10.539
							c0-5.613-4.343-10.168-9.85-10.539c0.847-6.408,2.542-12.551,4.872-18.376c4.978,2.436,11.015,0.635,13.822-4.184
							c2.754-4.819,1.377-10.962-3.177-14.087c3.866-4.978,8.367-9.48,13.345-13.345c3.125,4.554,9.268,5.931,14.087,3.178
							c4.819-2.807,6.62-8.844,4.184-13.822c5.825-2.33,11.968-4.025,18.376-4.872c0.371,5.507,4.925,9.85,10.538,9.85
							C4203.425,264.615,4208.032,260.273,4208.403,254.765z"/>
					</defs>
					<clipPath id="SVGID_14_">
						<use xlink:href="#SVGID_13_"  overflow="visible"/>
					</clipPath>
				</g>
				<g>
					<defs>
						<path id="SVGID_15_" d="M4208.403,254.765c6.408,0.847,12.551,2.542,18.324,4.872c-2.436,4.978-0.636,11.015,4.236,13.822
							c4.819,2.807,10.962,1.377,14.034-3.231c5.031,3.866,9.532,8.367,13.398,13.398c-4.554,3.124-6.037,9.215-3.23,14.087
							c2.807,4.819,8.897,6.62,13.822,4.184c2.383,5.825,4.078,11.968,4.925,18.376c-5.561,0.371-9.85,4.925-9.85,10.539
							c0,5.56,4.29,10.168,9.85,10.539c-0.847,6.408-2.542,12.551-4.925,18.323c-4.925-2.436-11.016-0.635-13.822,4.237
							c-2.807,4.819-1.324,10.962,3.23,14.034c-3.866,5.031-8.367,9.532-13.398,13.398c-3.072-4.554-9.215-6.037-14.034-3.23
							c-4.872,2.807-6.672,8.897-4.236,13.822c-5.772,2.383-11.916,4.078-18.324,4.925c-0.371-5.561-4.978-9.85-10.539-9.85
							c-5.613,0-10.167,4.29-10.538,9.85c-6.408-0.848-12.551-2.542-18.376-4.925c2.436-4.925,0.635-11.015-4.184-13.822
							c-4.872-2.807-10.962-1.324-14.087,3.23c-5.031-3.866-9.533-8.367-13.398-13.398c4.607-3.072,6.038-9.215,3.23-14.034
							c-2.807-4.872-8.844-6.673-13.822-4.237c-2.33-5.772-4.025-11.915-4.872-18.323c5.507-0.37,9.85-4.978,9.85-10.539
							c0-5.613-4.343-10.168-9.85-10.539c0.847-6.408,2.542-12.551,4.872-18.376c4.978,2.436,11.015,0.635,13.822-4.184
							c2.754-4.819,1.377-10.962-3.177-14.087c3.866-4.978,8.367-9.48,13.345-13.345c3.125,4.554,9.268,5.931,14.087,3.178
							c4.819-2.807,6.62-8.844,4.184-13.822c5.825-2.33,11.968-4.025,18.376-4.872c0.371,5.507,4.925,9.85,10.538,9.85
							C4203.425,264.615,4208.032,260.273,4208.403,254.765z"/>
					</defs>
					<use xlink:href="#SVGID_15_"  overflow="visible" fill="#47763B"/>
					<clipPath id="SVGID_16_">
						<use xlink:href="#SVGID_15_"  overflow="visible"/>
					</clipPath>
					<path clip-path="url(#SVGID_16_)" fill="#47763B" stroke="#47763B" stroke-width="4" stroke-miterlimit="10" d="
						M4319.048,346.176l-46.441,114.417c0,0-4.884,7.615-13.197,1.913l-46.424-52.196l-17.959-13.37l-31.17-17.62
						c0,0-4.766-2.797-4.5-6.851c0.266-4.054,6.947-4.995,6.947-4.995l142.459-26.524
						C4308.761,340.95,4320.569,338.258,4319.048,346.176z"/>
					<path clip-path="url(#SVGID_16_)" fill="#47763B" stroke="#47763B" stroke-width="4" stroke-miterlimit="10" d="
						M4201.863,445.621c0,0-1.561-0.454-2.336-7.104c-0.775-6.649-4.501-41.577-4.501-41.577l89.775-35.445
						c0,0,5.158-1.917,4.454,0.856c0,0,0.73,0.653-2.188,2.488c-2.918,1.835-73.726,44.514-73.726,44.514"/>
					<path clip-path="url(#SVGID_16_)" fill="#47763B" stroke="#47763B" stroke-width="4" stroke-miterlimit="10" d="
						M4230.786,430.323l-25.306,15.498c0,0-1.929,0.954-3.616-0.2l11.129-35.677"/>
					<use xlink:href="#SVGID_15_"  overflow="visible" fill="none" stroke="#47763B" stroke-width="4" stroke-miterlimit="10"/>
				</g>
				<g>
					<defs>
						<path id="SVGID_17_" d="M4208.403,254.765c6.408,0.847,12.551,2.542,18.324,4.872c-2.436,4.978-0.636,11.015,4.236,13.822
							c4.819,2.807,10.962,1.377,14.034-3.231c5.031,3.866,9.532,8.367,13.398,13.398c-4.554,3.124-6.037,9.215-3.23,14.087
							c2.807,4.819,8.897,6.62,13.822,4.184c2.383,5.825,4.078,11.968,4.925,18.376c-5.561,0.371-9.85,4.925-9.85,10.539
							c0,5.56,4.29,10.168,9.85,10.539c-0.847,6.408-2.542,12.551-4.925,18.323c-4.925-2.436-11.016-0.635-13.822,4.237
							c-2.807,4.819-1.324,10.962,3.23,14.034c-3.866,5.031-8.367,9.532-13.398,13.398c-3.072-4.554-9.215-6.037-14.034-3.23
							c-4.872,2.807-6.672,8.897-4.236,13.822c-5.772,2.383-11.916,4.078-18.324,4.925c-0.371-5.561-4.978-9.85-10.539-9.85
							c-5.613,0-10.167,4.29-10.538,9.85c-6.408-0.848-12.551-2.542-18.376-4.925c2.436-4.925,0.635-11.015-4.184-13.822
							c-4.872-2.807-10.962-1.324-14.087,3.23c-5.031-3.866-9.533-8.367-13.398-13.398c4.607-3.072,6.038-9.215,3.23-14.034
							c-2.807-4.872-8.844-6.673-13.822-4.237c-2.33-5.772-4.025-11.915-4.872-18.323c5.507-0.37,9.85-4.978,9.85-10.539
							c0-5.613-4.343-10.168-9.85-10.539c0.847-6.408,2.542-12.551,4.872-18.376c4.978,2.436,11.015,0.635,13.822-4.184
							c2.754-4.819,1.377-10.962-3.177-14.087c3.866-4.978,8.367-9.48,13.345-13.345c3.125,4.554,9.268,5.931,14.087,3.178
							c4.819-2.807,6.62-8.844,4.184-13.822c5.825-2.33,11.968-4.025,18.376-4.872c0.371,5.507,4.925,9.85,10.538,9.85
							C4203.425,264.615,4208.032,260.273,4208.403,254.765z"/>
					</defs>
					<clipPath id="SVGID_18_">
						<use xlink:href="#SVGID_17_"  overflow="visible"/>
					</clipPath>
				</g>
			</g>
			<g>
				<g>
					<defs>
						<path id="SVGID_19_" d="M4205.568,257.6c6.408,0.847,12.551,2.542,18.323,4.872c-2.436,4.978-0.635,11.015,4.237,13.822
							c4.819,2.807,10.962,1.377,14.034-3.231c5.031,3.866,9.533,8.367,13.398,13.398c-4.554,3.124-6.038,9.215-3.23,14.087
							c2.807,4.819,8.897,6.62,13.822,4.184c2.383,5.825,4.078,11.968,4.925,18.376c-5.561,0.371-9.85,4.925-9.85,10.539
							c0,5.56,4.29,10.168,9.85,10.539c-0.847,6.408-2.542,12.551-4.925,18.323c-4.925-2.436-11.015-0.635-13.822,4.237
							c-2.807,4.819-1.324,10.962,3.23,14.034c-3.866,5.031-8.368,9.532-13.398,13.398c-3.071-4.554-9.215-6.037-14.034-3.23
							c-4.872,2.807-6.673,8.897-4.237,13.822c-5.772,2.383-11.915,4.078-18.323,4.925c-0.371-5.561-4.978-9.85-10.539-9.85
							c-5.613,0-10.168,4.29-10.539,9.85c-6.408-0.848-12.551-2.542-18.376-4.925c2.436-4.925,0.636-11.015-4.184-13.822
							c-4.872-2.807-10.962-1.324-14.086,3.23c-5.031-3.866-9.533-8.367-13.398-13.398c4.607-3.072,6.037-9.215,3.23-14.034
							c-2.807-4.872-8.844-6.673-13.822-4.237c-2.33-5.772-4.024-11.915-4.872-18.323c5.507-0.37,9.85-4.978,9.85-10.539
							c0-5.614-4.342-10.168-9.85-10.539c0.847-6.408,2.542-12.551,4.872-18.376c4.978,2.436,11.016,0.635,13.822-4.184
							c2.754-4.819,1.377-10.962-3.177-14.087c3.866-4.978,8.367-9.48,13.345-13.345c3.125,4.554,9.268,5.931,14.086,3.178
							c4.819-2.807,6.62-8.844,4.184-13.822c5.826-2.33,11.969-4.025,18.376-4.872c0.371,5.507,4.925,9.85,10.539,9.85
							C4200.59,267.45,4205.198,263.107,4205.568,257.6z"/>
					</defs>
					<clipPath id="SVGID_20_">
						<use xlink:href="#SVGID_19_"  overflow="visible"/>
					</clipPath>
				</g>
				<g>
					<defs>
						<path id="SVGID_21_" d="M4205.568,257.6c6.408,0.847,12.551,2.542,18.323,4.872c-2.436,4.978-0.635,11.015,4.237,13.822
							c4.819,2.807,10.962,1.377,14.034-3.231c5.031,3.866,9.533,8.367,13.398,13.398c-4.554,3.124-6.038,9.215-3.23,14.087
							c2.807,4.819,8.897,6.62,13.822,4.184c2.383,5.825,4.078,11.968,4.925,18.376c-5.561,0.371-9.85,4.925-9.85,10.539
							c0,5.56,4.29,10.168,9.85,10.539c-0.847,6.408-2.542,12.551-4.925,18.323c-4.925-2.436-11.015-0.635-13.822,4.237
							c-2.807,4.819-1.324,10.962,3.23,14.034c-3.866,5.031-8.368,9.532-13.398,13.398c-3.071-4.554-9.215-6.037-14.034-3.23
							c-4.872,2.807-6.673,8.897-4.237,13.822c-5.772,2.383-11.915,4.078-18.323,4.925c-0.371-5.561-4.978-9.85-10.539-9.85
							c-5.613,0-10.168,4.29-10.539,9.85c-6.408-0.848-12.551-2.542-18.376-4.925c2.436-4.925,0.636-11.015-4.184-13.822
							c-4.872-2.807-10.962-1.324-14.086,3.23c-5.031-3.866-9.533-8.367-13.398-13.398c4.607-3.072,6.037-9.215,3.23-14.034
							c-2.807-4.872-8.844-6.673-13.822-4.237c-2.33-5.772-4.024-11.915-4.872-18.323c5.507-0.37,9.85-4.978,9.85-10.539
							c0-5.614-4.342-10.168-9.85-10.539c0.847-6.408,2.542-12.551,4.872-18.376c4.978,2.436,11.016,0.635,13.822-4.184
							c2.754-4.819,1.377-10.962-3.177-14.087c3.866-4.978,8.367-9.48,13.345-13.345c3.125,4.554,9.268,5.931,14.086,3.178
							c4.819-2.807,6.62-8.844,4.184-13.822c5.826-2.33,11.969-4.025,18.376-4.872c0.371,5.507,4.925,9.85,10.539,9.85
							C4200.59,267.45,4205.198,263.107,4205.568,257.6z"/>
					</defs>
					<use xlink:href="#SVGID_21_"  overflow="visible" fill="#47763B"/>
					<clipPath id="SVGID_22_">
						<use xlink:href="#SVGID_21_"  overflow="visible"/>
					</clipPath>
					<path clip-path="url(#SVGID_22_)" fill="#FFFFFF" stroke="#FFFFFF" stroke-width="4" stroke-miterlimit="10" d="
						M4316.213,349.011l-46.441,114.417c0,0-4.884,7.615-13.197,1.913l-46.425-52.196l-17.959-13.37l-31.17-17.62
						c0,0-4.766-2.797-4.5-6.851c0.266-4.054,6.947-4.995,6.947-4.995l142.459-26.524
						C4305.927,343.785,4317.734,341.092,4316.213,349.011z"/>
					<path clip-path="url(#SVGID_22_)" fill="#47763B" stroke="#FFFFFF" stroke-width="4" stroke-miterlimit="10" d="
						M4199.028,448.455c0,0-1.561-0.454-2.336-7.104c-0.775-6.649-4.501-41.577-4.501-41.577l89.774-35.445
						c0,0,5.158-1.917,4.455,0.856c0,0,0.73,0.653-2.188,2.488s-73.726,44.514-73.726,44.514"/>
					<path clip-path="url(#SVGID_22_)" fill="#47763B" stroke="#FFFFFF" stroke-width="4" stroke-miterlimit="10" d="
						M4227.951,433.158l-25.306,15.498c0,0-1.929,0.954-3.617-0.2l11.129-35.677"/>
					<use xlink:href="#SVGID_21_"  overflow="visible" fill="none" stroke="#FFFFFF" stroke-width="4" stroke-miterlimit="10"/>
				</g>
				<g>
					<defs>
						<path id="SVGID_23_" d="M4205.568,257.6c6.408,0.847,12.551,2.542,18.323,4.872c-2.436,4.978-0.635,11.015,4.237,13.822
							c4.819,2.807,10.962,1.377,14.034-3.231c5.031,3.866,9.533,8.367,13.398,13.398c-4.554,3.124-6.038,9.215-3.23,14.087
							c2.807,4.819,8.897,6.62,13.822,4.184c2.383,5.825,4.078,11.968,4.925,18.376c-5.561,0.371-9.85,4.925-9.85,10.539
							c0,5.56,4.29,10.168,9.85,10.539c-0.847,6.408-2.542,12.551-4.925,18.323c-4.925-2.436-11.015-0.635-13.822,4.237
							c-2.807,4.819-1.324,10.962,3.23,14.034c-3.866,5.031-8.368,9.532-13.398,13.398c-3.071-4.554-9.215-6.037-14.034-3.23
							c-4.872,2.807-6.673,8.897-4.237,13.822c-5.772,2.383-11.915,4.078-18.323,4.925c-0.371-5.561-4.978-9.85-10.539-9.85
							c-5.613,0-10.168,4.29-10.539,9.85c-6.408-0.848-12.551-2.542-18.376-4.925c2.436-4.925,0.636-11.015-4.184-13.822
							c-4.872-2.807-10.962-1.324-14.086,3.23c-5.031-3.866-9.533-8.367-13.398-13.398c4.607-3.072,6.037-9.215,3.23-14.034
							c-2.807-4.872-8.844-6.673-13.822-4.237c-2.33-5.772-4.024-11.915-4.872-18.323c5.507-0.37,9.85-4.978,9.85-10.539
							c0-5.614-4.342-10.168-9.85-10.539c0.847-6.408,2.542-12.551,4.872-18.376c4.978,2.436,11.016,0.635,13.822-4.184
							c2.754-4.819,1.377-10.962-3.177-14.087c3.866-4.978,8.367-9.48,13.345-13.345c3.125,4.554,9.268,5.931,14.086,3.178
							c4.819-2.807,6.62-8.844,4.184-13.822c5.826-2.33,11.969-4.025,18.376-4.872c0.371,5.507,4.925,9.85,10.539,9.85
							C4200.59,267.45,4205.198,263.107,4205.568,257.6z"/>
					</defs>
					<clipPath id="SVGID_24_">
						<use xlink:href="#SVGID_23_"  overflow="visible"/>
					</clipPath>
				</g>
			</g>
		</g>
		<g>
			<g>
				<g>
					<defs>
						<path id="SVGID_25_" d="M4079.504,420.311c0.847-6.408,2.542-12.551,4.872-18.323c4.978,2.436,11.015,0.635,13.822-4.237
							c2.807-4.819,1.376-10.962-3.231-14.034c3.866-5.031,8.367-9.532,13.398-13.398c3.125,4.554,9.215,6.037,14.087,3.23
							c4.819-2.807,6.62-8.897,4.184-13.822c5.825-2.383,11.968-4.078,18.376-4.925c0.371,5.56,4.925,9.85,10.538,9.85
							c5.561,0,10.168-4.29,10.539-9.85c6.408,0.847,12.551,2.542,18.324,4.925c-2.436,4.925-0.636,11.015,4.236,13.822
							c4.819,2.807,10.962,1.324,14.034-3.23c5.031,3.866,9.532,8.367,13.398,13.398c-4.554,3.072-6.037,9.215-3.23,14.034
							c2.807,4.872,8.897,6.673,13.822,4.237c2.383,5.773,4.078,11.915,4.926,18.323c-5.561,0.371-9.851,4.978-9.851,10.539
							c0,5.613,4.29,10.168,9.851,10.539c-0.848,6.408-2.542,12.551-4.926,18.376c-4.925-2.436-11.015-0.635-13.822,4.184
							c-2.807,4.872-1.324,10.962,3.23,14.087c-3.866,5.031-8.367,9.533-13.398,13.398c-3.072-4.607-9.215-6.037-14.034-3.23
							c-4.872,2.807-6.673,8.844-4.236,13.822c-5.772,2.33-11.916,4.025-18.324,4.872c-0.37-5.507-4.978-9.85-10.539-9.85
							c-5.613,0-10.167,4.343-10.539,9.85c-6.408-0.847-12.551-2.542-18.376-4.872c2.436-4.978,0.636-11.015-4.184-13.822
							c-4.819-2.754-10.962-1.377-14.087,3.177c-4.978-3.866-9.479-8.367-13.345-13.345c4.554-3.124,5.931-9.268,3.178-14.087
							c-2.807-4.819-8.844-6.62-13.822-4.184c-2.33-5.826-4.025-11.968-4.872-18.376c5.507-0.371,9.85-4.925,9.85-10.539
							C4089.354,425.289,4085.011,420.682,4079.504,420.311z"/>
					</defs>
					<clipPath id="SVGID_26_">
						<use xlink:href="#SVGID_25_"  overflow="visible"/>
					</clipPath>
				</g>
				<g>
					<defs>
						<path id="SVGID_27_" d="M4079.504,420.311c0.847-6.408,2.542-12.551,4.872-18.323c4.978,2.436,11.015,0.635,13.822-4.237
							c2.807-4.819,1.376-10.962-3.231-14.034c3.866-5.031,8.367-9.532,13.398-13.398c3.125,4.554,9.215,6.037,14.087,3.23
							c4.819-2.807,6.62-8.897,4.184-13.822c5.825-2.383,11.968-4.078,18.376-4.925c0.371,5.56,4.925,9.85,10.538,9.85
							c5.561,0,10.168-4.29,10.539-9.85c6.408,0.847,12.551,2.542,18.324,4.925c-2.436,4.925-0.636,11.015,4.236,13.822
							c4.819,2.807,10.962,1.324,14.034-3.23c5.031,3.866,9.532,8.367,13.398,13.398c-4.554,3.072-6.037,9.215-3.23,14.034
							c2.807,4.872,8.897,6.673,13.822,4.237c2.383,5.773,4.078,11.915,4.926,18.323c-5.561,0.371-9.851,4.978-9.851,10.539
							c0,5.613,4.29,10.168,9.851,10.539c-0.848,6.408-2.542,12.551-4.926,18.376c-4.925-2.436-11.015-0.635-13.822,4.184
							c-2.807,4.872-1.324,10.962,3.23,14.087c-3.866,5.031-8.367,9.533-13.398,13.398c-3.072-4.607-9.215-6.037-14.034-3.23
							c-4.872,2.807-6.673,8.844-4.236,13.822c-5.772,2.33-11.916,4.025-18.324,4.872c-0.37-5.507-4.978-9.85-10.539-9.85
							c-5.613,0-10.167,4.343-10.539,9.85c-6.408-0.847-12.551-2.542-18.376-4.872c2.436-4.978,0.636-11.015-4.184-13.822
							c-4.819-2.754-10.962-1.377-14.087,3.177c-4.978-3.866-9.479-8.367-13.345-13.345c4.554-3.124,5.931-9.268,3.178-14.087
							c-2.807-4.819-8.844-6.62-13.822-4.184c-2.33-5.826-4.025-11.968-4.872-18.376c5.507-0.371,9.85-4.925,9.85-10.539
							C4089.354,425.289,4085.011,420.682,4079.504,420.311z"/>
					</defs>
					<use xlink:href="#SVGID_27_"  overflow="visible" fill="#47763B"/>
					<clipPath id="SVGID_28_">
						<use xlink:href="#SVGID_27_"  overflow="visible"/>
					</clipPath>
					<path clip-path="url(#SVGID_28_)" fill="#47763B" stroke="#47763B" stroke-width="4" stroke-miterlimit="10" d="
						M4319.048,346.176l-46.441,114.417c0,0-4.884,7.615-13.197,1.913l-46.424-52.196l-17.959-13.37l-31.17-17.62
						c0,0-4.766-2.797-4.5-6.851c0.266-4.054,6.947-4.995,6.947-4.995l142.459-26.524
						C4308.761,340.95,4320.569,338.258,4319.048,346.176z"/>
					<path clip-path="url(#SVGID_28_)" fill="#47763B" stroke="#47763B" stroke-width="4" stroke-miterlimit="10" d="
						M4201.863,445.621c0,0-1.561-0.454-2.336-7.104c-0.775-6.649-4.501-41.577-4.501-41.577l89.775-35.445
						c0,0,5.158-1.917,4.454,0.856c0,0,0.73,0.653-2.188,2.488c-2.918,1.835-73.726,44.514-73.726,44.514"/>
					<path clip-path="url(#SVGID_28_)" fill="#47763B" stroke="#47763B" stroke-width="4" stroke-miterlimit="10" d="
						M4230.786,430.323l-25.306,15.498c0,0-1.929,0.954-3.616-0.2l11.129-35.677"/>
					<use xlink:href="#SVGID_27_"  overflow="visible" fill="none" stroke="#47763B" stroke-width="4" stroke-miterlimit="10"/>
				</g>
				<g>
					<defs>
						<path id="SVGID_29_" d="M4079.504,420.311c0.847-6.408,2.542-12.551,4.872-18.323c4.978,2.436,11.015,0.635,13.822-4.237
							c2.807-4.819,1.376-10.962-3.231-14.034c3.866-5.031,8.367-9.532,13.398-13.398c3.125,4.554,9.215,6.037,14.087,3.23
							c4.819-2.807,6.62-8.897,4.184-13.822c5.825-2.383,11.968-4.078,18.376-4.925c0.371,5.56,4.925,9.85,10.538,9.85
							c5.561,0,10.168-4.29,10.539-9.85c6.408,0.847,12.551,2.542,18.324,4.925c-2.436,4.925-0.636,11.015,4.236,13.822
							c4.819,2.807,10.962,1.324,14.034-3.23c5.031,3.866,9.532,8.367,13.398,13.398c-4.554,3.072-6.037,9.215-3.23,14.034
							c2.807,4.872,8.897,6.673,13.822,4.237c2.383,5.773,4.078,11.915,4.926,18.323c-5.561,0.371-9.851,4.978-9.851,10.539
							c0,5.613,4.29,10.168,9.851,10.539c-0.848,6.408-2.542,12.551-4.926,18.376c-4.925-2.436-11.015-0.635-13.822,4.184
							c-2.807,4.872-1.324,10.962,3.23,14.087c-3.866,5.031-8.367,9.533-13.398,13.398c-3.072-4.607-9.215-6.037-14.034-3.23
							c-4.872,2.807-6.673,8.844-4.236,13.822c-5.772,2.33-11.916,4.025-18.324,4.872c-0.37-5.507-4.978-9.85-10.539-9.85
							c-5.613,0-10.167,4.343-10.539,9.85c-6.408-0.847-12.551-2.542-18.376-4.872c2.436-4.978,0.636-11.015-4.184-13.822
							c-4.819-2.754-10.962-1.377-14.087,3.177c-4.978-3.866-9.479-8.367-13.345-13.345c4.554-3.124,5.931-9.268,3.178-14.087
							c-2.807-4.819-8.844-6.62-13.822-4.184c-2.33-5.826-4.025-11.968-4.872-18.376c5.507-0.371,9.85-4.925,9.85-10.539
							C4089.354,425.289,4085.011,420.682,4079.504,420.311z"/>
					</defs>
					<clipPath id="SVGID_30_">
						<use xlink:href="#SVGID_29_"  overflow="visible"/>
					</clipPath>
				</g>
			</g>
			<g>
				<g>
					<defs>
						<path id="SVGID_31_" d="M4076.669,423.146c0.847-6.408,2.542-12.551,4.872-18.323c4.978,2.436,11.015,0.635,13.822-4.237
							c2.806-4.819,1.377-10.962-3.231-14.034c3.866-5.031,8.367-9.532,13.398-13.398c3.125,4.554,9.214,6.037,14.086,3.23
							c4.819-2.807,6.62-8.897,4.184-13.822c5.825-2.383,11.968-4.078,18.376-4.925c0.371,5.56,4.925,9.85,10.539,9.85
							c5.561,0,10.168-4.29,10.539-9.85c6.408,0.847,12.551,2.542,18.323,4.925c-2.436,4.925-0.635,11.015,4.237,13.822
							c4.819,2.807,10.962,1.324,14.034-3.23c5.031,3.866,9.533,8.367,13.398,13.398c-4.554,3.072-6.037,9.215-3.23,14.034
							c2.807,4.872,8.897,6.673,13.822,4.237c2.383,5.773,4.078,11.915,4.925,18.323c-5.561,0.371-9.85,4.978-9.85,10.539
							c0,5.613,4.29,10.168,9.85,10.539c-0.847,6.408-2.542,12.551-4.925,18.376c-4.925-2.436-11.015-0.635-13.822,4.184
							c-2.807,4.872-1.324,10.962,3.23,14.087c-3.866,5.031-8.367,9.533-13.398,13.398c-3.071-4.607-9.214-6.037-14.034-3.23
							c-4.872,2.807-6.673,8.844-4.237,13.822c-5.772,2.33-11.916,4.025-18.323,4.872c-0.371-5.507-4.978-9.85-10.539-9.85
							c-5.613,0-10.168,4.343-10.539,9.85c-6.408-0.847-12.551-2.542-18.376-4.872c2.436-4.978,0.635-11.015-4.184-13.822
							c-4.819-2.754-10.962-1.377-14.086,3.177c-4.978-3.866-9.479-8.367-13.345-13.345c4.554-3.124,5.931-9.268,3.178-14.087
							c-2.807-4.819-8.844-6.62-13.822-4.184c-2.33-5.826-4.025-11.969-4.872-18.376c5.508-0.371,9.85-4.925,9.85-10.539
							C4086.519,428.124,4082.177,423.516,4076.669,423.146z"/>
					</defs>
					<clipPath id="SVGID_32_">
						<use xlink:href="#SVGID_31_"  overflow="visible"/>
					</clipPath>
				</g>
				<g>
					<defs>
						<path id="SVGID_33_" d="M4076.669,423.146c0.847-6.408,2.542-12.551,4.872-18.323c4.978,2.436,11.015,0.635,13.822-4.237
							c2.806-4.819,1.377-10.962-3.231-14.034c3.866-5.031,8.367-9.532,13.398-13.398c3.125,4.554,9.214,6.037,14.086,3.23
							c4.819-2.807,6.62-8.897,4.184-13.822c5.825-2.383,11.968-4.078,18.376-4.925c0.371,5.56,4.925,9.85,10.539,9.85
							c5.561,0,10.168-4.29,10.539-9.85c6.408,0.847,12.551,2.542,18.323,4.925c-2.436,4.925-0.635,11.015,4.237,13.822
							c4.819,2.807,10.962,1.324,14.034-3.23c5.031,3.866,9.533,8.367,13.398,13.398c-4.554,3.072-6.037,9.215-3.23,14.034
							c2.807,4.872,8.897,6.673,13.822,4.237c2.383,5.773,4.078,11.915,4.925,18.323c-5.561,0.371-9.85,4.978-9.85,10.539
							c0,5.613,4.29,10.168,9.85,10.539c-0.847,6.408-2.542,12.551-4.925,18.376c-4.925-2.436-11.015-0.635-13.822,4.184
							c-2.807,4.872-1.324,10.962,3.23,14.087c-3.866,5.031-8.367,9.533-13.398,13.398c-3.071-4.607-9.214-6.037-14.034-3.23
							c-4.872,2.807-6.673,8.844-4.237,13.822c-5.772,2.33-11.916,4.025-18.323,4.872c-0.371-5.507-4.978-9.85-10.539-9.85
							c-5.613,0-10.168,4.343-10.539,9.85c-6.408-0.847-12.551-2.542-18.376-4.872c2.436-4.978,0.635-11.015-4.184-13.822
							c-4.819-2.754-10.962-1.377-14.086,3.177c-4.978-3.866-9.479-8.367-13.345-13.345c4.554-3.124,5.931-9.268,3.178-14.087
							c-2.807-4.819-8.844-6.62-13.822-4.184c-2.33-5.826-4.025-11.969-4.872-18.376c5.508-0.371,9.85-4.925,9.85-10.539
							C4086.519,428.124,4082.177,423.516,4076.669,423.146z"/>
					</defs>
					<use xlink:href="#SVGID_33_"  overflow="visible" fill="#47763B"/>
					<clipPath id="SVGID_34_">
						<use xlink:href="#SVGID_33_"  overflow="visible"/>
					</clipPath>
					<path clip-path="url(#SVGID_34_)" fill="#FFFFFF" stroke="#FFFFFF" stroke-width="4" stroke-miterlimit="10" d="
						M4316.213,349.011l-46.441,114.417c0,0-4.884,7.615-13.197,1.913l-46.425-52.196l-17.959-13.37l-31.17-17.62
						c0,0-4.766-2.797-4.5-6.851c0.266-4.054,6.947-4.995,6.947-4.995l142.459-26.524
						C4305.927,343.785,4317.734,341.092,4316.213,349.011z"/>
					<path clip-path="url(#SVGID_34_)" fill="#47763B" stroke="#FFFFFF" stroke-width="4" stroke-miterlimit="10" d="
						M4199.028,448.455c0,0-1.561-0.454-2.336-7.104c-0.775-6.649-4.501-41.577-4.501-41.577l89.774-35.445
						c0,0,5.158-1.917,4.455,0.856c0,0,0.73,0.653-2.188,2.488s-73.726,44.514-73.726,44.514"/>
					<path clip-path="url(#SVGID_34_)" fill="#47763B" stroke="#FFFFFF" stroke-width="4" stroke-miterlimit="10" d="
						M4227.951,433.158l-25.306,15.498c0,0-1.929,0.954-3.617-0.2l11.129-35.677"/>
					<use xlink:href="#SVGID_33_"  overflow="visible" fill="none" stroke="#FFFFFF" stroke-width="4" stroke-miterlimit="10"/>
				</g>
				<g>
					<defs>
						<path id="SVGID_35_" d="M4076.669,423.146c0.847-6.408,2.542-12.551,4.872-18.323c4.978,2.436,11.015,0.635,13.822-4.237
							c2.806-4.819,1.377-10.962-3.231-14.034c3.866-5.031,8.367-9.532,13.398-13.398c3.125,4.554,9.214,6.037,14.086,3.23
							c4.819-2.807,6.62-8.897,4.184-13.822c5.825-2.383,11.968-4.078,18.376-4.925c0.371,5.56,4.925,9.85,10.539,9.85
							c5.561,0,10.168-4.29,10.539-9.85c6.408,0.847,12.551,2.542,18.323,4.925c-2.436,4.925-0.635,11.015,4.237,13.822
							c4.819,2.807,10.962,1.324,14.034-3.23c5.031,3.866,9.533,8.367,13.398,13.398c-4.554,3.072-6.037,9.215-3.23,14.034
							c2.807,4.872,8.897,6.673,13.822,4.237c2.383,5.773,4.078,11.915,4.925,18.323c-5.561,0.371-9.85,4.978-9.85,10.539
							c0,5.613,4.29,10.168,9.85,10.539c-0.847,6.408-2.542,12.551-4.925,18.376c-4.925-2.436-11.015-0.635-13.822,4.184
							c-2.807,4.872-1.324,10.962,3.23,14.087c-3.866,5.031-8.367,9.533-13.398,13.398c-3.071-4.607-9.214-6.037-14.034-3.23
							c-4.872,2.807-6.673,8.844-4.237,13.822c-5.772,2.33-11.916,4.025-18.323,4.872c-0.371-5.507-4.978-9.85-10.539-9.85
							c-5.613,0-10.168,4.343-10.539,9.85c-6.408-0.847-12.551-2.542-18.376-4.872c2.436-4.978,0.635-11.015-4.184-13.822
							c-4.819-2.754-10.962-1.377-14.086,3.177c-4.978-3.866-9.479-8.367-13.345-13.345c4.554-3.124,5.931-9.268,3.178-14.087
							c-2.807-4.819-8.844-6.62-13.822-4.184c-2.33-5.826-4.025-11.969-4.872-18.376c5.508-0.371,9.85-4.925,9.85-10.539
							C4086.519,428.124,4082.177,423.516,4076.669,423.146z"/>
					</defs>
					<clipPath id="SVGID_36_">
						<use xlink:href="#SVGID_35_"  overflow="visible"/>
					</clipPath>
				</g>
			</g>
		</g>
		<g>
			<g opacity="0.95">
				<g>
					<defs>
						<path id="SVGID_37_" d="M4263.32,538.565c-6.408-0.847-12.551-2.542-18.323-4.872c2.436-4.978,0.635-11.015-4.237-13.822
							c-4.819-2.807-10.962-1.377-14.034,3.231c-5.031-3.866-9.533-8.367-13.398-13.398c4.554-3.124,6.038-9.215,3.23-14.087
							c-2.807-4.819-8.897-6.62-13.822-4.184c-2.383-5.825-4.078-11.968-4.925-18.376c5.561-0.371,9.85-4.925,9.85-10.539
							c0-5.56-4.29-10.168-9.85-10.539c0.847-6.408,2.542-12.551,4.925-18.323c4.925,2.436,11.015,0.635,13.822-4.237
							c2.807-4.819,1.324-10.962-3.23-14.034c3.866-5.031,8.368-9.532,13.398-13.398c3.071,4.554,9.215,6.037,14.034,3.23
							c4.872-2.807,6.673-8.897,4.237-13.822c5.772-2.383,11.915-4.078,18.323-4.925c0.371,5.561,4.978,9.85,10.539,9.85
							c5.613,0,10.168-4.29,10.539-9.85c6.408,0.848,12.551,2.542,18.376,4.925c-2.436,4.925-0.636,11.015,4.184,13.822
							c4.872,2.807,10.962,1.324,14.086-3.23c5.031,3.866,9.533,8.367,13.398,13.398c-4.607,3.072-6.037,9.215-3.23,14.034
							c2.807,4.872,8.844,6.673,13.822,4.237c2.33,5.772,4.024,11.915,4.872,18.323c-5.507,0.37-9.85,4.978-9.85,10.539
							c0,5.613,4.342,10.168,9.85,10.539c-0.847,6.408-2.542,12.551-4.872,18.376c-4.978-2.436-11.016-0.635-13.822,4.184
							c-2.754,4.819-1.377,10.962,3.178,14.087c-3.866,4.978-8.368,9.48-13.346,13.345c-3.125-4.554-9.268-5.931-14.086-3.178
							c-4.819,2.807-6.62,8.844-4.184,13.822c-5.826,2.33-11.969,4.025-18.376,4.872c-0.371-5.508-4.925-9.85-10.539-9.85
							C4268.298,528.715,4263.69,533.058,4263.32,538.565z"/>
					</defs>
					<clipPath id="SVGID_38_">
						<use xlink:href="#SVGID_37_"  overflow="visible"/>
					</clipPath>
				</g>
				<g>
					<defs>
						<path id="SVGID_39_" d="M4263.32,538.565c-6.408-0.847-12.551-2.542-18.323-4.872c2.436-4.978,0.635-11.015-4.237-13.822
							c-4.819-2.807-10.962-1.377-14.034,3.231c-5.031-3.866-9.533-8.367-13.398-13.398c4.554-3.124,6.038-9.215,3.23-14.087
							c-2.807-4.819-8.897-6.62-13.822-4.184c-2.383-5.825-4.078-11.968-4.925-18.376c5.561-0.371,9.85-4.925,9.85-10.539
							c0-5.56-4.29-10.168-9.85-10.539c0.847-6.408,2.542-12.551,4.925-18.323c4.925,2.436,11.015,0.635,13.822-4.237
							c2.807-4.819,1.324-10.962-3.23-14.034c3.866-5.031,8.368-9.532,13.398-13.398c3.071,4.554,9.215,6.037,14.034,3.23
							c4.872-2.807,6.673-8.897,4.237-13.822c5.772-2.383,11.915-4.078,18.323-4.925c0.371,5.561,4.978,9.85,10.539,9.85
							c5.613,0,10.168-4.29,10.539-9.85c6.408,0.848,12.551,2.542,18.376,4.925c-2.436,4.925-0.636,11.015,4.184,13.822
							c4.872,2.807,10.962,1.324,14.086-3.23c5.031,3.866,9.533,8.367,13.398,13.398c-4.607,3.072-6.037,9.215-3.23,14.034
							c2.807,4.872,8.844,6.673,13.822,4.237c2.33,5.772,4.024,11.915,4.872,18.323c-5.507,0.37-9.85,4.978-9.85,10.539
							c0,5.613,4.342,10.168,9.85,10.539c-0.847,6.408-2.542,12.551-4.872,18.376c-4.978-2.436-11.016-0.635-13.822,4.184
							c-2.754,4.819-1.377,10.962,3.178,14.087c-3.866,4.978-8.368,9.48-13.346,13.345c-3.125-4.554-9.268-5.931-14.086-3.178
							c-4.819,2.807-6.62,8.844-4.184,13.822c-5.826,2.33-11.969,4.025-18.376,4.872c-0.371-5.508-4.925-9.85-10.539-9.85
							C4268.298,528.715,4263.69,533.058,4263.32,538.565z"/>
					</defs>
					<use xlink:href="#SVGID_39_"  overflow="visible" fill="#47763B"/>
					<clipPath id="SVGID_40_">
						<use xlink:href="#SVGID_39_"  overflow="visible"/>
					</clipPath>
					<path clip-path="url(#SVGID_40_)" fill="#47763B" stroke="#47763B" stroke-width="4" stroke-miterlimit="10" d="
						M4319.048,346.176l-46.441,114.417c0,0-4.884,7.615-13.197,1.913l-46.424-52.196l-17.959-13.37l-31.17-17.62
						c0,0-4.766-2.797-4.5-6.851c0.266-4.054,6.947-4.995,6.947-4.995l142.459-26.524
						C4308.761,340.95,4320.569,338.258,4319.048,346.176z"/>
					<path clip-path="url(#SVGID_40_)" fill="#47763B" stroke="#47763B" stroke-width="4" stroke-miterlimit="10" d="
						M4201.863,445.621c0,0-1.561-0.454-2.336-7.104c-0.775-6.649-4.501-41.577-4.501-41.577l89.775-35.445
						c0,0,5.158-1.917,4.454,0.856c0,0,0.73,0.653-2.188,2.488c-2.918,1.835-73.726,44.514-73.726,44.514"/>
					<path clip-path="url(#SVGID_40_)" fill="#47763B" stroke="#47763B" stroke-width="4" stroke-miterlimit="10" d="
						M4230.786,430.323l-25.306,15.498c0,0-1.929,0.954-3.616-0.2l11.129-35.677"/>
					<use xlink:href="#SVGID_39_"  overflow="visible" fill="none" stroke="#47763B" stroke-width="4" stroke-miterlimit="10"/>
				</g>
				<g>
					<defs>
						<path id="SVGID_41_" d="M4263.32,538.565c-6.408-0.847-12.551-2.542-18.323-4.872c2.436-4.978,0.635-11.015-4.237-13.822
							c-4.819-2.807-10.962-1.377-14.034,3.231c-5.031-3.866-9.533-8.367-13.398-13.398c4.554-3.124,6.038-9.215,3.23-14.087
							c-2.807-4.819-8.897-6.62-13.822-4.184c-2.383-5.825-4.078-11.968-4.925-18.376c5.561-0.371,9.85-4.925,9.85-10.539
							c0-5.56-4.29-10.168-9.85-10.539c0.847-6.408,2.542-12.551,4.925-18.323c4.925,2.436,11.015,0.635,13.822-4.237
							c2.807-4.819,1.324-10.962-3.23-14.034c3.866-5.031,8.368-9.532,13.398-13.398c3.071,4.554,9.215,6.037,14.034,3.23
							c4.872-2.807,6.673-8.897,4.237-13.822c5.772-2.383,11.915-4.078,18.323-4.925c0.371,5.561,4.978,9.85,10.539,9.85
							c5.613,0,10.168-4.29,10.539-9.85c6.408,0.848,12.551,2.542,18.376,4.925c-2.436,4.925-0.636,11.015,4.184,13.822
							c4.872,2.807,10.962,1.324,14.086-3.23c5.031,3.866,9.533,8.367,13.398,13.398c-4.607,3.072-6.037,9.215-3.23,14.034
							c2.807,4.872,8.844,6.673,13.822,4.237c2.33,5.772,4.024,11.915,4.872,18.323c-5.507,0.37-9.85,4.978-9.85,10.539
							c0,5.613,4.342,10.168,9.85,10.539c-0.847,6.408-2.542,12.551-4.872,18.376c-4.978-2.436-11.016-0.635-13.822,4.184
							c-2.754,4.819-1.377,10.962,3.178,14.087c-3.866,4.978-8.368,9.48-13.346,13.345c-3.125-4.554-9.268-5.931-14.086-3.178
							c-4.819,2.807-6.62,8.844-4.184,13.822c-5.826,2.33-11.969,4.025-18.376,4.872c-0.371-5.508-4.925-9.85-10.539-9.85
							C4268.298,528.715,4263.69,533.058,4263.32,538.565z"/>
					</defs>
					<clipPath id="SVGID_42_">
						<use xlink:href="#SVGID_41_"  overflow="visible"/>
					</clipPath>
				</g>
			</g>
			<g>
				<g>
					<defs>
						<path id="SVGID_43_" d="M4260.485,541.4c-6.408-0.847-12.551-2.542-18.324-4.872c2.436-4.978,0.636-11.015-4.236-13.822
							c-4.819-2.807-10.962-1.377-14.034,3.231c-5.031-3.866-9.532-8.367-13.398-13.398c4.554-3.124,6.037-9.215,3.23-14.087
							c-2.807-4.819-8.897-6.62-13.822-4.184c-2.383-5.825-4.078-11.968-4.925-18.376c5.561-0.371,9.85-4.925,9.85-10.539
							c0-5.56-4.29-10.168-9.85-10.539c0.847-6.408,2.542-12.551,4.925-18.323c4.925,2.436,11.015,0.635,13.822-4.237
							c2.807-4.819,1.324-10.962-3.23-14.034c3.866-5.031,8.367-9.532,13.398-13.398c3.072,4.554,9.215,6.037,14.034,3.23
							c4.872-2.807,6.673-8.897,4.236-13.822c5.772-2.383,11.916-4.078,18.324-4.925c0.371,5.561,4.978,9.85,10.539,9.85
							c5.613,0,10.167-4.29,10.538-9.85c6.408,0.848,12.551,2.542,18.377,4.925c-2.437,4.925-0.636,11.015,4.183,13.822
							c4.872,2.807,10.962,1.324,14.087-3.23c5.031,3.866,9.533,8.367,13.398,13.398c-4.607,3.072-6.038,9.215-3.23,14.034
							c2.807,4.872,8.844,6.673,13.822,4.237c2.33,5.772,4.025,11.915,4.872,18.323c-5.507,0.37-9.85,4.978-9.85,10.539
							c0,5.613,4.343,10.168,9.85,10.539c-0.847,6.408-2.542,12.551-4.872,18.376c-4.978-2.436-11.015-0.635-13.822,4.184
							c-2.754,4.819-1.377,10.962,3.177,14.087c-3.866,4.978-8.367,9.48-13.345,13.345c-3.125-4.554-9.268-5.931-14.087-3.178
							c-4.819,2.807-6.62,8.844-4.184,13.822c-5.825,2.33-11.968,4.025-18.376,4.872c-0.371-5.508-4.925-9.85-10.538-9.85
							C4265.463,531.55,4260.856,535.893,4260.485,541.4z"/>
					</defs>
					<clipPath id="SVGID_44_">
						<use xlink:href="#SVGID_43_"  overflow="visible"/>
					</clipPath>
				</g>
				<g>
					<defs>
						<path id="SVGID_45_" d="M4260.485,541.4c-6.408-0.847-12.551-2.542-18.324-4.872c2.436-4.978,0.636-11.015-4.236-13.822
							c-4.819-2.807-10.962-1.377-14.034,3.231c-5.031-3.866-9.532-8.367-13.398-13.398c4.554-3.124,6.037-9.215,3.23-14.087
							c-2.807-4.819-8.897-6.62-13.822-4.184c-2.383-5.825-4.078-11.968-4.925-18.376c5.561-0.371,9.85-4.925,9.85-10.539
							c0-5.56-4.29-10.168-9.85-10.539c0.847-6.408,2.542-12.551,4.925-18.323c4.925,2.436,11.015,0.635,13.822-4.237
							c2.807-4.819,1.324-10.962-3.23-14.034c3.866-5.031,8.367-9.532,13.398-13.398c3.072,4.554,9.215,6.037,14.034,3.23
							c4.872-2.807,6.673-8.897,4.236-13.822c5.772-2.383,11.916-4.078,18.324-4.925c0.371,5.561,4.978,9.85,10.539,9.85
							c5.613,0,10.167-4.29,10.538-9.85c6.408,0.848,12.551,2.542,18.377,4.925c-2.437,4.925-0.636,11.015,4.183,13.822
							c4.872,2.807,10.962,1.324,14.087-3.23c5.031,3.866,9.533,8.367,13.398,13.398c-4.607,3.072-6.038,9.215-3.23,14.034
							c2.807,4.872,8.844,6.673,13.822,4.237c2.33,5.772,4.025,11.915,4.872,18.323c-5.507,0.37-9.85,4.978-9.85,10.539
							c0,5.613,4.343,10.168,9.85,10.539c-0.847,6.408-2.542,12.551-4.872,18.376c-4.978-2.436-11.015-0.635-13.822,4.184
							c-2.754,4.819-1.377,10.962,3.177,14.087c-3.866,4.978-8.367,9.48-13.345,13.345c-3.125-4.554-9.268-5.931-14.087-3.178
							c-4.819,2.807-6.62,8.844-4.184,13.822c-5.825,2.33-11.968,4.025-18.376,4.872c-0.371-5.508-4.925-9.85-10.538-9.85
							C4265.463,531.55,4260.856,535.893,4260.485,541.4z"/>
					</defs>
					<use xlink:href="#SVGID_45_"  overflow="visible" fill="#47763B"/>
					<clipPath id="SVGID_46_">
						<use xlink:href="#SVGID_45_"  overflow="visible"/>
					</clipPath>
					<path clip-path="url(#SVGID_46_)" fill="#FFFFFF" stroke="#FFFFFF" stroke-width="4" stroke-miterlimit="10" d="
						M4316.213,349.011l-46.441,114.417c0,0-4.884,7.615-13.197,1.913l-46.425-52.196l-17.959-13.37l-31.17-17.62
						c0,0-4.766-2.797-4.5-6.851c0.266-4.054,6.947-4.995,6.947-4.995l142.459-26.524
						C4305.927,343.785,4317.734,341.092,4316.213,349.011z"/>
					<path clip-path="url(#SVGID_46_)" fill="#47763B" stroke="#FFFFFF" stroke-width="4" stroke-miterlimit="10" d="
						M4199.028,448.455c0,0-1.561-0.454-2.336-7.104c-0.775-6.649-4.501-41.577-4.501-41.577l89.774-35.445
						c0,0,5.158-1.917,4.455,0.856c0,0,0.73,0.653-2.188,2.488s-73.726,44.514-73.726,44.514"/>
					<path clip-path="url(#SVGID_46_)" fill="#47763B" stroke="#FFFFFF" stroke-width="4" stroke-miterlimit="10" d="
						M4227.951,433.158l-25.306,15.498c0,0-1.929,0.954-3.617-0.2l11.129-35.677"/>
					<use xlink:href="#SVGID_45_"  overflow="visible" fill="none" stroke="#FFFFFF" stroke-width="4" stroke-miterlimit="10"/>
				</g>
				<g>
					<defs>
						<path id="SVGID_47_" d="M4260.485,541.4c-6.408-0.847-12.551-2.542-18.324-4.872c2.436-4.978,0.636-11.015-4.236-13.822
							c-4.819-2.807-10.962-1.377-14.034,3.231c-5.031-3.866-9.532-8.367-13.398-13.398c4.554-3.124,6.037-9.215,3.23-14.087
							c-2.807-4.819-8.897-6.62-13.822-4.184c-2.383-5.825-4.078-11.968-4.925-18.376c5.561-0.371,9.85-4.925,9.85-10.539
							c0-5.56-4.29-10.168-9.85-10.539c0.847-6.408,2.542-12.551,4.925-18.323c4.925,2.436,11.015,0.635,13.822-4.237
							c2.807-4.819,1.324-10.962-3.23-14.034c3.866-5.031,8.367-9.532,13.398-13.398c3.072,4.554,9.215,6.037,14.034,3.23
							c4.872-2.807,6.673-8.897,4.236-13.822c5.772-2.383,11.916-4.078,18.324-4.925c0.371,5.561,4.978,9.85,10.539,9.85
							c5.613,0,10.167-4.29,10.538-9.85c6.408,0.848,12.551,2.542,18.377,4.925c-2.437,4.925-0.636,11.015,4.183,13.822
							c4.872,2.807,10.962,1.324,14.087-3.23c5.031,3.866,9.533,8.367,13.398,13.398c-4.607,3.072-6.038,9.215-3.23,14.034
							c2.807,4.872,8.844,6.673,13.822,4.237c2.33,5.772,4.025,11.915,4.872,18.323c-5.507,0.37-9.85,4.978-9.85,10.539
							c0,5.613,4.343,10.168,9.85,10.539c-0.847,6.408-2.542,12.551-4.872,18.376c-4.978-2.436-11.015-0.635-13.822,4.184
							c-2.754,4.819-1.377,10.962,3.177,14.087c-3.866,4.978-8.367,9.48-13.345,13.345c-3.125-4.554-9.268-5.931-14.087-3.178
							c-4.819,2.807-6.62,8.844-4.184,13.822c-5.825,2.33-11.968,4.025-18.376,4.872c-0.371-5.508-4.925-9.85-10.538-9.85
							C4265.463,531.55,4260.856,535.893,4260.485,541.4z"/>
					</defs>
					<clipPath id="SVGID_48_">
						<use xlink:href="#SVGID_47_"  overflow="visible"/>
					</clipPath>
				</g>
			</g>
		</g>
	</g>
</g>
<g id="Capa_4" display="none">
	<g display="inline">
		<circle fill="#FFFFFF" cx="4162" cy="674.564" r="11.443"/>
		<circle fill="#808080" cx="4198" cy="674.564" r="11.443"/>
		<circle fill="#FFFFFF" cx="4234" cy="674.564" r="11.443"/>
		<circle fill="#FFFFFF" cx="4270" cy="674.564" r="11.443"/>
		<circle fill="#FFFFFF" cx="4306" cy="674.564" r="11.443"/>
	</g>
</g>
<g id="Capa_7">
	<circle fill="#2D2828" cx="100" cy="100" r="100"/>
	<g>
		<path fill="#FFFFFF" d="M58.789,105.456c-1.817-0.876-3.082-2.723-3.11-4.877c-0.039-3.033,2.454-6.453,5.487-6.493l77.591-0.084
			c3.034-0.04,5.524,2.387,5.563,5.419c0.04,3.033-0.906,6.453-3.939,6.492l-79.139,0.086
			C60.363,106.01,59.53,105.813,58.789,105.456z"/>
		<path fill="#FFFFFF" d="M58.789,80.456c-1.817-0.876-3.082-2.723-3.11-4.877c-0.039-3.033,2.454-6.453,5.487-6.493l77.591-0.084
			c3.034-0.04,5.524,2.387,5.563,5.419c0.04,3.033-0.906,6.453-3.939,6.492l-79.139,0.086C60.363,81.01,59.53,80.813,58.789,80.456z
			"/>
		<path fill="#FFFFFF" d="M58.789,130.456c-1.817-0.876-3.082-2.723-3.11-4.877c-0.039-3.033,2.454-6.453,5.487-6.493l77.591-0.084
			c3.034-0.04,5.524,2.387,5.563,5.419c0.04,3.033-0.906,6.453-3.939,6.492l-79.139,0.086
			C60.363,131.01,59.53,130.813,58.789,130.456z"/>
	</g>
	<g>
		<line fill="#627345" x1="-177.903" y1="49.84" x2="-177.903" y2="44.527"/>
		<path fill="#627345" d="M-186.915,45.174c0.009,0.007,0.019,0.014,0.028,0.021c-0.013-0.01-0.026-0.02-0.039-0.031
			C-186.921,45.167-186.918,45.171-186.915,45.174z"/>
	</g>
</g>
</svg>
