<?xml version="1.0" encoding="utf-8"?>
<!-- Generator: Adobe Illustrator 17.0.0, SVG Export Plug-In . SVG Version: 6.00 Build 0)  -->
<!DOCTYPE svg PUBLIC "-//W3C//DTD SVG 1.1//EN" "http://www.w3.org/Graphics/SVG/1.1/DTD/svg11.dtd">
<svg version="1.1" id="Capa_1" xmlns="http://www.w3.org/2000/svg" xmlns:xlink="http://www.w3.org/1999/xlink" x="0px" y="0px"
	 width="1024px" height="768px" viewBox="0 0 1024 768" enable-background="new 0 0 1024 768" xml:space="preserve">
<path fill="#8FB33B" d="M289.218,224.53c4.703-8.146,14.796-11.232,23.173-7.368c1.573-4.496,2.821-9.144,3.72-13.916
	c-9.183-0.846-16.375-8.563-16.375-17.967s7.193-17.12,16.375-17.967c-0.898-4.772-2.147-9.419-3.72-13.916
	c-8.377,3.864-18.469,0.779-23.173-7.368c-4.7-8.14-2.333-18.415,5.189-23.741c-3.137-3.64-6.54-7.044-10.181-10.181
	c-5.326,7.522-15.601,9.888-23.741,5.189c-8.146-4.703-11.232-14.796-7.368-23.173c-4.496-1.573-9.144-2.821-13.916-3.72
	c-0.846,9.183-8.563,16.375-17.967,16.375s-17.12-7.193-17.967-16.375c-4.772,0.898-9.419,2.147-13.916,3.72
	c3.864,8.377,0.779,18.469-7.368,23.173c-8.14,4.7-18.415,2.333-23.741-5.189c-3.64,3.137-7.044,6.54-10.181,10.181
	c7.522,5.326,9.888,15.601,5.189,23.741c-4.703,8.146-14.796,11.232-23.173,7.368c-1.573,4.496-2.821,9.144-3.72,13.916
	c9.183,0.846,16.375,8.563,16.375,17.967s-7.193,17.12-16.375,17.967c0.898,4.772,2.147,9.419,3.72,13.916
	c8.377-3.864,18.469-0.779,23.173,7.368c4.7,8.14,2.333,18.415-5.189,23.741c3.137,3.64,6.54,7.044,10.181,10.181
	c5.326-7.522,15.601-9.888,23.741-5.189c8.146,4.703,11.232,14.796,7.368,23.173c4.496,1.573,9.144,2.822,13.916,3.72
	c0.846-9.183,8.563-16.375,17.967-16.375s17.12,7.193,17.967,16.375c4.772-0.898,9.419-2.147,13.916-3.72
	c-3.864-8.377-0.779-18.469,7.368-23.173c8.14-4.7,18.415-2.333,23.741,5.189c3.64-3.137,7.044-6.54,10.181-10.181
	C286.885,242.944,284.518,232.67,289.218,224.53z"/>
<circle fill="#FFFFFF" cx="221.235" cy="185.279" r="60.449"/>
<path fill="#DC9728" d="M456.218,295.53c4.703-8.146,14.796-11.232,23.173-7.368c1.573-4.496,2.821-9.144,3.72-13.916
	c-9.183-0.846-16.375-8.563-16.375-17.967s7.193-17.12,16.375-17.967c-0.898-4.772-2.147-9.419-3.72-13.916
	c-8.377,3.864-18.469,0.779-23.173-7.368c-4.7-8.14-2.333-18.415,5.189-23.741c-3.137-3.64-6.54-7.044-10.181-10.181
	c-5.326,7.522-15.601,9.888-23.741,5.189c-8.146-4.703-11.232-14.796-7.368-23.173c-4.496-1.573-9.144-2.821-13.916-3.72
	c-0.846,9.183-8.563,16.375-17.967,16.375s-17.12-7.193-17.967-16.375c-4.772,0.898-9.419,2.147-13.916,3.72
	c3.864,8.377,0.779,18.469-7.368,23.173c-8.14,4.7-18.415,2.333-23.741-5.189c-3.64,3.137-7.044,6.54-10.181,10.181
	c7.522,5.326,9.888,15.601,5.189,23.741c-4.703,8.146-14.796,11.232-23.173,7.368c-1.573,4.496-2.821,9.144-3.72,13.916
	c9.183,0.846,16.375,8.563,16.375,17.967s-7.193,17.12-16.375,17.967c0.898,4.772,2.147,9.419,3.72,13.916
	c8.377-3.864,18.469-0.779,23.173,7.368c4.7,8.14,2.333,18.415-5.189,23.741c3.137,3.64,6.54,7.044,10.181,10.181
	c5.326-7.522,15.601-9.888,23.741-5.189c8.146,4.703,11.232,14.796,7.368,23.173c4.496,1.573,9.144,2.822,13.916,3.72
	c0.846-9.183,8.563-16.375,17.967-16.375s17.12,7.193,17.967,16.375c4.772-0.898,9.419-2.147,13.916-3.72
	c-3.864-8.377-0.779-18.469,7.368-23.173c8.14-4.7,18.415-2.333,23.741,5.189c3.64-3.137,7.044-6.54,10.181-10.181
	C453.885,313.944,451.518,303.67,456.218,295.53z"/>
<circle fill="#FFFFFF" cx="388.235" cy="256.279" r="35.116"/>
<g>
	<path fill="#7FBDC2" d="M370.23,147.006c1.845-3.195,5.803-4.405,9.088-2.89c0.617-1.763,1.107-3.586,1.459-5.458
		c-3.601-0.332-6.422-3.358-6.422-7.046c0-3.688,2.821-6.714,6.422-7.046c-0.352-1.872-0.842-3.694-1.459-5.458
		c-3.285,1.515-7.244,0.305-9.088-2.89c-1.843-3.193-0.915-7.222,2.035-9.311c-1.23-1.428-2.565-2.763-3.993-3.993
		c-2.089,2.95-6.118,3.878-9.311,2.035c-3.195-1.845-4.405-5.803-2.89-9.088c-1.763-0.617-3.586-1.107-5.458-1.459
		c-0.332,3.601-3.358,6.422-7.046,6.422s-6.714-2.821-7.046-6.422c-1.872,0.352-3.694,0.842-5.458,1.459
		c1.515,3.285,0.305,7.244-2.89,9.088c-3.193,1.843-7.222,0.915-9.311-2.035c-1.428,1.23-2.763,2.565-3.993,3.993
		c2.95,2.089,3.878,6.118,2.035,9.311c-1.845,3.195-5.803,4.405-9.088,2.89c-0.617,1.763-1.107,3.586-1.459,5.458
		c3.601,0.332,6.422,3.358,6.422,7.046c0,3.688-2.821,6.714-6.422,7.046c0.352,1.872,0.842,3.694,1.459,5.458
		c3.285-1.515,7.244-0.305,9.088,2.89c1.843,3.193,0.915,7.222-2.035,9.311c1.23,1.428,2.565,2.763,3.993,3.993
		c2.089-2.95,6.118-3.878,9.311-2.035c3.195,1.845,4.405,5.803,2.89,9.088c1.763,0.617,3.586,1.107,5.458,1.459
		c0.332-3.601,3.358-6.422,7.046-6.422s6.714,2.821,7.046,6.422c1.872-0.352,3.694-0.842,5.458-1.459
		c-1.515-3.285-0.305-7.244,2.89-9.088c3.193-1.843,7.222-0.915,9.311,2.035c1.428-1.23,2.763-2.565,3.993-3.993
		C369.315,154.228,368.387,150.199,370.23,147.006z"/>
	<circle fill="#FFFFFF" cx="343.568" cy="131.613" r="13.772"/>
</g>
<g>
	<path fill="#B88EBC" d="M709.897,543.47c-4.703,8.146-14.796,11.232-23.173,7.368c-1.573,4.496-2.821,9.144-3.72,13.916
		c9.183,0.846,16.375,8.563,16.375,17.967s-7.193,17.12-16.375,17.967c0.898,4.772,2.147,9.419,3.72,13.916
		c8.377-3.864,18.469-0.779,23.173,7.368c4.7,8.14,2.333,18.415-5.189,23.741c3.137,3.64,6.54,7.044,10.181,10.181
		c5.326-7.522,15.601-9.888,23.741-5.189c8.146,4.703,11.232,14.796,7.368,23.173c4.496,1.573,9.144,2.821,13.916,3.72
		c0.846-9.183,8.563-16.375,17.967-16.375s17.12,7.193,17.967,16.375c4.772-0.898,9.419-2.147,13.916-3.72
		c-3.864-8.377-0.779-18.469,7.368-23.173c8.14-4.7,18.415-2.333,23.741,5.189c3.64-3.137,7.044-6.54,10.181-10.181
		c-7.522-5.326-9.888-15.601-5.189-23.741c4.703-8.146,14.796-11.232,23.173-7.368c1.573-4.496,2.821-9.144,3.72-13.916
		c-9.183-0.846-16.375-8.563-16.375-17.967s7.193-17.12,16.375-17.967c-0.898-4.772-2.147-9.419-3.72-13.916
		c-8.377,3.864-18.469,0.779-23.173-7.368c-4.7-8.14-2.333-18.415,5.189-23.741c-3.137-3.64-6.54-7.044-10.181-10.181
		c-5.326,7.522-15.601,9.888-23.741,5.189c-8.146-4.703-11.232-14.796-7.368-23.173c-4.496-1.573-9.144-2.822-13.916-3.72
		c-0.846,9.183-8.563,16.375-17.967,16.375s-17.12-7.193-17.967-16.375c-4.772,0.898-9.419,2.147-13.916,3.72
		c3.864,8.377,0.779,18.469-7.368,23.173c-8.14,4.7-18.415,2.333-23.741-5.189c-3.64,3.137-7.044,6.54-10.181,10.181
		C712.23,525.056,714.597,535.33,709.897,543.47z"/>
	<circle fill="#FFFFFF" cx="777.88" cy="582.721" r="24.236"/>
</g>
<g>
	<path fill="#8FB33B" d="M503.339,650.704c8.146,4.703,11.232,14.796,7.368,23.173c4.496,1.573,9.144,2.821,13.916,3.72
		c0.846-9.183,8.563-16.375,17.967-16.375s17.12,7.193,17.967,16.375c4.772-0.898,9.419-2.147,13.916-3.72
		c-3.864-8.377-0.779-18.469,7.368-23.173c8.14-4.7,18.415-2.333,23.741,5.189c3.64-3.137,7.044-6.54,10.181-10.181
		c-7.522-5.326-9.888-15.601-5.189-23.741c4.703-8.146,14.796-11.232,23.173-7.368c1.573-4.496,2.821-9.144,3.72-13.916
		c-9.183-0.846-16.375-8.563-16.375-17.967s7.193-17.12,16.375-17.967c-0.898-4.772-2.147-9.419-3.72-13.916
		c-8.377,3.864-18.469,0.779-23.173-7.368c-4.7-8.14-2.333-18.415,5.189-23.741c-3.137-3.64-6.54-7.044-10.181-10.181
		c-5.326,7.522-15.601,9.888-23.741,5.189c-8.146-4.703-11.232-14.796-7.368-23.173c-4.496-1.573-9.144-2.821-13.916-3.72
		c-0.846,9.183-8.563,16.375-17.967,16.375s-17.12-7.193-17.967-16.375c-4.772,0.898-9.419,2.147-13.916,3.72
		c3.864,8.377,0.779,18.469-7.368,23.173c-8.14,4.7-18.415,2.333-23.741-5.189c-3.64,3.137-7.044,6.54-10.181,10.181
		c7.522,5.326,9.888,15.601,5.189,23.741c-4.703,8.146-14.796,11.232-23.173,7.368c-1.573,4.496-2.822,9.144-3.72,13.916
		c9.183,0.846,16.375,8.563,16.375,17.967s-7.193,17.12-16.375,17.967c0.898,4.772,2.147,9.419,3.72,13.916
		c8.377-3.864,18.469-0.779,23.173,7.368c4.7,8.14,2.333,18.415-5.189,23.741c3.137,3.64,6.54,7.044,10.181,10.181
		C484.924,648.371,495.198,646.004,503.339,650.704z"/>
	<circle fill="#FFFFFF" cx="542.589" cy="582.721" r="35.116"/>
</g>
<g>
	<path fill="#65589E" d="M640.998,587.2c0.588,2.196-0.609,4.449-2.701,5.22c0.5,1.037,1.081,2.045,1.743,3.014
		c1.714-1.425,4.262-1.335,5.87,0.272s1.697,4.155,0.272,5.87c0.969,0.662,1.977,1.243,3.014,1.743
		c0.771-2.092,3.024-3.29,5.22-2.701c2.195,0.588,3.546,2.749,3.171,4.945c1.158,0.086,2.322,0.086,3.48,0
		c-0.375-2.196,0.976-4.356,3.171-4.945c2.196-0.588,4.448,0.609,5.22,2.701c1.037-0.5,2.045-1.081,3.014-1.743
		c-1.425-1.714-1.335-4.262,0.272-5.87s4.155-1.697,5.87-0.272c0.662-0.969,1.243-1.977,1.743-3.014
		c-2.092-0.771-3.29-3.024-2.701-5.22c0.588-2.195,2.749-3.546,4.945-3.171c0.086-1.158,0.086-2.322,0-3.48
		c-2.196,0.375-4.357-0.976-4.945-3.171c-0.589-2.196,0.609-4.448,2.701-5.22c-0.5-1.037-1.081-2.045-1.743-3.014
		c-1.714,1.425-4.262,1.335-5.87-0.272s-1.697-4.156-0.272-5.87c-0.969-0.662-1.977-1.243-3.014-1.743
		c-0.771,2.092-3.024,3.29-5.22,2.701c-2.195-0.588-3.546-2.749-3.171-4.945c-1.158-0.086-2.322-0.086-3.48,0
		c0.375,2.196-0.976,4.357-3.171,4.945c-2.196,0.589-4.449-0.609-5.22-2.701c-1.037,0.5-2.045,1.081-3.014,1.743
		c1.425,1.714,1.335,4.262-0.272,5.87s-4.155,1.697-5.87,0.272c-0.662,0.969-1.243,1.977-1.743,3.014
		c2.092,0.771,3.29,3.024,2.701,5.22c-0.588,2.195-2.749,3.546-4.945,3.171c-0.086,1.158-0.086,2.322,0,3.48
		C638.249,583.654,640.41,585.005,640.998,587.2z"/>
	<circle fill="#FFFFFF" cx="659.326" cy="582.289" r="8.488"/>
</g>
<g>
</g>
<g>
</g>
<g>
</g>
<g>
</g>
<g>
</g>
<g>
</g>
<g>
</g>
<g>
</g>
<g>
</g>
<g>
</g>
<g>
</g>
<g>
</g>
<g>
</g>
<g>
</g>
<g>
</g>
</svg>
