<?xml version="1.0" encoding="utf-8"?>
<!-- Generator: Adobe Illustrator 17.0.0, SVG Export Plug-In . SVG Version: 6.00 Build 0)  -->
<!DOCTYPE svg PUBLIC "-//W3C//DTD SVG 1.1//EN" "http://www.w3.org/Graphics/SVG/1.1/DTD/svg11.dtd">
<svg version="1.1" id="Capa_2" xmlns="http://www.w3.org/2000/svg" xmlns:xlink="http://www.w3.org/1999/xlink" x="0px" y="0px"
	 width="222.948px" height="70.827px" viewBox="0 0 222.948 70.827" enable-background="new 0 0 222.948 70.827"
	 xml:space="preserve">
<g>
	<circle fill="#57C7D8" stroke="#FFFFFF" stroke-width="1.5" stroke-miterlimit="10" cx="33.383" cy="37.039" r="13.125"/>
	<circle fill="#57C7D8" stroke="#FFFFFF" stroke-width="1.5" stroke-miterlimit="10" cx="33.383" cy="37.039" r="13.125"/>
	
		<radialGradient id="SVGID_1_" cx="34.8279" cy="34.9969" r="29.347" gradientTransform="matrix(1 0 0 1.2605 0 -9.116)" gradientUnits="userSpaceOnUse">
		<stop  offset="0.7968" style="stop-color:#57C7D8"/>
		<stop  offset="1" style="stop-color:#14798D"/>
	</radialGradient>
	<path fill="url(#SVGID_1_)" stroke="#FFFFFF" stroke-width="1.5" stroke-miterlimit="10" d="M32.579,35.414
		c0-12.252,6.994-22.899,17.277-28.317c-4.608-2.428-9.876-3.808-15.473-3.808c-18.087,0-32.75,14.383-32.75,32.125
		c0,17.742,14.663,32.125,32.75,32.125c5.597,0,10.865-1.38,15.473-3.808C39.573,58.312,32.579,47.665,32.579,35.414z"/>
	<circle fill="#FFFFFF" cx="33.383" cy="37.039" r="3.938"/>
	<path fill="none" stroke="#FFFFFF" stroke-width="1.5" stroke-miterlimit="10" d="M31.507,17.302
		c-9.249,9.174-11.249,18.487-9.354,32.862"/>
	<circle fill="#FFFFFF" stroke="#FFFFFF" stroke-miterlimit="10" cx="22.599" cy="31.981" r="1.659"/>
	<path fill="none" stroke="#FFFFFF" stroke-width="1.5" stroke-miterlimit="10" d="M18.197,24.783
		c2.037,6.319,7.568,11.186,14.458,12.584"/>
	<path fill="none" stroke="#FFFFFF" stroke-width="1.5" stroke-miterlimit="10" d="M32.579,35.414c0-6.59,2.038-12.706,5.508-17.804
		c-1.355-0.285-2.759-0.446-4.204-0.446c-10.701,0-19.375,8.227-19.375,18.375c0,10.148,8.675,18.375,19.375,18.375
		c1.497,0,2.948-0.177,4.348-0.481C34.671,48.293,32.579,42.096,32.579,35.414z"/>
	<g>
		<path fill="#57C7D8" d="M63.933,47.281c-3.076,0-5.228-0.629-6.452-1.888c-1.226-1.258-1.838-3.467-1.838-6.626v-5.129
			c0-3.173,0.609-5.388,1.829-6.647c1.219-1.258,3.359-1.887,6.423-1.887h1.428c3.076,0,5.227,0.629,6.452,1.887
			c1.225,1.259,1.838,3.474,1.838,6.647V36.9L58.81,36.921c-0.013,0.218-0.022,0.461-0.029,0.728s-0.01,0.64-0.01,1.118
			c0,2.229,0.339,3.724,1.017,4.482s2.047,1.139,4.106,1.139h1.428c1.838,0,3.115-0.277,3.832-0.831s1.134-1.521,1.251-2.902h3.168
			c-0.156,2.339-0.873,4.027-2.15,5.067c-1.278,1.039-3.299,1.559-6.062,1.559H63.933z M58.81,34.089h11.653v-0.841
			c0-2.024-0.345-3.398-1.036-4.124c-0.69-0.725-2.06-1.087-4.105-1.087h-1.428c-2.033,0-3.39,0.362-4.067,1.087
			s-1.017,2.1-1.017,4.124V34.089z"/>
		<path fill="#57C7D8" d="M92.794,43.67c-0.482,1.258-1.241,2.175-2.277,2.749c-1.037,0.574-2.441,0.861-4.214,0.861
			c-2.934,0-5.006-0.639-6.218-1.918c-1.213-1.278-1.818-3.478-1.818-6.596v-5.129c0-3.132,0.605-5.337,1.818-6.616
			c1.212-1.279,3.284-1.918,6.218-1.918c1.694,0,3.037,0.263,4.027,0.79c0.991,0.527,1.772,1.385,2.347,2.575V16.446h3.05v30.547
			h-2.933V43.67z M92.677,37.967v-3.529c0-2.257-0.499-3.895-1.496-4.914c-0.997-1.019-2.591-1.528-4.78-1.528
			c-1.994,0-3.321,0.376-3.979,1.128c-0.658,0.752-0.987,2.496-0.987,5.231v3.693c0,2.722,0.329,4.459,0.987,5.211
			s1.985,1.128,3.979,1.128c2.189,0,3.783-0.51,4.78-1.528S92.677,40.21,92.677,37.967z"/>
		<path fill="#57C7D8" d="M118.878,25.391v21.603h-2.934V44.06c-0.482,1.095-1.277,1.904-2.385,2.431
			c-1.108,0.526-2.568,0.79-4.38,0.79c-2.686,0-4.569-0.57-5.651-1.713c-1.082-1.142-1.623-3.142-1.623-6.001V25.391h3.031V38.89
			c0,2.243,0.319,3.721,0.958,4.432s1.884,1.066,3.734,1.066c2.138,0,3.698-0.513,4.683-1.539c0.984-1.025,1.477-2.652,1.477-4.882
			V25.391H118.878z"/>
	</g>
	<path fill="#14798D" d="M161.065,25.414v17.54c0,0.736-0.599,1.335-1.335,1.335h-13.08c-0.736,0-1.335-0.599-1.335-1.335v-17.54h-3
		v17.54c0,0.736-0.599,1.335-1.335,1.335H127.9c-0.736,0-1.335-0.599-1.335-1.335v-17.54h-3v17.54c0,2.391,1.944,4.335,4.335,4.335
		h13.08c1.089,0,2.073-0.417,2.835-1.082c0.762,0.665,1.746,1.082,2.835,1.082h13.08c2.391,0,4.335-1.944,4.335-4.335v-17.54
		H161.065z"/>
	<path fill="#14798D" d="M216.98,47.289h-21.915v-21.5h21.915c2.391,0,4.335,1.944,4.335,4.334v3.581
		c0,1.083-0.399,2.074-1.058,2.834c0.658,0.761,1.058,1.752,1.058,2.835v3.58C221.315,45.344,219.371,47.289,216.98,47.289z
		 M198.065,44.289h18.915c0.736,0,1.335-0.599,1.335-1.335v-3.58c0-0.736-0.599-1.335-1.335-1.335h-17.04v-3h17.04
		c0.736,0,1.335-0.599,1.335-1.334v-3.581c0-0.736-0.599-1.334-1.335-1.334h-18.915V44.289z"/>
	<path fill="#14798D" d="M171.025,28.789h21.665v-3h-21.665c-2.391,0-4.335,1.944-4.335,4.334v12.831
		c0,2.391,1.944,4.335,4.335,4.335h21.665v-3h-21.665c-0.736,0-1.335-0.599-1.335-1.335v-4.915h23v-3h-23v-4.916
		C169.69,29.387,170.289,28.789,171.025,28.789z"/>
</g>
</svg>
