<?xml version="1.0" encoding="utf-8"?>
<!-- Generator: Adobe Illustrator 17.0.0, SVG Export Plug-In . SVG Version: 6.00 Build 0)  -->
<!DOCTYPE svg PUBLIC "-//W3C//DTD SVG 1.1//EN" "http://www.w3.org/Graphics/SVG/1.1/DTD/svg11.dtd">
<svg version="1.1" id="Capa_1" xmlns="http://www.w3.org/2000/svg" xmlns:xlink="http://www.w3.org/1999/xlink" x="0px" y="0px"
	 width="135px" height="135px" viewBox="0 0 135 135" enable-background="new 0 0 135 135" xml:space="preserve">
<symbol  id="CorteBamboo" viewBox="-12.435 -3.43 24.869 6.86">
	<path fill="#FFFFFF" d="M12.433-0.104c0.092-5.963-4.586-2.088-11.802-2.088s-13.066-3.726-13.066,2.221s5.85,1.528,13.066,1.528
		S12.328,6.722,12.433-0.104z"/>
</symbol>
<g>
	<g>
		<path fill="#6AA842" d="M52.312,104.473c0,5.168-1.605,9.67-4.815,13.507c-3.419,4.071-7.673,6.107-12.762,6.107
			c-3.393,0-6.381-0.861-8.965-2.584c-1.045-0.887-2.088-1.762-3.132-2.623c-0.287,0.078-0.477,0.861-0.568,2.349
			c-0.092,1.488-0.307,2.231-0.646,2.231h-8.26c-0.313,0-0.47-0.169-0.47-0.509c0,0.027,0.026-0.208,0.078-0.705
			c0.417-4.176,0.626-12.162,0.626-23.959c0-4.828-0.209-11.914-0.626-21.258c-0.262-5.951-0.391-8.56-0.391-7.83
			c0-0.678,0.339-1.057,1.018-1.135c0.94-0.026,2.336-0.078,4.189-0.157c0.365-0.026,1.109-0.117,2.231-0.274
			c0.94-0.157,1.696-0.235,2.271-0.235c0.417,0,0.626,0.301,0.626,0.9c0,0.888-0.066,2.245-0.196,4.071
			c-0.131,1.828-0.196,3.198-0.196,4.111c0,1.358-0.059,3.4-0.176,6.127c-0.117,2.728-0.176,4.77-0.176,6.127
			c0,0.992,0.182,1.488,0.548,1.488c0.182,0,0.378-0.143,0.587-0.431c2.87-3.575,6.668-5.363,11.392-5.363
			c5.402,0,9.774,2.023,13.115,6.068C50.746,94.308,52.312,98.966,52.312,104.473z M43.464,104.121c0-3.105-0.979-5.846-2.936-8.221
			c-2.088-2.531-4.659-3.797-7.712-3.797c-3.132,0-5.742,1.24-7.83,3.719c-2.01,2.349-3.014,5.116-3.014,8.299
			c0,3.237,1.005,6.029,3.014,8.378c2.087,2.454,4.724,3.68,7.908,3.68c3.079,0,5.65-1.265,7.712-3.798
			C42.511,110.032,43.464,107.279,43.464,104.121z"/>
		<g>
			<g>
				<path fill="#242021" d="M63.858,79.025c-0.162-0.502-0.251-1.035-0.251-1.59c0-2.89,2.376-5.233,5.307-5.233
					c2.1,0,3.909,1.205,4.77,2.95c0.743-0.198,1.494-0.378,2.251-0.539c-1.13-2.73-3.846-4.656-7.021-4.656
					c-4.189,0-7.584,3.348-7.584,7.478c0,0.962,0.191,1.879,0.527,2.724C62.513,79.764,63.181,79.386,63.858,79.025z"/>
				<path fill="#242021" d="M71.543,75.778c-0.555-0.854-1.524-1.422-2.629-1.422c-1.725,0-3.123,1.378-3.123,3.079
					c0,0.201,0.021,0.397,0.058,0.588C67.684,77.154,69.585,76.402,71.543,75.778z"/>
				<g>
					<path fill="#242021" d="M118.745,79.025c0.162-0.502,0.251-1.035,0.251-1.59c0-2.89-2.376-5.233-5.307-5.233
						c-2.1,0-3.909,1.205-4.77,2.95c-0.743-0.198-1.494-0.378-2.251-0.539c1.13-2.73,3.846-4.656,7.021-4.656
						c4.189,0,7.584,3.348,7.584,7.478c0,0.962-0.191,1.879-0.527,2.724C120.09,79.764,119.423,79.386,118.745,79.025z"/>
					<path fill="#242021" d="M111.06,75.778c0.555-0.854,1.524-1.422,2.629-1.422c1.725,0,3.123,1.378,3.123,3.079
						c0,0.201-0.021,0.397-0.058,0.588C114.919,77.154,113.018,76.402,111.06,75.778z"/>
				</g>
			</g>
			<g>
				<g>
					<path d="M95.425,49.263c-3.867-0.489-24.91,6.169-26.837,7.583C66.66,58.26,90.896,74.661,93.442,75.374
						c2.546,0.713,25.918-12.593,26.831-14.344C121.186,59.279,100.576,49.914,95.425,49.263z"/>
					<path d="M78.202,67.197c0,0,12.384,9.261,15.209,9.735c2.824,0.474,13.391-5.137,15.603-6.876c0,0-0.726,9.565-0.811,10.686
						c-0.2,2.628-31.166,0.667-30.937-2.349C77.429,76.238,78.202,67.197,78.202,67.197z"/>
				</g>
				<path fill="#6AA842" d="M95.575,59.392c-1.47-0.011-2.929,0.502-4.383,0.755c-1.788,0.311-3.602,0.484-5.406,0.678
					c-3.669,0.395-7.275,0.876-10.778,2.082c-0.193,0.066-0.364,0.33-0.36,0.531c0.063,3.099-0.633,6.11-1.295,9.127
					c-0.512-0.033-1.079-0.028-1.444,0.349c-0.148,0.153-0.147,0.372,0.027,0.506c0.241,0.186,0.512,0.238,0.794,0.265
					c-1.939,2.464-2.349,5.314-0.297,8.127c0.233,0.319,0.648,0.12,0.735-0.188c0.121-0.057,0.203-0.172,0.251-0.32
					c0.709-0.611,0.946-1.96,1.125-2.753c0.284-1.258,0.503-3.055,0.145-4.48c0.141,0.029,0.282,0.054,0.426,0.061
					c0.578,0.031,0.87-0.734,0.379-1.07c-0.264-0.181-0.57-0.287-0.888-0.355c0.126-0.615,0.254-1.23,0.387-1.85
					c0.283-1.317,0.524-2.638,0.724-3.97c0.131-0.873,0.191-1.753,0.232-2.634c0.029-0.625,2.457-1.022,2.926-1.133
					c3.226-0.765,6.58-0.973,9.864-1.363c2.147-0.255,5.581-0.202,6.961-2.105C95.77,59.555,95.702,59.393,95.575,59.392z"/>
			</g>
			<g>
				<g>
					<path d="M86.124,90.08c-2.168-2.487-4.546-3.07-8.482-2.205c-3.972,0.875-7.198,2.861-10.559,6.605
						c-3.316,3.735-5.521,7.025-6.842,11.607c-0.948,4.674-0.638,8.227,0.729,10.878c0.729,0.355,1.512,0.729,2.396,1.394
						c1.521,1.157,2.05,1.977,2.305,2.305c7.671,2.606,13.94-3.954,16.8-8.191c3.216-4.756,4.738-7.662,5.421-12.181
						C88.557,95.875,88.292,92.522,86.124,90.08z M82.306,102.362c-0.419,2.606-1.531,5.057-3.335,7.352
						c-1.932,2.451-4.1,3.963-6.496,4.537c-2.387,0.565-4.2-0.009-5.43-1.731c-1.166-1.613-1.485-3.754-0.984-6.405
						c0.51-2.669,1.695-5.111,3.526-7.316c1.904-2.259,4.018-3.644,6.359-4.173c2.323-0.519,4.073,0.009,5.266,1.576
						C82.361,97.697,82.735,99.747,82.306,102.362z"/>
					<path d="M79.507,102.729c0.251-1.552,0.033-2.765-0.651-3.647c-0.704-0.932-1.742-1.242-3.119-0.934
						c-1.382,0.31-2.635,1.131-3.764,2.472c-1.086,1.305-1.783,2.747-2.085,4.328c-0.301,1.571-0.109,2.839,0.58,3.795
						c0.728,1.018,1.803,1.36,3.217,1.024c1.421-0.337,2.704-1.236,3.844-2.686C78.599,105.723,79.257,104.271,79.507,102.729z"/>
				</g>
				<g>
					<path d="M94.712,100.293c0.683,4.519,2.205,7.425,5.421,12.181c2.861,4.237,9.129,10.796,16.8,8.191
						c0.255-0.328,0.784-1.148,2.305-2.305c0.884-0.665,1.667-1.039,2.396-1.394c1.367-2.651,1.676-6.205,0.729-10.878
						c-1.321-4.583-3.526-7.872-6.842-11.607c-3.362-3.745-6.587-5.731-10.559-6.605c-3.936-0.866-6.314-0.282-8.482,2.205
						C94.311,92.522,94.047,95.875,94.712,100.293z M101.39,96.203c1.194-1.567,2.943-2.095,5.266-1.576
						c2.341,0.528,4.455,1.913,6.359,4.173c1.831,2.205,3.016,4.647,3.526,7.316c0.501,2.651,0.182,4.792-0.984,6.405
						c-1.23,1.722-3.043,2.296-5.43,1.731c-2.396-0.574-4.565-2.086-6.496-4.537c-1.804-2.296-2.915-4.747-3.335-7.352
						C99.869,99.747,100.242,97.697,101.39,96.203z"/>
					<path d="M105.075,107.082c1.14,1.45,2.423,2.349,3.844,2.686c1.414,0.336,2.488-0.007,3.217-1.024
						c0.69-0.956,0.881-2.224,0.58-3.795c-0.303-1.581-1-3.023-2.085-4.328c-1.129-1.341-2.382-2.162-3.764-2.472
						c-1.377-0.309-2.415,0.002-3.119,0.934c-0.684,0.882-0.902,2.095-0.651,3.647C103.346,104.271,104.004,105.723,105.075,107.082
						z"/>
				</g>
			</g>
			<ellipse cx="90.667" cy="124.165" rx="11.9" ry="5.506"/>
		</g>
		<path fill="#FFFFFF" d="M22.702,85.212c0.039,1.564-1.957,0.548-5.037,0.548s-5.576,0.977-5.576-0.583s2.496-0.401,5.576-0.401
			S22.657,83.422,22.702,85.212z"/>
		<path fill="#FFFFFF" d="M53.148,104.406c0.039,1.564-1.957,0.548-5.037,0.548c-3.079,0-5.576,0.977-5.576-0.583
			s2.496-0.401,5.576-0.401C51.19,103.971,53.103,102.616,53.148,104.406z"/>
		<path fill="#FFFFFF" d="M22.702,118.984c0.039,1.564-1.957,0.548-5.037,0.548s-5.576,0.977-5.576-0.583s2.496-0.401,5.576-0.401
			S22.657,117.193,22.702,118.984z"/>
	</g>
	<g>
		<path d="M108.42,39.714c-0.059,0.95-0.196,1.425-0.413,1.425h-5.276c-0.2,0-0.3-0.108-0.3-0.325c0,0.017,0.016-0.133,0.05-0.45
			c0.267-2.667,0.4-7.769,0.4-15.305c0-3.084-0.134-7.61-0.4-13.579c-0.167-3.801-0.25-5.468-0.25-5.001
			c0-0.433,0.217-0.675,0.65-0.725c0.6-0.016,1.492-0.05,2.676-0.1c0.233-0.016,0.708-0.075,1.425-0.175
			c0.6-0.1,1.083-0.15,1.45-0.15c0.267,0,0.4,0.192,0.4,0.575c0,0.567-0.042,1.434-0.125,2.601
			c-0.084,1.167-0.125,2.043-0.125,2.626c0,0.867-0.038,2.172-0.113,3.914c-0.075,1.743-0.113,3.047-0.113,3.914"/>
		
			<use xlink:href="#CorteBamboo"  width="24.869" height="6.86" x="-12.435" y="-3.43" transform="matrix(0.3174 0 0 -0.2437 105.5119 14.8683)" overflow="visible"/>
		
			<use xlink:href="#CorteBamboo"  width="24.869" height="6.86" x="-12.435" y="-3.43" transform="matrix(0.3174 0 0 -0.3174 105.6621 30.9131)" overflow="visible"/>
		<path d="M70.4,39.714c-0.059,0.95-0.196,1.425-0.413,1.425h-5.276c-0.2,0-0.3-0.108-0.3-0.325c0,0.017,0.016-0.133,0.05-0.45
			c0.267-2.667,0.4-7.769,0.4-15.305c0-3.084-0.134-7.61-0.4-13.579c-0.167-3.801-0.25-5.468-0.25-5.001
			c0-0.433,0.217-0.675,0.65-0.725c0.6-0.016,1.492-0.05,2.676-0.1c0.233-0.016,0.708-0.075,1.425-0.175
			c0.6-0.1,1.083-0.15,1.45-0.15c0.267,0,0.4,0.192,0.4,0.575c0,0.567-0.042,1.434-0.125,2.601
			c-0.084,1.167-0.125,2.043-0.125,2.626c0,0.867-0.038,2.172-0.113,3.914c-0.075,1.743-0.113,3.047-0.113,3.914"/>
		
			<use xlink:href="#CorteBamboo"  width="24.869" height="6.86" x="-12.435" y="-3.43" transform="matrix(0.3174 0 0 -0.2338 67.4922 14.8683)" overflow="visible"/>
		
			<use xlink:href="#CorteBamboo"  width="24.869" height="6.86" x="-12.435" y="-3.43" transform="matrix(0.3174 0 0 -0.3174 67.6423 30.9131)" overflow="visible"/>
		<path d="M35.624,41.356L25.391,15.935h6.576l4.901,13.728l4.954-13.728h4.198l4.955,13.728l4.864-13.728h6.612L52.217,41.356
			h-2.613L43.929,25.61L38.2,41.356H35.624z"/>
		<path d="M76.377,41.14V15.935H82.7v11.224l8.558-11.224h7.08l-8.936,11.656l11.152,13.548h-8.198L82.7,29.303V41.14H76.377z"/>
	</g>
</g>
</svg>
