<?xml version="1.0" encoding="utf-8"?>
<!-- Generator: Adobe Illustrator 17.0.0, SVG Export Plug-In . SVG Version: 6.00 Build 0)  -->
<!DOCTYPE svg PUBLIC "-//W3C//DTD SVG 1.1//EN" "http://www.w3.org/Graphics/SVG/1.1/DTD/svg11.dtd">
<svg version="1.1" id="Capa_1" xmlns="http://www.w3.org/2000/svg" xmlns:xlink="http://www.w3.org/1999/xlink" x="0px" y="0px"
	 width="368.505px" height="340.156px" viewBox="112.481 250.569 368.505 340.156"
	 enable-background="new 112.481 250.569 368.505 340.156" xml:space="preserve">
<path fill="#8FB33B" d="M280.707,425.539c4.858-10.627,15.283-14.652,23.936-9.611c1.624-5.866,2.914-11.928,3.842-18.154
	c-9.485-1.104-16.915-11.171-16.915-23.438s7.43-22.334,16.915-23.438c-0.928-6.225-2.218-12.288-3.842-18.153
	c-8.653,5.041-19.078,1.016-23.936-9.611c-4.855-10.619-2.41-24.022,5.359-30.971c-3.24-4.749-6.756-9.189-10.516-13.281
	c-5.502,9.813-16.114,12.9-24.523,6.769c-8.415-6.136-11.602-19.301-7.611-30.23c-4.644-2.051-9.445-3.681-14.374-4.852
	c-0.874,11.979-8.845,21.362-18.559,21.362c-9.713,0-17.684-9.383-18.559-21.362c-4.929,1.172-9.73,2.801-14.374,4.852
	c3.991,10.928,0.804,24.094-7.611,30.23c-8.409,6.131-19.021,3.044-24.523-6.769c-3.76,4.092-7.276,8.532-10.516,13.281
	c7.77,6.948,10.214,20.351,5.359,30.971c-4.858,10.627-15.283,14.652-23.936,9.611c-1.624,5.866-2.914,11.928-3.842,18.153
	c9.485,1.104,16.915,11.171,16.915,23.438s-7.43,22.334-16.915,23.438c0.928,6.225,2.218,12.288,3.842,18.154
	c8.653-5.041,19.078-1.016,23.936,9.611c4.855,10.619,2.41,24.022-5.359,30.971c3.24,4.749,6.756,9.189,10.516,13.281
	c5.502-9.812,16.114-12.9,24.523-6.769c8.415,6.136,11.602,19.301,7.611,30.23c4.644,2.051,9.445,3.681,14.374,4.852
	c0.874-11.979,8.845-21.362,18.559-21.362c9.713,0,17.684,9.383,18.559,21.362c4.929-1.172,9.73-2.801,14.374-4.852
	c-3.991-10.928-0.804-24.094,7.611-30.23c8.409-6.131,19.021-3.044,24.523,6.769c3.76-4.092,7.276-8.532,10.516-13.281
	C278.297,449.561,275.852,436.158,280.707,425.539z"/>
<ellipse fill="#FFFFFF" cx="210.484" cy="374.336" rx="62.441" ry="78.858"/>
<path fill="#DB9727" d="M453.208,518.16c4.858-10.627,15.283-14.652,23.936-9.611c1.624-5.866,2.914-11.928,3.842-18.153
	c-9.485-1.104-16.915-11.171-16.915-23.438s7.43-22.334,16.915-23.438c-0.928-6.225-2.218-12.288-3.842-18.154
	c-8.653,5.041-19.078,1.016-23.936-9.611c-4.855-10.619-2.41-24.022,5.359-30.971c-3.24-4.749-6.756-9.189-10.516-13.281
	c-5.502,9.813-16.114,12.9-24.523,6.769c-8.415-6.136-11.602-19.301-7.611-30.23c-4.644-2.051-9.445-3.681-14.374-4.852
	c-0.874,11.979-8.845,21.362-18.559,21.362s-17.684-9.383-18.559-21.362c-4.929,1.172-9.73,2.801-14.374,4.852
	c3.991,10.928,0.804,24.094-7.611,30.23c-8.409,6.131-19.021,3.044-24.523-6.769c-3.76,4.092-7.276,8.532-10.516,13.281
	c7.77,6.948,10.214,20.351,5.359,30.971c-4.858,10.627-15.283,14.652-23.936,9.611c-1.624,5.866-2.914,11.928-3.842,18.154
	c9.485,1.104,16.915,11.171,16.915,23.438s-7.43,22.334-16.915,23.438c0.928,6.225,2.218,12.288,3.842,18.153
	c8.653-5.041,19.078-1.016,23.936,9.611c4.855,10.619,2.41,24.022-5.359,30.971c3.24,4.749,6.756,9.189,10.516,13.281
	c5.502-9.812,16.114-12.9,24.523-6.769c8.415,6.136,11.602,19.301,7.611,30.23c4.644,2.051,9.445,3.681,14.374,4.852
	c0.874-11.979,8.845-21.362,18.559-21.362s17.684,9.383,18.559,21.362c4.929-1.172,9.73-2.801,14.374-4.852
	c-3.991-10.928-0.804-24.094,7.611-30.23c8.409-6.131,19.021-3.044,24.523,6.769c3.76-4.092,7.276-8.532,10.516-13.281
	C450.798,542.183,448.353,528.78,453.208,518.16z"/>
<ellipse fill="#FFFFFF" cx="382.985" cy="466.957" rx="36.273" ry="45.81"/>
<g>
	<path fill="#80BDC2" d="M364.388,324.408c1.905-4.168,5.994-5.746,9.387-3.77c0.637-2.3,1.143-4.678,1.507-7.12
		c-3.72-0.433-6.634-4.381-6.634-9.192c0-4.811,2.914-8.759,6.634-9.192c-0.364-2.441-0.87-4.819-1.507-7.12
		c-3.394,1.977-7.482,0.398-9.387-3.77c-1.904-4.165-0.945-9.421,2.102-12.146c-1.271-1.863-2.65-3.604-4.124-5.209
		c-2.158,3.848-6.32,5.059-9.618,2.655c-3.3-2.406-4.55-7.57-2.985-11.856c-1.822-0.805-3.704-1.444-5.637-1.903
		c-0.343,4.698-3.469,8.378-7.278,8.378s-6.936-3.68-7.278-8.378c-1.933,0.46-3.816,1.099-5.637,1.903
		c1.565,4.286,0.315,9.449-2.985,11.856c-3.298,2.405-7.46,1.194-9.618-2.655c-1.475,1.605-2.854,3.346-4.124,5.209
		c3.047,2.725,4.006,7.982,2.102,12.146c-1.905,4.168-5.994,5.746-9.388,3.77c-0.637,2.3-1.143,4.678-1.507,7.12
		c3.72,0.433,6.634,4.381,6.634,9.192c0,4.811-2.914,8.759-6.634,9.192c0.364,2.441,0.87,4.819,1.507,7.12
		c3.394-1.977,7.482-0.398,9.388,3.77c1.904,4.165,0.945,9.421-2.102,12.146c1.271,1.863,2.65,3.604,4.124,5.209
		c2.158-3.848,6.32-5.059,9.618-2.655c3.3,2.406,4.55,7.57,2.985,11.856c1.822,0.805,3.704,1.444,5.637,1.903
		c0.343-4.698,3.469-8.378,7.278-8.378s6.936,3.68,7.278,8.378c1.933-0.46,3.816-1.099,5.637-1.903
		c-1.565-4.286-0.315-9.449,2.985-11.856c3.298-2.405,7.46-1.194,9.618,2.655c1.475-1.605,2.854-3.346,4.124-5.209
		C363.443,333.829,362.484,328.572,364.388,324.408z"/>
	<ellipse fill="#FFFFFF" cx="336.847" cy="304.326" rx="14.226" ry="17.966"/>
</g>
</svg>
