<?xml version="1.0" encoding="utf-8"?>
<!-- Generator: Adobe Illustrator 17.0.0, SVG Export Plug-In . SVG Version: 6.00 Build 0)  -->
<!DOCTYPE svg PUBLIC "-//W3C//DTD SVG 1.1//EN" "http://www.w3.org/Graphics/SVG/1.1/DTD/svg11.dtd">
<svg version="1.1" id="Layer_1" xmlns="http://www.w3.org/2000/svg" xmlns:xlink="http://www.w3.org/1999/xlink" x="0px" y="0px"
	 width="597.657px" height="144.356px" viewBox="2.343 0 597.657 144.356" enable-background="new 2.343 0 597.657 144.356"
	 xml:space="preserve">
<g>
	<g id="a">
		<g transform="translate(271.388 22.296)">
			<path fill="#FFFFFF" d="M71.701,61.09c-0.916-0.356-1.889-0.542-2.872-0.549l-32.78,0.042l20.192-49.845
				c0.368-0.912,0.555-1.888,0.549-2.872c0.016-4.328-3.48-7.85-7.809-7.865c-3.224-0.012-6.127,1.953-7.314,4.95L3.901,98.262
				h16.854l8.913-21.966l39.2-0.042c4.338-0.022,7.836-3.556,7.815-7.893c-0.016-3.216-1.991-6.097-4.985-7.272L71.701,61.09z"/>
			<path fill="#FFFFFF" d="M76.937,98.262h16.854L56.191,4.95C54.6,0.923,50.046-1.052,46.019,0.539s-6.002,6.145-4.411,10.172
				c0.003,0.009,0.007,0.017,0.01,0.026L76.937,98.262z"/>
		</g>
		<path fill="#FFFFFF" d="M290.581,64.883h-47.227V38.102h57.744l6.164-15.672h-71.553c-5.267-0.006-9.541,4.26-9.547,9.527
			c0,0.007,0,0.013,0,0.02v88.37l17.235,0.042V80.512h41.017L290.581,64.883z"/>
		<path fill="#FFFFFF" d="M114.6,7.561c1.69,3.844-0.422,8.026-3.464,10.1l-3.083,1.347l78.274,34.343l14.869-6.505
			c2.239-1.1,4.435-1.732,6.505-0.676c-0.117-0.086-0.245-0.157-0.38-0.211l-96.184-42.2c-0.042,0-0.042,0-0.084-0.042
			C112.719,4.448,114.005,5.841,114.6,7.561z"/>
		<path fill="#FFFFFF" d="M201.618,59.096l-15.291-5.745L108.053,92.34l3.548,2.239c2.957,2.112,4.816,5.534,2.957,9.293
			c-0.653,1.58-1.792,2.911-3.253,3.8c0.027,0.003,0.051,0.02,0.063,0.045l96.29-47.99c0.105-0.047,0.206-0.103,0.3-0.169
			c-1.141,0.634-2.028,0.422-3.337,0.422C203.571,59.889,202.55,59.588,201.618,59.096z"/>
		<path fill="#FFFFFF" d="M210.997,56.35c1.753-3.512,0.567-7.78-2.746-9.885c-0.174-0.116-0.357-0.217-0.549-0.3
			c-2.142-1.112-4.688-1.128-6.843-0.042l-14.531,7.228l14.827,6.505c0.961,0.412,1.995,0.627,3.041,0.634
			c1.289,0.004,2.556-0.331,3.675-0.972C209.226,58.825,210.322,57.714,210.997,56.35z"/>
		<path fill="#FFFFFF" d="M101.506,104.295c-1.859-3.76,0.211-7.9,3.379-10.138l3.21-1.816l-78.273-38.99l-10.265,4.055v7.815
			l85.231,42.483C103.495,106.777,102.383,105.622,101.506,104.295z"/>
		<path fill="#FFFFFF" d="M8.15,59.096c-1.941-0.958-3.317-2.773-3.717-4.9c-0.049-0.251-0.077-0.505-0.084-0.76v19.811
			c0,4.199,3.404,7.604,7.603,7.604s7.604-3.404,7.604-7.604v-8.026l-10.56-5.7C8.912,59.477,8.278,59.181,8.15,59.096z"/>
		<path fill="#FFFFFF" d="M4.476,54.196c-0.049-0.251-0.077-0.505-0.084-0.76C4.394,53.692,4.422,53.946,4.476,54.196z"/>
		<path fill="#FFFFFF" d="M4.476,54.196c-0.049-0.251-0.077-0.505-0.084-0.76C4.394,53.692,4.422,53.946,4.476,54.196z"/>
		<path fill="#FFFFFF" d="M9.545,45.706c0.605-0.17,1.24-0.212,1.862-0.123c1.529,0.069,3.02,0.502,4.348,1.263l14.068,6.505
			l78.274-34.343l-3.084-1.352c-2.661-2.07-5.2-6.252-3.506-10.1c0.64-1.729,1.949-3.127,3.631-3.881c-0.042,0-0.084,0-0.084,0.042
			L9.123,45.832l0.38-0.127L9.545,45.706z"/>
		<path fill="#FFFFFF" d="M101.126,7.645c-1.694,3.833,0.04,8.313,3.872,10.006c0.004,0.002,0.008,0.004,0.013,0.006l3.084,1.352
			l3.084-1.352c3.85-1.739,5.561-6.27,3.822-10.12c-0.204-0.451-0.451-0.882-0.738-1.285c-0.817-1.124-1.927-2.001-3.21-2.535
			c-0.338-0.127-0.634-0.211-0.972-0.338c-1.623-0.431-3.342-0.326-4.9,0.3C103.369,4.429,101.916,5.85,101.126,7.645z"/>
		<path fill="#FFFFFF" d="M19.256,52.991l0.211,4.922l10.355-4.562l-14.024-6.97C18.051,47.806,19.37,50.327,19.256,52.991z"/>
		<path fill="#FFFFFF" d="M9.503,45.748h0.042C9.545,45.705,9.503,45.705,9.503,45.748z"/>
		<path fill="#FFFFFF" d="M9.503,45.748h0.042C9.545,45.705,9.503,45.705,9.503,45.748z"/>
		<path fill="#FFFFFF" d="M15.333,46.128l0.507,0.253c-1.159-0.706-2.487-1.086-3.844-1.1c-0.82,0.01-1.633,0.152-2.408,0.422
			C11.485,45.085,13.548,45.238,15.333,46.128z"/>
		<path fill="#FFFFFF" d="M15.333,46.128l0.507,0.253c-1.159-0.706-2.487-1.086-3.844-1.1c-0.82,0.01-1.633,0.152-2.408,0.422
			C11.485,45.085,13.548,45.238,15.333,46.128z"/>
		<path fill="#FFFFFF" d="M15.797,46.381l-0.507-0.253c-1.785-0.89-3.849-1.042-5.745-0.422H9.503l-0.38,0.127L8.87,45.96
			c-2.821,1.023-4.652,3.76-4.52,6.758v0.76c0.007,0.255,0.035,0.509,0.084,0.76c0.385,2.262,1.785,4.223,3.8,5.322
			c1.123,0.631,2.387,0.965,3.675,0.972c1.046-0.003,2.081-0.218,3.041-0.634l4.562-2.028v-4.985
			C19.543,50.204,18.122,47.716,15.797,46.381z"/>
		<path fill="#FFFFFF" d="M589.778,115.535L589.778,115.535c-0.014-2.843,2.268-5.165,5.111-5.2
			c2.817-0.006,5.105,2.272,5.111,5.089c0,0.007,0,0.015,0,0.022v0.042c-0.006,2.827-2.284,5.124-5.111,5.154
			c-2.817,0.006-5.105-2.272-5.111-5.089C589.778,115.547,589.778,115.541,589.778,115.535z M599.409,115.493L599.409,115.493
			c0.052-2.496-1.93-4.562-4.426-4.614c-2.496-0.052-4.562,1.93-4.614,4.426c-0.001,0.063-0.001,0.126,0,0.188v0.042
			c0.012,2.496,2.045,4.511,4.541,4.499S599.421,117.989,599.409,115.493L599.409,115.493z M592.65,112.705h2.577
			c1.31,0,2.281,0.549,2.281,1.816c0.047,0.745-0.4,1.432-1.1,1.69l1.309,1.9h-1.774l-1.1-1.605h-0.634v1.605h-1.521v-5.407
			L592.65,112.705z M595.142,115.282c0.549,0,0.845-0.253,0.845-0.634c0-0.422-0.3-0.634-0.845-0.634h-0.971v1.309h0.971V115.282z"
			/>
		<path fill="#FFFFFF" d="M109.025,108.392c0.61-0.081,1.213-0.215,1.8-0.4c0.169-0.084,0.358-0.188,0.527-0.272
			c3.785-1.78,5.409-6.292,3.629-10.076c-0.73-1.551-1.964-2.809-3.502-3.568l-3.409-1.736l-3.349,1.736
			c-3.753,1.868-5.285,6.424-3.422,10.18c0.775,1.509,2.021,2.725,3.548,3.464c0.2,0.103,0.406,0.194,0.617,0.272
			c0.852,0.278,1.739,0.428,2.635,0.446"/>
		<path fill="#FFFFFF" d="M166.053,101.633l-58,26.823l2.788,2.028c2.534,2.535,4.647,5.491,3.8,8.871
			c-0.422,1.823-1.607,3.377-3.253,4.266l61.041-28.221c3.803-1.762,5.458-6.272,3.696-10.075
			c-1.762-3.803-6.272-5.458-10.075-3.696l0,0L166.053,101.633z"/>
		<path fill="#FFFFFF" d="M101.928,139.356c-1.774-3.8,0-7.1,3.8-8.871l2.281-2.028l-60.193-26.865
			c-3.838-1.715-8.34,0.007-10.055,3.845s0.007,8.34,3.845,10.055l0,0l63.278,28.175
			C103.322,142.946,102.73,141.045,101.928,139.356z"/>
		<path fill="#FFFFFF" d="M115.024,139.905c1.704-3.838-0.014-8.331-3.844-10.054l-3.171-1.394l-3.126,1.436
			c-3.808,1.744-5.481,6.245-3.737,10.053c0.751,1.639,2.061,2.957,3.695,3.718c2.07,0.937,4.447,0.922,6.505-0.042
			C112.996,142.89,114.309,141.562,115.024,139.905z"/>
		<path fill="#FFFFFF" d="M14.947,59.627c-0.932,0.48-1.949,0.773-2.993,0.863c-1.289,0.004-2.556-0.331-3.675-0.972
			c0.094,0.066,0.195,0.122,0.3,0.169l10.983,5.534v-7.407L14.947,59.627z"/>
		<path fill="#FFFFFF" d="M11.95,84.694c-4.191,0.014-7.586,3.409-7.6,7.6v36.539c0,4.199,3.404,7.603,7.603,7.603
			s7.604-3.404,7.604-7.603l0,0V92.294C19.543,88.1,16.144,84.704,11.95,84.694z"/>
		<path fill="#FFFFFF" d="M8.236,59.519c-0.255-0.13-0.495-0.286-0.718-0.465C7.73,59.247,7.973,59.404,8.236,59.519z"/>
		<path fill="#FFFFFF" d="M8.236,59.519c-0.255-0.13-0.495-0.286-0.718-0.465C7.73,59.247,7.973,59.404,8.236,59.519z"/>
		<path fill="#FFFFFF" d="M556.958,63.87c-18.375-4.351-22.726-7.6-22.726-14.954v-0.253c0-6.252,5.7-11.279,15.5-11.279
			c14.827-0.507,20.783,6.885,24.12,10.6l13.475-6.716c-2.577-4.351-13.01-18.755-37.342-18.755
			c-18.927,0.002-32.527,11.281-32.527,27.628v0.253c0,17.573,11.448,23.529,31.724,28.429c17.7,4.1,21.5,7.772,21.5,14.573v0.253
			c0,7.1-6.547,12-16.854,12c-13.729,0.211-22.135-10.645-24.2-15l-14.869,7.392c2.619,5.28,12.5,22.3,38.651,22.43
			c20.023,0.084,34-10.6,34-28.429v-0.253C587.458,75.993,577.107,68.77,556.958,63.87z"/>
		<path fill="#FFFFFF" d="M434.414,85.328c-1.779,4.584-4.599,8.692-8.237,12c-6.166,5.007-13.897,7.684-21.839,7.561
			c-18.206,0-31.385-15.08-31.385-33.709v-0.253c0-18.629,13.306-33.582,31.385-33.582c7.013-0.016,13.859,2.138,19.6,6.167
			c4.022,3.082,7.251,7.079,9.42,11.659l15.798-7.863c-1.957-3.913-4.522-7.491-7.6-10.6h0.042c-0.151-0.13-0.292-0.271-0.422-0.422
			l-0.253-0.253l0,0c-8.917-8.28-19.393-14.025-36.416-14.025c-28.809,0-49.043,22.135-49.043,49.169v0.253
			c0,27.33,20.656,48.916,48.367,48.916c17.361,0,28.091-6.21,37.806-16.052l0,0l0.042-0.042l0.591-0.591h-0.042
			c3.082-3.447,5.657-7.316,7.646-11.49L434.414,85.328z"/>
		<path fill="#FFFFFF" d="M511.083,22.43h-79.668c6.003,2.439,11.481,6.01,16.136,10.518l0,0l0.253,0.253
			c0.151,0.13,0.292,0.271,0.422,0.422h-0.042c1.486,1.487,2.842,3.099,4.055,4.816h18.5v82.033H488.1V38.397h22.853
			c4.406-0.009,7.975-3.578,7.984-7.984c0.106-4.302-3.296-7.875-7.598-7.981C511.253,22.43,511.168,22.429,511.083,22.43z"/>
	</g>
</g>
</svg>
