<?xml version="1.0" encoding="utf-8"?>
<!-- Generator: Adobe Illustrator 17.0.0, SVG Export Plug-In . SVG Version: 6.00 Build 0)  -->
<!DOCTYPE svg PUBLIC "-//W3C//DTD SVG 1.1//EN" "http://www.w3.org/Graphics/SVG/1.1/DTD/svg11.dtd">
<svg version="1.1" id="Layer_1" xmlns="http://www.w3.org/2000/svg" xmlns:xlink="http://www.w3.org/1999/xlink" x="0px" y="0px"
	 width="375.516px" height="375.065px" viewBox="0 0 375.516 375.065" enable-background="new 0 0 375.516 375.065"
	 xml:space="preserve">
<g>
	<g>
		<defs>
			<rect id="SVGID_1_" width="370.657" height="370.657"/>
		</defs>
		<clipPath id="SVGID_2_">
			<use xlink:href="#SVGID_1_"  overflow="visible"/>
		</clipPath>
		<g clip-path="url(#SVGID_2_)">
			<defs>
				<rect id="SVGID_3_" width="370.657" height="370.657"/>
			</defs>
			<clipPath id="SVGID_4_">
				<use xlink:href="#SVGID_3_"  overflow="visible"/>
			</clipPath>
			<g clip-path="url(#SVGID_4_)">
				<defs>
					<rect id="SVGID_5_" width="370.657" height="370.657"/>
				</defs>
				<clipPath id="SVGID_6_">
					<use xlink:href="#SVGID_5_"  overflow="visible"/>
				</clipPath>
				<path clip-path="url(#SVGID_6_)" fill="#1D7B3D" d="M370.658,185.328c0,102.354-82.975,185.329-185.329,185.329
					S0,287.682,0,185.328S82.974-0.001,185.329-0.001S370.658,82.974,370.658,185.328"/>
				<g opacity="0.95" clip-path="url(#SVGID_6_)">
					<g>
						<defs>
							<rect id="SVGID_7_" x="109.674" y="70" width="237.083" height="182.452"/>
						</defs>
						<clipPath id="SVGID_8_">
							<use xlink:href="#SVGID_7_"  overflow="visible"/>
						</clipPath>
						<path clip-path="url(#SVGID_8_)" fill="#1D7B3D" d="M344.495,158.848c-0.847,6.408-2.542,12.551-4.872,18.323
							c-4.978-2.436-11.015-0.635-13.822,4.237c-2.807,4.819-1.377,10.962,3.23,14.034c-3.866,5.031-8.367,9.532-13.398,13.398
							c-3.124-4.554-9.215-6.037-14.087-3.23c-4.819,2.806-6.619,8.897-4.183,13.822c-5.826,2.383-11.969,4.077-18.377,4.925
							c-0.37-5.561-4.925-9.85-10.538-9.85c-5.561,0-10.168,4.289-10.539,9.85c-6.408-0.848-12.551-2.542-18.323-4.925
							c2.436-4.925,0.635-11.016-4.237-13.822c-4.819-2.807-10.962-1.324-14.034,3.23c-5.031-3.866-9.532-8.367-13.398-13.398
							c4.555-3.072,6.037-9.215,3.231-14.034c-2.807-4.872-8.897-6.673-13.822-4.237c-2.383-5.772-4.078-11.915-4.926-18.323
							c5.561-0.371,9.851-4.978,9.851-10.539c0-5.613-4.29-10.167-9.851-10.538c0.848-6.408,2.543-12.551,4.926-18.377
							c4.925,2.437,11.015,0.636,13.822-4.183c2.806-4.872,1.324-10.962-3.231-14.087c3.866-5.031,8.367-9.532,13.398-13.398
							c3.072,4.607,9.215,6.037,14.034,3.23c4.872-2.806,6.673-8.844,4.237-13.822c5.772-2.33,11.915-4.024,18.323-4.872
							c0.371,5.508,4.978,9.85,10.539,9.85c5.613,0,10.168-4.342,10.538-9.85c6.408,0.848,12.551,2.542,18.377,4.872
							c-2.436,4.978-0.636,11.016,4.183,13.822c4.819,2.754,10.963,1.377,14.087-3.177c4.978,3.866,9.48,8.367,13.345,13.345
							c-4.554,3.125-5.931,9.268-3.177,14.087c2.807,4.819,8.844,6.62,13.822,4.183c2.33,5.826,4.025,11.969,4.872,18.377
							c-5.507,0.371-9.85,4.925-9.85,10.538C334.645,153.87,338.987,158.477,344.495,158.848"/>
						<g clip-path="url(#SVGID_8_)">
							<defs>
								<path id="SVGID_9_" d="M344.495,158.848c-0.848,6.408-2.542,12.551-4.873,18.323c-4.978-2.436-11.015-0.635-13.822,4.237
									c-2.806,4.819-1.376,10.962,3.231,14.034c-3.866,5.03-8.367,9.532-13.398,13.398c-3.125-4.554-9.215-6.037-14.087-3.231
									c-4.819,2.807-6.62,8.897-4.184,13.822c-5.825,2.384-11.968,4.078-18.376,4.925c-0.371-5.56-4.925-9.85-10.539-9.85
									c-5.56,0-10.168,4.29-10.538,9.85c-6.408-0.847-12.551-2.541-18.324-4.925c2.437-4.925,0.636-11.015-4.236-13.822
									c-4.819-2.806-10.962-1.323-14.034,3.231c-5.031-3.866-9.532-8.368-13.398-13.398c4.554-3.072,6.037-9.215,3.23-14.034
									c-2.807-4.872-8.897-6.673-13.822-4.237c-2.383-5.772-4.078-11.915-4.925-18.323c5.561-0.371,9.85-4.978,9.85-10.539
									c0-5.613-4.289-10.168-9.85-10.538c0.847-6.408,2.542-12.551,4.925-18.377c4.925,2.436,11.015,0.636,13.822-4.183
									c2.807-4.872,1.324-10.963-3.23-14.087c3.866-5.031,8.367-9.533,13.398-13.398c3.072,4.607,9.215,6.037,14.034,3.23
									c4.872-2.807,6.673-8.844,4.236-13.822c5.773-2.33,11.916-4.025,18.324-4.872c0.37,5.508,4.978,9.85,10.538,9.85
									c5.614,0,10.168-4.342,10.539-9.85c6.408,0.847,12.551,2.542,18.376,4.872c-2.436,4.978-0.635,11.015,4.184,13.822
									c4.819,2.754,10.962,1.377,14.087-3.177c4.978,3.865,9.479,8.367,13.345,13.345c-4.554,3.124-5.931,9.268-3.178,14.087
									c2.807,4.819,8.844,6.619,13.823,4.183c2.33,5.826,4.024,11.969,4.872,18.377c-5.508,0.37-9.851,4.925-9.851,10.538
									C334.644,153.87,338.987,158.477,344.495,158.848"/>
							</defs>
							<clipPath id="SVGID_10_">
								<use xlink:href="#SVGID_9_"  overflow="visible"/>
							</clipPath>
							<path clip-path="url(#SVGID_10_)" fill="#1D7B3D" d="M271.376,132.005l-46.441,114.417c0,0-4.884,7.614-13.197,1.912
								l-46.425-52.195l-17.959-13.371l-31.17-17.619c0,0-4.766-2.797-4.5-6.851c0.266-4.055,6.947-4.995,6.947-4.995
								l142.459-26.524C261.09,126.779,272.897,124.086,271.376,132.005"/>
							<path clip-path="url(#SVGID_10_)" fill="none" stroke="#1D7B3D" stroke-width="4" stroke-miterlimit="10" d="
								M271.376,132.005l-46.441,114.417c0,0-4.884,7.614-13.197,1.912l-46.425-52.195l-17.959-13.371l-31.17-17.619
								c0,0-4.766-2.797-4.5-6.851c0.266-4.055,6.947-4.995,6.947-4.995l142.459-26.524
								C261.09,126.779,272.897,124.086,271.376,132.005z"/>
							<path clip-path="url(#SVGID_10_)" fill="#1D7B3D" d="M154.192,231.449c0,0-1.561-0.454-2.336-7.104
								c-0.776-6.649-4.501-41.577-4.501-41.577l89.774-35.445c0,0,5.158-1.917,4.455,0.855c0,0,0.73,0.654-2.189,2.488
								c-2.918,1.835-73.726,44.514-73.726,44.514"/>
							<path clip-path="url(#SVGID_10_)" fill="none" stroke="#1D7B3D" stroke-width="4" stroke-miterlimit="10" d="
								M154.192,231.449c0,0-1.561-0.454-2.336-7.104c-0.776-6.649-4.501-41.577-4.501-41.577l89.774-35.445
								c0,0,5.158-1.917,4.455,0.855c0,0,0.73,0.654-2.189,2.488c-2.918,1.835-73.726,44.514-73.726,44.514"/>
							<path clip-path="url(#SVGID_10_)" fill="#1D7B3D" d="M183.114,216.152l-25.306,15.498c0,0-1.929,0.953-3.616-0.201
								l11.128-35.677"/>
							<path clip-path="url(#SVGID_10_)" fill="none" stroke="#1D7B3D" stroke-width="4" stroke-miterlimit="10" d="
								M183.114,216.152l-25.306,15.498c0,0-1.929,0.953-3.616-0.201l11.128-35.677"/>
						</g>
						<path clip-path="url(#SVGID_8_)" fill="none" stroke="#1D7B3D" stroke-width="4" stroke-miterlimit="10" d="M344.495,158.848
							c-0.847,6.408-2.542,12.551-4.872,18.323c-4.978-2.436-11.015-0.635-13.822,4.237c-2.807,4.819-1.377,10.962,3.23,14.034
							c-3.866,5.031-8.367,9.532-13.398,13.398c-3.124-4.554-9.215-6.037-14.087-3.23c-4.819,2.806-6.619,8.897-4.183,13.822
							c-5.826,2.383-11.969,4.077-18.377,4.925c-0.37-5.561-4.925-9.85-10.538-9.85c-5.561,0-10.168,4.289-10.539,9.85
							c-6.408-0.848-12.551-2.542-18.323-4.925c2.436-4.925,0.635-11.016-4.237-13.822c-4.819-2.807-10.962-1.324-14.034,3.23
							c-5.031-3.866-9.532-8.367-13.398-13.398c4.555-3.072,6.037-9.215,3.231-14.034c-2.807-4.872-8.897-6.673-13.822-4.237
							c-2.383-5.772-4.078-11.915-4.926-18.323c5.561-0.371,9.851-4.978,9.851-10.539c0-5.613-4.29-10.167-9.851-10.538
							c0.848-6.408,2.543-12.551,4.926-18.377c4.925,2.437,11.015,0.636,13.822-4.183c2.806-4.872,1.324-10.962-3.231-14.087
							c3.866-5.031,8.367-9.532,13.398-13.398c3.072,4.607,9.215,6.037,14.034,3.23c4.872-2.806,6.673-8.844,4.237-13.822
							c5.772-2.33,11.915-4.024,18.323-4.872c0.371,5.508,4.978,9.85,10.539,9.85c5.613,0,10.168-4.342,10.538-9.85
							c6.408,0.848,12.551,2.542,18.377,4.872c-2.436,4.978-0.636,11.016,4.183,13.822c4.819,2.754,10.963,1.377,14.087-3.177
							c4.978,3.866,9.48,8.367,13.345,13.345c-4.554,3.125-5.931,9.268-3.177,14.087c2.807,4.819,8.844,6.62,13.822,4.183
							c2.33,5.826,4.025,11.969,4.872,18.377c-5.507,0.371-9.85,4.925-9.85,10.538C334.645,153.87,338.987,158.477,344.495,158.848z
							"/>
					</g>
				</g>
				<path clip-path="url(#SVGID_6_)" fill="#1D7B3D" d="M341.66,161.682c-0.847,6.408-2.542,12.551-4.872,18.323
					c-4.978-2.436-11.015-0.635-13.822,4.237c-2.807,4.819-1.377,10.962,3.23,14.034c-3.866,5.031-8.367,9.532-13.398,13.398
					c-3.124-4.554-9.215-6.037-14.087-3.23c-4.819,2.806-6.619,8.897-4.183,13.822c-5.826,2.383-11.969,4.077-18.377,4.925
					c-0.37-5.561-4.925-9.85-10.538-9.85c-5.561,0-10.168,4.289-10.539,9.85c-6.408-0.848-12.551-2.542-18.323-4.925
					c2.436-4.925,0.635-11.016-4.237-13.822c-4.819-2.807-10.962-1.324-14.034,3.23c-5.031-3.866-9.532-8.367-13.398-13.398
					c4.555-3.072,6.037-9.215,3.231-14.034c-2.807-4.872-8.897-6.673-13.822-4.237c-2.383-5.772-4.078-11.915-4.926-18.323
					c5.561-0.371,9.851-4.978,9.851-10.539c0-5.613-4.29-10.167-9.851-10.538c0.848-6.408,2.543-12.551,4.926-18.377
					c4.925,2.437,11.015,0.636,13.822-4.183c2.806-4.872,1.324-10.962-3.231-14.087c3.866-5.031,8.367-9.532,13.398-13.398
					c3.072,4.607,9.215,6.037,14.034,3.23c4.872-2.806,6.673-8.844,4.237-13.822c5.772-2.33,11.915-4.025,18.323-4.872
					c0.371,5.508,4.978,9.85,10.539,9.85c5.613,0,10.168-4.342,10.538-9.85c6.408,0.848,12.551,2.542,18.377,4.872
					c-2.436,4.978-0.636,11.016,4.183,13.822c4.819,2.754,10.963,1.377,14.087-3.177c4.978,3.866,9.48,8.367,13.345,13.345
					c-4.554,3.125-5.931,9.268-3.177,14.087c2.807,4.819,8.844,6.62,13.822,4.183c2.33,5.826,4.025,11.969,4.872,18.377
					c-5.507,0.371-9.85,4.925-9.85,10.538C331.81,156.704,336.153,161.311,341.66,161.682"/>
			</g>
			<g clip-path="url(#SVGID_4_)">
				<defs>
					<path id="SVGID_11_" d="M265.612,84.947c-5.56,0-10.168-4.343-10.538-9.85c-6.408,0.847-12.551,2.542-18.324,4.872
						c2.437,4.978,0.637,11.015-4.236,13.822c-4.819,2.807-10.962,1.377-14.034-3.231c-5.031,3.866-9.532,8.368-13.398,13.399
						c4.554,3.124,6.037,9.214,3.23,14.086c-2.806,4.82-8.896,6.62-13.821,4.184c-2.383,5.826-4.078,11.968-4.926,18.376
						c5.561,0.371,9.851,4.925,9.851,10.539c0,5.561-4.29,10.168-9.851,10.538c0.848,6.408,2.543,12.551,4.926,18.323
						c4.925-2.435,11.015-0.635,13.821,4.238c2.807,4.818,1.324,10.962-3.23,14.033c3.866,5.031,8.367,9.532,13.398,13.399
						c3.072-4.555,9.215-6.038,14.034-3.231c4.872,2.807,6.673,8.897,4.236,13.822c5.773,2.383,11.916,4.078,18.324,4.925
						c0.37-5.56,4.978-9.85,10.538-9.85c5.614,0,10.169,4.29,10.539,9.85c6.408-0.847,12.551-2.542,18.377-4.925
						c-2.437-4.925-0.636-11.015,4.183-13.822c4.872-2.807,10.963-1.324,14.087,3.231c5.031-3.867,9.533-8.368,13.398-13.399
						c-4.607-3.071-6.037-9.215-3.23-14.033c2.806-4.873,8.844-6.673,13.822-4.238c2.33-5.771,4.025-11.915,4.872-18.323
						c-5.507-0.37-9.85-4.977-9.85-10.538c0-5.614,4.343-10.168,9.85-10.539c-0.847-6.408-2.542-12.55-4.872-18.376
						c-4.978,2.436-11.015,0.636-13.822-4.184c-2.754-4.819-1.377-10.962,3.177-14.086c-3.866-4.979-8.367-9.48-13.345-13.346
						c-3.124,4.555-9.268,5.932-14.087,3.178c-4.819-2.807-6.62-8.844-4.183-13.822c-5.826-2.33-11.969-4.025-18.377-4.872
						C275.781,80.604,271.227,84.947,265.612,84.947"/>
				</defs>
				<clipPath id="SVGID_12_">
					<use xlink:href="#SVGID_11_"  overflow="visible"/>
				</clipPath>
				<path clip-path="url(#SVGID_12_)" fill="#FFFFFF" d="M268.542,134.839l-46.441,114.417c0,0-4.884,7.614-13.197,1.912
					l-46.425-52.195l-17.959-13.371l-31.17-17.619c0,0-4.766-2.797-4.5-6.851c0.266-4.055,6.947-4.995,6.947-4.995l142.459-26.524
					C258.256,129.613,270.063,126.92,268.542,134.839"/>
				<path clip-path="url(#SVGID_12_)" fill="none" stroke="#FFFFFF" stroke-width="4" stroke-miterlimit="10" d="M268.542,134.839
					l-46.441,114.417c0,0-4.884,7.614-13.197,1.912l-46.425-52.195l-17.959-13.371l-31.17-17.619c0,0-4.766-2.797-4.5-6.851
					c0.266-4.055,6.947-4.995,6.947-4.995l142.459-26.524C258.256,129.613,270.063,126.92,268.542,134.839z"/>
				<path clip-path="url(#SVGID_12_)" fill="#1D7B3D" d="M151.357,234.284c0,0-1.561-0.454-2.336-7.104
					c-0.776-6.649-4.501-41.577-4.501-41.577l89.774-35.445c0,0,5.158-1.917,4.455,0.855c0,0,0.73,0.654-2.189,2.488
					c-2.918,1.835-73.726,44.514-73.726,44.514"/>
				<path clip-path="url(#SVGID_12_)" fill="none" stroke="#FFFFFF" stroke-width="4" stroke-miterlimit="10" d="M151.357,234.284
					c0,0-1.561-0.454-2.336-7.104c-0.776-6.649-4.501-41.577-4.501-41.577l89.774-35.445c0,0,5.158-1.917,4.455,0.855
					c0,0,0.73,0.654-2.189,2.488c-2.918,1.835-73.726,44.514-73.726,44.514"/>
				<path clip-path="url(#SVGID_12_)" fill="#1D7B3D" d="M180.28,218.986l-25.306,15.498c0,0-1.929,0.953-3.616-0.201l11.128-35.677
					"/>
				<path clip-path="url(#SVGID_12_)" fill="none" stroke="#FFFFFF" stroke-width="4" stroke-miterlimit="10" d="M180.28,218.986
					l-25.306,15.498c0,0-1.929,0.953-3.616-0.201l11.128-35.677"/>
			</g>
			<g clip-path="url(#SVGID_4_)">
				<defs>
					<rect id="SVGID_13_" width="370.657" height="370.657"/>
				</defs>
				<clipPath id="SVGID_14_">
					<use xlink:href="#SVGID_13_"  overflow="visible"/>
				</clipPath>
				<path clip-path="url(#SVGID_14_)" fill="none" stroke="#FFFFFF" stroke-width="4" stroke-miterlimit="10" d="M341.66,161.682
					c-0.847,6.408-2.542,12.551-4.872,18.323c-4.978-2.436-11.015-0.635-13.822,4.237c-2.807,4.819-1.377,10.962,3.23,14.034
					c-3.866,5.031-8.367,9.532-13.398,13.398c-3.124-4.554-9.215-6.037-14.087-3.23c-4.819,2.806-6.619,8.897-4.183,13.822
					c-5.826,2.383-11.969,4.077-18.377,4.925c-0.37-5.561-4.925-9.85-10.538-9.85c-5.561,0-10.168,4.289-10.539,9.85
					c-6.408-0.848-12.551-2.542-18.323-4.925c2.436-4.925,0.635-11.016-4.237-13.822c-4.819-2.807-10.962-1.324-14.034,3.23
					c-5.031-3.866-9.532-8.367-13.398-13.398c4.555-3.072,6.037-9.215,3.231-14.034c-2.807-4.872-8.897-6.673-13.822-4.237
					c-2.383-5.772-4.078-11.915-4.926-18.323c5.561-0.371,9.851-4.978,9.851-10.539c0-5.613-4.29-10.167-9.851-10.538
					c0.848-6.408,2.543-12.551,4.926-18.377c4.925,2.437,11.015,0.636,13.822-4.183c2.806-4.872,1.324-10.962-3.231-14.087
					c3.866-5.031,8.367-9.532,13.398-13.398c3.072,4.607,9.215,6.037,14.034,3.23c4.872-2.806,6.673-8.844,4.237-13.822
					c5.772-2.33,11.915-4.025,18.323-4.872c0.371,5.508,4.978,9.85,10.539,9.85c5.613,0,10.168-4.342,10.538-9.85
					c6.408,0.848,12.551,2.542,18.377,4.872c-2.436,4.978-0.636,11.016,4.183,13.822c4.819,2.754,10.963,1.377,14.087-3.177
					c4.978,3.866,9.48,8.367,13.345,13.345c-4.554,3.125-5.931,9.268-3.177,14.087c2.807,4.819,8.844,6.62,13.822,4.183
					c2.33,5.826,4.025,11.969,4.872,18.377c-5.507,0.371-9.85,4.925-9.85,10.538C331.81,156.704,336.153,161.311,341.66,161.682z"/>
				<g clip-path="url(#SVGID_14_)">
					<g>
						<defs>
							<rect id="SVGID_15_" x="71.884" y="38.331" width="201.628" height="214.121"/>
						</defs>
						<clipPath id="SVGID_16_">
							<use xlink:href="#SVGID_15_"  overflow="visible"/>
						</clipPath>
						<path clip-path="url(#SVGID_16_)" fill="#1D7B3D" d="M160.732,40.594c6.408,0.847,12.551,2.542,18.323,4.872
							c-2.436,4.978-0.635,11.015,4.237,13.822c4.819,2.807,10.962,1.377,14.034-3.23c5.031,3.866,9.532,8.367,13.398,13.398
							c-4.554,3.124-6.037,9.215-3.23,14.087c2.806,4.819,8.897,6.619,13.822,4.183c2.383,5.826,4.077,11.969,4.925,18.377
							c-5.561,0.37-9.85,4.925-9.85,10.538c0,5.561,4.289,10.168,9.85,10.539c-0.848,6.408-2.542,12.551-4.925,18.323
							c-4.925-2.436-11.016-0.635-13.822,4.237c-2.807,4.819-1.324,10.962,3.23,14.034c-3.866,5.031-8.367,9.532-13.398,13.398
							c-3.072-4.555-9.215-6.037-14.034-3.231c-4.872,2.807-6.673,8.897-4.237,13.822c-5.772,2.383-11.915,4.078-18.323,4.926
							c-0.371-5.561-4.978-9.851-10.539-9.851c-5.613,0-10.167,4.29-10.538,9.851c-6.408-0.848-12.551-2.543-18.377-4.926
							c2.437-4.925,0.636-11.015-4.183-13.822c-4.872-2.806-10.962-1.324-14.087,3.231c-5.031-3.866-9.532-8.367-13.398-13.398
							c4.607-3.072,6.037-9.215,3.23-14.034c-2.806-4.872-8.844-6.673-13.822-4.237c-2.33-5.772-4.024-11.915-4.872-18.323
							c5.508-0.371,9.85-4.978,9.85-10.539c0-5.613-4.342-10.168-9.85-10.538c0.848-6.408,2.542-12.551,4.872-18.377
							c4.978,2.436,11.016,0.636,13.822-4.183c2.754-4.819,1.377-10.963-3.177-14.087c3.866-4.978,8.367-9.48,13.345-13.345
							c3.125,4.554,9.268,5.931,14.087,3.177c4.819-2.807,6.62-8.844,4.183-13.822c5.826-2.33,11.969-4.025,18.377-4.872
							c0.371,5.507,4.925,9.85,10.538,9.85C155.754,50.444,160.361,46.101,160.732,40.594"/>
						<g clip-path="url(#SVGID_16_)">
							<defs>
								<path id="SVGID_17_" d="M160.732,40.594c6.408,0.847,12.551,2.541,18.323,4.872c-2.436,4.978-0.635,11.015,4.237,13.822
									c4.819,2.806,10.962,1.376,14.034-3.231c5.03,3.866,9.532,8.367,13.398,13.399c-4.554,3.124-6.037,9.214-3.231,14.086
									c2.807,4.819,8.897,6.62,13.822,4.184c2.383,5.825,4.078,11.968,4.925,18.376c-5.56,0.371-9.85,4.925-9.85,10.539
									c0,5.56,4.29,10.168,9.85,10.538c-0.847,6.408-2.542,12.551-4.925,18.324c-4.925-2.437-11.015-0.636-13.822,4.236
									c-2.806,4.82-1.324,10.962,3.231,14.034c-3.866,5.031-8.368,9.532-13.398,13.398c-3.072-4.554-9.215-6.037-14.034-3.23
									c-4.872,2.807-6.673,8.897-4.237,13.822c-5.772,2.383-11.915,4.078-18.323,4.925c-0.371-5.561-4.978-9.85-10.539-9.85
									c-5.613,0-10.168,4.289-10.538,9.85c-6.408-0.847-12.551-2.542-18.377-4.925c2.436-4.925,0.636-11.015-4.183-13.822
									c-4.872-2.807-10.963-1.324-14.087,3.23c-5.031-3.866-9.533-8.367-13.398-13.398c4.607-3.072,6.037-9.215,3.23-14.034
									c-2.807-4.872-8.844-6.673-13.822-4.236c-2.33-5.773-4.025-11.916-4.872-18.324c5.508-0.37,9.85-4.978,9.85-10.538
									c0-5.614-4.342-10.168-9.85-10.539c0.847-6.408,2.542-12.551,4.872-18.376c4.978,2.436,11.015,0.635,13.822-4.184
									c2.754-4.819,1.377-10.962-3.177-14.087c3.865-4.978,8.367-9.479,13.345-13.345c3.124,4.554,9.268,5.931,14.087,3.178
									c4.819-2.807,6.619-8.844,4.183-13.822c5.826-2.331,11.969-4.025,18.377-4.872c0.37,5.507,4.925,9.85,10.538,9.85
									C155.754,50.444,160.361,46.101,160.732,40.594"/>
							</defs>
							<clipPath id="SVGID_18_">
								<use xlink:href="#SVGID_17_"  overflow="visible"/>
							</clipPath>
							<path clip-path="url(#SVGID_18_)" fill="#1D7B3D" d="M271.376,132.005l-46.441,114.417c0,0-4.884,7.614-13.197,1.912
								l-46.425-52.195l-17.959-13.371l-31.17-17.619c0,0-4.766-2.797-4.5-6.851c0.266-4.055,6.947-4.995,6.947-4.995
								l142.459-26.524C261.09,126.779,272.897,124.086,271.376,132.005"/>
							<path clip-path="url(#SVGID_18_)" fill="none" stroke="#1D7B3D" stroke-width="4" stroke-miterlimit="10" d="
								M271.376,132.005l-46.441,114.417c0,0-4.884,7.614-13.197,1.912l-46.425-52.195l-17.959-13.371l-31.17-17.619
								c0,0-4.766-2.797-4.5-6.851c0.266-4.055,6.947-4.995,6.947-4.995l142.459-26.524
								C261.09,126.779,272.897,124.086,271.376,132.005z"/>
							<path clip-path="url(#SVGID_18_)" fill="#1D7B3D" d="M154.192,231.449c0,0-1.561-0.454-2.336-7.104
								c-0.776-6.649-4.501-41.577-4.501-41.577l89.774-35.445c0,0,5.158-1.917,4.455,0.855c0,0,0.73,0.654-2.189,2.488
								c-2.918,1.835-73.726,44.514-73.726,44.514"/>
							<path clip-path="url(#SVGID_18_)" fill="none" stroke="#1D7B3D" stroke-width="4" stroke-miterlimit="10" d="
								M154.192,231.449c0,0-1.561-0.454-2.336-7.104c-0.776-6.649-4.501-41.577-4.501-41.577l89.774-35.445
								c0,0,5.158-1.917,4.455,0.855c0,0,0.73,0.654-2.189,2.488c-2.918,1.835-73.726,44.514-73.726,44.514"/>
							<path clip-path="url(#SVGID_18_)" fill="#1D7B3D" d="M183.114,216.152l-25.306,15.498c0,0-1.929,0.953-3.616-0.201
								l11.128-35.677"/>
							<path clip-path="url(#SVGID_18_)" fill="none" stroke="#1D7B3D" stroke-width="4" stroke-miterlimit="10" d="
								M183.114,216.152l-25.306,15.498c0,0-1.929,0.953-3.616-0.201l11.128-35.677"/>
						</g>
						<path clip-path="url(#SVGID_16_)" fill="none" stroke="#1D7B3D" stroke-width="4" stroke-miterlimit="10" d="M160.732,40.594
							c6.408,0.847,12.551,2.542,18.323,4.872c-2.436,4.978-0.635,11.015,4.237,13.822c4.819,2.807,10.962,1.377,14.034-3.23
							c5.031,3.866,9.532,8.367,13.398,13.398c-4.554,3.124-6.037,9.215-3.23,14.087c2.806,4.819,8.897,6.619,13.822,4.183
							c2.383,5.826,4.077,11.969,4.925,18.377c-5.561,0.37-9.85,4.925-9.85,10.538c0,5.561,4.289,10.168,9.85,10.539
							c-0.848,6.408-2.542,12.551-4.925,18.323c-4.925-2.436-11.016-0.635-13.822,4.237c-2.807,4.819-1.324,10.962,3.23,14.034
							c-3.866,5.031-8.367,9.532-13.398,13.398c-3.072-4.555-9.215-6.037-14.034-3.231c-4.872,2.807-6.673,8.897-4.237,13.822
							c-5.772,2.383-11.915,4.078-18.323,4.926c-0.371-5.561-4.978-9.851-10.539-9.851c-5.613,0-10.167,4.29-10.538,9.851
							c-6.408-0.848-12.551-2.543-18.377-4.926c2.437-4.925,0.636-11.015-4.183-13.822c-4.872-2.806-10.962-1.324-14.087,3.231
							c-5.031-3.866-9.532-8.367-13.398-13.398c4.607-3.072,6.037-9.215,3.23-14.034c-2.806-4.872-8.844-6.673-13.822-4.237
							c-2.33-5.772-4.024-11.915-4.872-18.323c5.508-0.371,9.85-4.978,9.85-10.539c0-5.613-4.342-10.168-9.85-10.538
							c0.848-6.408,2.542-12.551,4.872-18.377c4.978,2.436,11.016,0.636,13.822-4.183c2.754-4.819,1.377-10.963-3.177-14.087
							c3.866-4.978,8.367-9.48,13.345-13.345c3.125,4.554,9.268,5.931,14.087,3.177c4.819-2.807,6.62-8.844,4.183-13.822
							c5.826-2.33,11.969-4.025,18.377-4.872c0.371,5.507,4.925,9.85,10.538,9.85C155.754,50.444,160.361,46.101,160.732,40.594z"/>
					</g>
				</g>
				<path clip-path="url(#SVGID_14_)" fill="#1D7B3D" d="M157.897,43.428c6.408,0.847,12.551,2.542,18.323,4.872
					c-2.436,4.978-0.635,11.015,4.237,13.822c4.819,2.807,10.962,1.377,14.034-3.23c5.031,3.866,9.532,8.367,13.398,13.398
					c-4.554,3.124-6.037,9.215-3.23,14.087c2.806,4.819,8.897,6.619,13.822,4.183c2.383,5.826,4.077,11.969,4.925,18.377
					c-5.561,0.37-9.85,4.925-9.85,10.538c0,5.561,4.289,10.168,9.85,10.539c-0.848,6.408-2.542,12.551-4.925,18.323
					c-4.925-2.436-11.016-0.635-13.822,4.237c-2.807,4.819-1.324,10.962,3.23,14.034c-3.866,5.031-8.367,9.532-13.398,13.398
					c-3.072-4.555-9.215-6.037-14.034-3.231c-4.872,2.807-6.673,8.897-4.237,13.822c-5.772,2.383-11.915,4.078-18.323,4.926
					c-0.371-5.561-4.978-9.851-10.539-9.851c-5.613,0-10.167,4.29-10.538,9.851c-6.408-0.848-12.551-2.543-18.377-4.926
					c2.437-4.925,0.636-11.015-4.183-13.822c-4.872-2.806-10.962-1.324-14.087,3.231c-5.031-3.866-9.532-8.367-13.398-13.398
					c4.607-3.072,6.037-9.215,3.23-14.034c-2.806-4.872-8.844-6.673-13.822-4.237c-2.33-5.772-4.024-11.915-4.872-18.323
					c5.508-0.371,9.85-4.978,9.85-10.539c0-5.613-4.342-10.168-9.85-10.538c0.848-6.408,2.542-12.551,4.872-18.377
					c4.978,2.436,11.016,0.636,13.822-4.183c2.754-4.819,1.377-10.963-3.177-14.087c3.866-4.978,8.367-9.48,13.345-13.345
					c3.125,4.554,9.268,5.931,14.087,3.177c4.819-2.807,6.62-8.844,4.183-13.822c5.826-2.33,11.969-4.025,18.377-4.872
					c0.371,5.507,4.925,9.85,10.538,9.85C152.919,53.278,157.526,48.935,157.897,43.428"/>
			</g>
			<g clip-path="url(#SVGID_4_)">
				<defs>
					<path id="SVGID_19_" d="M147.359,53.278c-5.614,0-10.168-4.342-10.539-9.85c-6.408,0.848-12.551,2.542-18.376,4.872
						c2.436,4.978,0.635,11.016-4.184,13.823c-4.819,2.753-10.962,1.376-14.086-3.178c-4.978,3.865-9.48,8.367-13.346,13.345
						c4.554,3.125,5.931,9.268,3.177,14.087c-2.807,4.819-8.844,6.619-13.822,4.184c-2.33,5.825-4.025,11.968-4.871,18.376
						c5.507,0.371,9.849,4.925,9.849,10.538c0,5.56-4.342,10.168-9.849,10.539c0.846,6.408,2.541,12.551,4.871,18.323
						c4.978-2.436,11.015-0.635,13.822,4.237c2.808,4.819,1.377,10.962-3.23,14.034c3.866,5.031,8.368,9.532,13.399,13.397
						c3.124-4.553,9.214-6.036,14.086-3.23c4.819,2.808,6.62,8.898,4.184,13.823c5.825,2.383,11.968,4.078,18.376,4.924
						c0.371-5.56,4.925-9.849,10.539-9.849c5.56,0,10.167,4.289,10.538,9.849c6.408-0.846,12.551-2.541,18.324-4.924
						c-2.436-4.925-0.636-11.015,4.236-13.823c4.819-2.806,10.962-1.323,14.034,3.23c5.031-3.865,9.533-8.366,13.398-13.397
						c-4.554-3.072-6.037-9.215-3.23-14.034c2.806-4.872,8.897-6.673,13.821-4.237c2.384-5.771,4.078-11.915,4.926-18.323
						c-5.561-0.371-9.85-4.978-9.85-10.539c0-5.613,4.289-10.167,9.85-10.538c-0.848-6.408-2.542-12.551-4.926-18.376
						c-4.924,2.435-11.015,0.635-13.821-4.184c-2.807-4.872-1.324-10.962,3.23-14.087c-3.865-5.031-8.367-9.532-13.398-13.398
						c-3.072,4.607-9.215,6.037-14.034,3.231c-4.872-2.807-6.672-8.845-4.236-13.823c-5.773-2.33-11.916-4.024-18.324-4.872
						C157.526,48.936,152.919,53.278,147.359,53.278"/>
				</defs>
				<clipPath id="SVGID_20_">
					<use xlink:href="#SVGID_19_"  overflow="visible"/>
				</clipPath>
				<path clip-path="url(#SVGID_20_)" fill="#FFFFFF" d="M268.542,134.839l-46.441,114.417c0,0-4.884,7.614-13.197,1.912
					l-46.425-52.195l-17.959-13.371l-31.17-17.619c0,0-4.766-2.797-4.5-6.851c0.266-4.055,6.947-4.995,6.947-4.995l142.459-26.524
					C258.256,129.613,270.063,126.92,268.542,134.839"/>
				<path clip-path="url(#SVGID_20_)" fill="none" stroke="#FFFFFF" stroke-width="4" stroke-miterlimit="10" d="M268.542,134.839
					l-46.441,114.417c0,0-4.884,7.614-13.197,1.912l-46.425-52.195l-17.959-13.371l-31.17-17.619c0,0-4.766-2.797-4.5-6.851
					c0.266-4.055,6.947-4.995,6.947-4.995l142.459-26.524C258.256,129.613,270.063,126.92,268.542,134.839z"/>
				<path clip-path="url(#SVGID_20_)" fill="#1D7B3D" d="M151.357,234.284c0,0-1.561-0.454-2.336-7.104
					c-0.776-6.649-4.501-41.577-4.501-41.577l89.774-35.445c0,0,5.158-1.917,4.455,0.855c0,0,0.73,0.654-2.189,2.488
					c-2.918,1.835-73.726,44.514-73.726,44.514"/>
				<path clip-path="url(#SVGID_20_)" fill="none" stroke="#FFFFFF" stroke-width="4" stroke-miterlimit="10" d="M151.357,234.284
					c0,0-1.561-0.454-2.336-7.104c-0.776-6.649-4.501-41.577-4.501-41.577l89.774-35.445c0,0,5.158-1.917,4.455,0.855
					c0,0,0.73,0.654-2.189,2.488c-2.918,1.835-73.726,44.514-73.726,44.514"/>
				<path clip-path="url(#SVGID_20_)" fill="#1D7B3D" d="M180.28,218.986l-25.306,15.498c0,0-1.929,0.953-3.616-0.201l11.128-35.677
					"/>
				<path clip-path="url(#SVGID_20_)" fill="none" stroke="#FFFFFF" stroke-width="4" stroke-miterlimit="10" d="M180.28,218.986
					l-25.306,15.498c0,0-1.929,0.953-3.616-0.201l11.128-35.677"/>
			</g>
			<g clip-path="url(#SVGID_4_)">
				<defs>
					<rect id="SVGID_21_" width="370.657" height="370.657"/>
				</defs>
				<clipPath id="SVGID_22_">
					<use xlink:href="#SVGID_21_"  overflow="visible"/>
				</clipPath>
				<path clip-path="url(#SVGID_22_)" fill="none" stroke="#FFFFFF" stroke-width="4" stroke-miterlimit="10" d="M157.897,43.428
					c6.408,0.847,12.551,2.542,18.323,4.872c-2.436,4.978-0.635,11.015,4.237,13.822c4.819,2.807,10.962,1.377,14.034-3.23
					c5.031,3.866,9.532,8.367,13.398,13.398c-4.554,3.124-6.037,9.215-3.23,14.087c2.806,4.819,8.897,6.619,13.822,4.183
					c2.383,5.826,4.077,11.969,4.925,18.377c-5.561,0.37-9.85,4.925-9.85,10.538c0,5.561,4.289,10.168,9.85,10.539
					c-0.848,6.408-2.542,12.551-4.925,18.323c-4.925-2.436-11.016-0.635-13.822,4.237c-2.807,4.819-1.324,10.962,3.23,14.034
					c-3.866,5.031-8.367,9.532-13.398,13.398c-3.072-4.555-9.215-6.037-14.034-3.231c-4.872,2.807-6.673,8.897-4.237,13.822
					c-5.772,2.383-11.915,4.078-18.323,4.926c-0.371-5.561-4.978-9.851-10.539-9.851c-5.613,0-10.167,4.29-10.538,9.851
					c-6.408-0.848-12.551-2.543-18.377-4.926c2.437-4.925,0.636-11.015-4.183-13.822c-4.872-2.806-10.962-1.324-14.087,3.231
					c-5.031-3.866-9.532-8.367-13.398-13.398c4.607-3.072,6.037-9.215,3.23-14.034c-2.806-4.872-8.844-6.673-13.822-4.237
					c-2.33-5.772-4.024-11.915-4.872-18.323c5.508-0.371,9.85-4.978,9.85-10.539c0-5.613-4.342-10.168-9.85-10.538
					c0.848-6.408,2.542-12.551,4.872-18.377c4.978,2.436,11.016,0.636,13.822-4.183c2.754-4.819,1.377-10.963-3.177-14.087
					c3.866-4.978,8.367-9.48,13.345-13.345c3.125,4.554,9.268,5.931,14.087,3.177c4.819-2.807,6.62-8.844,4.183-13.822
					c5.826-2.33,11.969-4.025,18.377-4.872c0.371,5.507,4.925,9.85,10.538,9.85C152.919,53.278,157.526,48.935,157.897,43.428z"/>
				<g clip-path="url(#SVGID_22_)">
					<g>
						<defs>
							<rect id="SVGID_23_" x="29.57" y="124.337" width="243.942" height="170.65"/>
						</defs>
						<clipPath id="SVGID_24_">
							<use xlink:href="#SVGID_23_"  overflow="visible"/>
						</clipPath>
						<path clip-path="url(#SVGID_24_)" fill="#1D7B3D" d="M31.833,206.139c0.847-6.408,2.542-12.551,4.872-18.323
							c4.978,2.436,11.015,0.635,13.822-4.237c2.807-4.819,1.377-10.962-3.23-14.034c3.866-5.031,8.367-9.532,13.398-13.398
							c3.124,4.554,9.215,6.037,14.087,3.23c4.819-2.806,6.619-8.897,4.183-13.822c5.826-2.383,11.969-4.077,18.377-4.925
							c0.37,5.561,4.925,9.85,10.538,9.85c5.561,0,10.168-4.289,10.539-9.85c6.408,0.848,12.551,2.542,18.323,4.925
							c-2.436,4.925-0.635,11.016,4.237,13.822c4.819,2.807,10.962,1.324,14.034-3.23c5.031,3.866,9.532,8.367,13.398,13.398
							c-4.555,3.072-6.037,9.215-3.231,14.034c2.807,4.872,8.897,6.673,13.822,4.237c2.383,5.772,4.078,11.915,4.926,18.323
							c-5.561,0.371-9.851,4.978-9.851,10.539c0,5.613,4.29,10.167,9.851,10.538c-0.848,6.408-2.543,12.551-4.926,18.377
							c-4.925-2.437-11.015-0.636-13.822,4.183c-2.806,4.872-1.324,10.962,3.231,14.087c-3.866,5.031-8.367,9.532-13.398,13.398
							c-3.072-4.607-9.215-6.037-14.034-3.23c-4.872,2.806-6.673,8.844-4.237,13.822c-5.772,2.33-11.915,4.024-18.323,4.872
							c-0.371-5.508-4.978-9.85-10.539-9.85c-5.613,0-10.168,4.342-10.538,9.85c-6.408-0.848-12.551-2.542-18.377-4.872
							c2.436-4.978,0.636-11.016-4.183-13.822c-4.819-2.754-10.963-1.377-14.087,3.177c-4.978-3.866-9.48-8.367-13.345-13.345
							c4.554-3.125,5.931-9.268,3.177-14.087c-2.807-4.819-8.844-6.62-13.822-4.183c-2.33-5.826-4.025-11.969-4.872-18.377
							c5.507-0.371,9.85-4.925,9.85-10.538C41.683,211.117,37.34,206.51,31.833,206.139"/>
						<g clip-path="url(#SVGID_24_)">
							<defs>
								<path id="SVGID_25_" d="M31.833,206.139c0.847-6.408,2.541-12.551,4.872-18.323c4.978,2.436,11.015,0.635,13.822-4.237
									c2.806-4.819,1.376-10.962-3.231-14.034c3.866-5.03,8.368-9.532,13.399-13.398c3.124,4.554,9.214,6.037,14.086,3.231
									c4.82-2.807,6.62-8.897,4.184-13.822c5.825-2.384,11.968-4.078,18.376-4.925c0.371,5.56,4.925,9.85,10.539,9.85
									c5.56,0,10.168-4.29,10.538-9.85c6.408,0.847,12.552,2.541,18.324,4.925c-2.436,4.925-0.636,11.015,4.236,13.822
									c4.82,2.806,10.963,1.323,14.034-3.231c5.031,3.866,9.532,8.368,13.398,13.398c-4.554,3.072-6.037,9.215-3.23,14.034
									c2.807,4.872,8.897,6.673,13.822,4.237c2.383,5.772,4.078,11.915,4.925,18.323c-5.561,0.371-9.85,4.978-9.85,10.539
									c0,5.613,4.289,10.168,9.85,10.538c-0.847,6.408-2.542,12.551-4.925,18.377c-4.925-2.436-11.015-0.636-13.822,4.183
									c-2.807,4.872-1.324,10.963,3.23,14.087c-3.866,5.031-8.367,9.533-13.398,13.398c-3.071-4.607-9.214-6.037-14.034-3.23
									c-4.872,2.807-6.673,8.844-4.236,13.822c-5.773,2.33-11.916,4.025-18.324,4.872c-0.37-5.508-4.978-9.85-10.538-9.85
									c-5.614,0-10.168,4.342-10.539,9.85c-6.408-0.847-12.551-2.542-18.376-4.872c2.436-4.978,0.635-11.015-4.184-13.822
									c-4.819-2.754-10.962-1.377-14.086,3.177c-4.978-3.865-9.48-8.367-13.346-13.345c4.554-3.124,5.931-9.268,3.178-14.087
									c-2.807-4.819-8.844-6.619-13.822-4.183c-2.331-5.826-4.025-11.969-4.872-18.377c5.507-0.37,9.85-4.925,9.85-10.538
									C41.683,211.117,37.34,206.51,31.833,206.139"/>
							</defs>
							<clipPath id="SVGID_26_">
								<use xlink:href="#SVGID_25_"  overflow="visible"/>
							</clipPath>
							<path clip-path="url(#SVGID_26_)" fill="#1D7B3D" d="M271.376,132.005l-46.441,114.417c0,0-4.884,7.614-13.197,1.912
								l-46.425-52.195l-17.959-13.371l-31.17-17.619c0,0-4.766-2.797-4.5-6.851c0.266-4.055,6.947-4.995,6.947-4.995
								l142.459-26.524C261.09,126.779,272.897,124.086,271.376,132.005"/>
							<path clip-path="url(#SVGID_26_)" fill="none" stroke="#1D7B3D" stroke-width="4" stroke-miterlimit="10" d="
								M271.376,132.005l-46.441,114.417c0,0-4.884,7.614-13.197,1.912l-46.425-52.195l-17.959-13.371l-31.17-17.619
								c0,0-4.766-2.797-4.5-6.851c0.266-4.055,6.947-4.995,6.947-4.995l142.459-26.524
								C261.09,126.779,272.897,124.086,271.376,132.005z"/>
							<path clip-path="url(#SVGID_26_)" fill="#1D7B3D" d="M154.192,231.449c0,0-1.561-0.454-2.336-7.104
								c-0.776-6.649-4.501-41.577-4.501-41.577l89.774-35.445c0,0,5.158-1.917,4.455,0.855c0,0,0.73,0.654-2.189,2.488
								c-2.918,1.835-73.726,44.514-73.726,44.514"/>
							<path clip-path="url(#SVGID_26_)" fill="none" stroke="#1D7B3D" stroke-width="4" stroke-miterlimit="10" d="
								M154.192,231.449c0,0-1.561-0.454-2.336-7.104c-0.776-6.649-4.501-41.577-4.501-41.577l89.774-35.445
								c0,0,5.158-1.917,4.455,0.855c0,0,0.73,0.654-2.189,2.488c-2.918,1.835-73.726,44.514-73.726,44.514"/>
							<path clip-path="url(#SVGID_26_)" fill="#1D7B3D" d="M183.114,216.152l-25.306,15.498c0,0-1.929,0.953-3.616-0.201
								l11.128-35.677"/>
							<path clip-path="url(#SVGID_26_)" fill="none" stroke="#1D7B3D" stroke-width="4" stroke-miterlimit="10" d="
								M183.114,216.152l-25.306,15.498c0,0-1.929,0.953-3.616-0.201l11.128-35.677"/>
						</g>
						<path clip-path="url(#SVGID_24_)" fill="none" stroke="#1D7B3D" stroke-width="4" stroke-miterlimit="10" d="M31.833,206.139
							c0.847-6.408,2.542-12.551,4.872-18.323c4.978,2.436,11.015,0.635,13.822-4.237c2.807-4.819,1.377-10.962-3.23-14.034
							c3.866-5.031,8.367-9.532,13.398-13.398c3.124,4.554,9.215,6.037,14.087,3.23c4.819-2.806,6.619-8.897,4.183-13.822
							c5.826-2.383,11.969-4.077,18.377-4.925c0.37,5.561,4.925,9.85,10.538,9.85c5.561,0,10.168-4.289,10.539-9.85
							c6.408,0.848,12.551,2.542,18.323,4.925c-2.436,4.925-0.635,11.016,4.237,13.822c4.819,2.807,10.962,1.324,14.034-3.23
							c5.031,3.866,9.532,8.367,13.398,13.398c-4.555,3.072-6.037,9.215-3.231,14.034c2.807,4.872,8.897,6.673,13.822,4.237
							c2.383,5.772,4.078,11.915,4.926,18.323c-5.561,0.371-9.851,4.978-9.851,10.539c0,5.613,4.29,10.167,9.851,10.538
							c-0.848,6.408-2.543,12.551-4.926,18.377c-4.925-2.437-11.015-0.636-13.822,4.183c-2.806,4.872-1.324,10.962,3.231,14.087
							c-3.866,5.031-8.367,9.532-13.398,13.398c-3.072-4.607-9.215-6.037-14.034-3.23c-4.872,2.806-6.673,8.844-4.237,13.822
							c-5.772,2.33-11.915,4.024-18.323,4.872c-0.371-5.508-4.978-9.85-10.539-9.85c-5.613,0-10.168,4.342-10.538,9.85
							c-6.408-0.848-12.551-2.542-18.377-4.872c2.436-4.978,0.636-11.016-4.183-13.822c-4.819-2.754-10.963-1.377-14.087,3.177
							c-4.978-3.866-9.48-8.367-13.345-13.345c4.554-3.125,5.931-9.268,3.177-14.087c-2.807-4.819-8.844-6.62-13.822-4.183
							c-2.33-5.826-4.025-11.969-4.872-18.377c5.507-0.371,9.85-4.925,9.85-10.538C41.683,211.117,37.34,206.51,31.833,206.139z"/>
					</g>
				</g>
				<path clip-path="url(#SVGID_22_)" fill="#1D7B3D" d="M28.998,208.974c0.847-6.408,2.542-12.551,4.872-18.323
					c4.978,2.436,11.015,0.635,13.822-4.237c2.807-4.819,1.377-10.962-3.23-14.034c3.866-5.031,8.367-9.532,13.398-13.398
					c3.124,4.554,9.215,6.037,14.087,3.23c4.819-2.806,6.619-8.897,4.183-13.822c5.826-2.383,11.969-4.077,18.377-4.925
					c0.37,5.561,4.925,9.85,10.538,9.85c5.561,0,10.168-4.289,10.539-9.85c6.408,0.848,12.551,2.542,18.323,4.925
					c-2.436,4.925-0.635,11.016,4.237,13.822c4.819,2.807,10.962,1.324,14.034-3.23c5.031,3.866,9.532,8.367,13.398,13.398
					c-4.555,3.072-6.037,9.215-3.231,14.034c2.807,4.872,8.897,6.673,13.822,4.237c2.383,5.772,4.078,11.915,4.926,18.323
					c-5.561,0.371-9.851,4.978-9.851,10.539c0,5.613,4.29,10.167,9.851,10.538c-0.848,6.408-2.543,12.551-4.926,18.377
					c-4.925-2.437-11.015-0.636-13.822,4.183c-2.806,4.872-1.324,10.962,3.231,14.087c-3.866,5.031-8.367,9.532-13.398,13.398
					c-3.072-4.607-9.215-6.037-14.034-3.23c-4.872,2.806-6.673,8.844-4.237,13.822c-5.772,2.33-11.915,4.024-18.323,4.872
					c-0.371-5.508-4.978-9.85-10.539-9.85c-5.613,0-10.168,4.342-10.538,9.85c-6.408-0.848-12.551-2.542-18.377-4.872
					c2.436-4.978,0.636-11.016-4.183-13.822c-4.819-2.754-10.963-1.377-14.087,3.177c-4.978-3.866-9.48-8.367-13.345-13.345
					c4.554-3.125,5.931-9.268,3.177-14.087c-2.807-4.819-8.844-6.62-13.822-4.183c-2.33-5.826-4.025-11.969-4.872-18.377
					c5.507-0.371,9.85-4.925,9.85-10.538C38.848,213.952,34.505,209.345,28.998,208.974"/>
			</g>
			<g clip-path="url(#SVGID_4_)">
				<defs>
					<path id="SVGID_27_" d="M105.045,153.315c-5.613,0-10.168-4.289-10.539-9.849c-6.408,0.846-12.55,2.541-18.376,4.924
						c2.436,4.925,0.636,11.015-4.183,13.822c-4.873,2.807-10.963,1.324-14.087-3.23c-5.031,3.866-9.533,8.367-13.398,13.398
						c4.607,3.072,6.037,9.215,3.23,14.034c-2.806,4.872-8.844,6.673-13.822,4.237c-2.33,5.772-4.025,11.915-4.872,18.323
						c5.507,0.371,9.85,4.978,9.85,10.539c0,5.613-4.343,10.167-9.85,10.538c0.847,6.408,2.542,12.55,4.872,18.376
						c4.978-2.436,11.015-0.635,13.822,4.184c2.754,4.819,1.377,10.962-3.177,14.086c3.865,4.979,8.367,9.48,13.345,13.346
						c3.124-4.555,9.267-5.932,14.087-3.178c4.819,2.807,6.619,8.845,4.183,13.823c5.826,2.33,11.968,4.024,18.376,4.871
						c0.371-5.507,4.925-9.849,10.539-9.849c5.56,0,10.169,4.342,10.538,9.849c6.408-0.847,12.552-2.541,18.324-4.871
						c-2.436-4.978-0.635-11.016,4.237-13.823c4.819-2.806,10.962-1.377,14.033,3.231c5.031-3.866,9.533-8.367,13.399-13.399
						c-4.554-3.124-6.038-9.214-3.23-14.086c2.806-4.819,8.896-6.62,13.821-4.184c2.383-5.825,4.078-11.968,4.926-18.376
						c-5.562-0.371-9.851-4.925-9.851-10.538c0-5.561,4.289-10.168,9.851-10.539c-0.848-6.408-2.543-12.551-4.926-18.323
						c-4.925,2.436-11.015,0.635-13.821-4.237c-2.808-4.819-1.324-10.962,3.23-14.034c-3.866-5.031-8.368-9.532-13.399-13.398
						c-3.071,4.554-9.214,6.037-14.033,3.23c-4.872-2.807-6.673-8.897-4.237-13.822c-5.772-2.383-11.916-4.078-18.324-4.924
						C115.214,149.026,110.605,153.315,105.045,153.315"/>
				</defs>
				<clipPath id="SVGID_28_">
					<use xlink:href="#SVGID_27_"  overflow="visible"/>
				</clipPath>
				<path clip-path="url(#SVGID_28_)" fill="#FFFFFF" d="M268.542,134.839l-46.441,114.417c0,0-4.884,7.614-13.197,1.912
					l-46.425-52.195l-17.959-13.371l-31.17-17.619c0,0-4.766-2.797-4.5-6.851c0.266-4.055,6.947-4.995,6.947-4.995l142.459-26.524
					C258.256,129.613,270.063,126.92,268.542,134.839"/>
				<path clip-path="url(#SVGID_28_)" fill="none" stroke="#FFFFFF" stroke-width="4" stroke-miterlimit="10" d="M268.542,134.839
					l-46.441,114.417c0,0-4.884,7.614-13.197,1.912l-46.425-52.195l-17.959-13.371l-31.17-17.619c0,0-4.766-2.797-4.5-6.851
					c0.266-4.055,6.947-4.995,6.947-4.995l142.459-26.524C258.256,129.613,270.063,126.92,268.542,134.839z"/>
				<path clip-path="url(#SVGID_28_)" fill="#1D7B3D" d="M151.357,234.284c0,0-1.561-0.454-2.336-7.104
					c-0.776-6.649-4.501-41.577-4.501-41.577l89.774-35.445c0,0,5.158-1.917,4.455,0.855c0,0,0.73,0.654-2.189,2.488
					c-2.918,1.835-73.726,44.514-73.726,44.514"/>
				<path clip-path="url(#SVGID_28_)" fill="none" stroke="#FFFFFF" stroke-width="4" stroke-miterlimit="10" d="M151.357,234.284
					c0,0-1.561-0.454-2.336-7.104c-0.776-6.649-4.501-41.577-4.501-41.577l89.774-35.445c0,0,5.158-1.917,4.455,0.855
					c0,0,0.73,0.654-2.189,2.488c-2.918,1.835-73.726,44.514-73.726,44.514"/>
				<path clip-path="url(#SVGID_28_)" fill="#1D7B3D" d="M180.28,218.986l-25.306,15.498c0,0-1.929,0.953-3.616-0.201l11.128-35.677
					"/>
				<path clip-path="url(#SVGID_28_)" fill="none" stroke="#FFFFFF" stroke-width="4" stroke-miterlimit="10" d="M180.28,218.986
					l-25.306,15.498c0,0-1.929,0.953-3.616-0.201l11.128-35.677"/>
			</g>
			<g clip-path="url(#SVGID_4_)">
				<defs>
					<rect id="SVGID_29_" width="370.657" height="370.657"/>
				</defs>
				<clipPath id="SVGID_30_">
					<use xlink:href="#SVGID_29_"  overflow="visible"/>
				</clipPath>
				<path clip-path="url(#SVGID_30_)" fill="none" stroke="#FFFFFF" stroke-width="4" stroke-miterlimit="10" d="M28.998,208.974
					c0.847-6.408,2.542-12.551,4.872-18.323c4.978,2.436,11.015,0.635,13.822-4.237c2.807-4.819,1.377-10.962-3.23-14.034
					c3.866-5.031,8.367-9.532,13.398-13.398c3.124,4.554,9.215,6.037,14.087,3.23c4.819-2.806,6.619-8.897,4.183-13.822
					c5.826-2.383,11.969-4.077,18.377-4.925c0.37,5.561,4.925,9.85,10.538,9.85c5.561,0,10.168-4.289,10.539-9.85
					c6.408,0.848,12.551,2.542,18.323,4.925c-2.436,4.925-0.635,11.016,4.237,13.822c4.819,2.807,10.962,1.324,14.034-3.23
					c5.031,3.866,9.532,8.367,13.398,13.398c-4.555,3.072-6.037,9.215-3.231,14.034c2.807,4.872,8.897,6.673,13.822,4.237
					c2.383,5.772,4.078,11.915,4.926,18.323c-5.561,0.371-9.851,4.978-9.851,10.539c0,5.613,4.29,10.167,9.851,10.538
					c-0.848,6.408-2.543,12.551-4.926,18.377c-4.925-2.437-11.015-0.636-13.822,4.183c-2.806,4.872-1.324,10.962,3.231,14.087
					c-3.866,5.031-8.367,9.532-13.398,13.398c-3.072-4.607-9.215-6.037-14.034-3.23c-4.872,2.806-6.673,8.844-4.237,13.822
					c-5.772,2.33-11.915,4.024-18.323,4.872c-0.371-5.508-4.978-9.85-10.539-9.85c-5.613,0-10.168,4.342-10.538,9.85
					c-6.408-0.848-12.551-2.542-18.377-4.872c2.436-4.978,0.636-11.016-4.183-13.822c-4.819-2.754-10.963-1.377-14.087,3.177
					c-4.978-3.866-9.48-8.367-13.345-13.345c4.554-3.125,5.931-9.268,3.177-14.087c-2.807-4.819-8.844-6.62-13.822-4.183
					c-2.33-5.826-4.025-11.969-4.872-18.377c5.507-0.371,9.85-4.925,9.85-10.538C38.848,213.952,34.505,209.345,28.998,208.974z"/>
				<g opacity="0.95" clip-path="url(#SVGID_30_)">
					<g>
						<defs>
							<rect id="SVGID_31_" x="109.674" y="124.337" width="194.823" height="202.319"/>
						</defs>
						<clipPath id="SVGID_32_">
							<use xlink:href="#SVGID_31_"  overflow="visible"/>
						</clipPath>
						<path clip-path="url(#SVGID_32_)" fill="#1D7B3D" d="M215.649,324.394c-6.408-0.847-12.551-2.542-18.323-4.872
							c2.436-4.978,0.635-11.015-4.237-13.822c-4.819-2.807-10.962-1.377-14.034,3.23c-5.031-3.866-9.532-8.367-13.398-13.398
							c4.554-3.124,6.037-9.215,3.23-14.087c-2.806-4.819-8.897-6.619-13.822-4.183c-2.383-5.826-4.077-11.969-4.925-18.377
							c5.561-0.37,9.85-4.925,9.85-10.538c0-5.561-4.289-10.168-9.85-10.539c0.848-6.408,2.542-12.551,4.925-18.323
							c4.925,2.436,11.016,0.635,13.822-4.237c2.807-4.819,1.324-10.962-3.23-14.034c3.866-5.031,8.367-9.532,13.398-13.398
							c3.072,4.555,9.215,6.037,14.034,3.231c4.872-2.807,6.673-8.897,4.237-13.822c5.772-2.383,11.915-4.078,18.323-4.926
							c0.371,5.561,4.978,9.851,10.539,9.851c5.613,0,10.167-4.29,10.538-9.851c6.408,0.848,12.551,2.543,18.377,4.926
							c-2.437,4.925-0.636,11.015,4.183,13.822c4.872,2.806,10.962,1.324,14.087-3.231c5.031,3.866,9.532,8.367,13.398,13.398
							c-4.607,3.072-6.037,9.215-3.23,14.034c2.806,4.872,8.844,6.673,13.822,4.237c2.33,5.772,4.024,11.915,4.872,18.323
							c-5.508,0.371-9.85,4.978-9.85,10.539c0,5.613,4.342,10.168,9.85,10.538c-0.848,6.408-2.542,12.551-4.872,18.377
							c-4.978-2.436-11.016-0.636-13.822,4.183c-2.754,4.819-1.377,10.963,3.177,14.087c-3.866,4.978-8.367,9.48-13.345,13.345
							c-3.125-4.554-9.268-5.931-14.087-3.177c-4.819,2.807-6.62,8.844-4.183,13.822c-5.826,2.33-11.969,4.025-18.377,4.872
							c-0.371-5.507-4.925-9.85-10.538-9.85C220.627,314.544,216.02,318.887,215.649,324.394"/>
						<g clip-path="url(#SVGID_32_)">
							<defs>
								<path id="SVGID_33_" d="M215.649,324.394c-6.408-0.848-12.551-2.542-18.324-4.872c2.436-4.978,0.636-11.016-4.236-13.823
									c-4.819-2.806-10.963-1.376-14.034,3.231c-5.031-3.866-9.533-8.367-13.398-13.398c4.554-3.125,6.037-9.215,3.23-14.087
									c-2.807-4.819-8.897-6.62-13.822-4.184c-2.383-5.825-4.078-11.968-4.925-18.376c5.56-0.371,9.85-4.925,9.85-10.539
									c0-5.56-4.29-10.168-9.85-10.538c0.847-6.408,2.542-12.551,4.925-18.324c4.925,2.437,11.015,0.636,13.822-4.236
									c2.807-4.819,1.324-10.962-3.23-14.034c3.865-5.031,8.367-9.532,13.398-13.398c3.071,4.554,9.215,6.037,14.034,3.23
									c4.872-2.807,6.672-8.897,4.236-13.822c5.773-2.383,11.916-4.077,18.324-4.925c0.37,5.561,4.978,9.85,10.538,9.85
									c5.614,0,10.168-4.289,10.539-9.85c6.408,0.848,12.551,2.542,18.376,4.925c-2.436,4.925-0.635,11.015,4.184,13.822
									c4.872,2.807,10.962,1.324,14.086-3.23c5.031,3.866,9.533,8.367,13.399,13.398c-4.608,3.072-6.038,9.215-3.231,14.034
									c2.807,4.872,8.844,6.673,13.822,4.237c2.33,5.772,4.025,11.915,4.872,18.323c-5.507,0.37-9.85,4.978-9.85,10.539
									c0,5.613,4.343,10.167,9.85,10.538c-0.847,6.408-2.542,12.551-4.872,18.376c-4.978-2.436-11.015-0.635-13.822,4.184
									c-2.754,4.819-1.377,10.962,3.178,14.087c-3.866,4.978-8.368,9.479-13.346,13.345c-3.124-4.554-9.267-5.931-14.086-3.178
									c-4.819,2.807-6.62,8.845-4.184,13.823c-5.825,2.33-11.968,4.024-18.376,4.872c-0.371-5.508-4.925-9.85-10.539-9.85
									C220.627,314.544,216.019,318.886,215.649,324.394"/>
							</defs>
							<clipPath id="SVGID_34_">
								<use xlink:href="#SVGID_33_"  overflow="visible"/>
							</clipPath>
							<path clip-path="url(#SVGID_34_)" fill="#1D7B3D" d="M271.376,132.005l-46.441,114.417c0,0-4.884,7.614-13.197,1.912
								l-46.425-52.195l-17.959-13.371l-31.17-17.619c0,0-4.766-2.797-4.5-6.851c0.266-4.055,6.947-4.995,6.947-4.995
								l142.459-26.524C261.09,126.779,272.897,124.086,271.376,132.005"/>
							<path clip-path="url(#SVGID_34_)" fill="none" stroke="#1D7B3D" stroke-width="4" stroke-miterlimit="10" d="
								M271.376,132.005l-46.441,114.417c0,0-4.884,7.614-13.197,1.912l-46.425-52.195l-17.959-13.371l-31.17-17.619
								c0,0-4.766-2.797-4.5-6.851c0.266-4.055,6.947-4.995,6.947-4.995l142.459-26.524
								C261.09,126.779,272.897,124.086,271.376,132.005z"/>
							<path clip-path="url(#SVGID_34_)" fill="#1D7B3D" d="M154.192,231.449c0,0-1.561-0.454-2.336-7.104
								c-0.776-6.649-4.501-41.577-4.501-41.577l89.774-35.445c0,0,5.158-1.917,4.455,0.855c0,0,0.73,0.654-2.189,2.488
								c-2.918,1.835-73.726,44.514-73.726,44.514"/>
							<path clip-path="url(#SVGID_34_)" fill="none" stroke="#1D7B3D" stroke-width="4" stroke-miterlimit="10" d="
								M154.192,231.449c0,0-1.561-0.454-2.336-7.104c-0.776-6.649-4.501-41.577-4.501-41.577l89.774-35.445
								c0,0,5.158-1.917,4.455,0.855c0,0,0.73,0.654-2.189,2.488c-2.918,1.835-73.726,44.514-73.726,44.514"/>
							<path clip-path="url(#SVGID_34_)" fill="#1D7B3D" d="M183.114,216.152l-25.306,15.498c0,0-1.929,0.953-3.616-0.201
								l11.128-35.677"/>
							<path clip-path="url(#SVGID_34_)" fill="none" stroke="#1D7B3D" stroke-width="4" stroke-miterlimit="10" d="
								M183.114,216.152l-25.306,15.498c0,0-1.929,0.953-3.616-0.201l11.128-35.677"/>
						</g>
						<path clip-path="url(#SVGID_32_)" fill="none" stroke="#1D7B3D" stroke-width="4" stroke-miterlimit="10" d="M215.649,324.394
							c-6.408-0.847-12.551-2.542-18.323-4.872c2.436-4.978,0.635-11.015-4.237-13.822c-4.819-2.807-10.962-1.377-14.034,3.23
							c-5.031-3.866-9.532-8.367-13.398-13.398c4.554-3.124,6.037-9.215,3.23-14.087c-2.806-4.819-8.897-6.619-13.822-4.183
							c-2.383-5.826-4.077-11.969-4.925-18.377c5.561-0.37,9.85-4.925,9.85-10.538c0-5.561-4.289-10.168-9.85-10.539
							c0.848-6.408,2.542-12.551,4.925-18.323c4.925,2.436,11.016,0.635,13.822-4.237c2.807-4.819,1.324-10.962-3.23-14.034
							c3.866-5.031,8.367-9.532,13.398-13.398c3.072,4.555,9.215,6.037,14.034,3.231c4.872-2.807,6.673-8.897,4.237-13.822
							c5.772-2.383,11.915-4.078,18.323-4.926c0.371,5.561,4.978,9.851,10.539,9.851c5.613,0,10.167-4.29,10.538-9.851
							c6.408,0.848,12.551,2.543,18.377,4.926c-2.437,4.925-0.636,11.015,4.183,13.822c4.872,2.806,10.962,1.324,14.087-3.231
							c5.031,3.866,9.532,8.367,13.398,13.398c-4.607,3.072-6.037,9.215-3.23,14.034c2.806,4.872,8.844,6.673,13.822,4.237
							c2.33,5.772,4.024,11.915,4.872,18.323c-5.508,0.371-9.85,4.978-9.85,10.539c0,5.613,4.342,10.168,9.85,10.538
							c-0.848,6.408-2.542,12.551-4.872,18.377c-4.978-2.436-11.016-0.636-13.822,4.183c-2.754,4.819-1.377,10.963,3.177,14.087
							c-3.866,4.978-8.367,9.48-13.345,13.345c-3.125-4.554-9.268-5.931-14.087-3.177c-4.819,2.807-6.62,8.844-4.183,13.822
							c-5.826,2.33-11.969,4.025-18.377,4.872c-0.371-5.507-4.925-9.85-10.538-9.85C220.627,314.544,216.02,318.887,215.649,324.394
							z"/>
					</g>
				</g>
				<path clip-path="url(#SVGID_30_)" fill="#1D7B3D" d="M212.814,327.228c-6.408-0.847-12.551-2.542-18.323-4.872
					c2.436-4.978,0.635-11.015-4.237-13.822c-4.819-2.807-10.962-1.377-14.034,3.23c-5.031-3.866-9.532-8.367-13.398-13.398
					c4.554-3.124,6.037-9.215,3.23-14.087c-2.806-4.819-8.897-6.619-13.822-4.183c-2.383-5.826-4.077-11.969-4.925-18.377
					c5.561-0.37,9.85-4.925,9.85-10.538c0-5.561-4.289-10.168-9.85-10.539c0.848-6.408,2.542-12.551,4.925-18.323
					c4.925,2.436,11.016,0.635,13.822-4.237c2.807-4.819,1.324-10.962-3.23-14.034c3.866-5.031,8.367-9.532,13.398-13.398
					c3.072,4.555,9.215,6.037,14.034,3.231c4.872-2.807,6.673-8.897,4.237-13.822c5.772-2.383,11.915-4.078,18.323-4.926
					c0.371,5.561,4.978,9.851,10.539,9.851c5.613,0,10.167-4.29,10.538-9.851c6.408,0.848,12.551,2.543,18.377,4.926
					c-2.437,4.925-0.636,11.015,4.183,13.822c4.872,2.806,10.962,1.324,14.087-3.231c5.031,3.866,9.532,8.367,13.398,13.398
					c-4.607,3.072-6.037,9.215-3.23,14.034c2.806,4.872,8.844,6.673,13.822,4.237c2.33,5.772,4.024,11.915,4.872,18.323
					c-5.508,0.371-9.85,4.978-9.85,10.539c0,5.613,4.342,10.168,9.85,10.538c-0.848,6.408-2.542,12.551-4.872,18.377
					c-4.978-2.436-11.016-0.636-13.822,4.183c-2.754,4.819-1.377,10.963,3.177,14.087c-3.866,4.978-8.367,9.48-13.345,13.345
					c-3.125-4.554-9.268-5.931-14.087-3.177c-4.819,2.807-6.62,8.844-4.183,13.822c-5.826,2.33-11.969,4.025-18.377,4.872
					c-0.371-5.507-4.925-9.85-10.538-9.85C217.792,317.378,213.185,321.721,212.814,327.228"/>
			</g>
			<g clip-path="url(#SVGID_4_)">
				<defs>
					<path id="SVGID_35_" d="M223.352,184.984c-5.56,0-10.167-4.289-10.538-9.85c-6.408,0.848-12.551,2.542-18.323,4.925
						c2.435,4.925,0.635,11.015-4.237,13.822c-4.819,2.807-10.962,1.324-14.034-3.23c-5.031,3.865-9.532,8.367-13.398,13.398
						c4.555,3.072,6.037,9.214,3.23,14.034c-2.806,4.871-8.897,6.672-13.822,4.236c-2.383,5.773-4.077,11.916-4.924,18.324
						c5.56,0.37,9.849,4.978,9.849,10.538c0,5.613-4.289,10.168-9.849,10.538c0.847,6.408,2.541,12.552,4.924,18.376
						c4.925-2.435,11.016-0.635,13.822,4.184c2.807,4.873,1.324,10.963-3.23,14.087c3.866,5.031,8.367,9.532,13.398,13.399
						c3.072-4.607,9.215-6.038,14.034-3.23c4.872,2.806,6.672,8.843,4.236,13.821c5.773,2.331,11.916,4.026,18.324,4.872
						c0.371-5.508,4.978-9.85,10.538-9.85c5.614,0,10.168,4.342,10.539,9.85c6.408-0.846,12.551-2.541,18.376-4.871
						c-2.436-4.979-0.635-11.016,4.184-13.822c4.819-2.754,10.962-1.377,14.086,3.177c4.978-3.866,9.48-8.368,13.346-13.346
						c-4.555-3.124-5.932-9.267-3.177-14.087c2.807-4.819,8.844-6.619,13.822-4.183c2.33-5.825,4.024-11.968,4.871-18.376
						c-5.507-0.371-9.849-4.926-9.849-10.539c0-5.56,4.342-10.168,9.849-10.538c-0.847-6.408-2.541-12.551-4.871-18.324
						c-4.978,2.436-11.015,0.635-13.822-4.236c-2.808-4.82-1.378-10.962,3.23-14.034c-3.866-5.031-8.368-9.533-13.399-13.398
						c-3.124,4.554-9.214,6.037-14.086,3.23c-4.819-2.807-6.62-8.897-4.184-13.822c-5.825-2.383-11.968-4.077-18.376-4.925
						C233.52,180.695,228.966,184.984,223.352,184.984"/>
				</defs>
				<clipPath id="SVGID_36_">
					<use xlink:href="#SVGID_35_"  overflow="visible"/>
				</clipPath>
				<path clip-path="url(#SVGID_36_)" fill="#FFFFFF" d="M268.542,134.839l-46.441,114.417c0,0-4.884,7.614-13.197,1.912
					l-46.425-52.195l-17.959-13.371l-31.17-17.619c0,0-4.766-2.797-4.5-6.851c0.266-4.055,6.947-4.995,6.947-4.995l142.459-26.524
					C258.256,129.613,270.063,126.92,268.542,134.839"/>
				<path clip-path="url(#SVGID_36_)" fill="none" stroke="#FFFFFF" stroke-width="4" stroke-miterlimit="10" d="M268.542,134.839
					l-46.441,114.417c0,0-4.884,7.614-13.197,1.912l-46.425-52.195l-17.959-13.371l-31.17-17.619c0,0-4.766-2.797-4.5-6.851
					c0.266-4.055,6.947-4.995,6.947-4.995l142.459-26.524C258.256,129.613,270.063,126.92,268.542,134.839z"/>
				<path clip-path="url(#SVGID_36_)" fill="#1D7B3D" d="M151.357,234.284c0,0-1.561-0.454-2.336-7.104
					c-0.776-6.649-4.501-41.577-4.501-41.577l89.774-35.445c0,0,5.158-1.917,4.455,0.855c0,0,0.73,0.654-2.189,2.488
					c-2.918,1.835-73.726,44.514-73.726,44.514"/>
				<path clip-path="url(#SVGID_36_)" fill="none" stroke="#FFFFFF" stroke-width="4" stroke-miterlimit="10" d="M151.357,234.284
					c0,0-1.561-0.454-2.336-7.104c-0.776-6.649-4.501-41.577-4.501-41.577l89.774-35.445c0,0,5.158-1.917,4.455,0.855
					c0,0,0.73,0.654-2.189,2.488c-2.918,1.835-73.726,44.514-73.726,44.514"/>
				<path clip-path="url(#SVGID_36_)" fill="#1D7B3D" d="M180.28,218.986l-25.306,15.498c0,0-1.929,0.953-3.616-0.201l11.128-35.677
					"/>
				<path clip-path="url(#SVGID_36_)" fill="none" stroke="#FFFFFF" stroke-width="4" stroke-miterlimit="10" d="M180.28,218.986
					l-25.306,15.498c0,0-1.929,0.953-3.616-0.201l11.128-35.677"/>
			</g>
			<g clip-path="url(#SVGID_4_)">
				<defs>
					<rect id="SVGID_37_" width="370.657" height="370.657"/>
				</defs>
				<clipPath id="SVGID_38_">
					<use xlink:href="#SVGID_37_"  overflow="visible"/>
				</clipPath>
				<path clip-path="url(#SVGID_38_)" fill="none" stroke="#FFFFFF" stroke-width="4" stroke-miterlimit="10" d="M212.814,327.228
					c-6.408-0.847-12.551-2.542-18.323-4.872c2.436-4.978,0.635-11.015-4.237-13.822c-4.819-2.807-10.962-1.377-14.034,3.23
					c-5.031-3.866-9.532-8.367-13.398-13.398c4.554-3.124,6.037-9.215,3.23-14.087c-2.806-4.819-8.897-6.619-13.822-4.183
					c-2.383-5.826-4.077-11.969-4.925-18.377c5.561-0.37,9.85-4.925,9.85-10.538c0-5.561-4.289-10.168-9.85-10.539
					c0.848-6.408,2.542-12.551,4.925-18.323c4.925,2.436,11.016,0.635,13.822-4.237c2.807-4.819,1.324-10.962-3.23-14.034
					c3.866-5.031,8.367-9.532,13.398-13.398c3.072,4.555,9.215,6.037,14.034,3.231c4.872-2.807,6.673-8.897,4.237-13.822
					c5.772-2.383,11.915-4.078,18.323-4.926c0.371,5.561,4.978,9.851,10.539,9.851c5.613,0,10.167-4.29,10.538-9.851
					c6.408,0.848,12.551,2.543,18.377,4.926c-2.437,4.925-0.636,11.015,4.183,13.822c4.872,2.806,10.962,1.324,14.087-3.231
					c5.031,3.866,9.532,8.367,13.398,13.398c-4.607,3.072-6.037,9.215-3.23,14.034c2.806,4.872,8.844,6.673,13.822,4.237
					c2.33,5.772,4.024,11.915,4.872,18.323c-5.508,0.371-9.85,4.978-9.85,10.539c0,5.613,4.342,10.168,9.85,10.538
					c-0.848,6.408-2.542,12.551-4.872,18.377c-4.978-2.436-11.016-0.636-13.822,4.183c-2.754,4.819-1.377,10.963,3.177,14.087
					c-3.866,4.978-8.367,9.48-13.345,13.345c-3.125-4.554-9.268-5.931-14.087-3.177c-4.819,2.807-6.62,8.844-4.183,13.822
					c-5.826,2.33-11.969,4.025-18.377,4.872c-0.371-5.507-4.925-9.85-10.538-9.85C217.792,317.378,213.185,321.721,212.814,327.228z
					"/>
			</g>
		</g>
	</g>
</g>
</svg>
