<?xml version="1.0" encoding="utf-8"?>
<!-- Generator: Adobe Illustrator 17.0.0, SVG Export Plug-In . SVG Version: 6.00 Build 0)  -->
<!DOCTYPE svg PUBLIC "-//W3C//DTD SVG 1.1//EN" "http://www.w3.org/Graphics/SVG/1.1/DTD/svg11.dtd">
<svg version="1.1" id="Capa_1" xmlns="http://www.w3.org/2000/svg" xmlns:xlink="http://www.w3.org/1999/xlink" x="0px" y="0px"
	 width="512px" height="512px" viewBox="0 0 512 512" enable-background="new 0 0 512 512" xml:space="preserve">
<g>
	<path fill="#333333" d="M378.695,39.724c-4.105-20.118-21.928-35.31-43.246-35.31c-4.873,0-8.828,3.946-8.828,8.828
		s3.955,8.828,8.828,8.828c14.601,0,26.483,11.882,26.483,26.483s-11.882,26.483-26.483,26.483c-4.873,0-8.828,3.946-8.828,8.828
		s3.955,8.828,8.828,8.828c21.31,0,39.142-15.192,43.246-35.31h115.65v61.793H388.414h-17.655H264.828h-17.655H141.241h-17.655
		H17.655V57.379h123.586h26.483c4.873,0,8.828-3.946,8.828-8.828s-3.955-8.828-8.828-8.828h-16.031
		c3.655-10.258,13.365-17.655,24.858-17.655c14.601,0,26.483,11.882,26.483,26.483s-11.882,26.483-26.483,26.483
		c-4.873,0-8.828,3.946-8.828,8.828s3.955,8.828,8.828,8.828c24.338,0,44.138-19.8,44.138-44.138s-19.8-44.138-44.138-44.138
		c-21.31,0-39.142,15.192-43.246,35.31H0v79.448v26.483v97.103v17.655v105.931V384v123.586h123.586h17.655h105.931h17.655h105.931
		h17.655H512V384v-17.655V260.414v-17.655v-97.103v-26.483V39.724H378.695z M264.828,136.828h105.931v105.931H264.828V136.828z
		 M370.759,366.345H264.828V260.414h105.931V366.345z M141.241,260.414h105.931v105.931H141.241V260.414z M141.241,136.828h105.931
		v105.931H141.241V136.828z M17.655,145.655v-8.828h105.931v105.931H17.655V145.655z M17.655,260.414h105.931v105.931H17.655
		V260.414z M17.655,489.931V384h105.931v105.931H17.655z M141.241,489.931V384h105.931v105.931H141.241z M264.828,489.931V384
		h105.931v105.931H264.828z M494.345,489.931H388.414V384h105.931V489.931z M494.345,366.345H388.414V260.414h105.931V366.345z
		 M388.414,242.759V136.828h105.931v8.828v97.103H388.414z"/>
	<path fill="#333333" d="M229.517,22.069c14.601,0,26.483,11.882,26.483,26.483s-11.882,26.483-26.483,26.483
		c-4.873,0-8.828,3.946-8.828,8.828s3.955,8.828,8.828,8.828c24.338,0,44.138-19.8,44.138-44.138s-19.8-44.138-44.138-44.138
		c-4.873,0-8.828,3.946-8.828,8.828S224.644,22.069,229.517,22.069z"/>
	<path fill="#333333" d="M282.483,22.069c14.601,0,26.483,11.882,26.483,26.483s-11.882,26.483-26.483,26.483
		c-4.873,0-8.828,3.946-8.828,8.828s3.955,8.828,8.828,8.828c24.338,0,44.138-19.8,44.138-44.138s-19.8-44.138-44.138-44.138
		c-4.873,0-8.828,3.946-8.828,8.828S277.61,22.069,282.483,22.069z"/>
	<path fill="#333333" d="M276.242,354.931c1.721,1.721,3.981,2.586,6.241,2.586s4.52-0.865,6.241-2.586l29.069-29.069l29.069,29.069
		c1.721,1.721,3.981,2.586,6.241,2.586c2.26,0,4.52-0.865,6.241-2.586c3.452-3.452,3.452-9.031,0-12.482l-29.069-29.069
		l29.069-29.069c3.452-3.452,3.452-9.031,0-12.482c-3.452-3.452-9.031-3.452-12.482,0l-29.069,29.069l-29.069-29.069
		c-3.452-3.452-9.031-3.452-12.482,0s-3.452,9.031,0,12.482l29.069,29.069l-29.069,29.069
		C272.79,345.9,272.79,351.479,276.242,354.931z"/>
</g>
</svg>
