<?xml version="1.0" encoding="utf-8"?>
<!-- Generator: Adobe Illustrator 17.0.0, SVG Export Plug-In . SVG Version: 6.00 Build 0)  -->
<!DOCTYPE svg PUBLIC "-//W3C//DTD SVG 1.1//EN" "http://www.w3.org/Graphics/SVG/1.1/DTD/svg11.dtd">
<svg version="1.1" id="Capa_1" xmlns="http://www.w3.org/2000/svg" xmlns:xlink="http://www.w3.org/1999/xlink" x="0px" y="0px"
	 width="512px" height="512px" viewBox="0 0 512 512" enable-background="new 0 0 512 512" xml:space="preserve">
<g>
	<g>
		<path fill="#333333" d="M503.204,244.878c-1.033-1.309-25.841-32.43-68.372-63.676c-56.833-41.755-118.673-63.826-178.833-63.826
			c-60.158,0-121.998,22.071-178.833,63.826c-42.53,31.245-67.337,62.366-68.372,63.676L0,255.999l8.794,11.122
			c1.035,1.309,25.842,32.431,68.372,63.677c56.835,41.754,118.675,63.825,178.833,63.825c60.16,0,121.999-22.071,178.832-63.825
			c42.531-31.246,67.339-62.368,68.372-63.677L512,255.999L503.204,244.878z M255.998,353.112
			c-53.548,0-97.113-43.564-97.113-97.113c0-8.39,1.069-16.534,3.079-24.305l-22.172-3.731c-2.172,8.995-3.324,18.383-3.324,28.036
			c0,34.59,14.775,65.79,38.338,87.636c-30.331-11.204-56.123-26.926-75.589-41.145c-24.116-17.614-42.19-35.429-52.494-46.491
			c10.308-11.065,28.38-28.878,52.494-46.491c19.466-14.219,45.259-29.941,75.589-41.146l14.874,16.766
			c17.371-16.266,40.7-26.241,66.319-26.241c53.548,0,97.112,43.564,97.112,97.113S309.546,353.112,255.998,353.112z M412.78,302.49
			c-19.468,14.219-45.259,29.941-75.589,41.145c23.561-21.845,38.337-53.045,38.337-87.637s-14.775-65.791-38.337-87.637
			c30.331,11.205,56.121,26.927,75.589,41.146c24.116,17.614,42.19,35.429,52.494,46.49
			C454.965,267.064,436.894,284.878,412.78,302.49z"/>
		<path fill="#333333" d="M194.2,237.122c-1.823,5.973-2.81,12.309-2.81,18.879c0,35.681,28.926,64.608,64.608,64.608
			c35.681,0,64.607-28.926,64.607-64.608s-28.926-64.608-64.607-64.608c-17.38,0-33.145,6.875-44.758,18.039l31.868,35.921
			L194.2,237.122z"/>
	</g>
</g>
</svg>
