<?xml version="1.0" encoding="utf-8"?>
<!-- Generator: Adobe Illustrator 17.0.0, SVG Export Plug-In . SVG Version: 6.00 Build 0)  -->
<!DOCTYPE svg PUBLIC "-//W3C//DTD SVG 1.1//EN" "http://www.w3.org/Graphics/SVG/1.1/DTD/svg11.dtd">
<svg version="1.1" id="Capa_1" xmlns="http://www.w3.org/2000/svg" xmlns:xlink="http://www.w3.org/1999/xlink" x="0px" y="0px"
	 width="512px" height="512px" viewBox="0 0 512 512" enable-background="new 0 0 512 512" xml:space="preserve">
<g>
	<path fill="#333333" d="M256,75.852c-88.879,0-161.185,72.306-161.185,161.185c0,67.432,41.633,127.166,104.296,150.756v86.281
		c0,5.243,4.238,9.482,9.481,9.482h9.481v18.963c0,5.243,4.238,9.481,9.481,9.481h56.889c5.243,0,9.481-4.238,9.481-9.481v-18.963
		h9.481c5.243,0,9.481-4.238,9.481-9.482v-86.281c62.663-23.59,104.296-83.323,104.296-150.756
		C417.185,148.158,344.879,75.852,256,75.852z M284.444,464.593c-5.243,0-9.482,4.238-9.482,9.481v18.963h-37.926v-18.963
		c0-5.243-4.238-9.481-9.481-9.481h-9.481v-47.407h75.852v47.407H284.444z M300.449,372.072c-3.897,1.28-6.523,4.921-6.523,9.007
		v17.143h-75.852V381.08c0-4.096-2.626-7.727-6.523-9.007c-58.472-19.228-97.773-73.5-97.773-135.035
		c0-78.421,63.801-142.222,142.222-142.222s142.222,63.801,142.222,142.222C398.222,298.572,358.921,352.844,300.449,372.072z"/>
	<path fill="#333333" d="M256,56.889c5.243,0,9.481-4.238,9.481-9.481V9.481C265.481,4.238,261.243,0,256,0
		s-9.481,4.238-9.481,9.481v37.926C246.519,52.651,250.757,56.889,256,56.889z"/>
	<path fill="#333333" d="M483.556,227.556H445.63c-5.243,0-9.481,4.238-9.481,9.481s4.238,9.481,9.481,9.481h37.926
		c5.243,0,9.481-4.238,9.481-9.481S488.799,227.556,483.556,227.556z"/>
	<path fill="#333333" d="M66.37,227.556H28.444c-5.243,0-9.481,4.238-9.481,9.481s4.238,9.481,9.481,9.481H66.37
		c5.243,0,9.481-4.238,9.481-9.481S71.614,227.556,66.37,227.556z"/>
	<path fill="#333333" d="M410.207,69.423l-26.814,26.814c-3.707,3.707-3.707,9.7,0,13.407c1.849,1.849,4.276,2.778,6.703,2.778
		c2.427,0,4.855-0.929,6.703-2.778l26.814-26.814c3.707-3.707,3.707-9.7,0-13.407S413.905,65.726,410.207,69.423z"/>
	<path fill="#333333" d="M115.2,364.43l-26.814,26.814c-3.707,3.707-3.707,9.7,0,13.407c1.849,1.849,4.276,2.778,6.703,2.778
		c2.427,0,4.855-0.929,6.703-2.778l26.814-26.814c3.707-3.707,3.707-9.7,0-13.407S118.907,360.723,115.2,364.43z"/>
	<path fill="#333333" d="M396.8,364.43c-3.707-3.707-9.7-3.707-13.407,0s-3.707,9.7,0,13.407l26.814,26.814
		c1.849,1.849,4.276,2.778,6.703,2.778c2.427,0,4.855-0.929,6.703-2.778c3.707-3.707,3.707-9.7,0-13.407L396.8,364.43z"/>
	<path fill="#333333" d="M115.2,109.644c1.849,1.849,4.276,2.778,6.703,2.778s4.855-0.929,6.703-2.778
		c3.707-3.707,3.707-9.7,0-13.407l-26.814-26.814c-3.707-3.707-9.7-3.707-13.407,0c-3.707,3.707-3.707,9.7,0,13.407L115.2,109.644z"
		/>
	<path fill="#333333" d="M256,123.259c-62.739,0-113.778,51.039-113.778,113.778c0,5.243,4.238,9.481,9.481,9.481
		s9.481-4.238,9.481-9.481c0-52.281,42.534-94.815,94.815-94.815c5.243,0,9.481-4.238,9.481-9.481
		C265.481,127.497,261.243,123.259,256,123.259z"/>
</g>
</svg>
