<?xml version="1.0" encoding="utf-8"?>
<!-- Generator: Adobe Illustrator 17.0.0, SVG Export Plug-In . SVG Version: 6.00 Build 0)  -->
<!DOCTYPE svg PUBLIC "-//W3C//DTD SVG 1.1//EN" "http://www.w3.org/Graphics/SVG/1.1/DTD/svg11.dtd">
<svg version="1.1" id="Capa_1" xmlns="http://www.w3.org/2000/svg" xmlns:xlink="http://www.w3.org/1999/xlink" x="0px" y="0px"
	 width="512px" height="512px" viewBox="0 0 512 512" enable-background="new 0 0 512 512" xml:space="preserve">
<g opacity="0.4">
	<g id="news">
		<path fill="#91DC5A" d="M464,0H112C85.488,0,64,21.472,64,48v32H48c-26.512,0-48,21.472-48,48v320c0,35.344,28.656,64,64,64h384
			c35.344,0,64-28.656,64-64V48C512,21.472,490.496,0,464,0z M480,448c0,17.632-14.368,32-32,32H64c-17.648,0-32-14.368-32-32V128
			c0-8.832,7.168-16,16-16h16v320c0,8.848,7.152,16,16,16s16-7.152,16-16V48c0-8.832,7.168-16,16-16h352c8.816,0,16,7.168,16,16V448
			z"/>
		<path fill="#91DC5A" d="M311.968,208.08h128c4.432,0,8-3.584,8-8s-3.568-8-8-8h-128c-4.4,0-8,3.584-8,8
			S307.568,208.08,311.968,208.08z"/>
		<path fill="#91DC5A" d="M311.968,160.08h128c4.432,0,8-3.584,8-8s-3.568-8-8-8h-128c-4.4,0-8,3.584-8,8
			S307.568,160.08,311.968,160.08z"/>
		<path fill="#91DC5A" d="M311.968,112.08h128c4.432,0,8-3.584,8-8s-3.568-8-8-8h-128c-4.4,0-8,3.584-8,8
			S307.568,112.08,311.968,112.08z"/>
		<path fill="#91DC5A" d="M264,432.064H136c-4.416,0-8,3.6-8,8c0,4.432,3.584,8,8,8h128c4.4,0,8-3.568,8-8
			C272,435.664,268.416,432.064,264,432.064z"/>
		<path fill="#91DC5A" d="M264,384.064H136c-4.416,0-8,3.6-8,8c0,4.432,3.584,8,8,8h128c4.4,0,8-3.568,8-8
			C272,387.664,268.416,384.064,264,384.064z"/>
		<path fill="#91DC5A" d="M264,336.064H136c-4.416,0-8,3.6-8,8c0,4.432,3.584,8,8,8h128c4.4,0,8-3.568,8-8
			C272,339.664,268.416,336.064,264,336.064z"/>
		<path fill="#91DC5A" d="M440,432.064H312c-4.432,0-8,3.6-8,8c0,4.432,3.568,8,8,8h128c4.4,0,8-3.568,8-8
			C448,435.664,444.4,432.064,440,432.064z"/>
		<path fill="#91DC5A" d="M440,384.064H312c-4.432,0-8,3.6-8,8c0,4.432,3.568,8,8,8h128c4.4,0,8-3.568,8-8
			C448,387.664,444.4,384.064,440,384.064z"/>
		<path fill="#91DC5A" d="M440,336.064H312c-4.432,0-8,3.6-8,8c0,4.432,3.568,8,8,8h128c4.4,0,8-3.568,8-8
			C448,339.664,444.4,336.064,440,336.064z"/>
		<path fill="#91DC5A" d="M440,240.064H136c-4.416,0-8,3.584-8,8s3.584,8,8,8h304c4.4,0,8-3.584,8-8S444.4,240.064,440,240.064z"/>
		<path fill="#91DC5A" d="M440,288.064H136c-4.416,0-8,3.6-8,8c0,4.432,3.584,8,8,8h304c4.4,0,8-3.568,8-8
			C448,291.664,444.4,288.064,440,288.064z"/>
		<path fill="#91DC5A" d="M144,208h112c8.848,0,16-7.152,16-16V80.064c0-8.848-7.152-16-16-16H144c-8.848,0-16,7.152-16,16V192
			C128,200.832,135.152,208,144,208z M160,96h80v80h-80V96z"/>
	</g>
</g>
</svg>
