<?xml version="1.0" encoding="utf-8"?>
<!-- Generator: Adobe Illustrator 17.0.0, SVG Export Plug-In . SVG Version: 6.00 Build 0)  -->
<!DOCTYPE svg PUBLIC "-//W3C//DTD SVG 1.1//EN" "http://www.w3.org/Graphics/SVG/1.1/DTD/svg11.dtd">
<svg version="1.1" id="Capa_1" xmlns="http://www.w3.org/2000/svg" xmlns:xlink="http://www.w3.org/1999/xlink" x="0px" y="0px"
	 width="512px" height="512px" viewBox="0 0 512 512" enable-background="new 0 0 512 512" xml:space="preserve">
<g>
	<g>
		<path fill="#333333" d="M486.044,40.234c-0.746-2.498-2.592-4.519-5.013-5.486L395.699,0.615
			c-4.374-1.754-9.342,0.372-11.095,4.747c-0.405,1.011-0.613,2.092-0.612,3.181v110.931h-51.199c-4.712,0-8.533,3.821-8.533,8.533
			v102.398H221.861c-4.712,0-8.533,3.821-8.533,8.533v102.398H102.396c-4.712,0-8.533,3.821-8.533,8.533v153.597
			c0,4.712,3.821,8.533,8.533,8.533s8.533-3.821,8.533-8.533V358.404h110.931c4.712,0,8.533-3.821,8.533-8.533V247.472h102.398
			c4.712,0,8.533-3.821,8.533-8.533V136.541H460.79v366.927c0,4.712,3.821,8.533,8.533,8.533c4.712,0,8.533-3.821,8.533-8.533
			v-375.46c0-4.712-3.821-8.533-8.533-8.533h-68.266V74.623l79.248-23.773C484.822,49.503,487.391,44.75,486.044,40.234z
			 M401.058,56.805v-35.66l50.943,20.377L401.058,56.805z"/>
	</g>
</g>
<g>
	<g>
		<path fill="#333333" d="M34.131,469.334c-4.712,0-8.533,3.821-8.533,8.533v25.6c0,4.712,3.821,8.533,8.533,8.533
			s8.533-3.821,8.533-8.533v-25.6C42.664,473.155,38.844,469.334,34.131,469.334z"/>
	</g>
</g>
<g>
	<g>
		<path fill="#333333" d="M313.226,87.841l-25.6-25.6c-0.077-0.077-0.179-0.102-0.256-0.171c-0.727-0.715-1.578-1.292-2.509-1.707
			c-0.068,0-0.145,0-0.222-0.051c-0.868-0.326-1.786-0.506-2.714-0.529c-0.273,0-0.538,0-0.853,0.043
			c-0.738,0.041-1.467,0.181-2.167,0.418c-0.273,0.094-0.538,0.171-0.802,0.29c-0.95,0.409-1.818,0.987-2.56,1.707l-25.6,25.6
			c-3.274,3.39-3.18,8.792,0.21,12.066c3.307,3.194,8.549,3.194,11.856,0l11.051-11.033v73.266H153.595
			c-4.712,0-8.533,3.821-8.533,8.533v110.931H34.131c-4.712,0-8.533,3.821-8.533,8.533v153.597c0,4.712,3.821,8.533,8.533,8.533
			s8.533-3.821,8.533-8.533V298.67h110.931c4.712,0,8.533-3.821,8.533-8.533V179.206h119.465c4.712,0,8.533-3.821,8.533-8.533
			V88.873l11.033,11.033c3.39,3.275,8.791,3.181,12.066-0.209C316.42,96.391,316.42,91.147,313.226,87.841z"/>
	</g>
</g>
<g>
	<g>
		<path fill="#333333" d="M204.794,375.469h-68.266c-4.712,0-8.533,3.821-8.533,8.533c0,4.712,3.821,8.533,8.533,8.533h68.266
			c4.712,0,8.533-3.821,8.533-8.533C213.328,379.29,209.508,375.469,204.794,375.469z"/>
	</g>
</g>
<g>
	<g>
		<path fill="#333333" d="M324.259,264.537h-68.266c-4.712,0-8.533,3.821-8.533,8.533s3.821,8.533,8.533,8.533h68.266
			c4.712,0,8.533-3.821,8.533-8.533S328.973,264.537,324.259,264.537z"/>
	</g>
</g>
<g>
	<g>
		<path fill="#333333" d="M435.191,153.606h-68.266c-4.712,0-8.533,3.821-8.533,8.533c0,4.712,3.821,8.533,8.533,8.533h68.266
			c4.712,0,8.533-3.821,8.533-8.533C443.724,157.427,439.904,153.606,435.191,153.606z"/>
	</g>
</g>
</svg>
