<?xml version="1.0" encoding="utf-8"?>
<!-- Generator: Adobe Illustrator 17.0.0, SVG Export Plug-In . SVG Version: 6.00 Build 0)  -->
<!DOCTYPE svg PUBLIC "-//W3C//DTD SVG 1.1//EN" "http://www.w3.org/Graphics/SVG/1.1/DTD/svg11.dtd">
<svg version="1.1" id="Capa_1" xmlns="http://www.w3.org/2000/svg" xmlns:xlink="http://www.w3.org/1999/xlink" x="0px" y="0px"
	 width="512px" height="512px" viewBox="0 0 512 512" enable-background="new 0 0 512 512" xml:space="preserve">
<g>
	<g>
		<path fill="#333333" d="M386,40c-40.804,0-74,33.196-74,74c0,21.048,8.848,40.057,23.003,53.545
			c0.362,0.402,0.751,0.783,1.18,1.125C349.341,180.671,366.83,188,386,188s36.659-7.329,49.818-19.33
			c0.429-0.343,0.818-0.723,1.18-1.125C451.152,154.057,460,135.048,460,114C460,73.196,426.804,40,386,40z M386,168
			c-11.536,0-22.23-3.648-31.014-9.835c6.672-10.497,18.203-16.994,31.014-16.994s24.342,6.498,31.014,16.994
			C408.23,164.352,397.536,168,386,168z M375.708,110.878v-5.073c0-5.675,4.617-10.292,10.292-10.292s10.292,4.617,10.292,10.292
			v5.073c0,5.676-4.617,10.293-10.292,10.293S375.708,116.554,375.708,110.878z M431.193,143.505
			c-5.257-6.929-11.992-12.495-19.673-16.338c3.016-4.708,4.772-10.296,4.772-16.289v-5.073c0-16.703-13.589-30.292-30.292-30.292
			s-30.292,13.589-30.292,30.292v5.073c0,5.994,1.757,11.581,4.772,16.289c-7.681,3.843-14.416,9.408-19.673,16.338
			C335.247,135.017,332,124.883,332,114c0-29.776,24.224-54,54-54s54,24.224,54,54C440,124.883,436.753,135.017,431.193,143.505z"/>
	</g>
</g>
<g>
	<g>
		<path fill="#333333" d="M501.331,387.51c-13.195-13.195-33.922-15.084-49.284-4.489c-0.113,0.078-0.224,0.158-0.333,0.24
			l-56.056,42.156c-4.414,3.319-5.301,9.589-1.982,14.003c3.319,4.413,9.588,5.302,14.002,1.981l55.876-42.021
			c7.398-4.998,17.309-4.056,23.635,2.271c3.335,3.335,5.036,7.766,4.79,12.476c-0.246,4.71-2.401,8.94-6.066,11.909l-51.167,41.442
			C415.223,483.291,390.635,492,365.511,492H217.506c-20.093,0-39.798-5.502-56.984-15.911l-40.271-24.391V325.135h77.116
			c10.684,0,20.729,4.161,28.268,11.7l53.2,53.449c7.555,7.555,17.6,11.716,28.284,11.716h39.236c8.26,0,14.979,6.72,14.979,14.979
			s-6.72,14.979-14.979,14.979H271c-6.911,0-13.625-1.991-19.417-5.759l-32.091-20.872l-0.117-0.076
			c-4.625-3.017-10.821-1.717-13.84,2.908s-1.717,10.821,2.908,13.84l32.235,20.966c9.045,5.884,19.53,8.993,30.322,8.993h75.354
			c19.288,0,34.979-15.691,34.979-34.979S365.641,382,346.354,382h-38.6l83.138-48H492c11.028,0,20-8.972,20-20V20
			c0-11.028-8.972-20-20-20H280c-11.028,0-20,8.972-20,20v294c0,11.028,8.972,20,20,20h70.892l-63.416,36.613
			c-0.001,0-0.001,0.001-0.002,0.001l-47.682-47.906c-11.333-11.333-26.4-17.574-42.427-17.574H120.25V287.5
			c0-11.028-8.972-20-20-20H10c-5.523,0-10,4.478-10,10V502c0,5.522,4.477,10,10,10h90.25c11.028,0,20-8.972,20-20v-16.919
			l29.91,18.115C170.472,505.498,193.759,512,217.506,512h148.005c29.692,0,58.751-10.292,81.823-28.98l51.167-41.442
			c8.009-6.488,12.912-16.112,13.45-26.405C512.49,404.88,508.618,394.797,501.331,387.51z M280,314V20h212l0.013,293.999
			c0,0-0.004,0.001-0.013,0.001H280z M100.25,492H20V287.5h80.25l0.002,27.601c0,0.011-0.002,0.022-0.002,0.034
			s0.002,0.022,0.002,0.034l0.009,141.676c-0.012,0.253-0.007,0.505,0,0.756l0.002,34.398C100.263,491.999,100.259,492,100.25,492z"
			/>
	</g>
</g>
<g>
	<g>
		<path fill="#333333" d="M234.16,50.366c-2.761-4.783-8.878-6.422-13.66-3.66l-90.024,51.975c-9.55,5.515-12.833,17.771-7.32,27.32
			l87.369,151.328c1.852,3.208,5.213,5.002,8.669,5.002c1.696,0,3.416-0.433,4.991-1.342c4.783-2.762,6.422-8.877,3.66-13.66
			l-87.369-151.328L230.5,64.026C235.283,61.265,236.922,55.149,234.16,50.366z"/>
	</g>
</g>
<g>
	<g>
		<path fill="#333333" d="M448,212H332c-5.523,0-10,4.477-10,10s4.477,10,10,10h116c5.523,0,10-4.477,10-10S453.523,212,448,212z"/>
	</g>
</g>
<g>
	<g>
		<path fill="#333333" d="M455.07,258.93c-1.86-1.86-4.44-2.93-7.07-2.93s-5.21,1.069-7.07,2.93c-1.86,1.86-2.93,4.44-2.93,7.07
			s1.07,5.21,2.93,7.069c1.86,1.86,4.44,2.931,7.07,2.931s5.21-1.07,7.07-2.931c1.86-1.859,2.93-4.439,2.93-7.069
			S456.93,260.79,455.07,258.93z"/>
	</g>
</g>
<g>
	<g>
		<path fill="#333333" d="M406.292,256H332c-5.523,0-10,4.478-10,10s4.477,10,10,10h74.292c5.523,0,10-4.478,10-10
			S411.815,256,406.292,256z"/>
	</g>
</g>
<g>
	<g>
		<path fill="#333333" d="M60.125,368.547c-5.523,0-10,4.478-10,10v39.12c0,5.522,4.477,10,10,10s10-4.478,10-10v-39.12
			C70.125,373.024,65.648,368.547,60.125,368.547z"/>
	</g>
</g>
<g>
	<g>
		<path fill="#333333" d="M67.2,445.02c-1.87-1.86-4.44-2.93-7.08-2.93c-2.63,0-5.2,1.07-7.07,2.93c-1.86,1.86-2.92,4.44-2.92,7.07
			c0,2.64,1.06,5.21,2.92,7.07c1.86,1.859,4.44,2.93,7.07,2.93c2.64,0,5.21-1.07,7.08-2.93c1.86-1.86,2.92-4.431,2.92-7.07
			C70.12,449.46,69.06,446.88,67.2,445.02z"/>
	</g>
</g>
</svg>
