<?xml version="1.0" encoding="utf-8"?>
<!-- Generator: Adobe Illustrator 17.0.0, SVG Export Plug-In . SVG Version: 6.00 Build 0)  -->
<!DOCTYPE svg PUBLIC "-//W3C//DTD SVG 1.1//EN" "http://www.w3.org/Graphics/SVG/1.1/DTD/svg11.dtd">
<svg version="1.1" id="Capa_1" xmlns="http://www.w3.org/2000/svg" xmlns:xlink="http://www.w3.org/1999/xlink" x="0px" y="0px"
	 width="512px" height="512px" viewBox="0 0 512 512" enable-background="new 0 0 512 512" xml:space="preserve">
<g opacity="0.4">
	<g>
		<path fill="#91DC5A" d="M281.6,349.867h-51.2c-4.71,0-8.533,3.823-8.533,8.533s3.823,8.533,8.533,8.533h51.2
			c4.71,0,8.533-3.823,8.533-8.533S286.31,349.867,281.6,349.867z"/>
	</g>
</g>
<g opacity="0.4">
	<g>
		<path fill="#91DC5A" d="M477.86,8.53H34.14C15.32,8.53,0,23.85,0,42.67v324.25c0,18.83,15.32,34.15,34.14,34.15h170.42
			c-1.98,33.99-16.22,51.2-42.43,51.2h-17.06c-14.12,0-25.6,11.48-25.6,25.6c0,14.11,11.48,25.6,25.6,25.6h221.86
			c14.12,0,25.6-11.49,25.6-25.6c0-14.12-11.48-25.6-25.6-25.6h-17.06c-26.21,0-40.45-17.21-42.43-51.2h170.42
			c18.82,0,34.14-15.32,34.14-34.15V42.67C512,23.85,496.68,8.53,477.86,8.53z M366.93,469.33c4.71,0,8.54,3.84,8.54,8.54
			s-3.83,8.53-8.54,8.53H145.07c-4.71,0-8.54-3.83-8.54-8.53s3.83-8.54,8.54-8.54H366.93z M308.31,452.27H203.7
			c10.5-11.64,16.69-28.97,17.94-51.2h68.73C291.61,423.3,297.8,440.63,308.31,452.27z M494.93,366.92
			c0,9.43-7.66,17.08-17.07,17.08H34.14c-9.41,0-17.07-7.65-17.07-17.08V332.8h477.86V366.92z M51.2,315.73v-256h409.6v256H51.2z
			 M494.93,315.73h-17.06V51.2c0-4.71-3.83-8.53-8.54-8.53H42.67c-4.71,0-8.54,3.82-8.54,8.53v264.53H17.07V42.67
			c0-9.42,7.66-17.07,17.07-17.07h443.72c9.41,0,17.07,7.65,17.07,17.07V315.73z"/>
	</g>
</g>
<g opacity="0.4">
	<g>
		<path fill="#91DC5A" d="M407.76,259.96l-20.6-20.6l11.46-11.46c2.12-2.12,2.98-5.21,2.24-8.12c-0.73-2.91-2.94-5.22-5.82-6.09
			l-28.11-8.43V85.33c0-4.71-3.82-8.53-8.53-8.53H119.47c-4.71,0-8.54,3.82-8.54,8.53v162.14c0,4.71,3.83,8.53,8.54,8.53h196.79
			l8.42,28.05c0.87,2.88,3.18,5.09,6.09,5.83c2.9,0.71,6-0.12,8.12-2.25l12.07-12.07l20.6,20.61c1.59,1.6,3.77,2.5,6.03,2.5
			c2.26,0,4.44-0.9,6.03-2.5l24.14-24.14C411.09,268.69,411.09,263.3,407.76,259.96z M128,93.87h221.87v25.6H128V93.87z
			 M298.82,197.58c0.03,0.18,0.06,0.36,0.1,0.53c0.04,0.2,0.1,0.41,0.16,0.61l12.06,40.21H128v-102.4h221.87v63.61l-40.17-12.05
			c-1.76-0.53-3.61-0.46-5.29,0.13c-0.13,0.05-0.26,0.1-0.39,0.15s-0.26,0.11-0.39,0.17c-0.25,0.12-0.49,0.25-0.73,0.39
			c-0.01,0-0.01,0-0.01,0c-0.23,0.15-0.46,0.3-0.69,0.47h-0.01c-0.22,0.17-0.44,0.35-0.65,0.53c-0.1,0.09-0.21,0.19-0.31,0.3
			c-0.05,0.05-0.1,0.1-0.15,0.16c-0.16,0.15-0.3,0.31-0.43,0.47c0,0,0,0-0.01,0.01c-0.17,0.22-0.34,0.44-0.49,0.67
			c-0.01,0-0.01,0-0.01,0.01c-0.12,0.17-0.23,0.35-0.33,0.54c-0.2,0.36-0.38,0.74-0.53,1.12c0,0.01,0,0.01,0,0.01
			c-0.07,0.19-0.14,0.39-0.2,0.58c0,0.01,0,0.01,0,0.01c-0.06,0.2-0.11,0.4-0.16,0.59c0,0.01,0,0.01,0,0.01
			C298.7,195.45,298.66,196.52,298.82,197.58z M377.59,278.07l-18.76-18.77c-2.17-2.17-5.02-3.26-7.87-3.26
			c-2.86,0-5.71,1.09-7.88,3.25l-6.16,6.16l-6.11-20.36c0-0.03-0.01-0.05-0.02-0.08l-10.81-36.02l35.97,10.79l20.5,6.15l-6.61,6.6
			c-1.82,1.83-2.81,4.25-2.81,6.83c0,2.59,1,5.03,2.83,6.84l19.8,19.79L377.59,278.07z"/>
	</g>
</g>
<g opacity="0.4">
	<g>
		<path fill="#91DC5A" d="M221.867,170.667H153.6c-4.71,0-8.533,3.823-8.533,8.533v34.133c0,4.71,3.823,8.533,8.533,8.533h68.267
			c4.71,0,8.533-3.823,8.533-8.533V179.2C230.4,174.49,226.577,170.667,221.867,170.667z M213.333,204.8h-51.2v-17.067h51.2V204.8z"
			/>
	</g>
</g>
<g opacity="0.4">
	<g>
		<path fill="#91DC5A" d="M298.82,197.58c-0.16-1.06-0.12-2.13,0.1-3.17C298.69,195.44,298.65,196.52,298.82,197.58z M301.22,190.23
			c-0.05,0.05-0.1,0.11-0.14,0.16c0.05-0.06,0.1-0.11,0.15-0.16H301.22z"/>
	</g>
</g>
</svg>
