<?xml version="1.0" encoding="utf-8"?>
<!-- Generator: Adobe Illustrator 17.0.0, SVG Export Plug-In . SVG Version: 6.00 Build 0)  -->
<!DOCTYPE svg PUBLIC "-//W3C//DTD SVG 1.1//EN" "http://www.w3.org/Graphics/SVG/1.1/DTD/svg11.dtd">
<svg version="1.1" id="Capa_1" xmlns="http://www.w3.org/2000/svg" xmlns:xlink="http://www.w3.org/1999/xlink" x="0px" y="0px"
	 width="59.528px" height="59.528px" viewBox="0 0 59.528 59.528" enable-background="new 0 0 59.528 59.528" xml:space="preserve">
<g>
	<path fill="#F7931E" d="M19.356,32.647c0.972,0.338,1.604,0.039,2.086-0.559c0.63-0.782,1.203-1.596,1.776-2.407
		c0.939-1.33,1.859-2.669,2.785-4.005c0.33-0.477,0.471-0.978,0.233-1.514c-0.113-0.254-0.256-0.499-0.368-0.753
		c-0.04-0.091-0.076-0.22-0.029-0.293c0.55-0.852,1.123-1.693,1.678-2.543c0.589-0.902,1.176-1.804,1.738-2.717
		c0.155-0.252,0.247-0.536,0.32-0.815c0.055-0.21-0.102-0.351-0.351-0.424c-0.235-0.068-0.438-0.044-0.594,0.115
		c-0.106,0.108-0.191,0.231-0.273,0.352c-0.465,0.695-0.925,1.392-1.39,2.087c-0.699,1.047-1.398,2.094-2.107,3.137
		c-0.049,0.073-0.181,0.143-0.281,0.15c-0.337,0.022-0.683-0.012-1.015,0.029c-0.25,0.031-0.544,0.095-0.715,0.232
		c-0.301,0.242-0.55,0.536-0.772,0.833c-0.978,1.308-1.941,2.624-2.904,3.94c-0.108,0.148-0.227,0.189-0.415,0.118
		c-0.446-0.168-0.892-0.335-1.34-0.498c-0.585-0.213-1.167-0.431-1.759-0.63c-0.858-0.289-1.723-0.565-2.586-0.844
		c-0.367-0.118-0.734-0.238-1.107-0.339c-0.588-0.159-1.172-0.388-1.775-0.435c-1.018-0.081-2.05-0.045-3.075-0.052
		C6.99,24.813,6.852,24.83,6.736,24.87c-0.651,0.225-1.328,0.409-1.892,0.78c-0.423,0.279-0.885,0.526-1.266,0.84
		c-0.775,0.638-1.395,1.378-1.841,2.207c-0.357,0.663-0.651,1.341-0.661,2.085C1.061,31.871,1.027,32.96,1,34.049
		c-0.003,0.123-0.023,0.245-0.035,0.367c0,2.741,0,5.482,0,8.223c0.015,0.071,0.036,0.143,0.043,0.214
		c0.069,0.762,0.068,0.773,1.01,0.778c3.362,0.018,6.723,0.034,10.085,0.036c1.097,0.001,2.193-0.046,3.29-0.06
		c0.317-0.004,0.425-0.113,0.428-0.372c0.017-1.436,0.056-2.871,0.076-4.307c0.033-2.336,0.057-4.671,0.086-7.007
		c0.001-0.091,0.016-0.183,0.025-0.282c0.547,0.175,1.047,0.344,1.555,0.494C18.157,32.312,18.774,32.445,19.356,32.647z"/>
	<path fill="#F7931E" d="M9,11.067c0.057,0.182,0.106,0.368,0.421,0.375c0.301,0.007,0.538-0.042,0.619-0.31
		c0.041-0.135,0.077-0.275,0.084-0.413c0.026-0.536,0.036-1.072,0.057-1.608c0.01-0.255,0.016-0.512,0.052-0.765
		c0.045-0.32,0.17-0.425,0.549-0.437c1.146-0.036,2.293-0.081,3.439-0.082c9.369-0.008,18.737-0.011,28.106-0.005
		c1.416,0.001,2.832,0.046,4.247,0.085c0.407,0.011,0.471,0.077,0.496,0.428c0.041,0.577,0.083,1.154,0.084,1.731
		c0.011,5.548,0.016,11.095,0.015,16.643c0,0.933-0.028,1.866-0.062,2.798c-0.028,0.76-0.065,0.787-0.974,0.801
		c-2.91,0.044-5.819,0.094-8.729,0.121c-2.693,0.025-5.387,0.016-8.081,0.037c-1.466,0.011-2.932,0.049-4.398,0.085
		c-0.12,0.003-0.298,0.056-0.345,0.131c-0.187,0.298,0.01,0.891,0.582,0.87c0.327-0.012,0.657,0.039,0.985,0.04
		c4.2,0.017,8.4,0.043,12.601,0.041c2.534-0.001,5.067-0.058,7.601-0.065c0.514-0.001,0.909-0.17,1.252-0.429
		c0.383-0.289,0.69-0.633,0.7-1.099c0.01-0.421,0.046-0.841,0.054-1.262c0.121-6.769,0.156-13.538-0.034-20.307
		c-0.011-0.402-0.048-0.789-0.408-1.101c-0.122-0.105-0.207-0.244-0.342-0.333c-0.274-0.18-0.537-0.373-0.935-0.374
		c-1.087-0.003-2.174-0.028-3.261-0.046c-0.667-0.011-1.333-0.027-2-0.04c-10.278,0-20.556,0-30.833,0
		c-0.124,0.076-0.238,0.167-0.373,0.225C9.436,7.119,9.052,7.655,8.99,8.3c-0.077,0.796-0.036,1.599-0.04,2.399
		C8.949,10.822,8.963,10.948,9,11.067z"/>
	<path fill="#F7931E" d="M59.599,56.15c-0.083-0.279-0.192-0.553-0.257-0.835c-0.254-1.091-0.682-2.124-1.399-3.07
		c-0.47-0.62-1.021-1.176-1.678-1.671c-0.596-0.449-1.258-0.81-1.979-1.083c-0.674-0.255-1.392-0.41-2.15-0.442
		c-1.18-0.051-2.328,0.041-3.404,0.46c-0.839,0.327-1.618,0.747-2.277,1.289c-0.395,0.325-0.721,0.708-1.063,1.075
		c-0.245,0.263-0.464,0.541-0.725,0.847c-0.086-0.106-0.144-0.168-0.19-0.235c-0.588-0.869-1.368-1.597-2.351-2.17
		c-0.425-0.247-0.859-0.493-1.322-0.686c-0.478-0.199-0.982-0.375-1.499-0.484c-0.428-0.09-0.89-0.081-1.338-0.095
		c-1.015-0.03-2.007,0.078-2.929,0.449c-0.843,0.339-1.632,0.761-2.299,1.307c-0.396,0.324-0.722,0.708-1.064,1.074
		c-0.24,0.257-0.454,0.531-0.698,0.818c-0.073-0.053-0.108-0.071-0.13-0.097c-0.033-0.04-0.056-0.085-0.085-0.127
		c-0.653-0.943-1.563-1.697-2.589-2.356c-0.716-0.46-1.552-0.756-2.421-0.931c-1.21-0.244-2.426-0.26-3.643,0.08
		c-0.873,0.244-1.682,0.565-2.379,1.054c-0.502,0.352-1,0.721-1.418,1.139c-0.646,0.646-1.142,1.378-1.488,2.171
		c-0.384,0.88-0.669,1.778-0.658,2.723c0.005,0.432,0.096,0.506,0.61,0.51c3.471,0.029,6.943,0.07,10.414,0.076
		c8.171,0.014,16.342,0.017,24.512,0.009c2.074-0.002,4.149-0.05,6.223-0.102c0.455-0.012,0.913-0.112,1.358-0.211
		C59.632,56.559,59.685,56.439,59.599,56.15z"/>
	<path fill="#F7931E" d="M46.956,38.967c-0.897,1.036-1.348,2.195-1.374,3.459c-0.026,1.263,0.372,2.436,1.196,3.512
		c0.526,0.686,1.187,1.261,1.983,1.72c0.544,0.314,1.179,0.512,1.825,0.615c1.096,0.175,2.155,0.057,3.166-0.381
		c1.08-0.469,1.914-1.134,2.556-1.981c0.736-0.971,1.106-2.038,1.173-3.175c0.047-0.793-0.178-1.555-0.477-2.302
		c-0.493-1.234-1.325-2.267-2.679-2.957c-0.869-0.443-1.825-0.706-2.864-0.711c-0.007-0.022-0.014-0.044-0.021-0.065
		c-0.523,0.107-1.057,0.189-1.567,0.33c-0.408,0.113-0.814,0.265-1.171,0.462C47.999,37.878,47.448,38.399,46.956,38.967z"/>
	<path fill="#F7931E" d="M26.307,37.188c-0.687-0.286-1.442-0.471-2.181-0.413c-0.92-0.011-1.713,0.164-2.458,0.529
		c-0.857,0.419-1.545,0.976-2.119,1.641c-0.919,1.065-1.371,2.261-1.382,3.56c-0.014,1.674,0.672,3.129,2.056,4.366
		c0.82,0.734,1.803,1.229,2.974,1.395c1.083,0.154,2.157,0.093,3.167-0.388c0.898-0.427,1.654-0.96,2.264-1.648
		c0.965-1.086,1.42-2.309,1.421-3.646c0.001-0.951-0.273-1.856-0.747-2.725C28.662,38.688,27.692,37.765,26.307,37.188z"/>
	<path fill="#F7931E" d="M38.834,36.853c-1.203-0.203-2.375-0.095-3.463,0.461c-0.785,0.402-1.459,0.899-2.012,1.495
		c-1.013,1.094-1.456,2.359-1.484,3.832c0.041,1.407,0.569,2.765,1.761,3.94c0.864,0.852,1.898,1.491,3.224,1.684
		c1.089,0.158,2.174,0.1,3.197-0.382c0.91-0.429,1.672-0.968,2.287-1.661c0.931-1.049,1.409-2.233,1.408-3.524
		c0-1.686-0.64-3.187-2.041-4.45C40.919,37.534,39.964,37.044,38.834,36.853z"/>
	<path fill="#F7931E" d="M6.839,23.676c1.299,0.31,2.54,0.142,3.701-0.462c0.961-0.499,1.696-1.158,2.249-1.97
		c0.701-1.031,1.025-2.132,0.943-3.315c-0.062-0.895-0.367-1.733-0.879-2.516c-0.358-0.547-0.791-1.061-1.387-1.454
		c-0.382-0.253-0.791-0.478-1.192-0.71c-0.418-0.242-0.872-0.409-1.39-0.425c-0.279-0.009-0.558-0.002-0.838-0.002
		c-0.001-0.016-0.002-0.032-0.003-0.049c-0.446,0.034-0.92-0.002-1.331,0.115C5.743,13.162,4.92,13.64,4.23,14.28
		c-0.679,0.63-1.202,1.331-1.474,2.138c-0.726,2.154-0.284,4.115,1.479,5.846C4.936,22.952,5.812,23.431,6.839,23.676z"/>
</g>
</svg>
