<?xml version="1.0" encoding="utf-8"?>
<!-- Generator: Adobe Illustrator 17.0.0, SVG Export Plug-In . SVG Version: 6.00 Build 0)  -->
<!DOCTYPE svg PUBLIC "-//W3C//DTD SVG 1.1//EN" "http://www.w3.org/Graphics/SVG/1.1/DTD/svg11.dtd">
<svg version="1.1" id="Capa_1" xmlns="http://www.w3.org/2000/svg" xmlns:xlink="http://www.w3.org/1999/xlink" x="0px" y="0px"
	 width="59.528px" height="59.528px" viewBox="0 0 59.528 59.528" enable-background="new 0 0 59.528 59.528" xml:space="preserve">
<g>
	<path fill="#F7931E" d="M43.439,35.144c-1.017-0.987-2.272-2.206-3.776-3.666c-0.065,0.77-0.194,1.189-0.118,1.576
		c0.432,2.2-0.496,3.826-2.453,5.08c-0.464,0.297-0.831,0.717-1.247,1.077c-3.364,2.917-3.779,4.552-2.057,8.601
		c-2.818,0-5.563,0-8.307,0c-1.307,0-2.622-0.08-3.92,0.022c-1.365,0.108-1.658-0.409-1.646-1.542
		c0.055-4.968-0.018-9.937,0.053-14.904c0.016-1.143-0.388-1.781-1.472-2.359c-3.464-1.847-6.912-3.729-10.242-5.764
		c-0.942-0.576-1.823-1.637-2.106-2.623C4.783,15.894,3.612,11.1,2.415,6.314C1.906,4.282,3.08,2.604,5.242,2.118
		c1.985-0.446,3.883,0.63,4.436,2.655c1.076,3.94,2.089,7.894,3.083,11.852c0.244,0.972,0.798,1.564,1.687,2.198
		c3.813,2.717,8.03,3.706,12.841,3.266c2.743-0.251,5.538-0.027,8.309-0.052c2.713-0.025,4.987,0.842,6.87,2.603
		c2.981,2.788,5.989,5.554,8.964,8.347c1.882,1.768,1.885,3.649-0.026,5.348c-3.133,2.785-6.294,5.545-9.468,8.292
		c-1.732,1.499-3.921,1.548-5.455,0.183c-1.562-1.39-1.463-3.458,0.187-5.047C38.888,39.625,41.073,37.46,43.439,35.144z"/>
	<path fill="#F7931E" d="M29.801,49.941c9.039,0.001,18.077,0,27.116,0.001c1.975,0,2.526,0.484,2.554,2.232
		c0.007,0.425,0.004,0.851,0,1.277c-0.017,1.837-0.576,2.357-2.598,2.358c-18.078,0.004-36.156,0.004-54.234,0
		c-2.042,0-2.616-0.519-2.636-2.328c-0.005-0.425-0.005-0.851,0-1.277c0.022-1.758,0.576-2.262,2.524-2.263
		C11.619,49.938,20.71,49.94,29.801,49.941z"/>
	<path fill="#F7931E" d="M39.525,10.979c-0.033,5.002-4.333,8.844-9.879,8.827c-5.417-0.017-9.733-3.958-9.693-8.851
		C19.993,5.953,24.329,1.992,29.753,2C35.19,2.008,39.558,6.022,39.525,10.979z"/>
</g>
</svg>
