<?xml version="1.0" encoding="utf-8"?>
<!-- Generator: Adobe Illustrator 17.0.0, SVG Export Plug-In . SVG Version: 6.00 Build 0)  -->
<!DOCTYPE svg PUBLIC "-//W3C//DTD SVG 1.1//EN" "http://www.w3.org/Graphics/SVG/1.1/DTD/svg11.dtd">
<svg version="1.1" id="Capa_1" xmlns="http://www.w3.org/2000/svg" xmlns:xlink="http://www.w3.org/1999/xlink" x="0px" y="0px"
	 width="59.528px" height="59.528px" viewBox="0 0 59.528 59.528" enable-background="new 0 0 59.528 59.528" xml:space="preserve">
<g>
	<path fill="#F7931E" d="M3.653,11.934c1.363,0.666,2.726,1.331,4.089,1.997c0.127,0.062,0.252,0.132,0.326,0.17
		c-0.118,0.97-0.261,1.892-0.335,2.824c-0.123,1.544-0.069,3.09,0.07,4.63c0.231,2.567,0.756,5.009,1.711,7.26
		c0.928,2.187,2.147,3.991,3.842,5.128c1.11,0.744,2.278,1.058,3.515,0.789c1.246-0.271,2.328-1.021,3.292-2.094
		c1.549-1.723,2.568-3.941,3.262-6.458c0.577-2.092,0.857-4.264,0.932-6.486c0.048-1.415,0.016-2.827-0.19-4.222
		c-0.06-0.406-0.135-0.808-0.206-1.226c1.105-0.54,2.198-1.074,3.307-1.615c0,1.256,0,2.462,0,3.667
		c-0.423,0.073-0.452,0.098-0.486,0.481c-0.082,0.935-0.161,1.871-0.239,2.807c-0.027,0.326,0.065,0.473,0.302,0.474
		c0.637,0.003,1.274,0.004,1.912,0c0.23-0.001,0.324-0.136,0.299-0.453c-0.078-0.972-0.164-1.942-0.248-2.913
		c-0.022-0.25-0.122-0.384-0.315-0.376c-0.051,0.002-0.103-0.007-0.175-0.013c0-0.105,0-0.201,0-0.296
		c0.001-1.049,0.024-2.1-0.006-3.147c-0.016-0.534,0.052-0.861,0.485-0.999c0.311-0.1,0.468-0.472,0.469-0.919
		c0.001-0.445-0.161-0.758-0.461-0.937c-0.06-0.036-0.122-0.066-0.183-0.096c-3.089-1.512-6.179-3.022-9.268-4.535
		c-1.01-0.495-2.019-0.995-3.028-1.492c-0.105,0-0.21,0-0.315,0c-0.016,0.015-0.029,0.036-0.047,0.044
		C11.861,5.93,7.759,7.934,3.658,9.939c-0.398,0.195-0.59,0.528-0.587,1.008C3.074,11.415,3.268,11.745,3.653,11.934z
		 M12.047,17.222c0.705-0.137,1.392-0.077,2.03,0.389c0.188,0.137,0.37,0.316,0.514,0.527c0.407,0.596,0.519,1.284,0.249,2.038
		c-0.126,0.351-0.277,0.686-0.41,1.032c-0.179,0.466-0.043,0.786,0.342,0.71c0.372-0.073,0.745-0.215,1.093-0.409
		c0.879-0.49,1.74-1.037,2.615-1.542c0.652-0.377,1.317-0.713,2.025-0.846c0.245-0.046,0.5-0.055,0.746-0.019
		c0.574,0.084,0.952,0.602,1.062,1.426c0.039,0.296,0.047,0.599,0.06,0.773c-0.043,1.839-0.412,3.432-0.957,4.957
		c-0.654,1.83-1.509,3.457-2.701,4.723c-0.628,0.666-1.318,1.173-2.117,1.341c-1.095,0.231-2.099-0.133-3.021-0.932
		c-1.186-1.029-1.99-2.508-2.619-4.178c-0.699-1.856-1.107-3.832-1.285-5.896C9.489,19.203,10.466,17.529,12.047,17.222z"/>
	<path fill="#F7931E" d="M58.565,53.243c-0.64-4.664-1.718-9.131-2.855-13.57c-0.24-0.938-0.757-1.508-1.342-1.931
		c-0.769-0.557-1.548-1.084-2.334-1.587c-0.25-0.16-0.329-0.358-0.329-0.754c0.008-4.998,0.007-9.996-0.003-14.994
		c-0.002-0.977-0.014-1.959-0.088-2.928c-0.074-0.966-0.233-1.918-0.365-2.962c0.882-0.471,1.805-0.964,2.765-1.476
		c0,1.287,0,2.52,0,3.802c-0.387-0.019-0.44,0.392-0.47,0.861c-0.052,0.832-0.116,1.662-0.188,2.491
		c-0.039,0.446,0.083,0.624,0.38,0.618c0.544-0.01,1.089-0.012,1.633,0c0.322,0.007,0.43-0.204,0.388-0.662
		c-0.079-0.863-0.151-1.728-0.206-2.595c-0.027-0.435-0.115-0.728-0.482-0.669c-0.007-0.176-0.018-0.33-0.019-0.485
		c-0.001-0.961,0.018-1.922-0.005-2.881c-0.015-0.635-0.018-1.16,0.526-1.354c0.285-0.101,0.413-0.541,0.388-0.988
		c-0.028-0.497-0.241-0.798-0.549-0.962c-1.022-0.544-2.044-1.086-3.066-1.629c-2.816-1.496-5.632-2.992-8.447-4.49
		c-0.111-0.059-0.215-0.144-0.323-0.217c-0.145,0-0.29,0-0.435,0c-1.038,0.568-2.074,1.147-3.115,1.703
		c-2.871,1.533-5.744,3.058-8.617,4.582c-0.284,0.15-0.532,0.337-0.624,0.804c-0.116,0.588,0.08,1.087,0.556,1.343
		c1.27,0.682,2.543,1.353,3.814,2.03c0.113,0.06,0.224,0.126,0.361,0.204c-0.095,0.556-0.23,1.094-0.272,1.647
		c-0.103,1.375-0.222,2.756-0.229,4.136c-0.026,5.016-0.014,10.032-0.002,15.048c0.001,0.421-0.086,0.618-0.346,0.792
		c-0.911,0.61-1.822,1.228-2.705,1.921c-0.511,0.401-0.841,1.083-1.048,1.906c-0.486,1.934-0.961,3.874-1.397,5.832
		c-0.281-1.023-0.567-2.044-0.859-3.063c-0.318-1.11-0.88-1.823-1.65-2.301c-1.556-0.967-3.112-1.934-4.666-2.905
		c-0.111-0.07-0.219-0.163-0.313-0.27c-0.555-0.626-1.105-1.26-1.658-1.89c-0.139-0.158-0.279-0.314-0.443-0.498
		c-0.067,0.109-0.117,0.204-0.177,0.286c-1.01,1.363-2.013,2.734-3.036,4.077c-0.248,0.325-0.341,0.618-0.283,1.1
		c0.279,2.315,0.524,4.637,0.78,6.956c0.228,2.065,0.46,4.129,0.679,6.196c0.016,0.148-0.021,0.341-0.085,0.463
		c-0.475,0.906-0.963,1.799-1.448,2.696c-0.16,0.295-0.221,0.296-0.378,0.005c-0.485-0.897-0.972-1.791-1.448-2.696
		c-0.064-0.123-0.105-0.314-0.09-0.461c0.177-1.689,0.367-3.375,0.554-5.062c0.313-2.829,0.623-5.659,0.942-8.487
		c0.021-0.185-0.015-0.294-0.106-0.416c-0.944-1.263-1.885-2.53-2.824-3.799c-0.204-0.275-0.396-0.565-0.599-0.855
		c-0.072,0.078-0.113,0.121-0.152,0.166c-0.648,0.739-1.294,1.481-1.945,2.215c-0.099,0.112-0.212,0.211-0.329,0.284
		c-1.56,0.976-3.122,1.947-4.683,2.917c-0.753,0.468-1.32,1.164-1.605,2.254c-0.235,0.895-0.519,1.765-0.762,2.656
		c-0.814,2.974-1.598,5.961-2.042,9.086c-0.135,0.952-0.246,1.912-0.138,2.887c0.057,0.514,0.191,0.963,0.59,1.161
		c9.882,0,19.765,0,29.647,0c0.001,0,0.001-0.001,0.002-0.001c8.939,0.001,17.878,0.001,26.818,0c0.581,0,0.83-0.294,0.937-1.159
		C58.92,55.974,58.751,54.601,58.565,53.243z M47.843,38.923c-2.389,1.519-3.913,4.151-4.483,7.942
		c-0.571-3.77-2.084-6.413-4.506-7.954c0.806-1.168,1.617-2.344,2.455-3.559c-0.304-0.26-0.559-0.455-0.796-0.686
		c-1.331-1.295-2.152-3.158-2.793-5.207c-0.551-1.764-0.874-3.628-1.11-5.524c-0.019-0.15-0.011-0.307-0.018-0.525
		c0.683-0.096,1.354-0.17,2.022-0.288c1.648-0.291,3.287-0.65,4.833-1.571c0.644-0.384,1.239-0.879,1.521-1.869
		c1.373,2.377,2.923,4.4,4.939,5.721c-0.849,3.88-1.86,7.629-4.432,9.861C46.26,36.477,47.055,37.705,47.843,38.923z"/>
</g>
<path display="none" fill="#FFFFFF" d="M209.295-70.695c-7.676,24.521-16.816,48.216-40.057,62.32
	c7.087,7.659,14.269,15.421,21.393,23.12c-21.59,9.599-35.367,26.238-40.524,50.193c-5.162-23.824-18.839-40.531-40.731-50.268
	c7.286-7.384,14.617-14.814,22.192-22.491c-2.747-1.646-5.049-2.875-7.194-4.334c-12.03-8.182-19.453-19.957-25.242-32.907
	c-4.983-11.147-7.9-22.927-10.029-34.912c-0.168-0.948-0.102-1.937-0.163-3.317c6.171-0.605,12.24-1.074,18.275-1.818
	c14.892-1.837,29.711-4.105,43.688-9.929c5.825-2.427,11.198-5.556,13.751-11.812C177.069-91.829,191.078-79.044,209.295-70.695z"/>
</svg>
