<?xml version="1.0" encoding="utf-8"?>
<!-- Generator: Adobe Illustrator 17.0.0, SVG Export Plug-In . SVG Version: 6.00 Build 0)  -->
<!DOCTYPE svg PUBLIC "-//W3C//DTD SVG 1.1//EN" "http://www.w3.org/Graphics/SVG/1.1/DTD/svg11.dtd">
<svg version="1.1" id="Capa_1" xmlns="http://www.w3.org/2000/svg" xmlns:xlink="http://www.w3.org/1999/xlink" x="0px" y="0px"
	 width="59.528px" height="59.528px" viewBox="0 0 59.528 59.528" enable-background="new 0 0 59.528 59.528" xml:space="preserve">
<g>
	<path fill="#F7931E" d="M58.374,19.006c-0.983,0.029-1.965,0.083-2.948,0.084c-8.039,0.007-16.079,0.014-24.118-0.013
		c-0.771-0.003-1.201,0.257-1.702,1.057c-1.639,2.613-3.402,5.116-5.188,7.588c-1.199,1.659-2.701,1.238-3.361-0.903
		c-0.465-1.509-0.858-3.056-1.212-4.609c-0.194-0.853-0.523-1.086-1.262-0.688c0.83,3.508,1.657,7.001,2.51,10.605
		c-4.844,0-9.555,0-14.408,0c0.792-3.604,1.563-7.106,2.329-10.592c-0.876-0.511-1.063,0.099-1.22,0.795
		c-0.734,3.246-1.473,6.49-2.225,9.799c-1.304,0-2.589,0-4.045,0c0.531-2.413,1.031-4.731,1.552-7.041
		c0.423-1.876,0.872-3.743,1.311-5.614c0.847-3.613,3.327-5.885,6.44-5.893c1.892-0.005,3.783-0.005,5.675,0
		c3.407,0.009,5.758,2.129,6.719,6.049c0.145,0.59,0.304,1.175,0.486,1.876c1.422-1.742,2.667-3.281,2.541-6.073
		c-0.217-4.788-0.046-9.601-0.038-14.403c0.394,0,0.788,0,1.182,0c0,5.189,0,10.378,0,15.567c0.131,0.026,0.262,0.051,0.392,0.077
		c0.074-0.476,0.208-0.952,0.212-1.429c0.047-4.738,0.073-9.477,0.105-14.215c10.063,0,20.126,0,30.271,0c0,5.326,0,10.653,0,15.98
		c-0.47-0.03-0.94-0.085-1.411-0.085c-8.55-0.005-17.099-0.004-25.649-0.004c-0.417,0-0.833,0-1.551,0
		c1.329-1.679,2.459-3.102,3.585-4.529c2.282-2.892,4.566-5.781,6.833-8.689c0.197-0.253,0.272-0.644,0.403-0.97
		c-0.117-0.068-0.234-0.136-0.351-0.204c-3.853,4.883-7.706,9.766-11.727,14.862c1.12,0.245,1.907,0.563,2.694,0.566
		c8.628,0.036,17.257,0.024,25.885,0.018c0.429,0,0.859-0.071,1.288-0.108C58.374,18.245,58.374,18.625,58.374,19.006z
		 M48.276,7.475c0.185-0.109,0.37-0.217,0.555-0.326c-0.056-1.412-0.112-2.824-0.168-4.236c-0.11-0.025-0.22-0.049-0.33-0.074
		c-0.582,1.01-1.164,2.02-1.758,3.051C47.322,6.439,48.47,5.535,48.276,7.475z M45.221,8.752c0,0.11,0,0.219,0.001,0.329
		c1.802,0,3.604,0,5.407,0c0-0.11,0-0.219-0.001-0.329C48.826,8.752,47.024,8.752,45.221,8.752z M48.18,12.119
		c0.203,0.565,0.648,1.223,0.519,1.548c-0.51,1.283-1.059-0.071-1.712-0.273c0.273,1.245,0.858,1.538,1.622,1.153
		c0.65-0.329,0.949-0.95,0.59-1.851c-0.112-0.281-0.007-0.687-0.119-0.967c-0.209-0.523-0.434-1.281-0.785-1.408
		c-0.347-0.126-0.858,0.407-1.453,0.737c0.828,0,1.297,0,1.767,0C48.429,11.5,48.251,11.942,48.18,12.119z M40.164,11.077
		c0.15-0.006,0.299-0.013,0.449-0.019c0.454-1.399,0.907-2.798,1.361-4.197c-0.115-0.067-0.23-0.135-0.346-0.202
		c-0.404,1.126-0.809,2.253-1.273,3.547c-0.447-1.353-0.809-2.451-1.172-3.549c-0.133,0.075-0.267,0.15-0.4,0.225
		C39.244,8.281,39.704,9.679,40.164,11.077z M52.228,7.819c0.126-0.026,0.252-0.053,0.378-0.079
		c0.094,0.929,0.188,1.858,0.282,2.786c0.066-0.008,0.132-0.015,0.199-0.023c0.13-0.954,0.259-1.907,0.391-2.874
		c-0.688-0.044-1.68-0.922-2.613,0.387c0.321,0,0.551,0,0.916,0c0,0.882,0,1.68,0,2.479c0.094,0.001,0.189,0.002,0.283,0.003
		C52.119,9.604,52.174,8.711,52.228,7.819z M54.562,10.491c0.605-0.935-0.172-2.47,1.126-3.093
		c-0.409,0.071-0.817,0.141-1.126,0.195C54.562,8.645,54.562,9.568,54.562,10.491z"/>
	<path fill="#F7931E" d="M0.434,57.53c0-6.373,0-12.746,0-19.12c0.195-0.024,0.39-0.07,0.585-0.07
		c6.492-0.004,12.983-0.004,19.475,0c0.223,0,0.446,0.045,0.673,0.07c0,6.435,0,12.765,0,19.12
		C14.197,57.53,7.315,57.53,0.434,57.53z"/>
	<path fill="#F7931E" d="M0.434,36.698c7.432,0,14.865,0,22.467,0c0,7.663,0,15.246,0,22.829c-7.489,0-14.978,0-22.467,0
		c0-0.576,0-1.144,0-1.712c7.031,0,14.061,0,21.156,0c0-6.596,0-13.075,0-19.69c-7.093,0-14.125,0-21.156,0
		C0.434,37.65,0.434,37.174,0.434,36.698z"/>
	<path fill="#F7931E" d="M14.623,1.028c1.726,0.772,3.113,1.936,3.593,4.263c0.589,2.857-0.687,5.717-3.021,6.667
		c-2.358,0.96-4.888-0.454-5.808-3.246c-0.89-2.702,0.128-5.859,2.298-7.113c0.345-0.2,0.698-0.381,1.047-0.571
		C13.362,1.028,13.993,1.028,14.623,1.028z"/>
	<path fill="#F7931E" d="M0.434,33.559c8.337,0,16.674,0,25.082,0c0,0.859,0,1.6,0,2.568c-8.354,0-16.718,0-25.082,0
		C0.434,35.271,0.434,34.415,0.434,33.559z"/>
	<path fill="#FFFFFF" d="M58.374,17.864c-0.429,0.038-0.859,0.108-1.288,0.108c-8.628,0.006-17.257,0.018-25.885-0.018
		c-0.788-0.003-1.575-0.322-2.694-0.566c4.021-5.096,7.874-9.979,11.727-14.862c0.117,0.068,0.234,0.136,0.351,0.204
		c-0.131,0.327-0.206,0.718-0.403,0.97c-2.267,2.909-4.552,5.797-6.833,8.689c-1.126,1.427-2.256,2.85-3.585,4.529
		c0.718,0,1.134,0,1.551,0c8.55,0,17.099-0.001,25.649,0.004c0.47,0,0.94,0.056,1.411,0.085
		C58.374,17.293,58.374,17.579,58.374,17.864z"/>
	<path fill="#FFFFFF" d="M0.434,38.125c7.032,0,14.063,0,21.156,0c0,6.615,0,13.094,0,19.69c-7.095,0-14.126,0-21.156,0
		c0-0.095,0-0.19,0-0.285c6.881,0,13.763,0,20.732,0c0-6.355,0-12.685,0-19.12c-0.227-0.025-0.45-0.07-0.673-0.07
		c-6.492-0.004-12.983-0.004-19.475,0c-0.195,0-0.39,0.046-0.585,0.07C0.434,38.315,0.434,38.22,0.434,38.125z"/>
	<path fill="#FFFFFF" d="M28.103,1.028c-0.032,4.738-0.058,9.477-0.105,14.215c-0.005,0.477-0.138,0.953-0.212,1.429
		c-0.131-0.026-0.262-0.051-0.392-0.077c0-5.189,0-10.378,0-15.567C27.63,1.028,27.867,1.028,28.103,1.028z"/>
	<path fill="#FFFFFF" d="M48.276,7.475c0.194-1.941-0.954-1.036-1.701-1.585c0.594-1.031,1.176-2.041,1.758-3.051
		c0.11,0.025,0.22,0.049,0.33,0.074c0.056,1.412,0.112,2.824,0.168,4.236C48.646,7.258,48.461,7.367,48.276,7.475z"/>
	<path fill="#FFFFFF" d="M45.221,8.752c1.802,0,3.604,0,5.407,0c0,0.11,0,0.219,0.001,0.329c-1.802,0-3.604,0-5.407,0
		C45.222,8.971,45.222,8.862,45.221,8.752z"/>
	<path fill="#FFFFFF" d="M48.18,12.119c0.072-0.178,0.25-0.62,0.428-1.062c-0.469,0-0.939,0-1.767,0
		c0.595-0.33,1.106-0.863,1.453-0.737c0.351,0.127,0.576,0.885,0.785,1.408c0.112,0.28,0.008,0.687,0.119,0.967
		c0.359,0.901,0.06,1.522-0.59,1.851c-0.763,0.386-1.349,0.093-1.622-1.153c0.653,0.201,1.203,1.555,1.712,0.273
		C48.828,13.342,48.383,12.684,48.18,12.119z"/>
	<path fill="#FFFFFF" d="M40.164,11.077c-0.46-1.398-0.921-2.796-1.381-4.194c0.133-0.075,0.267-0.15,0.4-0.225
		c0.363,1.098,0.725,2.196,1.172,3.549c0.465-1.294,0.869-2.421,1.273-3.547c0.115,0.067,0.23,0.135,0.346,0.202
		c-0.454,1.399-0.907,2.798-1.361,4.197C40.463,11.064,40.314,11.071,40.164,11.077z"/>
	<path fill="#FFFFFF" d="M52.228,7.819c-0.055,0.893-0.109,1.786-0.164,2.678c-0.094-0.001-0.189-0.002-0.283-0.003
		c0-0.798,0-1.597,0-2.479c-0.365,0-0.595,0-0.916,0c0.933-1.308,1.925-0.431,2.613-0.387c-0.132,0.967-0.261,1.921-0.391,2.874
		c-0.066,0.008-0.132,0.015-0.199,0.023c-0.094-0.929-0.188-1.858-0.282-2.786C52.481,7.766,52.354,7.792,52.228,7.819z"/>
	<path fill="#FFFFFF" d="M54.562,10.491c0-0.923,0-1.846,0-2.899c0.309-0.053,0.718-0.124,1.126-0.195
		C54.39,8.021,55.167,9.557,54.562,10.491z"/>
</g>
</svg>
